<svg width="100%" height="100%" viewBox="0 0 10 10" version="1.1" xmlns="http://www.w3.org/2000/svg" preserveAspectRatio="none"> 
    <path d="M-0,5C-0,5 0.467,5.746 1.2,6.701C1.698,7.35 2.32,8.191 3,8.842C3.447,9.27 3.92,9.626 4.4,9.857C4.599,9.953 4.8,10.007 5,9.999C5.268,9.989 5.535,9.899 5.8,9.749C6.211,9.516 6.615,9.134 7,8.763C7.429,8.35 7.834,7.888 8.2,7.438C9.268,6.125 10,5 10,5C10,5 9.268,3.875 8.2,2.562C7.834,2.112 7.429,1.65 7,1.237C6.615,0.866 6.211,0.484 5.8,0.251C5.535,0.101 5.268,0.011 5,0.001C4.8,-0.007 4.599,0.047 4.4,0.143C3.92,0.374 3.447,0.73 3,1.158C2.32,1.809 1.698,2.65 1.2,3.299C0.467,4.254 -0,5 -0,5Z"/>
</svg>
