<?xml version="1.0" encoding="UTF-8" standalone="no"?>
<!DOCTYPE svg PUBLIC "-//W3C//DTD SVG 1.1//EN" "http://www.w3.org/Graphics/SVG/1.1/DTD/svg11.dtd">
<svg width="2550px" height="3300px" viewBox="0 0 2550 3300" version="1.1" xmlns="http://www.w3.org/2000/svg" xml:space="preserve" style="fill-rule:evenodd;clip-rule:evenodd;stroke-linejoin:round;stroke-miterlimit:2;">
    <style>
        use.border-primary, path.border-primary {
            fill:var(--primary-color);
        }
        use.border-secondary, path.border-secondary {
            fill:var(--secondary-color);
        }

        use[href*="Deco-Special"] {
            display:none;
        }
        use[href*="Deco"] {
            display:none !important;
        }
        symbol {  overflow:visible; }
        
        use[href="#Border-Deco-Special-Griffon"] {
            display:inline !important;
        }
    </style>
    <defs> 
        <symbol id="Border-A">
            <path d="M200.729,504.976C193.584,497.14 187.309,490.831 176.685,480.474C166.577,470.621 149.108,452.386 149.108,452.386C140.688,458.12 133.546,468.573 131.712,479.137C138.858,486.974 144.248,492.495 154.871,502.851C164.98,512.705 176.649,524.483 183.448,531.939C196.042,518.945 199.024,511.586 200.729,504.976Z"/>
            <path fill="black" d="M200.729,504.976C193.584,497.14 187.309,490.831 176.685,480.474C166.577,470.621 149.108,452.386 149.108,452.386C140.688,458.12 133.546,468.573 131.712,479.137C138.858,486.974 144.248,492.495 154.871,502.851C164.98,512.705 176.649,524.483 183.448,531.939C196.042,518.945 199.024,511.586 200.729,504.976ZM191.248,507.077C189.881,510.508 187.626,514.417 183.34,519.562C176.686,512.621 168.279,504.2 160.73,496.842C151.803,488.14 146.626,482.904 140.929,476.762C142.453,472.039 145.195,467.53 148.554,463.907C154.577,470.138 164.25,480.072 170.827,486.484C179.651,495.086 185.433,500.853 191.248,507.077L191.248,507.077Z"/>
        </symbol>
        <symbol id="Border-B">
            <path d="M102.258,527.275C109.854,515.757 117.598,505.432 125.587,497.055C125.506,495.314 125.472,493.521 125.472,491.663C125.472,469.284 132.748,457.77 158.814,430.512L162.74,426.586L140.061,405.082L136.229,408.914C101.536,445.192 94.222,461.878 94.222,491.663C94.222,512.139 98.294,522.261 102.258,527.275Z"/>
            <path fill="black" d="M102.258,527.275C109.854,515.757 117.598,505.432 125.587,497.055C125.506,495.314 125.472,493.521 125.472,491.663C125.472,469.284 132.748,457.77 158.814,430.512L162.74,426.586L140.061,405.082L136.229,408.914C101.536,445.192 94.222,461.878 94.222,491.663C94.222,512.139 98.294,522.261 102.258,527.275ZM150.765,426.798C124.017,455.017 117.079,467.867 117.079,491.663C117.079,492.405 117.085,493.138 117.096,493.862C112.692,498.71 108.353,504.109 104.071,509.945L104.071,509.946C103.166,505.289 102.614,499.313 102.614,491.663C102.614,464.466 109.621,449.216 140.271,416.846L150.765,426.798Z"/>
        </symbol>
        <symbol id="Border-C1">
            <path d="M195.46,483.275C209.851,468.825 244.362,433.84 244.362,433.84C236.732,431.328 230.211,428.804 218.493,416.107C205.163,429.7 188.483,446.551 174.151,460.942L195.46,483.275Z" />
            <path fill="black" d="M195.46,483.275C209.851,468.825 244.362,433.84 244.362,433.84C236.732,431.328 230.211,428.804 218.493,416.107C205.163,429.7 188.483,446.551 174.151,460.942L195.46,483.275ZM195.578,471.4L185.717,461.066C196.534,450.185 208.192,438.405 218.496,427.928C222.82,432.018 226.488,434.749 229.866,436.73C220.606,446.11 205.924,460.973 195.578,471.4L195.578,471.4Z"/>
        </symbol>
        <symbol id="Border-C2">
            <path d="M128.929,594.196C128.929,594.196 124.046,583.466 124.046,575.723C124.046,546.632 124.105,524.006 128.929,507.878C143.493,506.604 172.051,503.879 200.616,505.95C222.682,507.55 234.761,513.826 261.193,539.723L282.234,517.125C247.024,482.628 229.793,476.336 200.816,476.336C155.936,476.336 116.119,480.825 116.119,480.825L104.651,482.116C104.651,482.116 102.057,486.405 100.417,498.351C98.1,515.227 95.532,538.307 95.532,583.945C95.532,595.919 95.158,602.1 104.378,626.513C111.38,616.068 117.877,602.86 128.929,594.196Z" />
            <path fill="black" d="M128.929,594.196C128.929,594.196 124.046,583.466 124.046,575.723C124.046,546.632 124.105,524.006 128.929,507.878C143.493,506.604 172.051,503.879 200.616,505.95C222.682,507.55 234.761,513.826 261.193,539.723L282.234,517.125C247.024,482.628 229.793,476.336 200.816,476.336C155.936,476.336 116.119,480.825 116.119,480.825L104.651,482.116C104.651,482.116 102.057,486.405 100.417,498.351C98.1,515.227 95.532,538.307 95.532,583.945C95.532,595.919 95.158,602.1 104.378,626.513C111.38,616.068 117.877,602.86 128.929,594.196ZM119.205,591.729C114.338,596.533 110.31,602.109 106.631,607.72C103.573,597.101 103.714,591.905 103.714,583.945C103.714,538.932 106.233,516.167 108.518,499.521C109.118,495.153 109.827,492.027 110.433,489.908L117.013,489.167C117.013,489.167 156.409,484.728 200.816,484.728C226.161,484.728 241.703,490.247 270.613,517.455C270.613,517.455 260.875,527.914 260.875,527.914C236.316,504.781 223.304,499.182 201.193,497.579C172.121,495.471 143.056,498.219 128.234,499.516C124.907,499.807 122.087,502.142 121.108,505.416C116.107,522.133 115.865,545.57 115.865,575.723C115.865,580.892 117.644,587.194 119.205,591.729Z"/>
        </symbol>
        <symbol id="Border-C3">
            <path d="M129.002,505.18C129.749,504.418 131.733,502.408 132.508,501.626C137.653,496.445 143.436,490.822 149.935,484.646C151.465,483.192 160.549,474.245 169.194,465.716L191.423,487.127C182.593,495.839 173.312,504.974 171.748,506.46C164.565,513.286 148.263,529.22 142.788,534.803C136.96,526.514 130.15,521.207 129.002,505.18Z" />
            <path fill="black" d="M129.002,505.18C129.749,504.418 131.733,502.408 132.508,501.626C137.653,496.445 143.436,490.822 149.935,484.646C151.465,483.192 160.549,474.245 169.194,465.716L191.423,487.127C182.593,495.839 173.312,504.974 171.748,506.46C164.565,513.286 148.263,529.22 142.788,534.803C136.96,526.514 130.15,521.207 129.002,505.18ZM137.76,508.103C138.741,514.525 140.997,518.673 143.61,522.273C150.832,515.14 160.713,505.522 165.89,500.602C167.095,499.457 172.91,493.742 179.553,487.195C179.553,487.195 169.264,477.285 169.264,477.285C162.71,483.744 156.983,489.374 155.793,490.505C149.359,496.619 143.632,502.186 138.539,507.316L137.76,508.103Z"/>  
        </symbol>
        <symbol id="Border-C4">
            <path d="M204.148,694.398C196.929,686.439 185.828,674.947 175.92,665.039C166.589,655.708 163.386,644.921 162.407,637.012C165.231,636.867 170.414,636.809 173.716,636.931C182.951,627.459 199.653,611.49 199.653,611.49C199.653,611.49 199.204,611.027 195.044,608.848C184.019,603.073 158.644,605.428 148.6,606.4C144.175,606.828 134.523,608.014 134.523,608.014C134.523,608.014 132.643,614.617 132.643,620.641C132.643,634.089 130.853,662.998 154.656,687.416C164.16,696.92 174.92,708.049 181.844,715.684L204.148,694.398Z" />
            <path fill="black" d="M204.148,694.398C196.929,686.439 185.828,674.947 175.92,665.039C166.589,655.708 163.386,644.921 162.407,637.012C165.231,636.867 170.414,636.809 173.716,636.931C182.951,627.459 199.653,611.49 199.653,611.49C199.653,611.49 199.204,611.027 195.044,608.848C184.019,603.073 158.644,605.428 148.6,606.4C144.175,606.828 134.523,608.014 134.523,608.014C134.523,608.014 132.643,614.617 132.643,620.641C132.643,634.089 130.853,662.998 154.656,687.416C164.16,696.92 174.92,708.049 181.844,715.684L204.148,694.398ZM184.74,614.356C180.214,618.748 174.819,624.03 170.411,628.476C167.407,628.46 164.091,628.522 161.996,628.63C159.721,628.748 157.597,629.833 156.135,631.624C154.672,633.416 154.004,635.751 154.291,638.069C155.443,647.378 159.227,660.066 170.209,671.049C177.706,678.545 185.894,686.958 192.528,694.025L182.203,703.879C175.709,696.967 167.696,688.737 160.408,681.448C138.803,659.257 140.825,632.861 140.825,620.641C140.825,618.956 141.008,617.215 141.249,615.656C144.071,615.324 147.299,614.955 149.368,614.755C155.154,614.196 166.24,613.139 176.47,613.596C179.365,613.725 182.191,613.938 184.74,614.356Z"/>
        </symbol>
        <symbol id="Border-D1">
            <path d="M252.223,290.253C203.828,200.154 174.803,165.392 121.506,115.664C109.318,104.291 92.468,87.05 92.468,87.05C84.525,92.459 77.788,102.32 76.058,112.285C82.799,119.677 88.778,124.656 98.905,134.655C115.26,150.803 157.673,178.973 235.921,315.687C240.451,308.415 245.758,300.106 252.223,290.253Z" />
            <path fill="black" d="M252.223,290.253C203.828,200.154 174.803,165.392 121.506,115.664C109.318,104.291 92.468,87.05 92.468,87.05C84.525,92.459 77.788,102.32 76.058,112.285C82.799,119.677 88.778,124.656 98.905,134.655C115.26,150.803 157.673,178.973 235.921,315.687C240.451,308.415 245.758,300.106 252.223,290.253ZM243.019,289.862C240.59,293.587 238.332,297.084 236.222,300.383C161.42,172.161 120.513,144.865 104.467,129.021C95.92,120.582 90.36,115.773 84.769,109.995C86.218,105.53 88.821,101.271 92.004,97.856C97.998,103.901 108.059,113.944 116.105,121.452C167.948,169.824 196.524,203.886 243.019,289.862Z"/>
            </symbol>
        <symbol id="Border-D2">
            <path d="M286.635,257.131C289.883,253.883 313.959,246.375 317.324,246.375C317.324,246.375 337.357,282.943 359.769,327.345C339.049,374.283 302.682,418.227 302.682,418.227C302.682,418.227 269.299,391.293 257.12,368.015L271.422,339.76C271.422,339.76 283.748,368.448 298.633,379.544C298.633,379.544 319.472,350.044 325.426,328.123C320.701,316.69 312.678,296.103 304.078,280.901L299.36,280.125C294.092,268.688 286.635,257.131 286.635,257.131Z" />
            <path fill="black" d="M286.635,257.131C289.883,253.883 313.959,246.375 317.324,246.375C317.324,246.375 337.357,282.943 359.769,327.345C339.049,374.283 302.682,418.227 302.682,418.227C302.682,418.227 269.299,391.293 257.12,368.015L271.422,339.76C271.422,339.76 283.748,368.448 298.633,379.544C298.633,379.544 319.472,350.044 325.426,328.123C320.701,316.69 312.678,296.103 304.078,280.901L299.36,280.125C294.092,268.688 286.635,257.131 286.635,257.131ZM313.262,255.48C319.362,266.748 334.392,294.759 350.998,327.543C335.293,361.766 311.729,393.795 301.554,406.92C292.41,398.95 275.246,382.956 266.094,367.816C266.094,367.815 271.451,357.233 271.451,357.233C276.952,366.992 285.044,379.288 293.901,385.891C295.613,387.167 297.767,387.697 299.875,387.362C301.984,387.027 303.867,385.855 305.099,384.112C305.099,384.112 326.829,353.16 333.066,330.198C333.525,328.509 333.411,326.716 332.742,325.099C327.928,313.452 319.73,292.49 310.968,277.003C309.788,274.917 307.727,273.478 305.363,273.09L304.715,272.983C302.426,268.374 299.954,263.945 297.898,260.42C298.79,260.053 299.696,259.699 300.552,259.391C304.404,258.005 309.605,256.494 313.262,255.48Z"/>
        </symbol>
        <symbol id="Border-D3">
            <path d="M271.422,400.837C221.435,491.468 192.587,526.17 140.706,575.427C137.261,578.697 131.381,584.384 127.649,588.043L105.577,568.605C108.37,565.966 114.508,560.062 118.104,556.436C135.158,539.238 178.196,510.132 255.121,375.403C259.65,382.675 264.957,390.984 271.422,400.837Z" />
            <path fill="black" d="M271.422,400.837C221.435,491.468 192.587,526.17 140.706,575.427C137.261,578.697 131.381,584.384 127.649,588.043L105.577,568.605C108.37,565.966 114.508,560.062 118.104,556.436C135.158,539.238 178.196,510.132 255.121,375.403C259.65,382.675 264.957,390.984 271.422,400.837ZM262.186,401.179C214.161,487.715 185.757,521.738 135.255,569.685C133.178,571.657 130.223,574.501 127.378,577.256C127.379,577.256 117.274,568.357 117.274,568.357C119.577,566.126 121.955,563.796 123.725,562.01C140.444,545.151 181.91,516.954 255.428,390.718C257.527,394 259.772,397.477 262.186,401.179Z"/>
        </symbol>
        <symbol id="Border-D4">
            <path d="M294.654,366.015C289.086,354.252 283.066,340.95 276.715,332.068C276.715,332.068 281.782,326.924 282.957,324.259C267.137,286.833 199.047,172.838 150.206,123.997C146.503,120.293 146.411,120.387 146.411,120.387L166.29,100.573C229.997,166.407 300.307,278.095 314.324,324.838C311.611,343.962 299.02,361.858 294.654,366.015Z" />
            <path fill="black" d="M294.654,366.015C289.086,354.252 283.066,340.95 276.715,332.068C276.715,332.068 281.782,326.924 282.957,324.259C267.137,286.833 199.047,172.838 150.206,123.997C146.503,120.293 146.411,120.387 146.411,120.387L166.29,100.573C229.997,166.407 300.307,278.095 314.324,324.838C311.611,343.962 299.02,361.858 294.654,366.015ZM157.695,120.318L166.141,111.9C226.686,176.577 291.688,279.77 306.217,325.417C304.53,335.027 300.218,344.182 296.196,350.81L296.196,350.809C293.107,344.421 289.902,338.127 286.612,332.729C288.107,330.879 289.572,328.879 290.2,327.454C291.081,325.458 291.098,323.187 290.249,321.177C274.433,283.76 207.005,170.776 157.695,120.318Z"/>
        </symbol>
        <symbol id="Border-D5">
            <path d="M31.039,182.302C37.628,172.879 53.09,153.16 61.081,144.119C61.081,144.119 60.874,139.815 60.874,134.384C60.874,113.275 74.089,92.129 98.677,66.417L102.38,62.714L80.988,42.428L77.373,46.043C44.647,80.265 31.396,106.288 31.396,134.384C31.396,153.7 31.039,182.302 31.039,182.302Z" />
            <path fill="black" d="M31.039,182.302C37.628,172.879 53.09,153.16 61.081,144.119C61.081,144.119 60.874,139.815 60.874,134.384C60.874,113.275 74.089,92.129 98.677,66.417L102.38,62.714L80.988,42.428L77.373,46.043C44.647,80.265 31.396,106.288 31.396,134.384C31.396,153.7 31.039,182.302 31.039,182.302ZM81.188,53.529L91.089,62.917C65.879,89.691 52.957,112.227 52.957,134.384C52.957,137.068 53.006,139.486 53.057,141.285C49.141,145.862 44.1,152.082 39.197,158.324L39.197,158.324C39.261,150.385 39.312,141.717 39.312,134.384C39.312,108.495 51.759,84.733 81.188,53.529Z"/>
        </symbol>
        <symbol id="Border-D6">
            <path d="M32.848,389.829C32.848,410.676 14.282,435.865 11.251,460.065C4.461,514.275 38.223,550.346 38.223,550.346L60.402,524.642C53.652,513.958 26.526,495.002 45.93,452.478C56.737,428.796 61.544,407.303 62.305,374.872C62.321,374.182 62.326,253.656 62.326,252.964C62.326,233.648 62.682,205.046 62.682,205.046C56.094,214.469 32.848,257.638 32.848,263.069L32.848,389.829Z" />
            <path fill="black" d="M32.848,389.829C32.848,410.676 14.282,435.865 11.251,460.065C4.461,514.275 38.223,550.346 38.223,550.346L60.402,524.642C53.652,513.958 26.526,495.002 45.93,452.478C56.737,428.796 61.544,407.303 62.305,374.872C62.321,374.182 62.326,253.656 62.326,252.964C62.326,233.648 62.682,205.046 62.682,205.046C56.094,214.469 32.848,257.638 32.848,263.069L32.848,389.829ZM40.765,263.711C41.125,262.77 43.062,257.781 45.188,253.339C47.782,247.918 51.098,241.446 54.479,235.107C54.438,241.23 54.409,247.472 54.409,252.964C54.409,253.655 54.406,373.998 54.39,374.687C53.66,405.816 49.101,426.459 38.728,449.191C19.89,490.475 40.118,511.739 50.275,524.261C50.275,524.261 38.508,537.897 38.508,537.897C29.861,525.549 14.507,497.768 19.106,461.049C20.536,449.631 25.745,438.017 30.483,426.761C35.948,413.774 40.764,401.177 40.765,389.829L40.765,263.711Z"/>
        </symbol>
        <symbol id="Border-D7">
            <path d="M0,369.111C0,394.065 16.058,429.381 16.058,429.381L27.409,381.689C27.409,381.689 27.301,292.05 27.301,290.297C27.301,215.834 74.089,178.93 98.677,153.218L102.38,149.515L80.988,129.229L77.373,132.844C44.647,167.066 0,220.916 0,288.846L0,369.111Z" />
            <path fill="black" d="M0,369.111C0,394.065 16.058,429.381 16.058,429.381L27.409,381.689C27.409,381.689 27.301,292.05 27.301,290.297C27.301,215.834 74.089,178.93 98.677,153.218L102.38,149.515L80.988,129.229L77.373,132.844C44.647,167.066 0,220.916 0,288.846L0,369.111ZM81.184,140.326L91.067,149.697C65.146,176.316 19.384,214.869 19.384,290.297C19.384,291.945 19.48,371.234 19.491,380.764C19.491,380.764 14.304,402.556 14.304,402.556C10.941,392 7.917,379.594 7.917,369.111L7.917,288.846C7.917,224.522 49.746,173.463 81.184,140.326Z"/>
        </symbol>
        <symbol id="Border-D8">
            <path d="M129.649,524.642C122.908,517.25 94.811,494.698 85.63,484.135C72.285,468.784 57.435,440.145 57.435,440.145C49.695,454.929 48.628,461.071 46.254,472.149C52.884,486.923 60.652,498.093 70.673,507.863C80.208,517.158 104.026,540.144 110.44,547.177C117.302,540.843 124.548,533.884 129.649,524.642Z" />
            <path fill="black" d="M129.649,524.642C122.908,517.25 94.811,494.698 85.63,484.135C72.285,468.784 57.435,440.145 57.435,440.145C49.695,454.929 48.628,461.071 46.254,472.149C52.884,486.923 60.652,498.093 70.673,507.863C80.208,517.158 104.026,540.144 110.44,547.177C117.302,540.843 124.548,533.884 129.649,524.642ZM119.57,525.818C116.888,529.603 113.83,532.941 110.697,536.035C100.954,526.184 83.927,509.727 76.199,502.194C67.397,493.613 60.483,483.857 54.545,471.233C55.581,466.372 56.467,462.402 58.152,457.714C63.895,467.57 72.019,480.545 79.655,489.329C87.514,498.371 109.182,516.181 119.57,525.818L119.57,525.818Z"/>
        </symbol>
        <symbol id="Border-E1">
            <path d="M839.826,3129.66C839.826,3129.66 864.602,3097.88 873.45,3087.86C882.298,3077.85 914.507,3069.41 919.164,3095.02C923.821,3120.64 923.588,3148.04 923.588,3148.04C923.588,3148.04 893.449,3153.16 877.084,3146.87C877.084,3146.87 895.646,3126.78 897.642,3122.66C899.638,3118.53 892.586,3108.55 891.388,3119.33C883.405,3129.18 868.11,3146.74 868.11,3146.74C858.867,3143.64 849.432,3137.85 839.826,3129.66Z" />
            <path fill="black" d="M839.826,3129.66C839.826,3129.66 864.602,3097.88 873.45,3087.86C882.298,3077.85 914.507,3069.41 919.164,3095.02C923.821,3120.64 923.588,3148.04 923.588,3148.04C923.588,3148.04 893.449,3153.16 877.084,3146.87C877.084,3146.87 895.646,3126.78 897.642,3122.66C899.638,3118.53 892.586,3108.55 891.388,3119.33C883.405,3129.18 868.11,3146.74 868.11,3146.74C858.867,3143.64 849.432,3137.85 839.826,3129.66ZM851.415,3128.3C859.075,3118.55 873.398,3100.44 879.663,3093.35C882.964,3089.62 890.747,3086.49 898.015,3086.37C901.606,3086.32 905.17,3086.97 907.684,3089.42C909.344,3091.04 910.44,3093.39 911.006,3096.51C914.095,3113.5 914.966,3131.3 915.208,3140.87C909.422,3141.55 900.875,3142.24 892.816,3141.64C898.18,3135.49 903.996,3128.56 905.106,3126.27C906.187,3124.03 906.574,3121.2 906.044,3118.28C905.468,3115.1 903.767,3111.85 901.829,3109.8C898.788,3106.6 895.026,3105.74 891.915,3106.41C889.386,3106.95 885.169,3108.89 883.589,3115.78C878.144,3122.41 870.306,3131.53 865.682,3136.88C860.975,3134.76 856.224,3131.87 851.415,3128.3L851.415,3128.3Z"/>
        </symbol>
        <symbol id="Border-E2">
            <path d="M810.331,3117.93C810.331,3117.93 865.624,3177.35 930.384,3160.98C933.659,3115.86 929.089,3085.36 920.721,3078.08C912.353,3070.8 880.594,3067.89 861.675,3078.08L834.335,3055.47C834.335,3055.47 859.773,3043.77 891.426,3043.77C923.079,3043.77 940.389,3050.19 947.12,3056.93C953.851,3063.66 962.807,3076.16 962.807,3125.76C962.807,3175.37 960.582,3193.36 960.582,3193.36C960.582,3193.36 910.305,3206.35 867.204,3192.92C818.148,3177.64 786.319,3140.25 786.319,3140.25L810.331,3117.93Z" />
            <path fill="black" d="M810.331,3117.93C810.331,3117.93 865.624,3177.35 930.384,3160.98C933.659,3115.86 929.089,3085.36 920.721,3078.08C912.353,3070.8 880.594,3067.89 861.675,3078.08L834.335,3055.47C834.335,3055.47 859.773,3043.77 891.426,3043.77C923.079,3043.77 940.389,3050.19 947.12,3056.93C953.851,3063.66 962.807,3076.16 962.807,3125.76C962.807,3175.37 960.582,3193.36 960.582,3193.36C960.582,3193.36 910.305,3206.35 867.204,3192.92C818.148,3177.64 786.319,3140.25 786.319,3140.25L810.331,3117.93ZM810.243,3129.33C826.919,3144.45 876.399,3183.18 932.416,3169.02L938.22,3167.55L938.654,3161.58C941.039,3128.72 939.271,3103.32 935.101,3088.43C932.807,3080.24 929.515,3074.74 926.162,3071.82C921.988,3068.19 913.309,3064.95 902.694,3063.76C890.225,3062.36 875.057,3063.52 862.938,3068.37C862.938,3068.37 850.785,3058.32 850.785,3058.32C860.601,3055.35 875.139,3052.06 891.426,3052.06C919.619,3052.06 935.262,3056.79 941.257,3062.79C947.392,3068.92 954.516,3080.55 954.516,3125.76C954.516,3159.16 953.505,3178.01 952.865,3186.59C939.036,3189.4 902.204,3195.14 869.67,3185.01C834.611,3174.09 808.783,3151.32 798.078,3140.64L810.243,3129.33Z"/>
        </symbol>
        <symbol id="Border-F1">
            <path d="M200.729,504.976C193.584,497.14 187.309,490.831 176.685,480.474C166.577,470.621 149.108,452.386 149.108,452.386C140.688,458.12 133.546,468.573 131.712,479.137C138.858,486.974 144.248,492.495 154.871,502.851C164.98,512.705 175.385,523.471 182.184,530.927C194.777,517.934 199.024,511.586 200.729,504.976Z" />
            <path fill="black" d="M200.729,504.976C193.584,497.14 187.309,490.831 176.685,480.474C166.577,470.621 149.108,452.386 149.108,452.386C140.688,458.12 133.546,468.573 131.712,479.137C138.858,486.974 144.248,492.495 154.871,502.851C164.98,512.705 175.385,523.471 182.184,530.927C194.777,517.934 199.024,511.586 200.729,504.976ZM191.086,506.904C189.471,510.139 186.76,513.689 182.231,518.659C175.95,512.021 168.259,504.181 160.73,496.842C151.803,488.14 146.626,482.904 140.929,476.762C142.453,472.039 145.195,467.53 148.554,463.907C154.577,470.138 164.25,480.072 170.827,486.484C179.569,495.006 185.325,500.746 191.086,506.904L191.086,506.904Z"/>
        </symbol>
        <symbol id="Border-F2">
            <path d="M832.598,3106.77C832.22,3108.47 872.296,3142.93 883.04,3148.24C897.33,3155.31 922.101,3152.87 922.101,3152.87C922.101,3152.87 922.785,3145.9 923.382,3133.75C923.913,3122.96 923.458,3112.2 921.942,3103.42C919.642,3090.11 900.065,3078.13 888.345,3081.55C881.657,3083.51 875.758,3091.86 871.973,3096.31C871.973,3096.31 884.387,3106.73 891.272,3112.3L895.343,3112.68C895.343,3112.68 898.147,3113.15 898.151,3114.18C898.157,3115.86 896.954,3116.67 895.548,3117.04C889.696,3118.61 853.03,3089.55 853.03,3089.55C845.467,3094.89 838.566,3100.41 832.598,3106.77Z" />
            <path fill="black" d="M832.598,3106.77C832.22,3108.47 872.296,3142.93 883.04,3148.24C897.33,3155.31 922.101,3152.87 922.101,3152.87C922.101,3152.87 922.785,3145.9 923.382,3133.75C923.913,3122.96 923.458,3112.2 921.942,3103.42C919.642,3090.11 900.065,3078.13 888.345,3081.55C881.657,3083.51 875.758,3091.86 871.973,3096.31C871.973,3096.31 884.387,3106.73 891.272,3112.3L895.343,3112.68C895.343,3112.68 898.147,3113.15 898.151,3114.18C898.157,3115.86 896.954,3116.67 895.548,3117.04C889.696,3118.61 853.03,3089.55 853.03,3089.55C845.467,3094.89 838.566,3100.41 832.598,3106.77ZM844.239,3106.98C855.101,3117.04 878.943,3136.97 886.716,3140.81C894.872,3144.84 906.904,3145.26 914.409,3145.04C914.621,3142.02 914.868,3138.09 915.101,3133.35C915.6,3123.2 915.197,3113.09 913.771,3104.83C912.975,3100.22 908.826,3096.14 904.224,3093.21C899.747,3090.36 894.616,3088.36 890.669,3089.51C888.583,3090.12 886.778,3091.95 885.041,3093.75C884.563,3094.24 884.097,3094.75 883.643,3095.26C887.021,3098.07 891.167,3101.51 894.551,3104.28C894.551,3104.28 896.415,3104.45 896.415,3104.45L896.706,3104.5C896.706,3104.5 901.449,3105.7 903.415,3107.47C905.519,3109.37 906.434,3111.73 906.442,3114.15C906.464,3120.2 902.772,3123.69 897.695,3125.05C896.372,3125.41 894.629,3125.56 892.525,3125.13C890.676,3124.76 888.037,3123.74 884.962,3122.09C875.773,3117.17 860.665,3105.89 852.873,3099.92C849.853,3102.19 846.966,3104.53 844.239,3106.98Z"/>
        </symbol>
        <symbol id="Border-F3">
            <path d="M854.532,3182.07L878.162,3159.48C894.246,3164.61 910.584,3165.98 930.384,3160.98C933.659,3115.86 927.44,3088.24 919.072,3080.96C913.083,3075.75 862.777,3073.48 813.915,3114.86L791.984,3093.74C824.183,3061.54 861.353,3043.65 891.426,3043.77C923.301,3043.9 962.807,3048.43 962.807,3125.76C962.807,3175.37 960.582,3191.26 960.582,3191.26C960.582,3191.26 913.447,3202.16 870.346,3188.73C864.955,3187.05 859.656,3184.74 854.532,3182.07Z" />
            <path fill="black" d="M854.532,3182.07L878.162,3159.48C894.246,3164.61 910.584,3165.98 930.384,3160.98C933.659,3115.86 927.44,3088.24 919.072,3080.96C913.083,3075.75 862.777,3073.48 813.915,3114.86L791.984,3093.74C824.183,3061.54 861.353,3043.65 891.426,3043.77C923.301,3043.9 962.807,3048.43 962.807,3125.76C962.807,3175.37 960.582,3191.26 960.582,3191.26C960.582,3191.26 913.447,3202.16 870.346,3188.73C864.955,3187.05 859.656,3184.74 854.532,3182.07ZM869.149,3179.57C870.364,3180.02 871.585,3180.43 872.812,3180.82C904.979,3190.84 939.506,3186.6 952.923,3184.3C953.559,3176.09 954.516,3158.31 954.516,3125.76C954.516,3090.87 946.477,3072.11 933.969,3062.35C921.614,3052.71 905.598,3052.12 891.393,3052.06C864.917,3051.95 832.795,3067.03 803.938,3093.74C803.938,3093.74 814.382,3103.8 814.382,3103.8C848.687,3077.05 882.928,3070.03 902.888,3069.88C910.02,3069.82 915.531,3070.67 918.938,3071.76C921.541,3072.59 923.366,3073.71 924.513,3074.7C928.697,3078.34 932.943,3085.82 935.68,3097.37C939.098,3111.79 940.699,3133.41 938.654,3161.58L938.22,3167.55L932.416,3169.02C912.845,3173.96 896.385,3173.17 880.416,3168.8L869.149,3179.57Z"/>
        </symbol>
        <symbol id="Border-F4">
            <path d="M102.258,527.275C109.854,515.757 117.598,505.432 125.587,497.055C125.506,495.314 125.472,493.521 125.472,491.663C125.472,469.284 129.587,460.931 155.653,433.673L136.229,408.914C101.536,445.192 94.222,461.878 94.222,491.663C94.222,512.139 98.294,522.261 102.258,527.275Z" />
            <path fill="black" d="M102.258,527.275C109.854,515.757 117.598,505.432 125.587,497.055C125.506,495.314 125.472,493.521 125.472,491.663C125.472,469.284 129.587,460.931 155.653,433.673L136.229,408.914C101.536,445.192 94.222,461.878 94.222,491.663C94.222,512.139 98.294,522.261 102.258,527.275ZM104.071,509.946C103.166,505.289 102.614,499.313 102.614,491.663C102.614,465.886 108.908,450.841 135.656,421.781C135.656,421.781 144.587,433.165 144.587,433.165C120.567,458.943 117.079,468.664 117.079,491.663C117.079,492.405 117.085,493.138 117.096,493.862C112.692,498.71 108.353,504.109 104.071,509.945L104.071,509.946Z"/>
        </symbol>
    
        <symbol id="Border-Deco-1" >
            <g transform="matrix(0.943303,0,0,0.943303,-518,954)">
                <use href="#Border-B"  class="border-primary"  transform="matrix(1,0,0,1,554.28,510.967)"/>
                <use href="#Border-B"  class="border-primary"  transform="matrix(-1,0,0,-1,899,891)"/>
                <use href="#Border-D8" class="border-primary"   transform="matrix(1.0601,0,0,1.0601,616,360)"/>
                <use href="#Border-D7" class="border-primary"   transform="matrix(1.0601,0,0,1.0601,616,360)"/>
                <use href="#Border-D3" class="border-primary"   transform="matrix(1.0601,0,0,1.0601,616,278)"/>
                <use href="#Border-D2" class="border-primary"   transform="matrix(1.0601,0,0,1.0601,616,360)"/>
                <use href="#Border-D1" class="border-primary"   transform="matrix(1.0601,0,0,1.0601,616,360)"/>
                <use href="#Border-D6" class="border-secondary"  transform="matrix(1.0601,0,0,1.0601,616,360)"/>
                <use href="#Border-D5" class="border-secondary"  transform="matrix(1.0601,0,0,1.0601,616,360)"/>
                <use href="#Border-D3" class="border-secondary"  transform="matrix(1.0601,0,0,1.0601,616,360)"/>
                <use href="#Border-D4" class="border-secondary"  transform="matrix(1.0601,0,0,1.0601,616,360)"/>
                <use href="#Border-A" class="border-secondary"  transform="matrix(1,0,0,1,565.229,-92.5123)"/>
            </g>
        </symbol>  
        <symbol id="Border-Deco-Special-Griffon" >
            <g transform="matrix(1,0,0,1,4,0)">
                <path class="border-primary" d="M158.21,1784.71L141.169,1809.82C150.777,1819.18 174.846,1843.36 181.308,1850.44C193.278,1838.09 196.113,1831.1 197.734,1824.82C190.942,1817.37 184.978,1811.37 174.881,1801.53C170.088,1796.86 163.555,1790.2 158.21,1784.71ZM373.776,1697.53C373.776,1697.53 355.925,1682.64 354.419,1669.7C353.469,1661.53 366.407,1651.42 371.135,1654.9C378.439,1660.27 399.067,1661.23 411.513,1660.92C420.957,1660.92 422.98,1650.89 430.075,1650C439.466,1653.12 452.472,1655.83 457.124,1669.49C460.75,1680.14 457.088,1700.39 457.088,1713.44C457.088,1754.18 425.737,1766.1 398.621,1765.22C361.558,1764.01 294.169,1765.21 241.495,1766.19C222.543,1766.55 211.646,1788.33 191.881,1808.8L166.908,1783.73C192.823,1749.57 217.213,1734.02 237.814,1734.02C282.401,1734.02 370.045,1733.85 399.88,1734.52C408.373,1734.52 422.429,1725.13 422.429,1713.77C422.429,1697.28 407.843,1695.98 402.355,1694.26L401.843,1696.98L373.776,1697.53ZM116.893,1666.43C117.678,1701.74 117.102,1736.93 116.509,1759.55C128.752,1746.94 142.088,1734.1 154.331,1726.94C148.948,1717.5 116.893,1666.43 116.893,1666.43ZM143.034,1631.69C142.374,1615.34 144.435,1495.35 145.448,1445.41C145.86,1425.08 140.308,1399.5 137.577,1392.7C121.099,1351.66 112.074,1290.16 158.494,1262.3L137.026,1242.53C111.469,1268.09 82.858,1299.69 95.502,1349.21C100.692,1369.53 105.036,1383.86 108.303,1393.6C115.12,1413.9 115.65,1450.38 115.65,1450.38L116.621,1576.85C121.218,1589.71 134.837,1618.14 143.034,1631.69ZM227.705,1286.64C220.54,1297.51 213.234,1307.25 205.698,1315.15C205.774,1316.79 205.807,1318.49 205.807,1320.24C205.807,1341.35 198.944,1367.33 178.944,1373.46C169.412,1360.27 162.403,1355.37 162.403,1355.37L141.737,1381.22L150.436,1408.03C150.436,1408.03 182.032,1405.51 195.66,1398.3C218.674,1386.11 235.285,1348.33 235.285,1320.24C235.285,1300.92 231.444,1291.37 227.705,1286.64Z" />
                <path fill="black" d="M158.21,1784.71L141.169,1809.82C150.777,1819.18 174.846,1843.36 181.308,1850.44C193.278,1838.09 196.113,1831.1 197.734,1824.82C190.942,1817.37 184.978,1811.37 174.881,1801.53C170.088,1796.86 163.555,1790.2 158.21,1784.71ZM159.323,1797.17C162.873,1800.77 166.434,1804.35 169.354,1807.2C177.755,1815.39 183.255,1820.87 188.792,1826.8C187.485,1830.09 185.32,1833.85 181.179,1838.81C173.001,1830.35 160.024,1817.3 151.427,1808.8C151.427,1808.8 159.322,1797.17 159.322,1797.17L159.323,1797.17ZM373.776,1697.53C373.776,1697.53 355.925,1682.64 354.419,1669.7C353.469,1661.53 366.407,1651.42 371.135,1654.9C378.439,1660.27 399.067,1661.23 411.513,1660.92C420.957,1660.92 422.98,1650.89 430.075,1650C439.466,1653.12 452.472,1655.83 457.124,1669.49C460.75,1680.14 457.088,1700.39 457.088,1713.44C457.088,1754.18 425.737,1766.1 398.621,1765.22C361.558,1764.01 294.169,1765.21 241.495,1766.19C222.543,1766.55 211.646,1788.33 191.881,1808.8L166.908,1783.73C192.823,1749.57 217.213,1734.02 237.814,1734.02C282.401,1734.02 370.045,1733.85 399.88,1734.52C408.373,1734.52 422.429,1725.13 422.429,1713.77C422.429,1697.28 407.843,1695.98 402.355,1694.26L401.843,1696.98L373.776,1697.53ZM396.297,1689.17L376.723,1689.55L376.723,1689.55C374.596,1687.57 371.207,1684.21 368.15,1680.25C365.406,1676.69 362.736,1672.68 362.282,1668.79C362.137,1667.53 363.353,1666.42 364.37,1665.31C365.37,1664.21 367.28,1663.05 368.289,1662.47C371.064,1664.06 374.74,1665.39 378.988,1666.35C388.902,1668.58 402.371,1669.06 411.63,1668.84C417.644,1668.81 421.852,1666.39 425.379,1663.22C426.79,1661.95 428.059,1660.54 429.356,1659.26C429.65,1658.97 429.892,1658.62 430.17,1658.35C433.036,1659.24 436.121,1660.18 439.098,1661.51C443.462,1663.45 447.672,1666.29 449.629,1672.04C450.831,1675.57 450.914,1680.39 450.764,1685.57C450.49,1695.04 449.171,1705.55 449.171,1713.44C449.171,1727.23 445.159,1737.19 438.599,1744.05C428.517,1754.58 412.979,1757.76 398.878,1757.31C361.72,1756.1 294.157,1757.29 241.347,1758.28C231.847,1758.46 223.833,1762.65 216.206,1769.6C208.438,1776.67 200.982,1786.9 191.67,1797.37C191.67,1797.37 177.442,1783.09 177.442,1783.09C199.631,1755.35 219.993,1741.93 237.814,1741.93C282.352,1741.93 369.898,1741.76 399.7,1742.44C399.76,1742.44 399.82,1742.44 399.88,1742.44C405.571,1742.44 413.24,1739.57 419.373,1734.52C425.794,1729.23 430.346,1721.74 430.346,1713.77C430.346,1691.82 412.026,1688.99 404.718,1686.71C402.561,1686.03 400.217,1686.31 398.279,1687.48C397.521,1687.93 396.853,1688.51 396.297,1689.17ZM116.893,1666.43C117.678,1701.74 117.102,1736.93 116.509,1759.55C128.752,1746.94 142.088,1734.1 154.331,1726.94C148.948,1717.5 116.893,1666.43 116.893,1666.43ZM125.174,1694.6C131.778,1705.19 139.063,1716.93 143.637,1724.46C137.466,1728.84 131.121,1734.28 124.852,1740.16C125.09,1726.67 125.246,1711.03 125.174,1694.6ZM143.034,1631.69C142.374,1615.34 144.435,1495.35 145.448,1445.41C145.86,1425.08 140.308,1399.5 137.577,1392.7C121.099,1351.66 112.074,1290.16 158.494,1262.3L137.026,1242.53C111.469,1268.09 82.858,1299.69 95.502,1349.21C100.692,1369.53 105.036,1383.86 108.303,1393.6C115.12,1413.9 115.65,1450.38 115.65,1450.38L116.621,1576.85C121.218,1589.71 134.837,1618.14 143.034,1631.69ZM135.107,1599.55C130.745,1590.43 126.789,1581.48 124.527,1575.42C124.527,1575.41 123.566,1450.32 123.566,1450.32C123.566,1450.3 123.566,1450.28 123.566,1450.27C123.566,1450.27 122.915,1412.25 115.808,1391.08C112.582,1381.46 108.296,1367.32 103.172,1347.25C92.264,1304.53 114.951,1276.37 137.277,1253.52C137.277,1253.52 145.852,1261.42 145.852,1261.42C126.346,1276.84 117.995,1298.7 116.547,1322.07C114.988,1347.23 121.589,1374.13 130.23,1395.65C132.799,1402.05 137.92,1426.13 137.533,1445.25C136.791,1481.83 135.494,1555.9 135.107,1599.55L135.107,1599.55ZM227.705,1286.64C220.54,1297.51 213.234,1307.25 205.698,1315.15C205.774,1316.79 205.807,1318.49 205.807,1320.24C205.807,1341.35 198.944,1367.33 178.944,1373.46C169.412,1360.27 162.403,1355.37 162.403,1355.37L141.737,1381.22L150.436,1408.03C150.436,1408.03 182.032,1405.51 195.66,1398.3C218.674,1386.11 235.285,1348.33 235.285,1320.24C235.285,1300.92 231.444,1291.37 227.705,1286.64ZM225.995,1302.99C226.848,1307.38 227.368,1313.02 227.368,1320.24C227.368,1335.81 221.78,1354.59 212.767,1369.56C207.066,1379.04 200.026,1387.03 191.956,1391.3C182.915,1396.08 165.355,1398.54 156.009,1399.55C156.009,1399.55 150.584,1382.83 150.584,1382.83C150.584,1382.83 163.317,1366.9 163.317,1366.9C165.781,1369.48 168.946,1373.14 172.528,1378.1C174.512,1380.85 178.025,1382.03 181.265,1381.03C191.214,1377.98 198.664,1371.12 203.884,1362.14C210.847,1350.16 213.724,1334.24 213.724,1320.24C213.724,1319.54 213.719,1318.85 213.708,1318.16C217.862,1313.59 221.955,1308.5 225.995,1302.99L225.995,1302.99Z"/>
                <path class="border-secondary" d="M179.856,1752.91C169.074,1759.47 161.021,1766.57 155.542,1772.99C145.12,1785.18 128.771,1808.8 128.771,1808.8L106.762,1836.24C106.762,1836.24 87.532,1797.89 125.927,1759.5C136.646,1748.78 147.771,1738.44 160.611,1729.4L179.856,1752.91ZM126.581,1612.87C137.213,1635.48 173.994,1691.87 213.741,1734.42C199.515,1739.54 194.846,1744.65 187.943,1749.76C142.61,1705.24 122.105,1667.34 107.838,1639.36C101.836,1627.59 122.721,1604.66 126.581,1612.87ZM200.855,1707.66C220.383,1700.87 243.727,1697.88 272.86,1698.07C322.189,1698.39 379.082,1699.07 400.054,1700.37C406.737,1700.79 414.806,1702.63 414.806,1714C414.824,1724.78 402.002,1726.29 395.325,1726.73C373.256,1728.2 313.705,1727.64 270.076,1727.16C252.364,1727.16 236.675,1728.11 222.927,1731.34C219.662,1732.11 200.855,1707.66 200.855,1707.66ZM89.2,1607.33C85.754,1598.9 81.829,1588.93 79.465,1581.67L79.021,1563.9C87.842,1567.01 99.293,1564.55 110.47,1566.15C111.235,1570.38 111.034,1580.43 111.034,1580.43C111.034,1580.43 118.324,1589.38 120.109,1594.44C108.701,1594.91 96.645,1600.91 89.2,1607.33ZM79.941,1534.39L79.612,1522.97L110.714,1516.52L111.034,1528.57L79.941,1534.39ZM80.856,1478.83C80.856,1478.83 78.973,1435.22 100.09,1386.55C101.873,1395.15 106.53,1407.31 110.248,1419.78C110.519,1422.17 110.69,1455.62 110.788,1458.62L80.856,1478.83ZM128.674,1337.95C129.638,1351.56 132.745,1363.03 136.881,1373.46C141.447,1367.53 147.431,1360.91 155.171,1352.81L158.875,1349.11L137.482,1328.82L133.867,1332.44C132.058,1334.33 130.328,1336.16 128.674,1337.95ZM197.657,1336.25C190.917,1328.86 184.998,1322.91 174.976,1313.14C165.441,1303.85 148.962,1286.64 148.962,1286.64C141.019,1292.05 134.283,1301.91 132.553,1311.88C139.293,1319.27 144.378,1324.48 154.399,1334.25C163.934,1343.54 174.942,1354.65 181.355,1361.69C193.235,1349.43 196.049,1342.49 197.657,1336.25Z" />
                <path fill="black" d="M179.856,1752.91C169.074,1759.47 161.021,1766.57 155.542,1772.99C145.12,1785.18 128.771,1808.8 128.771,1808.8L106.762,1836.24C106.762,1836.24 87.532,1797.89 125.927,1759.5C136.646,1748.78 147.771,1738.44 160.611,1729.4L179.856,1752.91ZM168.162,1751.12C160.253,1756.73 154.073,1762.52 149.523,1767.84C139.522,1779.55 124.152,1801.58 122.422,1804.07C122.425,1804.06 110.348,1819.12 110.348,1819.12C108.827,1806.18 110.937,1785.69 131.525,1765.1C140.243,1756.38 149.228,1747.91 159.245,1740.23L168.162,1751.12ZM126.581,1612.87C137.213,1635.48 173.994,1691.87 213.741,1734.42C199.515,1739.54 194.846,1744.65 187.943,1749.76C142.61,1705.24 122.105,1667.34 107.838,1639.36C101.836,1627.59 122.721,1604.66 126.581,1612.87ZM121.868,1621.16C134.219,1644.94 165.585,1692.45 200.401,1731.54C195.417,1734.11 191.922,1736.67 188.61,1739.24C147.511,1697.66 128.369,1662.2 114.891,1635.76C113.952,1633.92 115.039,1631.61 116.089,1629.33C117.506,1626.25 119.661,1623.3 121.868,1621.16ZM200.855,1707.66C220.383,1700.87 243.727,1697.88 272.86,1698.07C322.189,1698.39 379.082,1699.07 400.054,1700.37C406.737,1700.79 414.806,1702.63 414.806,1714C414.824,1724.78 402.002,1726.29 395.325,1726.73C373.256,1728.2 313.705,1727.64 270.076,1727.16C252.364,1727.16 236.675,1728.11 222.927,1731.34C219.662,1732.11 200.855,1707.66 200.855,1707.66ZM224.6,1722.87L214.89,1711.73L214.89,1711.73C231.244,1707.62 250.224,1705.84 272.808,1705.99C321.967,1706.31 378.665,1706.98 399.565,1708.27C401.717,1708.41 404.29,1708.33 405.882,1709.95C406.697,1710.78 406.89,1712.13 406.89,1714L406.89,1714.01C406.892,1715.69 405.639,1716.45 404.383,1717C401.232,1718.39 397.407,1718.66 394.801,1718.83C372.84,1720.29 313.58,1719.72 270.164,1719.24L270.12,1719.24C253.165,1719.24 238.028,1720.12 224.6,1722.87ZM89.2,1607.33C85.754,1598.9 81.829,1588.93 79.465,1581.67L79.021,1563.9C87.842,1567.01 99.293,1564.55 110.47,1566.15C111.235,1570.38 111.034,1580.43 111.034,1580.43C111.034,1580.43 118.324,1589.38 120.109,1594.44C108.701,1594.91 96.645,1600.91 89.2,1607.33ZM92.823,1595.11C90.774,1589.89 88.81,1584.67 87.35,1580.3C87.35,1580.3 87.176,1573.35 87.176,1573.35C88.28,1573.42 89.4,1573.47 90.536,1573.49C94.564,1573.56 98.821,1573.35 103.124,1573.48C103.209,1576.94 103.119,1580.27 103.119,1580.27L103.061,1583.18L104.897,1585.43C104.897,1585.43 106.048,1586.79 107.48,1588.68C102.289,1590.23 97.276,1592.49 92.823,1595.11L92.823,1595.11ZM79.941,1534.39L79.612,1522.97L110.714,1516.52L111.034,1528.57L79.941,1534.39ZM80.856,1478.83C80.856,1478.83 78.973,1435.22 100.09,1386.55C101.873,1395.15 106.53,1407.31 110.248,1419.78C110.519,1422.17 110.69,1455.62 110.788,1458.62L80.856,1478.83ZM89.222,1463.63C90.123,1451.37 92.61,1432.59 99.292,1411.35C100.346,1414.58 101.412,1417.89 102.42,1421.23C102.613,1425.24 102.731,1445.25 102.817,1454.45C102.817,1454.45 89.222,1463.63 89.222,1463.63L89.222,1463.63ZM128.674,1337.95C129.638,1351.56 132.745,1363.03 136.881,1373.46C141.447,1367.53 147.431,1360.91 155.171,1352.81L158.875,1349.11L137.482,1328.82L133.867,1332.44C132.058,1334.33 130.328,1336.16 128.674,1337.95ZM197.657,1336.25C190.917,1328.86 184.998,1322.91 174.976,1313.14C165.441,1303.85 148.962,1286.64 148.962,1286.64C141.019,1292.05 134.283,1301.91 132.553,1311.88C139.293,1319.27 144.378,1324.48 154.399,1334.25C163.934,1343.54 174.942,1354.65 181.355,1361.69C193.235,1349.43 196.049,1342.49 197.657,1336.25ZM137.68,1339.92L147.579,1349.31C144.779,1352.26 142.245,1354.99 139.926,1357.57C138.534,1352.34 137.472,1346.79 136.863,1340.78L137.68,1339.92ZM188.713,1338.24C187.424,1341.47 185.296,1345.16 181.254,1350.01C174.977,1343.46 167.046,1335.52 159.925,1328.58C151.505,1320.37 146.621,1315.43 141.247,1309.64C142.684,1305.18 145.271,1300.93 148.44,1297.51C154.122,1303.39 163.246,1312.76 169.45,1318.81C177.774,1326.92 183.228,1332.36 188.714,1338.24L188.713,1338.24Z"/>

                <use href="#Border-B"  class="border-primary"  transform="matrix(-0.943303,0,0,-0.943303,323.596,2272.21)"/>
                <use href="#Border-B"  class="border-primary"  transform="matrix(0.943303,0,0,0.943303,4.94447,1433.98)"/>
            </g>
        </symbol>
        <symbol id="Border-Main">
            <g transform="matrix(0.943303,0,0,0.943303,-253.719,319.878)">
            <use href="#Border-B" class="border-primary"  transform="matrix(1,0,0,1,562,0)"/>
            <use href="#Border-B" class="border-primary"   transform="matrix(-1,0,0,-1,900,800)"/>
            <use href="#Border-A" class="border-primary"   transform="matrix(1,0,0,1,565,-93)"/>
            <use href="#Border-B" class="border-secondary"  transform="matrix(1,0,0,1,562,-87)"/>
            <use href="#Border-B" class="border-secondary"   transform="matrix(-1,0,0,-1,900,896)"/>
            <use href="#Border-A" class="border-secondary"   transform="matrix(1,0,0,1,565,-180)"/>
            </g>
        </symbol> 
        <symbol id="Border-Fragment-1">
            <g transform="matrix(0.943303,0,0,0.943303,-253.719,319.878)">
            <use href="#Border-B" class="border-primary"   transform="matrix(-1,0,0,-1,900,800)"/>
            <use href="#Border-A" class="border-primary"   transform="matrix(1,0,0,1,565,-93)"/>
            <use href="#Border-B" class="border-secondary"  transform="matrix(1,0,0,1,562,-87)"/>
            <use href="#Border-A" class="border-secondary"   transform="matrix(1,0,0,1,565,-180)"/>
            </g>
        </symbol>   
        <symbol id="Border-Fragment-2">
            <g transform="matrix(0.943303,0,0,0.943303,-253.719,319.878)">
            <use href="#Border-B" class="border-primary"  transform="matrix(1,0,0,1,562,0)"/>
            <use href="#Border-A" class="border-primary"   transform="matrix(1,0,0,1,565,-93)"/>
            <use href="#Border-B" class="border-secondary"  transform="matrix(1,0,0,1,562,-87)"/>
            <use href="#Border-B" class="border-secondary"   transform="matrix(-1,0,0,-1,900,896)"/>
            </g>
        </symbol>   
        <symbol id="Border-Corner-1">
            <g transform="matrix(0.943303,0,0,0.943303,-522.448,-496.264)">
            <use href="#Border-B" class="border-primary"  transform="matrix(1,0,0,1,562,325)"/>
            <use href="#Border-C3" class="border-primary"  transform="matrix(0,1,1.02582,0,255,528)"/>
            <use href="#Border-C4" class="border-primary"  transform="matrix(1.02582,0,0,1,558,48)"/>
            <use href="#Border-B" class="border-primary"  transform="matrix(0,-1,1,0,361,858)"/>
            <use href="#Border-C1" class="border-secondary"   transform="matrix(1.02582,0,0,1,558,325)"/>
            <use href="#Border-C2" class="border-secondary"   transform="matrix(1.02582,0,0,1,558,141)"/>
            </g>
        </symbol>  
        <symbol id="Border-Corner-2">
            <g transform="matrix(0.943303,0,0,0.943303,-522.448,-496.264)">
            <use href="#Border-B" class="border-secondary"  transform="matrix(1,0,0,1,562,325)"/>
            <use href="#Border-C3" class="border-secondary"  transform="matrix(0,1,1.02582,0,255,528)"/>
            <use href="#Border-C4" class="border-secondary"  transform="matrix(1.02582,0,0,1,558,48)"/>
            <use href="#Border-B" class="border-secondary"  transform="matrix(0,-1,1,0,361,858)"/>
            <use href="#Border-C1" class="border-primary"   transform="matrix(1.02582,0,0,1,558,325)"/>
            <use href="#Border-C2" class="border-primary"   transform="matrix(1.02582,0,0,1,558,141)"/>
            </g>
        </symbol>   
        <symbol id="Border-Cap-1">
            <g>
                <use href="#Border-E1" class="border-primary"  transform="matrix(0.954799,0,0,0.954799,49,128)"/>
                <use href="#Border-E2" class="border-secondary"  transform="matrix(0.954799,0,0,0.954799,49,128)"/>
            </g>
        </symbol>  
        <symbol id="Border-Cap-2">
            <g>
            <use href="#Border-F1" class="border-primary"  transform="matrix(0,0.943303,0.943303,0,339,2947)"/>
            <use href="#Border-F3" class="border-primary"  transform="matrix(0.954799,0,0,0.954799,49,122)"/>
            <use href="#Border-B" class="border-primary"  transform="matrix(0,-0.943303,-0.943303,0,1178.81,3262.84)"/>
            <use href="#Border-F2" class="border-secondary"  transform="matrix(0.954799,0,0,0.954799,48.717,127.561)"/>
            <use href="#Border-F4" class="border-secondary"  transform="matrix(0,-0.943303,-0.943303,0,1266.53,3262.28)"/>
            <use href="#Border-A" class="border-secondary"  transform="matrix(0,0.943303,0.943303,0,250.506,2946.57)"/>
            <use href="#Border-B" class="border-secondary"  transform="matrix(0,0.943303,0.943303,0,338.034,2943.62)"/>
            </g>
        </symbol>    
    
        <symbol id="Border-TopCorner">
            <use href="#Border-Cap-2" transform="matrix(1,0,0,-1,90,3271.84)"/>
            <g id="border-top">
                <use href="#Border-Main" transform="matrix(0,-1,1,0,-326.969,604.734)"/>
                <use href="#Border-Main" transform="matrix(0,-1,1,0,-153.347,604.734)"/>
                <use href="#Border-Main" transform="matrix(0,-1,1,0,20.2749,604.734)"/>
            </g>
            <use href="#Border-Corner-1" transform="matrix(1,0,0,1,0.3565,14.9914)"/>
            <g id="border-sidetop">
                <use href="#Border-Main" transform="matrix(1,0,0,1,-268,-326)"/>
                <use href="#Border-Main" transform="matrix(1,0,0,1,-268,-154)"/>
                <use href="#Border-Main" transform="matrix(1,0,0,1,-268, 19)"/>
                <use href="#Border-Main" transform="matrix(1,0,0,1,-268, 193)"/>
                <use href="#Border-Main" transform="matrix(1,0,0,1,-268, 366)"/>
                <use href="#Border-Main" transform="matrix(1,0,0,1,-268, 540)"/>
            </g>
        </symbol>
        <symbol id="Border-BottomCorner">
            <g id="border-sidebottom">
                <use href="#Border-Main" transform="matrix(1,0,0,1,-268,1278)"/>
                <use href="#Border-Main" transform="matrix(1,0,0,1,-268,1450)"/>
                <use href="#Border-Main" transform="matrix(1,0,0,1,-268,1625)"/>
                <use href="#Border-Main" transform="matrix(1,0,0,1,-268,1800)"/>
                <use href="#Border-Main" transform="matrix(1,0,0,1,-268,1972)"/>
                <use href="#Border-Main" transform="matrix(1,0,0,1,-268,2145)"/>
                <use href="#Border-Fragment-1" transform="matrix(1,0,0,1,-268.3,2320.02)"/>
            </g>
            <use href="#Border-Corner-2" transform="matrix(0,-1,1,0,13.6434,3298.19)"/>
            <use href="#Border-Cap-1" transform="matrix(1,0,0,1,20.2749,28.1801)"/>
            <g id="border-bottom">
                <use href="#Border-Fragment-1" transform="matrix(0,1,-1,0,983.261,2695.27)"/>
                <use href="#Border-Main" transform="matrix(0,1,-1,0,1157.46,2695.27)"/>
                <use href="#Border-Main" transform="matrix(0,1,-1,0,1331.53,2695.27)"/>
                <use href="#Border-Fragment-2" transform="matrix(0,1,-1,0,1505.44,2695.27)"/>

            </g>
        </symbol>

        <symbol id="Border-Fragment-Main-Secondary"></symbol>
    </defs>

    <g> 
        <use href="#Border-TopCorner"               transform="matrix( 1,0,0,1,-5,0)"/>
        <use href="#Border-Deco-1"                  transform="matrix( 1,0,0,1,-5,0)"/>
        <use href="#Border-Deco-Special-Griffon"    transform="matrix( 1,0,0,1,-5,0)"/>
        <use href="#Border-BottomCorner"            transform="matrix( 1,0,0,1,-5,0)"/>
        <use href="#Border-TopCorner"               transform="matrix(-1,0,0,1,2555,0)"/>
        <use href="#Border-Deco-1"                  transform="matrix(-1,0,0,1,2555,0)"/>
        <use href="#Border-Deco-Special-Griffon"    transform="matrix(-1,0,0,1,2555,0)"/>
        <use href="#Border-BottomCorner"            transform="matrix(-1,0,0,1,2555,0)"/>
    </g>
    <g id="Griffons" transform="matrix(1,0,0,1,7,-110.007)">
        <g transform="matrix(1,-1.22465e-16,1.22465e-16,1,5.83517,-0.660642)">
            <g id="Griffon">
                <path d="M99.885,1670.18C70.873,1672.86 53.577,1654.45 53.577,1654.45C53.577,1654.45 61.303,1656.34 76.973,1654.01C84.256,1652.92 92.038,1650.01 99.929,1645.93L99.885,1670.18ZM99.325,1618.54C65.526,1627.47 22.985,1634.15 6.701,1605.92C44.181,1614.71 62.099,1602.33 99.386,1578.03L99.325,1618.54ZM143.187,1767.87C162.309,1765.56 186.111,1757.28 204.203,1738.28C237.939,1702.86 238.259,1682.43 250.662,1676.01C272.861,1664.54 275.508,1662.22 278.532,1649.44C273.101,1642.49 280.43,1572.01 224.693,1644.64C192.001,1687.25 158.814,1698.55 133.896,1699.25L133.561,1679.79C166.797,1663.94 180.27,1622.39 190.486,1616.25C184.215,1616.95 168.092,1632.21 147.673,1648.56C142.928,1652.36 137.621,1656.26 133.159,1658.95L133.754,1622.81C157.184,1603.5 176.067,1582.01 178.051,1579.2C171.094,1577.78 158.118,1599.1 135.021,1609.75L135.658,1556.08C165.969,1539.75 197.162,1529.7 219.024,1526.84C233.612,1524.93 252.852,1519.35 252.683,1526.94C252.526,1534 217.901,1557.51 249.192,1563.94C274.798,1569.2 259.513,1524.22 282.057,1486.84C290.07,1473.56 301.582,1467.31 301.582,1467.31C301.582,1467.31 267.024,1466.64 262.077,1457.13C272.412,1464.7 316.346,1452.25 332.187,1451.92C346.784,1451.62 371.036,1468.4 364.152,1480.75C363.565,1481.8 362.835,1483.91 362.835,1483.91C362.835,1483.91 364.606,1484.67 365.957,1485.15C390.516,1493.85 391.872,1510.86 385.849,1525.33C382.027,1508.72 349.676,1517.72 337.974,1521.22C328.22,1534.23 347.75,1537.08 356.151,1538.98C366.114,1545.38 385.405,1529.49 397.391,1565.36C389.242,1561.71 385.849,1560.93 379.291,1562.52C380.339,1566.02 403.415,1562.36 407.298,1588.53C398.978,1585.7 389.403,1585.33 389.588,1587.15C397.328,1589.84 408.002,1595.04 416.227,1613.06C406.886,1610.05 397.857,1608.27 397.948,1610.08C398.085,1612.81 414.49,1615 414.49,1630.01C406.727,1628.53 407.027,1634.01 403.695,1639.97C401.923,1643.14 400.412,1646.07 400.223,1648.54C398.425,1672.1 370.424,1694.91 390.718,1741.92C393.212,1741.65 413.288,1712.84 439.421,1766.83C439.421,1766.83 429.29,1759.34 415.856,1751.83C405.993,1746.31 397.182,1765.95 389.345,1765.52L369.38,1763.9C353.446,1747.15 354.008,1751.37 344.384,1764C335.183,1748.09 349.127,1739.52 355.068,1736.85C358.196,1735.58 361.324,1736.21 364.452,1736.82C354.788,1678.48 360.744,1690.56 358.003,1685.14C338.264,1698.74 353.186,1716.12 320.223,1712.72C310.274,1713.33 304.453,1716 303.33,1721.02C314.129,1722.72 317.333,1746.11 320.714,1756.51C322.374,1761.61 297.935,1777.8 298.844,1780.59C300.626,1786.07 329.583,1772.75 331.407,1789.39L333.295,1802.46L268.952,1801.85C269.214,1787.28 281.548,1794.7 277.358,1789.46C272.844,1783.81 267.67,1778.49 265.645,1780.79C258.584,1788.83 243.483,1755.69 243.282,1747.1C247.78,1736.81 206.63,1780.7 157.194,1788.67L143.187,1767.87ZM113.548,1719.13C103.77,1719.84 95.498,1724.65 91.763,1739.15C90.236,1745.08 90.991,1749.27 93.67,1752.78L107.323,1781.8C102.501,1779.41 97.713,1776.43 92.993,1772.79C57.152,1737.16 76.691,1716.44 111.43,1711.55L113.548,1719.13ZM132.988,1710.5C139.503,1710.71 146.225,1711.36 152.968,1712.47C191.353,1718.75 181.994,1701.04 186.783,1696.07C191.573,1691.09 212.905,1707.51 199.552,1716.05C186.199,1724.59 161.337,1726.84 145.295,1723.87C141.245,1723.11 136.91,1722.07 132.513,1721.14L132.988,1710.5Z" style="fill:var(--primary-color);"/>
                <clipPath id="_clip1">
                    <path d="M99.885,1670.18C70.873,1672.86 53.577,1654.45 53.577,1654.45C53.577,1654.45 61.303,1656.34 76.973,1654.01C84.256,1652.92 92.038,1650.01 99.929,1645.93L99.885,1670.18ZM99.325,1618.54C65.526,1627.47 22.985,1634.15 6.701,1605.92C44.181,1614.71 62.099,1602.33 99.386,1578.03L99.325,1618.54ZM143.187,1767.87C162.309,1765.56 186.111,1757.28 204.203,1738.28C237.939,1702.86 238.259,1682.43 250.662,1676.01C272.861,1664.54 275.508,1662.22 278.532,1649.44C273.101,1642.49 280.43,1572.01 224.693,1644.64C192.001,1687.25 158.814,1698.55 133.896,1699.25L133.561,1679.79C166.797,1663.94 180.27,1622.39 190.486,1616.25C184.215,1616.95 168.092,1632.21 147.673,1648.56C142.928,1652.36 137.621,1656.26 133.159,1658.95L133.754,1622.81C157.184,1603.5 176.067,1582.01 178.051,1579.2C171.094,1577.78 158.118,1599.1 135.021,1609.75L135.658,1556.08C165.969,1539.75 197.162,1529.7 219.024,1526.84C233.612,1524.93 252.852,1519.35 252.683,1526.94C252.526,1534 217.901,1557.51 249.192,1563.94C274.798,1569.2 259.513,1524.22 282.057,1486.84C290.07,1473.56 301.582,1467.31 301.582,1467.31C301.582,1467.31 267.024,1466.64 262.077,1457.13C272.412,1464.7 316.346,1452.25 332.187,1451.92C346.784,1451.62 371.036,1468.4 364.152,1480.75C363.565,1481.8 362.835,1483.91 362.835,1483.91C362.835,1483.91 364.606,1484.67 365.957,1485.15C390.516,1493.85 391.872,1510.86 385.849,1525.33C382.027,1508.72 349.676,1517.72 337.974,1521.22C328.22,1534.23 347.75,1537.08 356.151,1538.98C366.114,1545.38 385.405,1529.49 397.391,1565.36C389.242,1561.71 385.849,1560.93 379.291,1562.52C380.339,1566.02 403.415,1562.36 407.298,1588.53C398.978,1585.7 389.403,1585.33 389.588,1587.15C397.328,1589.84 408.002,1595.04 416.227,1613.06C406.886,1610.05 397.857,1608.27 397.948,1610.08C398.085,1612.81 414.49,1615 414.49,1630.01C406.727,1628.53 407.027,1634.01 403.695,1639.97C401.923,1643.14 400.412,1646.07 400.223,1648.54C398.425,1672.1 370.424,1694.91 390.718,1741.92C393.212,1741.65 413.288,1712.84 439.421,1766.83C439.421,1766.83 429.29,1759.34 415.856,1751.83C405.993,1746.31 397.182,1765.95 389.345,1765.52L369.38,1763.9C353.446,1747.15 354.008,1751.37 344.384,1764C335.183,1748.09 349.127,1739.52 355.068,1736.85C358.196,1735.58 361.324,1736.21 364.452,1736.82C354.788,1678.48 360.744,1690.56 358.003,1685.14C338.264,1698.74 353.186,1716.12 320.223,1712.72C310.274,1713.33 304.453,1716 303.33,1721.02C314.129,1722.72 317.333,1746.11 320.714,1756.51C322.374,1761.61 297.935,1777.8 298.844,1780.59C300.626,1786.07 329.583,1772.75 331.407,1789.39L333.295,1802.46L268.952,1801.85C269.214,1787.28 281.548,1794.7 277.358,1789.46C272.844,1783.81 267.67,1778.49 265.645,1780.79C258.584,1788.83 243.483,1755.69 243.282,1747.1C247.78,1736.81 206.63,1780.7 157.194,1788.67L143.187,1767.87ZM113.548,1719.13C103.77,1719.84 95.498,1724.65 91.763,1739.15C90.236,1745.08 90.991,1749.27 93.67,1752.78L107.323,1781.8C102.501,1779.41 97.713,1776.43 92.993,1772.79C57.152,1737.16 76.691,1716.44 111.43,1711.55L113.548,1719.13ZM132.988,1710.5C139.503,1710.71 146.225,1711.36 152.968,1712.47C191.353,1718.75 181.994,1701.04 186.783,1696.07C191.573,1691.09 212.905,1707.51 199.552,1716.05C186.199,1724.59 161.337,1726.84 145.295,1723.87C141.245,1723.11 136.91,1722.07 132.513,1721.14L132.988,1710.5Z"/>
                </clipPath>
                <g clip-path="url(#_clip1)">
                    <g transform="matrix(0.905098,-0.425202,-0.660108,-0.502033,-603.861,3180.59)">
                        <path d="M2159.15,1638.77C2212.98,1591.84 2240.34,1551.45 2217.67,1523.39C2216.24,1542.04 2137.83,1512.38 2121.03,1536.61C2086.47,1586.43 2122.28,1650 2122.28,1650L2138.95,1659.65L2159.15,1638.77Z" style="fill:var(--secondary-color);"/>
                    </g>
                    <g transform="matrix(-1,-1.22465e-16,-1.22465e-16,1,2550,0.660642)">
                        <path d="M2306.35,1572.66C2306.35,1572.66 2318.9,1568.94 2319.97,1557.67C2320.43,1552.88 2318.44,1546.95 2312.58,1539.04L2305.45,1526.95L2318.7,1531.58C2327.84,1533.85 2336.23,1533.61 2347.69,1535.12C2354.25,1535.99 2361.66,1537.4 2370.58,1539.95C2377.06,1541.8 2384.3,1544.26 2392.47,1547.76C2397.62,1549.96 2403.12,1552.6 2409.01,1555.77C2412.41,1557.6 2415.91,1559.63 2419.54,1561.88C2430.59,1568.73 2442.76,1577.31 2456.77,1587.7C2462.49,1592.15 2470.82,1596.61 2479.55,1600.7C2498.12,1609.41 2517.73,1616.28 2517.73,1616.28C2517.73,1616.28 2496.83,1613.79 2476.68,1608.8C2466.36,1606.25 2456.49,1602.88 2449.4,1599.2C2440.93,1594.63 2433.07,1590.72 2425.78,1587.01C2417.13,1582.6 2409.3,1578.81 2402.19,1575.35C2396.54,1572.59 2391.36,1570.07 2386.58,1567.78C2380.85,1565.04 2375.72,1562.59 2371,1560.51C2360.17,1555.75 2351.69,1552.79 2344.37,1550.61C2337.14,1548.46 2331.1,1546.96 2325.41,1545.13C2326.68,1550.73 2326.47,1555.18 2325.29,1558.78C2321.19,1571.25 2306.35,1572.66 2306.35,1572.66Z" style="fill:var(--secondary-color);"/>
                    </g>
                    <g transform="matrix(-0.755065,0.021822,0.0288888,0.999583,1923.84,1.00569)">
                        <path d="M2346.08,1518.13C2352.17,1521.98 2357.97,1525.78 2365.05,1530.36C2372.79,1535.36 2381.74,1540.69 2393.84,1547.51C2397.85,1549.78 2402.14,1552.15 2406.78,1554.82C2412.61,1558.18 2419.08,1561.74 2426.02,1565.94C2430.28,1568.51 2434.66,1571.36 2439.25,1574.42C2445.36,1578.5 2451.55,1583.08 2458.6,1587.84C2463.81,1591.58 2471.1,1594.4 2478.88,1596.58C2497.55,1601.82 2517.26,1603.79 2517.26,1603.79C2517.26,1603.79 2496.87,1606.74 2476.26,1605.41C2465.68,1604.73 2455.57,1602.49 2447.57,1599.06C2439.58,1595.38 2432.22,1592.04 2425.5,1588.62C2422.3,1586.99 2419.27,1585.36 2416.43,1583.7C2411.18,1580.63 2406.45,1577.59 2402.18,1574.6C2397.21,1571.14 2392.88,1567.78 2388.97,1564.54C2381.06,1558.01 2374.95,1552.27 2369.83,1546.92C2358.69,1535.27 2352.93,1526.59 2346.08,1518.13Z" style="fill:var(--secondary-color);"/>
                    </g>
                    <g transform="matrix(-0.755065,0.021822,0.0288888,0.999583,1955.41,33.2628)">
                        <path d="M2346.08,1518.13C2359.9,1521.22 2368.17,1524.92 2375.27,1529.32C2380.13,1532.33 2384.04,1535.57 2388.39,1539.26C2393.25,1543.38 2398.57,1547.75 2405.95,1553.06C2411.49,1557.06 2418.09,1561.59 2426.98,1566.51C2430.98,1569.16 2435.33,1571.84 2439.77,1574.82C2445.71,1578.81 2451.75,1583.24 2458.58,1587.86C2463.79,1591.6 2471.09,1594.42 2478.87,1596.6C2497.55,1601.83 2517.26,1603.79 2517.26,1603.79C2517.26,1603.79 2496.87,1606.73 2476.26,1605.39C2465.69,1604.71 2455.59,1602.48 2447.59,1599.04C2439.6,1595.37 2432.22,1592.05 2425.53,1588.61C2420.47,1586 2415.93,1583.3 2411.56,1580.81C2406.64,1577.56 2402.28,1574.58 2398.64,1571.6C2391.39,1565.66 2386.37,1560.33 2382.44,1555.39C2379.13,1551.22 2376.69,1547.47 2374.29,1543.86C2370.65,1538.38 2367.54,1533.56 2361.62,1528.53C2357.64,1525.16 2352.92,1521.81 2346.08,1518.13Z" style="fill:var(--secondary-color);"/>
                    </g>
                    <g transform="matrix(1.76221,0,0,1.76221,-250.815,-1129.77)">
                        <path d="M339.183,1484.21C338.65,1479.89 331.213,1475.15 322.89,1478.75C326.003,1482.37 328.489,1484.38 328.489,1484.38L339.183,1484.21Z" style="fill:var(--primary-color);"/>
                        <path d="M339.183,1484.21C338.65,1479.89 331.213,1475.15 322.89,1478.75C326.003,1482.37 328.489,1484.38 328.489,1484.38L339.183,1484.21Z"/>
                    </g>
                    <path d="M363.899,1691.39C363.899,1691.39 364.655,1688.72 364.743,1684.72C364.787,1682.69 364.574,1680.38 364.063,1677.99C363.687,1676.22 363.097,1674.42 362.278,1672.71C361.04,1670.13 359.278,1667.77 357.089,1665.8C355.337,1664.31 353.987,1663.25 353.016,1662.23C352.362,1661.54 351.835,1660.98 351.649,1660.16C350.935,1657 352.548,1652.12 355.841,1639.43C352.649,1645.92 350.429,1650.26 349.04,1653.48C347.633,1656.74 347.169,1658.92 347.241,1660.73C347.36,1663.75 349.244,1665.81 352.825,1670.05C353.77,1671.13 354.461,1672.37 355.126,1673.61C355.826,1674.92 356.371,1676.29 356.9,1677.63C357.805,1679.93 358.526,1682.18 359.09,1684.21C360.225,1688.29 360.865,1691.24 360.865,1691.24L363.899,1691.39Z"/>
                    <g transform="matrix(-0.585396,0.810748,0.810748,0.585396,-834.031,471.355)">
                        <path d="M353.881,1669C351.745,1667.53 350.19,1666.54 349.022,1665.46C346.861,1663.48 346.135,1661.42 346.235,1658.24C346.284,1656.68 346.66,1654.75 347.503,1652.24C348.201,1650.17 349.286,1647.69 350.693,1644.59C352.41,1640.8 354.663,1636.17 357.456,1630.21C359.417,1626.02 361.66,1621.31 364.172,1615.76C362.841,1621.72 361.67,1626.81 360.533,1631.31C358.911,1637.71 357.547,1642.7 356.362,1646.7C355.424,1649.87 354.678,1652.38 354.027,1654.4C353.4,1656.34 352.882,1657.75 352.658,1658.93C352.339,1660.62 352.563,1661.6 353.542,1663.09C354.238,1664.14 355.002,1665.33 356.033,1666.85L353.881,1669Z"/>
                    </g>
                    <g transform="matrix(-0.999049,-0.0436001,-0.0436001,0.999049,2612.5,106.731)">
                        <path d="M2159.15,1638.77C2212.98,1591.84 2240.34,1551.45 2217.67,1523.39C2216.24,1542.04 2137.83,1512.38 2121.03,1536.61C2086.47,1586.43 2122.28,1650 2122.28,1650L2138.95,1659.65L2159.15,1638.77Z" style="fill:var(--secondary-color);"/>
                    </g>
                </g>
                <path d="M143.187,1767.87C162.309,1765.56 186.111,1757.28 204.203,1738.28C237.939,1702.86 238.259,1682.43 250.662,1676.01C272.861,1664.54 275.508,1662.22 278.532,1649.44C273.101,1642.49 280.43,1572.01 224.693,1644.64C192.001,1687.25 158.814,1698.55 133.896,1699.25L133.561,1679.79C166.797,1663.94 180.27,1622.39 190.486,1616.25C184.215,1616.95 168.092,1632.21 147.673,1648.56C142.928,1652.36 137.621,1656.26 133.159,1658.95L133.754,1622.81C157.184,1603.5 176.067,1582.01 178.051,1579.2C171.094,1577.78 158.118,1599.1 135.021,1609.75L135.658,1556.08C165.969,1539.75 197.162,1529.7 219.024,1526.84C233.612,1524.93 252.852,1519.35 252.683,1526.94C252.526,1534 217.901,1557.51 249.192,1563.94C274.798,1569.2 259.513,1524.22 282.057,1486.84C290.07,1473.56 301.582,1467.31 301.582,1467.31C301.582,1467.31 267.024,1466.64 262.077,1457.13C272.412,1464.7 316.346,1452.25 332.187,1451.92C346.784,1451.62 371.036,1468.4 364.152,1480.75C363.565,1481.8 362.835,1483.91 362.835,1483.91C362.835,1483.91 364.606,1484.67 365.957,1485.15C390.516,1493.85 391.872,1510.86 385.849,1525.33C382.027,1508.72 349.676,1517.72 337.974,1521.22C328.22,1534.23 347.75,1537.08 356.151,1538.98C366.114,1545.38 385.405,1529.49 397.391,1565.36C389.242,1561.71 385.849,1560.93 379.291,1562.52C380.339,1566.02 403.415,1562.36 407.298,1588.53C398.978,1585.7 389.403,1585.33 389.588,1587.15C397.328,1589.84 408.002,1595.04 416.227,1613.06C406.886,1610.05 397.857,1608.27 397.948,1610.08C398.085,1612.81 414.49,1615 414.49,1630.01C406.727,1628.53 407.027,1634.01 403.695,1639.97C401.923,1643.14 400.412,1646.07 400.223,1648.54C398.425,1672.1 370.424,1694.91 390.718,1741.92C393.212,1741.65 413.288,1712.84 439.421,1766.83C439.421,1766.83 429.29,1759.34 415.856,1751.83C405.993,1746.31 397.182,1765.95 389.345,1765.52L369.38,1763.9C353.446,1747.15 354.008,1751.37 344.384,1764C335.183,1748.09 349.127,1739.52 355.068,1736.85C358.196,1735.58 361.324,1736.21 364.452,1736.82C354.788,1678.48 360.744,1690.56 358.003,1685.14C338.264,1698.74 353.186,1716.12 320.223,1712.72C310.274,1713.33 304.453,1716 303.33,1721.02C314.129,1722.72 317.333,1746.11 320.714,1756.51C322.374,1761.61 297.935,1777.8 298.844,1780.59C300.626,1786.07 329.583,1772.75 331.407,1789.39L333.295,1802.46L268.952,1801.85C269.214,1787.28 281.548,1794.7 277.358,1789.46C272.844,1783.81 267.67,1778.49 265.645,1780.79C258.584,1788.83 243.483,1755.69 243.282,1747.1C247.78,1736.81 206.63,1780.7 157.194,1788.67L143.187,1767.87ZM332.744,1460.05C337.997,1460.08 344.657,1463.03 349.894,1466.91C352.519,1468.86 354.792,1471.06 356.206,1473.39C356.912,1474.56 357.65,1475.69 357.036,1476.78C357.036,1476.78 352.649,1488.39 352.649,1488.39L359.6,1491.4L363.232,1492.85C371.4,1495.76 376.432,1499.57 378.87,1504.19C379.699,1505.76 380.203,1507.4 380.447,1509.06C378.941,1508.56 377.338,1508.16 375.65,1507.87C362.875,1505.68 344.156,1510.6 335.562,1513.15L332.899,1513.94L331.232,1516.17C325.698,1523.52 326.136,1529.44 328.297,1533.9C329.91,1537.24 333.003,1540.11 337.145,1542.19C341.976,1544.61 348.529,1545.99 353.069,1547C356.232,1548.61 359.868,1549.22 363.884,1549.28C368.241,1549.34 373.413,1548.15 378.379,1550.86C379.744,1551.61 381.058,1552.64 382.325,1554.04C380.813,1554.21 379.22,1554.51 377.462,1554.97L369.51,1556.9L371.855,1564.74C372.561,1566.95 374.295,1569.64 378.401,1570.97C381.261,1571.9 387.922,1571.97 393.412,1576.26C394.505,1577.12 395.534,1578.16 396.46,1579.43C393.626,1579.24 391.242,1579.32 389.743,1579.64C383.888,1580.88 382.63,1585.07 382.96,1587.82L383.388,1592.05L387.398,1593.44C391.39,1594.75 396.35,1596.75 401.215,1601.55C401.974,1602.3 402.732,1603.11 403.485,1603.99C401.781,1603.75 400.362,1603.65 399.345,1603.7C393.631,1603.98 392.153,1607.78 392.329,1610.36C392.442,1612.03 393.216,1614.24 395.849,1615.94C397.983,1617.33 403.423,1618.85 406.884,1623.07C407.421,1623.73 407.902,1624.46 408.293,1625.28C406.845,1625.81 405.705,1626.63 404.738,1627.61C402.627,1629.75 401.658,1633.5 399.46,1637.61C398.416,1639.56 397.459,1641.42 396.783,1643.15C396.086,1644.94 395.641,1646.63 395.55,1648.18C394.603,1664.33 381.783,1680.36 379.922,1703.83C379.027,1715.12 380.239,1728.1 386.578,1743.71L387.9,1746.77L391.214,1746.41C391.929,1746.34 393.676,1745.57 395.813,1743.85C398.72,1741.51 404.774,1736.45 412.68,1740.52C415.093,1741.76 417.593,1743.73 420.191,1746.62L419.126,1745.98C415.245,1743.69 411.395,1743.62 407.611,1744.77C403.227,1746.1 398.825,1749.9 394.733,1753.71C392.721,1755.58 389.761,1760.06 389.059,1758.22C389.018,1758.11 389.111,1758.08 389.246,1758.08C389.253,1758.08 372.835,1756.67 372.835,1756.67C365.974,1749.66 361.455,1746.54 358.261,1745.69C357.373,1745.46 356.517,1745.31 355.686,1745.26C356.541,1744.77 357.349,1744.39 358.02,1744.09C358.021,1744.09 374.053,1746.69 374.053,1746.69L372.205,1735.54C370.472,1724.77 369.268,1716.42 368.431,1709.93C366.237,1692.93 366.694,1689.64 366.823,1688.35C367.035,1686.24 367.383,1685.81 365.213,1681.49L361.035,1673.23L353.416,1678.48C344.939,1684.29 341.532,1690.63 339.087,1696.32C337.869,1699.15 337.529,1701.92 335.356,1703.57C332.95,1705.39 328.86,1705.34 321.071,1704.51L320.396,1704.44L319.718,1704.48C311.698,1704.94 305.803,1706.79 302.016,1709.39C298.312,1711.93 296.109,1715.25 295.211,1719.21L293.276,1727.87L302.04,1729.24C303.016,1729.4 303.331,1730.59 303.961,1731.63C305.278,1733.8 306.317,1736.5 307.245,1739.33C309.095,1744.96 310.443,1751.08 311.721,1755.82C308.385,1758.83 297.92,1768.32 294.42,1771.92C289.924,1776.54 290.091,1781.35 290.698,1783.24C291.883,1786.92 295.259,1790.34 301.815,1790.58C305.819,1790.72 312.739,1789.21 318.89,1789.3C319.99,1789.32 321.052,1789.39 322.015,1789.63C322.382,1789.72 322.719,1789.87 322.769,1790.34L322.785,1790.49C322.806,1790.63 323.225,1793.6 323.225,1793.6L287.004,1793.15C287.176,1792.32 287.236,1791.43 287.181,1790.47C287.103,1789.12 286.725,1786.82 284.373,1783.86C280.445,1778.91 275.883,1774.41 272.672,1772.73C269.28,1770.95 266.272,1770.72 263.713,1771.54C262.889,1770.53 261.934,1769.29 261.254,1768.2C257.19,1761.64 253.269,1752.61 252.552,1748.07C253.024,1745.78 252.658,1744.09 252.357,1743.09C251.553,1740.43 249.918,1738.66 247.752,1737.5C246.27,1736.71 244.277,1736.11 241.68,1736.51C240.196,1736.74 236.304,1738.53 231.044,1742.29C218.969,1750.94 192.367,1771.45 161.567,1778.23L159.106,1774.56C166.062,1772.81 173.261,1770.33 180.372,1766.97C191.236,1761.84 201.883,1754.65 211.184,1744.93C220.137,1735.57 226.838,1727.2 232.076,1719.83C239.282,1709.69 243.69,1701.44 247.329,1695.02C250.089,1690.16 251.737,1686.49 255.167,1684.73C267.018,1678.63 273.742,1674.74 277.998,1670.9C283.652,1665.81 285.999,1660.77 288.161,1651.72L289.255,1647.1L287.045,1644.27C285.647,1638.59 285.023,1626.97 282.008,1618.47C279.577,1611.62 275.572,1606.47 270.471,1603.95C266.499,1601.99 261.69,1601.29 255.791,1603.08C247.433,1605.61 234.659,1615.19 216.698,1638.51C204.258,1654.67 191.787,1666.05 179.755,1673.87C167.032,1682.13 154.877,1686.33 143.972,1688.05C143.972,1688.05 143.938,1685.9 143.938,1685.9C153.438,1680.29 161.41,1672.86 168.154,1664.91C177.26,1654.17 184.06,1642.51 189.543,1633.82C192.121,1629.73 193.817,1626.28 195.795,1625.1L236.283,1600.79L189.348,1606C186.213,1606.35 181.123,1608.54 175.005,1613.01C167.262,1618.66 156.358,1628.3 143.665,1638.59L143.818,1627.58C151.149,1621.32 157.964,1614.96 163.879,1609.13C176.335,1596.86 184.86,1586.85 186.193,1584.95L195.002,1572.49L180.047,1569.43C176.601,1568.74 172.293,1569.38 167.58,1572.54C162.359,1576.04 155.098,1584.62 144.96,1592.29C144.96,1592.29 145.21,1561.88 145.21,1561.88C156.739,1555.9 168.315,1550.86 179.342,1546.83C194.581,1541.25 208.745,1537.58 220.227,1536.04C225.651,1535.31 231.753,1533.95 237.128,1533.08C235.625,1534.99 234.142,1536.94 232.984,1538.6C227.79,1546.02 225.704,1553.94 228.308,1560.18C230.335,1565.03 235.438,1570.29 247.391,1572.7C253.67,1573.97 258.448,1573.1 262.204,1571.09C266.395,1568.84 269.607,1565.02 271.752,1559.5C273.987,1553.76 275.111,1545.64 276.369,1536.19C278.148,1522.84 280.391,1506.39 289.42,1491.28C291.672,1487.52 294.253,1484.41 296.698,1481.94C301.456,1477.14 305.634,1474.77 305.634,1474.77L332.744,1460.05ZM113.548,1719.13C103.77,1719.84 95.498,1724.65 91.763,1739.15C90.236,1745.08 90.991,1749.27 93.67,1752.78L107.323,1781.8C102.501,1779.41 97.713,1776.43 92.993,1772.79C57.152,1737.16 76.691,1716.44 111.43,1711.55L113.548,1719.13ZM259.219,1774.46L258.867,1774.84C258.983,1774.7 259.1,1774.58 259.219,1774.46ZM83.192,1732.32C80.458,1735.05 77.345,1737.75 77.952,1742C78.24,1744.02 79.295,1745.77 80.805,1747.5C80.444,1744.31 80.728,1740.71 81.813,1736.59C82.235,1735.09 82.695,1733.66 83.192,1732.32ZM132.988,1710.5C139.503,1710.71 146.225,1711.36 152.968,1712.47C191.353,1718.75 181.994,1701.04 186.783,1696.07C191.573,1691.09 212.905,1707.51 199.552,1716.05C186.199,1724.59 161.337,1726.84 145.295,1723.87C141.245,1723.11 136.91,1722.07 132.513,1721.14L132.988,1710.5ZM193.635,1706.51C193.62,1706.67 193.597,1706.82 193.566,1706.96C193.318,1708.11 192.986,1709.24 192.547,1710.35C193.379,1709.85 194.234,1709.44 194.999,1708.93L195.179,1708.85C194.898,1708.4 194.732,1707.61 194.346,1707.18C194.128,1706.94 193.889,1706.72 193.635,1706.51ZM195.746,1708.62C195.781,1708.6 195.804,1708.58 195.81,1708.56C195.817,1708.54 195.806,1708.51 195.774,1708.49C195.694,1708.42 195.707,1708.5 195.746,1708.62ZM193.548,1702.26C193.791,1702.04 194.154,1701.77 194.389,1701.55C194.623,1701.32 194.73,1701.12 194.458,1701.06C193.803,1700.9 193.589,1701.43 193.548,1702.26ZM351.078,1688.86C351.137,1687.92 351.111,1687.66 350.755,1687.69C350.455,1687.72 350.618,1688.29 350.832,1688.8L351.078,1688.86ZM99.885,1670.18C70.873,1672.86 53.577,1654.45 53.577,1654.45C53.577,1654.45 61.303,1656.34 76.973,1654.01C84.256,1652.92 92.038,1650.01 99.929,1645.93L99.885,1670.18ZM91.358,1654.95C90.126,1654.81 88.898,1654.8 87.608,1655.17C85.213,1655.88 83.456,1657.22 81.709,1658.56C84.564,1659.38 87.657,1660.1 91.007,1660.49L91.358,1654.95ZM99.325,1618.54C65.526,1627.47 22.985,1634.15 6.701,1605.92C44.181,1614.71 62.099,1602.33 99.386,1578.03L99.325,1618.54ZM43.984,1615.82L44.269,1615.75C45.743,1615.38 47.153,1614.88 48.549,1614.29C56.238,1610.99 62.003,1604.88 70.449,1600.39C75.701,1597.61 81.947,1597.14 88.213,1594.18C89.029,1593.8 89.842,1593.39 90.655,1592.95C90.655,1592.95 90.078,1610.95 90.078,1610.95L90.078,1610.95C79.382,1613.29 68.076,1615.13 57.284,1615.76C52.725,1616.02 48.268,1616.09 43.984,1615.82ZM176.01,1588.86L176.054,1588.97C176.968,1589.16 179.693,1589.92 179.167,1588.79C178.583,1587.53 177.486,1587.74 176.01,1588.86Z"/>
            </g>
        </g>
        <g transform="matrix(-1,-1.22465e-16,-1.22465e-16,1,2530.46,-0.660642)">
            <g id="Griffon1" >
                <path d="M99.885,1670.18C70.873,1672.86 53.577,1654.45 53.577,1654.45C53.577,1654.45 61.303,1656.34 76.973,1654.01C84.256,1652.92 92.038,1650.01 99.929,1645.93L99.885,1670.18ZM99.325,1618.54C65.526,1627.47 22.985,1634.15 6.701,1605.92C44.181,1614.71 62.099,1602.33 99.386,1578.03L99.325,1618.54ZM143.187,1767.87C162.309,1765.56 186.111,1757.28 204.203,1738.28C237.939,1702.86 238.259,1682.43 250.662,1676.01C272.861,1664.54 275.508,1662.22 278.532,1649.44C273.101,1642.49 280.43,1572.01 224.693,1644.64C192.001,1687.25 158.814,1698.55 133.896,1699.25L133.561,1679.79C166.797,1663.94 180.27,1622.39 190.486,1616.25C184.215,1616.95 168.092,1632.21 147.673,1648.56C142.928,1652.36 137.621,1656.26 133.159,1658.95L133.754,1622.81C157.184,1603.5 176.067,1582.01 178.051,1579.2C171.094,1577.78 158.118,1599.1 135.021,1609.75L135.658,1556.08C165.969,1539.75 197.162,1529.7 219.024,1526.84C233.612,1524.93 252.852,1519.35 252.683,1526.94C252.526,1534 217.901,1557.51 249.192,1563.94C274.798,1569.2 259.513,1524.22 282.057,1486.84C290.07,1473.56 301.582,1467.31 301.582,1467.31C301.582,1467.31 267.024,1466.64 262.077,1457.13C272.412,1464.7 316.346,1452.25 332.187,1451.92C346.784,1451.62 371.036,1468.4 364.152,1480.75C363.565,1481.8 362.835,1483.91 362.835,1483.91C362.835,1483.91 364.606,1484.67 365.957,1485.15C390.516,1493.85 391.872,1510.86 385.849,1525.33C382.027,1508.72 349.676,1517.72 337.974,1521.22C328.22,1534.23 347.75,1537.08 356.151,1538.98C366.114,1545.38 385.405,1529.49 397.391,1565.36C389.242,1561.71 385.849,1560.93 379.291,1562.52C380.339,1566.02 403.415,1562.36 407.298,1588.53C398.978,1585.7 389.403,1585.33 389.588,1587.15C397.328,1589.84 408.002,1595.04 416.227,1613.06C406.886,1610.05 397.857,1608.27 397.948,1610.08C398.085,1612.81 414.49,1615 414.49,1630.01C406.727,1628.53 407.027,1634.01 403.695,1639.97C401.923,1643.14 400.412,1646.07 400.223,1648.54C398.425,1672.1 370.424,1694.91 390.718,1741.92C393.212,1741.65 413.288,1712.84 439.421,1766.83C439.421,1766.83 429.29,1759.34 415.856,1751.83C405.993,1746.31 397.182,1765.95 389.345,1765.52L369.38,1763.9C353.446,1747.15 354.008,1751.37 344.384,1764C335.183,1748.09 349.127,1739.52 355.068,1736.85C358.196,1735.58 361.324,1736.21 364.452,1736.82C354.788,1678.48 360.744,1690.56 358.003,1685.14C338.264,1698.74 353.186,1716.12 320.223,1712.72C310.274,1713.33 304.453,1716 303.33,1721.02C314.129,1722.72 317.333,1746.11 320.714,1756.51C322.374,1761.61 297.935,1777.8 298.844,1780.59C300.626,1786.07 329.583,1772.75 331.407,1789.39L333.295,1802.46L268.952,1801.85C269.214,1787.28 281.548,1794.7 277.358,1789.46C272.844,1783.81 267.67,1778.49 265.645,1780.79C258.584,1788.83 243.483,1755.69 243.282,1747.1C247.78,1736.81 206.63,1780.7 157.194,1788.67L143.187,1767.87ZM113.548,1719.13C103.77,1719.84 95.498,1724.65 91.763,1739.15C90.236,1745.08 90.991,1749.27 93.67,1752.78L107.323,1781.8C102.501,1779.41 97.713,1776.43 92.993,1772.79C57.152,1737.16 76.691,1716.44 111.43,1711.55L113.548,1719.13ZM132.988,1710.5C139.503,1710.71 146.225,1711.36 152.968,1712.47C191.353,1718.75 181.994,1701.04 186.783,1696.07C191.573,1691.09 212.905,1707.51 199.552,1716.05C186.199,1724.59 161.337,1726.84 145.295,1723.87C141.245,1723.11 136.91,1722.07 132.513,1721.14L132.988,1710.5Z" style="fill:var(--primary-color);"/>
                <clipPath id="_clip2">
                    <path d="M99.885,1670.18C70.873,1672.86 53.577,1654.45 53.577,1654.45C53.577,1654.45 61.303,1656.34 76.973,1654.01C84.256,1652.92 92.038,1650.01 99.929,1645.93L99.885,1670.18ZM99.325,1618.54C65.526,1627.47 22.985,1634.15 6.701,1605.92C44.181,1614.71 62.099,1602.33 99.386,1578.03L99.325,1618.54ZM143.187,1767.87C162.309,1765.56 186.111,1757.28 204.203,1738.28C237.939,1702.86 238.259,1682.43 250.662,1676.01C272.861,1664.54 275.508,1662.22 278.532,1649.44C273.101,1642.49 280.43,1572.01 224.693,1644.64C192.001,1687.25 158.814,1698.55 133.896,1699.25L133.561,1679.79C166.797,1663.94 180.27,1622.39 190.486,1616.25C184.215,1616.95 168.092,1632.21 147.673,1648.56C142.928,1652.36 137.621,1656.26 133.159,1658.95L133.754,1622.81C157.184,1603.5 176.067,1582.01 178.051,1579.2C171.094,1577.78 158.118,1599.1 135.021,1609.75L135.658,1556.08C165.969,1539.75 197.162,1529.7 219.024,1526.84C233.612,1524.93 252.852,1519.35 252.683,1526.94C252.526,1534 217.901,1557.51 249.192,1563.94C274.798,1569.2 259.513,1524.22 282.057,1486.84C290.07,1473.56 301.582,1467.31 301.582,1467.31C301.582,1467.31 267.024,1466.64 262.077,1457.13C272.412,1464.7 316.346,1452.25 332.187,1451.92C346.784,1451.62 371.036,1468.4 364.152,1480.75C363.565,1481.8 362.835,1483.91 362.835,1483.91C362.835,1483.91 364.606,1484.67 365.957,1485.15C390.516,1493.85 391.872,1510.86 385.849,1525.33C382.027,1508.72 349.676,1517.72 337.974,1521.22C328.22,1534.23 347.75,1537.08 356.151,1538.98C366.114,1545.38 385.405,1529.49 397.391,1565.36C389.242,1561.71 385.849,1560.93 379.291,1562.52C380.339,1566.02 403.415,1562.36 407.298,1588.53C398.978,1585.7 389.403,1585.33 389.588,1587.15C397.328,1589.84 408.002,1595.04 416.227,1613.06C406.886,1610.05 397.857,1608.27 397.948,1610.08C398.085,1612.81 414.49,1615 414.49,1630.01C406.727,1628.53 407.027,1634.01 403.695,1639.97C401.923,1643.14 400.412,1646.07 400.223,1648.54C398.425,1672.1 370.424,1694.91 390.718,1741.92C393.212,1741.65 413.288,1712.84 439.421,1766.83C439.421,1766.83 429.29,1759.34 415.856,1751.83C405.993,1746.31 397.182,1765.95 389.345,1765.52L369.38,1763.9C353.446,1747.15 354.008,1751.37 344.384,1764C335.183,1748.09 349.127,1739.52 355.068,1736.85C358.196,1735.58 361.324,1736.21 364.452,1736.82C354.788,1678.48 360.744,1690.56 358.003,1685.14C338.264,1698.74 353.186,1716.12 320.223,1712.72C310.274,1713.33 304.453,1716 303.33,1721.02C314.129,1722.72 317.333,1746.11 320.714,1756.51C322.374,1761.61 297.935,1777.8 298.844,1780.59C300.626,1786.07 329.583,1772.75 331.407,1789.39L333.295,1802.46L268.952,1801.85C269.214,1787.28 281.548,1794.7 277.358,1789.46C272.844,1783.81 267.67,1778.49 265.645,1780.79C258.584,1788.83 243.483,1755.69 243.282,1747.1C247.78,1736.81 206.63,1780.7 157.194,1788.67L143.187,1767.87ZM113.548,1719.13C103.77,1719.84 95.498,1724.65 91.763,1739.15C90.236,1745.08 90.991,1749.27 93.67,1752.78L107.323,1781.8C102.501,1779.41 97.713,1776.43 92.993,1772.79C57.152,1737.16 76.691,1716.44 111.43,1711.55L113.548,1719.13ZM132.988,1710.5C139.503,1710.71 146.225,1711.36 152.968,1712.47C191.353,1718.75 181.994,1701.04 186.783,1696.07C191.573,1691.09 212.905,1707.51 199.552,1716.05C186.199,1724.59 161.337,1726.84 145.295,1723.87C141.245,1723.11 136.91,1722.07 132.513,1721.14L132.988,1710.5Z"/>
                </clipPath>
                <g clip-path="url(#_clip2)">
                    <g transform="matrix(0.905098,-0.425202,-0.660108,-0.502033,-603.861,3180.59)">
                        <path d="M2159.15,1638.77C2212.98,1591.84 2240.34,1551.45 2217.67,1523.39C2216.24,1542.04 2137.83,1512.38 2121.03,1536.61C2086.47,1586.43 2122.28,1650 2122.28,1650L2138.95,1659.65L2159.15,1638.77Z" style="fill:var(--secondary-color);"/>
                    </g>
                    <g transform="matrix(-1,-1.22465e-16,-1.22465e-16,1,2550,0.660642)">
                        <path d="M2306.35,1572.66C2306.35,1572.66 2321.19,1571.25 2325.29,1558.78C2326.47,1555.18 2326.68,1550.73 2325.41,1545.13C2331.1,1546.96 2337.14,1548.46 2344.37,1550.61C2351.69,1552.79 2360.17,1555.75 2371,1560.51C2375.72,1562.59 2380.85,1565.04 2386.58,1567.78C2391.36,1570.07 2396.54,1572.59 2402.19,1575.35C2409.3,1578.81 2417.13,1582.6 2425.78,1587.01C2433.07,1590.72 2440.93,1594.63 2449.4,1599.2C2456.49,1602.88 2466.36,1606.25 2476.68,1608.8C2496.83,1613.79 2517.73,1616.28 2517.73,1616.28C2517.73,1616.28 2498.12,1609.41 2479.55,1600.7C2470.82,1596.61 2462.49,1592.15 2456.77,1587.7C2442.76,1577.31 2430.59,1568.73 2419.54,1561.88C2415.91,1559.63 2412.41,1557.6 2409.01,1555.77C2403.12,1552.6 2397.62,1549.96 2392.47,1547.76C2384.3,1544.26 2377.06,1541.8 2370.58,1539.95C2361.66,1537.4 2354.25,1535.99 2347.7,1535.12C2336.23,1533.61 2327.84,1533.85 2318.7,1531.58L2305.45,1526.95L2312.58,1539.04C2318.44,1546.95 2320.43,1552.88 2319.97,1557.67C2318.9,1568.94 2306.35,1572.66 2306.35,1572.66Z" style="fill:var(--secondary-color);"/>
                    </g>
                    <g transform="matrix(-0.755065,0.021822,0.0288888,0.999583,1923.84,1.00569)">
                        <path d="M2346.08,1518.13C2352.93,1526.59 2358.69,1535.27 2369.83,1546.92C2374.95,1552.27 2381.06,1558.01 2388.97,1564.54C2392.88,1567.78 2397.21,1571.14 2402.18,1574.6C2406.45,1577.59 2411.18,1580.63 2416.43,1583.7C2419.27,1585.36 2422.3,1586.99 2425.5,1588.62C2432.22,1592.04 2439.58,1595.38 2447.57,1599.06C2455.57,1602.49 2465.68,1604.73 2476.26,1605.41C2496.87,1606.74 2517.26,1603.79 2517.26,1603.79C2517.26,1603.79 2497.55,1601.82 2478.88,1596.58C2471.1,1594.4 2463.81,1591.58 2458.6,1587.84C2451.55,1583.08 2445.36,1578.5 2439.25,1574.42C2434.66,1571.36 2430.28,1568.51 2426.02,1565.94C2419.08,1561.74 2412.62,1558.18 2406.78,1554.82C2402.14,1552.15 2397.85,1549.78 2393.84,1547.51C2381.74,1540.69 2372.79,1535.36 2365.05,1530.36C2357.97,1525.78 2352.17,1521.98 2346.08,1518.13Z" style="fill:var(--secondary-color);"/>
                    </g>
                    <g transform="matrix(-0.755065,0.021822,0.0288888,0.999583,1955.41,33.2628)">
                        <path d="M2346.08,1518.13C2352.92,1521.81 2357.64,1525.16 2361.62,1528.53C2367.54,1533.56 2370.65,1538.38 2374.29,1543.86C2376.69,1547.47 2379.13,1551.22 2382.44,1555.39C2386.37,1560.33 2391.39,1565.66 2398.64,1571.6C2402.28,1574.58 2406.64,1577.56 2411.56,1580.81C2415.93,1583.3 2420.47,1586 2425.53,1588.61C2432.22,1592.05 2439.6,1595.37 2447.59,1599.04C2455.59,1602.48 2465.69,1604.71 2476.26,1605.39C2496.87,1606.73 2517.26,1603.79 2517.26,1603.79C2517.26,1603.79 2497.55,1601.83 2478.87,1596.6C2471.09,1594.42 2463.79,1591.6 2458.58,1587.86C2451.75,1583.24 2445.71,1578.81 2439.77,1574.82C2435.33,1571.84 2430.98,1569.16 2426.98,1566.51C2418.09,1561.59 2411.49,1557.06 2405.95,1553.06C2398.57,1547.75 2393.25,1543.38 2388.39,1539.26C2384.04,1535.57 2380.13,1532.33 2375.27,1529.32C2368.17,1524.92 2359.9,1521.22 2346.08,1518.13Z" style="fill:var(--secondary-color);"/>
                    </g>
                    <g transform="matrix(1.76221,0,0,1.76221,-250.815,-1129.77)">
                        <path d="M339.183,1484.21C338.65,1479.89 331.213,1475.15 322.89,1478.75C326.003,1482.37 328.489,1484.38 328.489,1484.38L339.183,1484.21Z" style="fill:var(--primary-color);"/>
                        <path d="M339.183,1484.21C338.65,1479.89 331.213,1475.15 322.89,1478.75C326.003,1482.37 328.489,1484.38 328.489,1484.38L339.183,1484.21Z"/>
                    </g>
                    <path d="M360.865,1691.24C360.865,1691.24 360.225,1688.29 359.09,1684.21C358.526,1682.18 357.805,1679.93 356.9,1677.63C356.371,1676.29 355.826,1674.92 355.126,1673.61C354.461,1672.37 353.77,1671.13 352.825,1670.05C349.244,1665.81 347.36,1663.75 347.241,1660.73C347.169,1658.92 347.633,1656.74 349.04,1653.48C350.429,1650.26 352.649,1645.92 355.841,1639.43C352.548,1652.12 350.935,1657 351.649,1660.16C351.835,1660.98 352.362,1661.54 353.016,1662.23C353.987,1663.25 355.337,1664.31 357.089,1665.8C359.278,1667.77 361.04,1670.13 362.278,1672.71C363.097,1674.42 363.687,1676.22 364.063,1677.99C364.574,1680.38 364.787,1682.69 364.743,1684.72C364.655,1688.72 363.899,1691.39 363.899,1691.39L360.865,1691.24Z"/>
                    <g transform="matrix(-0.585396,0.810748,0.810748,0.585396,-834.031,471.355)">
                        <path d="M356.033,1666.85C355.002,1665.33 354.238,1664.14 353.542,1663.09C352.563,1661.6 352.339,1660.62 352.658,1658.93C352.882,1657.75 353.4,1656.34 354.027,1654.4C354.678,1652.38 355.424,1649.87 356.362,1646.7C357.547,1642.7 358.911,1637.71 360.533,1631.31C361.67,1626.81 362.841,1621.72 364.172,1615.76C361.66,1621.31 359.417,1626.02 357.456,1630.21C354.663,1636.17 352.41,1640.8 350.693,1644.59C349.286,1647.69 348.201,1650.17 347.503,1652.24C346.66,1654.75 346.284,1656.68 346.235,1658.24C346.135,1661.42 346.861,1663.48 349.022,1665.46C350.19,1666.54 351.745,1667.53 353.881,1669L356.033,1666.85Z"/>
                    </g>
                    <g transform="matrix(-0.999049,-0.0436001,-0.0436001,0.999049,2612.5,106.731)">
                        <path d="M2159.15,1638.77C2212.98,1591.84 2240.34,1551.45 2217.67,1523.39C2216.24,1542.04 2137.83,1512.38 2121.03,1536.61C2086.47,1586.43 2122.28,1650 2122.28,1650L2138.95,1659.65L2159.15,1638.77Z" style="fill:var(--secondary-color);"/>
                    </g>
                </g>
                <path d="M143.187,1767.87C162.309,1765.56 186.111,1757.28 204.203,1738.28C237.939,1702.86 238.259,1682.43 250.662,1676.01C272.861,1664.54 275.508,1662.22 278.532,1649.44C273.101,1642.49 280.43,1572.01 224.693,1644.64C192.001,1687.25 158.814,1698.55 133.896,1699.25L133.561,1679.79C166.797,1663.94 180.27,1622.39 190.486,1616.25C184.215,1616.95 168.092,1632.21 147.673,1648.56C142.928,1652.36 137.621,1656.26 133.159,1658.95L133.754,1622.81C157.184,1603.5 176.067,1582.01 178.051,1579.2C171.094,1577.78 158.118,1599.1 135.021,1609.75L135.658,1556.08C165.969,1539.75 197.162,1529.7 219.024,1526.84C233.612,1524.93 252.852,1519.35 252.683,1526.94C252.526,1534 217.901,1557.51 249.192,1563.94C274.798,1569.2 259.513,1524.22 282.057,1486.84C290.07,1473.56 301.582,1467.31 301.582,1467.31C301.582,1467.31 267.024,1466.64 262.077,1457.13C272.412,1464.7 316.346,1452.25 332.187,1451.92C346.784,1451.62 371.036,1468.4 364.152,1480.75C363.565,1481.8 362.835,1483.91 362.835,1483.91C362.835,1483.91 364.606,1484.67 365.957,1485.15C390.516,1493.85 391.872,1510.86 385.849,1525.33C382.027,1508.72 349.676,1517.72 337.974,1521.22C328.22,1534.23 347.75,1537.08 356.151,1538.98C366.114,1545.38 385.405,1529.49 397.391,1565.36C389.242,1561.71 385.849,1560.93 379.291,1562.52C380.339,1566.02 403.415,1562.36 407.298,1588.53C398.978,1585.7 389.403,1585.33 389.588,1587.15C397.328,1589.84 408.002,1595.04 416.227,1613.06C406.886,1610.05 397.857,1608.27 397.948,1610.08C398.085,1612.81 414.49,1615 414.49,1630.01C406.727,1628.53 407.027,1634.01 403.695,1639.97C401.923,1643.14 400.412,1646.07 400.223,1648.54C398.425,1672.1 370.424,1694.91 390.718,1741.92C393.212,1741.65 413.288,1712.84 439.421,1766.83C439.421,1766.83 429.29,1759.34 415.856,1751.83C405.993,1746.31 397.182,1765.95 389.345,1765.52L369.38,1763.9C353.446,1747.15 354.008,1751.37 344.384,1764C335.183,1748.09 349.127,1739.52 355.068,1736.85C358.196,1735.58 361.324,1736.21 364.452,1736.82C354.788,1678.48 360.744,1690.56 358.003,1685.14C338.264,1698.74 353.186,1716.12 320.223,1712.72C310.274,1713.33 304.453,1716 303.33,1721.02C314.129,1722.72 317.333,1746.11 320.714,1756.51C322.374,1761.61 297.935,1777.8 298.844,1780.59C300.626,1786.07 329.583,1772.75 331.407,1789.39L333.295,1802.46L268.952,1801.85C269.214,1787.28 281.548,1794.7 277.358,1789.46C272.844,1783.81 267.67,1778.49 265.645,1780.79C258.584,1788.83 243.483,1755.69 243.282,1747.1C247.78,1736.81 206.63,1780.7 157.194,1788.67L143.187,1767.87ZM333.745,1460.09L332.744,1460.05L305.634,1474.77C305.634,1474.77 301.456,1477.14 296.698,1481.94C294.253,1484.41 291.672,1487.52 289.42,1491.28C280.391,1506.39 278.148,1522.84 276.369,1536.19C275.111,1545.64 273.987,1553.76 271.752,1559.5C269.607,1565.02 266.395,1568.84 262.204,1571.09C258.448,1573.1 253.67,1573.97 247.391,1572.7C235.438,1570.29 230.335,1565.03 228.308,1560.18C225.704,1553.94 227.79,1546.02 232.984,1538.6C234.142,1536.94 235.625,1534.99 237.128,1533.08C231.753,1533.95 225.651,1535.31 220.227,1536.04C208.745,1537.58 194.581,1541.25 179.342,1546.83C168.315,1550.86 156.739,1555.9 145.21,1561.88C145.21,1561.88 144.96,1592.29 144.96,1592.29C155.098,1584.62 162.359,1576.04 167.58,1572.54C172.293,1569.38 176.601,1568.74 180.047,1569.43L195.002,1572.49L186.193,1584.95C184.86,1586.85 176.335,1596.86 163.879,1609.13C157.964,1614.96 151.149,1621.32 143.818,1627.58L143.665,1638.59C156.358,1628.3 167.262,1618.66 175.005,1613.01C181.123,1608.54 186.213,1606.35 189.348,1606L236.283,1600.79L195.795,1625.1C193.817,1626.28 192.121,1629.73 189.543,1633.82C184.06,1642.51 177.26,1654.17 168.154,1664.91C161.41,1672.86 153.438,1680.29 143.937,1685.9C143.938,1685.9 143.972,1688.05 143.972,1688.05C154.877,1686.33 167.032,1682.13 179.755,1673.87C191.787,1666.05 204.258,1654.67 216.698,1638.51C234.659,1615.19 247.433,1605.61 255.791,1603.08C261.69,1601.29 266.499,1601.99 270.471,1603.95C275.572,1606.47 279.577,1611.62 282.008,1618.47C285.023,1626.97 285.647,1638.59 287.045,1644.27L289.255,1647.1L288.161,1651.72C285.999,1660.77 283.652,1665.81 277.998,1670.9C273.742,1674.74 267.018,1678.63 255.167,1684.73C251.737,1686.49 250.089,1690.16 247.329,1695.02C243.69,1701.44 239.282,1709.69 232.076,1719.83C226.838,1727.2 220.137,1735.57 211.184,1744.93C201.883,1754.65 191.236,1761.84 180.372,1766.97C173.261,1770.33 166.062,1772.81 159.106,1774.56L161.566,1778.23C192.367,1771.45 218.969,1750.94 231.044,1742.29C236.303,1738.53 240.195,1736.74 241.679,1736.51C244.899,1736.01 247.218,1736.99 248.861,1738.19C250.547,1739.42 253.853,1742.56 252.563,1748.14C253.311,1752.71 257.211,1761.68 261.254,1768.2C261.934,1769.29 262.889,1770.53 263.713,1771.54C266.272,1770.72 269.28,1770.95 272.672,1772.73C275.883,1774.41 280.445,1778.91 284.373,1783.86C286.725,1786.82 287.103,1789.12 287.181,1790.47C287.236,1791.43 287.176,1792.32 287.004,1793.15L323.225,1793.6C323.225,1793.6 322.785,1790.49 322.785,1790.49C322.719,1789.87 322.382,1789.72 322.015,1789.63C321.052,1789.39 319.99,1789.32 318.89,1789.3C312.739,1789.21 305.819,1790.72 301.815,1790.58C295.259,1790.34 291.883,1786.92 290.698,1783.24C290.091,1781.35 289.924,1776.54 294.42,1771.92C297.92,1768.32 308.385,1758.83 311.721,1755.82C310.443,1751.08 309.095,1744.96 307.245,1739.33C306.317,1736.5 305.278,1733.8 303.961,1731.63C303.331,1730.59 303.016,1729.4 302.04,1729.24L293.276,1727.87L295.211,1719.21C296.109,1715.25 298.312,1711.93 302.016,1709.39C305.803,1706.79 311.698,1704.94 319.718,1704.48L320.396,1704.44L321.071,1704.51C328.86,1705.34 332.95,1705.39 335.356,1703.57C337.529,1701.92 337.869,1699.15 339.087,1696.32C341.532,1690.63 344.939,1684.29 353.416,1678.48L361.035,1673.23L365.213,1681.49C367.383,1685.81 367.035,1686.24 366.823,1688.35C366.694,1689.64 366.237,1692.93 368.431,1709.93C369.268,1716.42 370.472,1724.77 372.205,1735.54L374.053,1746.69L362.953,1744.53L358.021,1744.09C357.35,1744.39 356.541,1744.77 355.686,1745.26C356.517,1745.31 357.373,1745.46 358.261,1745.69C361.455,1746.54 365.974,1749.66 372.835,1756.67L389.305,1758.08C389.139,1758.07 389.013,1758.1 389.059,1758.22C389.761,1760.06 392.721,1755.58 394.733,1753.71C398.825,1749.9 403.227,1746.1 407.611,1744.77C411.395,1743.62 415.245,1743.69 419.126,1745.98L420.191,1746.62C417.593,1743.73 415.093,1741.76 412.68,1740.52C404.774,1736.45 398.72,1741.51 395.813,1743.85C393.676,1745.57 391.929,1746.34 391.214,1746.41L387.9,1746.77L386.578,1743.71C380.239,1728.1 379.027,1715.12 379.922,1703.83C381.783,1680.36 394.603,1664.33 395.55,1648.18C395.641,1646.63 396.086,1644.94 396.783,1643.15C397.459,1641.42 398.416,1639.56 399.46,1637.61C401.658,1633.5 402.627,1629.75 404.738,1627.61C405.705,1626.63 406.845,1625.81 408.293,1625.28C407.902,1624.46 407.421,1623.73 406.884,1623.07C403.423,1618.85 397.983,1617.33 395.849,1615.94C393.216,1614.24 392.442,1612.03 392.329,1610.36C392.153,1607.78 393.631,1603.98 399.345,1603.7C400.362,1603.65 401.781,1603.75 403.484,1603.99C402.732,1603.11 401.974,1602.3 401.215,1601.55C396.35,1596.75 391.39,1594.75 387.398,1593.44L383.388,1592.05L382.96,1587.82C382.63,1585.07 383.888,1580.88 389.743,1579.64C391.242,1579.32 393.626,1579.24 396.459,1579.43C395.534,1578.16 394.505,1577.12 393.412,1576.26C387.922,1571.97 381.261,1571.9 378.401,1570.97C374.295,1569.64 372.561,1566.95 371.855,1564.74L369.51,1556.9L377.462,1554.97C379.22,1554.51 380.813,1554.21 382.325,1554.04C381.058,1552.64 379.744,1551.61 378.379,1550.86C373.413,1548.15 368.241,1549.34 363.884,1549.28C359.868,1549.22 356.231,1548.61 353.067,1547C348.529,1545.99 341.976,1544.61 337.145,1542.19C333.003,1540.11 329.91,1537.24 328.297,1533.9C326.136,1529.44 325.698,1523.52 331.232,1516.17L332.899,1513.94L335.562,1513.15C344.156,1510.6 362.875,1505.68 375.65,1507.87C377.338,1508.16 378.941,1508.56 380.447,1509.06C380.203,1507.4 379.699,1505.76 378.87,1504.19C376.432,1499.57 371.4,1495.76 363.232,1492.85C363.232,1492.85 352.649,1488.39 352.649,1488.39L355.129,1481.24L357.036,1476.78C357.65,1475.69 356.912,1474.56 356.206,1473.39C354.792,1471.06 352.519,1468.86 349.894,1466.91C344.984,1463.27 338.824,1460.45 333.745,1460.09ZM113.548,1719.13C103.77,1719.84 95.498,1724.65 91.763,1739.15C90.236,1745.08 90.991,1749.27 93.67,1752.78L107.323,1781.8C102.501,1779.41 97.713,1776.43 92.993,1772.79C57.152,1737.16 76.691,1716.44 111.43,1711.55L113.548,1719.13ZM259.219,1774.46C259.16,1774.52 259.101,1774.58 259.042,1774.64C258.983,1774.71 258.925,1774.77 258.867,1774.84L259.219,1774.46ZM83.192,1732.32C82.695,1733.66 82.235,1735.09 81.813,1736.59C80.728,1740.71 80.444,1744.31 80.805,1747.5C79.295,1745.77 78.24,1744.02 77.952,1742C77.345,1737.75 80.458,1735.05 83.192,1732.32ZM132.988,1710.5C139.503,1710.71 146.225,1711.36 152.968,1712.47C191.353,1718.75 181.994,1701.04 186.783,1696.07C191.573,1691.09 212.905,1707.51 199.552,1716.05C186.199,1724.59 161.337,1726.84 145.295,1723.87C141.245,1723.11 136.91,1722.07 132.513,1721.14L132.988,1710.5ZM193.634,1706.52L193.848,1706.7C194.436,1707.28 194.651,1708.36 195.093,1708.89L194.999,1708.93C194.234,1709.44 193.379,1709.85 192.547,1710.35C192.986,1709.24 193.318,1708.11 193.566,1706.96C193.596,1706.82 193.619,1706.68 193.634,1706.52ZM195.727,1708.62C195.709,1708.56 195.697,1708.51 195.7,1708.48C195.703,1708.45 195.72,1708.44 195.76,1708.48C195.823,1708.53 195.799,1708.58 195.727,1708.62ZM193.548,1702.26C193.569,1701.84 193.632,1701.5 193.773,1701.29C193.913,1701.07 194.131,1700.98 194.458,1701.06C195.001,1701.19 194.033,1701.82 193.548,1702.26ZM350.832,1688.8C350.618,1688.29 350.456,1687.72 350.755,1687.69C351.111,1687.66 351.137,1687.92 351.078,1688.86L350.832,1688.8ZM99.885,1670.18C70.873,1672.86 53.577,1654.45 53.577,1654.45C53.577,1654.45 61.303,1656.34 76.973,1654.01C84.256,1652.92 92.038,1650.01 99.929,1645.93L99.885,1670.18ZM81.709,1658.56C83.456,1657.22 85.213,1655.88 87.608,1655.17C88.898,1654.8 90.126,1654.81 91.358,1654.95L91.007,1660.49C87.657,1660.1 84.564,1659.38 81.709,1658.56ZM99.325,1618.54C65.526,1627.47 22.985,1634.15 6.701,1605.92C44.181,1614.71 62.099,1602.33 99.386,1578.03L99.325,1618.54ZM43.984,1615.82C48.268,1616.09 52.725,1616.02 57.284,1615.76C68.076,1615.13 79.382,1613.29 90.078,1610.95L90.078,1610.95L90.655,1592.95C89.842,1593.39 89.029,1593.8 88.213,1594.18C81.947,1597.14 75.701,1597.61 70.449,1600.39C62.003,1604.88 56.238,1610.99 48.549,1614.29C47.153,1614.88 45.743,1615.38 44.269,1615.75L43.984,1615.82ZM176.01,1588.86C177.486,1587.74 178.583,1587.53 179.167,1588.79C179.693,1589.92 176.968,1589.16 176.054,1588.97L176.01,1588.86Z"/>
            </g>
        </g>
    </g>
</svg>
