<?xml version="1.0" encoding="UTF-8" standalone="no"?>
<!DOCTYPE svg PUBLIC "-//W3C//DTD SVG 1.1//EN" "http://www.w3.org/Graphics/SVG/1.1/DTD/svg11.dtd">
<svg width="100%" height="100%" viewBox="0 0 2550 3300" version="1.1" xmlns="http://www.w3.org/2000/svg" style="fill-rule:evenodd;clip-rule:evenodd;stroke-linejoin:round;stroke-miterlimit:2;">
    <g transform="matrix(1,0,0,1,2.84625,0)">
        <g transform="matrix(1.13291,0.0393334,-0.0393334,1.13291,2195.59,1429.14)">
            <path d="M110.281,100.764C110.345,100.563 110.398,100.36 110.439,100.153C109.08,96.448 108.679,91.711 109.314,89.9C110.952,85.214 120.627,80.365 134.237,77.381C133.864,80.17 133.245,85.48 133.206,90.047C133.178,94.035 133.72,97.578 134.594,99.695C136.509,104.337 139.974,106.17 143.578,106.371C145.951,106.496 150.454,105.734 154.975,99.557C160.861,91.506 163.452,85.413 162.282,74.465C172.369,74.472 182.97,75.584 193.211,78.237C164.894,79.667 154.99,105.365 148.922,120.753C161.872,117.783 163.085,102.348 162.768,108.426C161.266,135.853 126.318,167.212 133.624,175.93C140.35,183.91 145.116,187.3 159.95,182.871C152.6,182.477 151.977,179.772 144.849,178.802C150.486,171.03 162.623,163.157 169.483,160.195C183.937,153.958 189.818,151.017 203.307,146.86L203.951,162.422C200.423,166.529 193.835,170.402 193.835,170.402C193.835,170.402 200.499,171.981 204.057,171.52L205.008,195.6C200.598,200.163 198.438,199.432 191.355,201.493C164.279,209.427 151.451,216.858 128.384,197.024C128.195,207.635 161.492,221.341 196.728,204.468C200.247,202.785 190.82,223.165 176.744,229.938C167.968,234.152 146.453,231.2 137.321,230.34C130.838,251.71 141.911,236.535 147.048,267.435C147.382,269.443 118.434,240.744 107.297,226.521C102.13,219.874 93.711,208.928 92.375,204.914C87.163,189.296 90.147,184.452 95.136,172.807C99.546,162.564 101.653,155.153 116.792,139.392C108.232,136.678 76.97,129.713 83.099,152.977C78.748,147.212 76.005,141.944 74.723,137.219C73.815,133.996 73.617,131.03 73.944,128.322C75.008,119.88 81.642,114.007 91.252,111.091C95.382,109.842 98.783,108.688 101.517,107.55C106.647,109.299 116.291,111.85 121.907,108.69C129.824,104.236 126.29,93.57 126.29,93.57L110.281,100.764ZM155.777,143.708C152.716,151.368 148.744,158.317 145.517,164.26C144.849,165.508 142.837,166.224 143.513,168.405C146.898,166.026 150.417,162.581 153.892,159.622C158.124,155.961 162.267,152.876 165.697,151.392C182.13,144.297 185.984,141.431 203.453,136.34L202.571,110.244C181.202,119.23 169.517,130.549 155.777,143.708ZM185.806,33.311C185.806,33.311 152.665,52.534 154.859,65.536C157.315,80.133 154.712,87.191 147.639,96.84C134.284,115.079 140.972,72.271 140.972,72.271C142.541,57.525 147.998,43.283 185.806,33.311Z" style="fill:rgb(51,148,40);"/>
            <path d="M110.281,100.764C110.345,100.563 110.398,100.36 110.439,100.153C109.08,96.448 108.679,91.711 109.314,89.9C110.952,85.214 120.627,80.365 134.237,77.381C133.864,80.17 133.245,85.48 133.206,90.047C133.178,94.035 133.72,97.578 134.594,99.695C136.509,104.337 139.974,106.17 143.578,106.371C145.951,106.496 150.454,105.734 154.975,99.557C160.861,91.506 163.452,85.413 162.282,74.465C172.369,74.472 182.97,75.584 193.211,78.237C164.894,79.667 154.99,105.365 148.922,120.753C161.872,117.783 163.085,102.348 162.768,108.426C161.266,135.853 126.318,167.212 133.624,175.93C140.35,183.91 145.116,187.3 159.95,182.871C152.6,182.477 151.977,179.772 144.849,178.802C150.486,171.03 162.623,163.157 169.483,160.195C183.937,153.958 189.818,151.017 203.307,146.86L203.951,162.422C200.423,166.529 193.835,170.402 193.835,170.402C193.835,170.402 200.499,171.981 204.057,171.52L205.008,195.6C200.598,200.163 198.438,199.432 191.355,201.493C164.279,209.427 151.451,216.858 128.384,197.024C128.195,207.635 161.492,221.341 196.728,204.468C200.247,202.785 190.82,223.165 176.744,229.938C167.968,234.152 146.453,231.2 137.321,230.34C130.838,251.71 141.911,236.535 147.048,267.435C147.382,269.443 118.434,240.744 107.297,226.521C102.13,219.874 93.711,208.928 92.375,204.914C87.163,189.296 90.147,184.452 95.136,172.807C99.546,162.564 101.653,155.153 116.792,139.392C108.232,136.678 76.97,129.713 83.099,152.977C78.748,147.212 76.005,141.944 74.723,137.219C73.815,133.996 73.617,131.03 73.944,128.322C75.008,119.88 81.642,114.007 91.252,111.091C95.382,109.842 98.783,108.688 101.517,107.55C106.647,109.299 116.291,111.85 121.907,108.69C129.824,104.236 126.29,93.57 126.29,93.57L110.281,100.764ZM131.765,107.632C134.912,111.222 139.026,112.743 143.209,112.977L143.219,112.977C143.721,113.004 144.293,113.014 144.924,112.984C144.147,114.846 143.433,116.638 142.767,118.326L138.16,130.009L150.215,127.244C149.039,129.593 147.754,131.919 146.425,134.207C140.935,143.657 134.594,152.449 130.651,159.437C128.109,163.942 126.52,167.912 126.125,171.027C125.65,174.773 126.565,177.807 128.553,180.179L128.559,180.186C132.856,185.285 136.701,188.685 141.66,190.333C146.496,191.939 152.615,191.966 161.843,189.211L197.712,178.501L198.27,192.631C197.289,193.211 196.339,193.439 195.092,193.73C193.564,194.086 191.772,194.481 189.507,195.14L189.501,195.142C165.098,202.293 153.482,209.879 132.698,192.007L122.02,182.826L121.769,196.906C121.681,201.821 125.298,207.918 133.201,212.29C143.582,218.031 162.049,221.653 182.728,216.515C180.131,219.577 177.091,222.428 173.878,223.975C171.047,225.333 166.543,225.544 161.723,225.531C152.976,225.509 143.285,224.256 137.942,223.753L132.559,223.245L130.99,228.419C129.342,233.852 128.747,237.637 128.789,240.435C122.417,233.852 116.166,227.114 112.511,222.448C107.779,216.361 99.875,206.496 98.652,202.824L98.651,202.822C95.59,193.648 95.937,188.835 97.837,183.49L98.055,183.779L97.92,183.264C98.774,180.903 99.926,178.427 101.216,175.417C105.363,165.784 107.325,158.799 121.564,143.975L128.935,136.301L118.792,133.085C114.002,131.567 102.852,128.935 93.766,129.861C88.654,130.382 84.158,132.05 80.96,134.916C80.426,132.821 80.3,130.905 80.509,129.141C81.269,123.177 86.387,119.481 93.173,117.422C96.458,116.428 99.307,115.487 101.749,114.57C105.097,115.573 109.36,116.565 113.457,116.766C117.771,116.978 121.909,116.281 125.152,114.457C128.36,112.651 130.454,110.242 131.765,107.632ZM197.702,178.271L160.305,176.265C158.942,176.192 157.891,176.001 156.999,175.747C162.086,171.554 168.116,167.992 172.105,166.269C182.986,161.574 188.907,158.775 197.059,155.884C197.059,155.884 197.223,159.844 197.223,159.844C194.257,162.528 190.482,164.698 190.482,164.698L176.286,173.044L192.31,176.84C192.31,176.84 194.752,177.377 197.683,177.775L197.702,178.271ZM155.777,143.708C152.716,151.368 148.744,158.317 145.517,164.26C144.849,165.508 142.837,166.224 143.513,168.405C146.898,166.026 150.417,162.581 153.892,159.622C158.124,155.961 162.267,152.876 165.697,151.392C182.13,144.297 185.984,141.431 203.453,136.34L202.571,110.244C181.202,119.23 169.517,130.549 155.777,143.708ZM164.168,144.841C173.801,135.655 182.925,127.449 196.297,120.484C196.297,120.484 196.668,131.476 196.668,131.476C183.209,135.695 178.408,138.651 164.168,144.841ZM185.806,33.311C185.806,33.311 152.665,52.534 154.859,65.536C157.315,80.133 154.712,87.191 147.639,96.84C134.284,115.079 140.972,72.271 140.972,72.271C142.541,57.525 147.998,43.283 185.806,33.311ZM125.225,86.795L118.923,89.627C120.682,88.622 122.804,87.672 125.225,86.795ZM148.446,67.327C148.011,69.228 147.743,71.165 147.533,73.132L147.508,73.292C147.508,73.292 146.422,80.21 146.045,87.117C148.981,81.601 149.838,76.108 148.446,67.327Z"/>
        </g>
        <g transform="matrix(-1.13291,0.0393334,0.0393334,1.13291,348.715,1429.14)">
            <path d="M110.281,100.764C110.345,100.563 110.398,100.36 110.439,100.153C109.08,96.448 108.679,91.711 109.314,89.9C110.952,85.214 120.627,80.365 134.237,77.381C133.864,80.17 133.245,85.48 133.206,90.047C133.178,94.035 133.72,97.578 134.594,99.695C136.509,104.337 139.974,106.17 143.578,106.371C145.951,106.496 150.454,105.734 154.975,99.557C160.861,91.506 163.452,85.413 162.282,74.465C172.369,74.472 182.97,75.584 193.211,78.237C164.894,79.667 154.99,105.365 148.922,120.753C161.872,117.783 163.085,102.348 162.768,108.426C161.266,135.853 126.318,167.212 133.624,175.93C140.35,183.91 145.116,187.3 159.95,182.871C152.6,182.477 151.977,179.772 144.849,178.802C150.486,171.03 162.623,163.157 169.483,160.195C183.937,153.958 189.818,151.017 203.307,146.86L203.951,162.422C200.423,166.529 193.835,170.402 193.835,170.402C193.835,170.402 200.499,171.981 204.057,171.52L205.008,195.6C200.598,200.163 198.438,199.432 191.355,201.493C164.279,209.427 151.451,216.858 128.384,197.024C128.195,207.635 161.492,221.341 196.728,204.468C200.247,202.785 190.82,223.165 176.744,229.938C167.968,234.152 146.453,231.2 137.321,230.34C130.838,251.71 141.911,236.535 147.048,267.435C147.382,269.443 118.434,240.744 107.297,226.521C102.13,219.874 93.711,208.928 92.375,204.914C87.163,189.296 90.147,184.452 95.136,172.807C99.546,162.564 101.653,155.153 116.792,139.392C108.232,136.678 76.97,129.713 83.099,152.977C78.748,147.212 76.005,141.944 74.723,137.219C73.815,133.996 73.617,131.03 73.944,128.322C75.008,119.88 81.642,114.007 91.252,111.091C95.382,109.842 98.783,108.688 101.517,107.55C106.647,109.299 116.291,111.85 121.907,108.69C129.824,104.236 126.29,93.57 126.29,93.57L110.281,100.764ZM155.777,143.708C152.716,151.368 148.744,158.317 145.517,164.26C144.849,165.508 142.837,166.224 143.513,168.405C146.898,166.026 150.417,162.581 153.892,159.622C158.124,155.961 162.267,152.876 165.697,151.392C182.13,144.297 185.984,141.431 203.453,136.34L202.571,110.244C181.202,119.23 169.517,130.549 155.777,143.708ZM185.806,33.311C185.806,33.311 152.665,52.534 154.859,65.536C157.315,80.133 154.712,87.191 147.639,96.84C134.284,115.079 140.972,72.271 140.972,72.271C142.541,57.525 147.998,43.283 185.806,33.311Z" style="fill:rgb(51,148,40);"/>
            <path d="M110.281,100.764C110.345,100.563 110.398,100.36 110.439,100.153C109.08,96.448 108.679,91.711 109.314,89.9C110.952,85.214 120.627,80.365 134.237,77.381C133.864,80.17 133.245,85.48 133.206,90.047C133.178,94.035 133.72,97.578 134.594,99.695C136.509,104.337 139.974,106.17 143.578,106.371C145.951,106.496 150.454,105.734 154.975,99.557C160.861,91.506 163.452,85.413 162.282,74.465C172.369,74.472 182.97,75.584 193.211,78.237C164.894,79.667 154.99,105.365 148.922,120.753C161.872,117.783 163.085,102.348 162.768,108.426C161.266,135.853 126.318,167.212 133.624,175.93C140.35,183.91 145.116,187.3 159.95,182.871C152.6,182.477 151.977,179.772 144.849,178.802C150.486,171.03 162.623,163.157 169.483,160.195C183.937,153.958 189.818,151.017 203.307,146.86L203.951,162.422C200.423,166.529 193.835,170.402 193.835,170.402C193.835,170.402 200.499,171.981 204.057,171.52L205.008,195.6C200.598,200.163 198.438,199.432 191.355,201.493C164.279,209.427 151.451,216.858 128.384,197.024C128.195,207.635 161.492,221.341 196.728,204.468C200.247,202.785 190.82,223.165 176.744,229.938C167.968,234.152 146.453,231.2 137.321,230.34C130.838,251.71 141.911,236.535 147.048,267.435C147.382,269.443 118.434,240.744 107.297,226.521C102.13,219.874 93.711,208.928 92.375,204.914C87.163,189.296 90.147,184.452 95.136,172.807C99.546,162.564 101.653,155.153 116.792,139.392C108.232,136.678 76.97,129.713 83.099,152.977C78.748,147.212 76.005,141.944 74.723,137.219C73.815,133.996 73.617,131.03 73.944,128.322C75.008,119.88 81.642,114.007 91.252,111.091C95.382,109.842 98.783,108.688 101.517,107.55C106.647,109.299 116.291,111.85 121.907,108.69C129.824,104.236 126.29,93.57 126.29,93.57L110.281,100.764ZM131.765,107.632C130.454,110.242 128.36,112.651 125.152,114.457C121.909,116.281 117.771,116.978 113.457,116.766C109.36,116.565 105.098,115.573 101.748,114.57C99.305,115.488 96.455,116.429 93.167,117.424C86.387,119.481 81.269,123.177 80.51,129.135C80.299,130.907 80.427,132.834 80.96,134.916C84.158,132.05 88.654,130.382 93.766,129.861C102.852,128.935 114.002,131.567 118.792,133.085L128.935,136.301L121.564,143.975C107.325,158.799 105.363,165.784 101.216,175.417C99.926,178.427 98.774,180.903 97.92,183.264L98.055,183.779L97.837,183.49C95.937,188.834 95.59,193.647 98.65,202.819L98.651,202.822C99.875,206.496 107.779,216.361 112.511,222.448C116.166,227.114 122.417,233.852 128.789,240.435C128.747,237.637 129.342,233.852 130.99,228.419L132.559,223.245L137.942,223.753C143.285,224.256 152.976,225.509 161.723,225.531C166.543,225.544 171.047,225.333 173.878,223.975C177.087,222.43 180.124,219.584 182.719,216.527C162.068,221.657 143.587,218.034 133.201,212.29C125.298,207.918 121.681,201.821 121.769,196.906L122.02,182.826L132.698,192.007C153.482,209.879 165.098,202.293 189.494,195.143L189.501,195.142C191.772,194.481 193.564,194.086 195.092,193.73C196.34,193.439 197.289,193.211 198.27,192.631L197.712,178.501L161.843,189.211C152.615,191.966 146.496,191.939 141.66,190.333C136.701,188.685 132.856,185.285 128.565,180.193L128.559,180.186C126.565,177.807 125.65,174.773 126.125,171.027C126.52,167.912 128.109,163.942 130.651,159.437C134.594,152.449 140.935,143.657 146.425,134.207C147.754,131.919 149.039,129.593 150.215,127.244L138.16,130.009L142.767,118.326C143.433,116.638 144.147,114.845 144.927,112.985C144.298,113.014 143.729,113.004 143.23,112.978L143.219,112.977C139.029,112.744 134.913,111.222 131.765,107.632ZM156.999,175.747C157.891,176.001 158.942,176.192 160.305,176.265L197.702,178.271L197.683,177.775C194.752,177.377 192.31,176.84 192.31,176.84L176.286,173.044L190.482,164.698C190.482,164.698 194.257,162.527 197.223,159.844C197.223,159.844 197.059,155.884 197.059,155.884C188.907,158.775 182.986,161.574 172.104,166.27C168.115,167.992 162.086,171.554 156.999,175.747ZM155.777,143.708C152.716,151.368 148.744,158.317 145.517,164.26C144.849,165.508 142.837,166.224 143.513,168.405C146.898,166.026 150.417,162.581 153.892,159.622C158.124,155.961 162.267,152.876 165.697,151.392C182.13,144.297 185.984,141.431 203.453,136.34L202.571,110.244C181.202,119.23 169.517,130.549 155.777,143.708ZM164.168,144.841C178.408,138.651 183.209,135.695 196.668,131.476C196.668,131.476 196.297,120.484 196.297,120.484C182.925,127.449 173.801,135.655 164.168,144.841ZM185.806,33.311C185.806,33.311 152.665,52.534 154.859,65.536C157.315,80.133 154.712,87.191 147.639,96.84C134.284,115.079 140.972,72.271 140.972,72.271C142.541,57.525 147.998,43.283 185.806,33.311ZM125.225,86.795C124.014,87.234 122.879,87.69 121.826,88.163C120.773,88.636 119.803,89.125 118.923,89.627L125.225,86.795ZM148.444,67.316C149.837,76.103 148.982,81.598 146.045,87.117C146.423,80.206 147.512,73.267 147.533,73.132L147.551,72.971C147.752,71.076 148.015,69.185 148.444,67.316Z"/>
        </g>
    </g>
</svg>
