<?xml version="1.0" encoding="UTF-8" standalone="no"?>
<!DOCTYPE svg PUBLIC "-//W3C//DTD SVG 1.1//EN" "http://www.w3.org/Graphics/SVG/1.1/DTD/svg11.dtd">
<svg width="100%" height="100%" viewBox="0 0 2550 3300" version="1.1" xmlns="http://www.w3.org/2000/svg" xmlns:xlink="http://www.w3.org/1999/xlink" xml:space="preserve" xmlns:serif="http://www.serif.com/" style="fill-rule:evenodd;clip-rule:evenodd;stroke-linejoin:round;stroke-miterlimit:2;">
    <g transform="matrix(1.00594,0,0,1.00594,-7.25035,13.6704)">
        <g id="Primary" transform="matrix(0.994098,0,0,0.994098,7.20756,-13.5897)">
            <path d="M1370,3052.26C1386.91,3089.53 1377.4,3119.15 1376.68,3131.27C1375.08,3158.48 1360.1,3176.23 1340.83,3192.02C1325.98,3204.18 1310.27,3213.99 1290.4,3217.46C1264.04,3222.06 1238.36,3214.73 1217.61,3195.6L1250.63,3169.13C1276.46,3184.08 1307.14,3169.58 1324.77,3145.21C1339.62,3124.67 1340.84,3104.54 1333.93,3086.47L1370,3052.26ZM1223.87,3012.7C1218.6,3018.03 1205.76,3025.76 1200.69,3030.38C1188.18,3028.15 1187.4,3031.7 1181.06,3042.24C1173.35,3055.03 1161.77,3076.08 1162.6,3097.9C1163.83,3130.6 1171.39,3151.88 1178.53,3172.38C1179.28,3174.54 1249.91,3106.68 1250.63,3108.61C1258.52,3120.99 1263.27,3123.88 1270.78,3132.42C1261.21,3151.77 1175.53,3226.12 1163.94,3215.36C1162.93,3214.43 1160.73,3211.33 1160.32,3210.46C1157.32,3204 1154.56,3197.44 1151.52,3191C1144.61,3176.36 1129.26,3134.46 1131.7,3086.08C1133.61,3048.24 1152.24,3023.99 1155.92,3017.05C1163.97,3001.86 1198.15,2986.98 1223.87,3012.7ZM1342.78,3196.43C1348.05,3191.1 1356.14,3182.01 1361.21,3176.54C1367,3180.18 1372.25,3173.62 1375.86,3167.62C1383.57,3154.82 1395.15,3133.77 1394.32,3111.95C1393.09,3079.25 1384.68,3048.73 1377.55,3028.23C1376.8,3026.07 1306.16,3101.34 1305.44,3099.41C1297.56,3087.03 1289.52,3081.58 1282.01,3073.04C1291.58,3053.69 1380.54,2974.49 1392.13,2985.25C1393.14,2986.18 1395.35,2989.28 1395.75,2990.15C1398.75,2996.61 1401.51,3003.17 1404.55,3009.61C1411.46,3024.25 1427.66,3075.39 1425.22,3123.77C1423.31,3161.61 1404.68,3185.86 1401,3192.81C1390.11,3213.35 1368.34,3215.32 1342.78,3196.43ZM1212.99,3128.99C1211.21,3125.74 1211.77,3126.61 1210.44,3123.13C1200.19,3096.24 1215.23,3079.26 1233.01,3062.36C1238.54,3057.11 1245.05,3052.33 1251.91,3048.93C1252.76,3048.51 1277.47,3027.22 1277.43,3026.92C1272.75,3024.88 1255.51,3002.33 1252.27,2998.74C1246.3,2998.85 1222.25,3021.16 1217.68,3024.47C1196.3,3039.98 1179.9,3067.92 1173.66,3093.5C1167.05,3120.6 1173.03,3131.41 1186.94,3156.6L1212.99,3128.99ZM1228.99,3077.02C1228.54,3071.57 1249.71,3056.2 1254.08,3057.56C1256.84,3058.41 1325.58,3124.72 1325.88,3126.28C1326.28,3128.38 1309.98,3149.15 1305.58,3152.6C1296.84,3159.46 1229.16,3079.14 1228.99,3077.02ZM1245.06,2874.6C1270.35,2944.84 1325.45,2993.74 1330.64,2998.74L1298.8,3033.9C1255.44,2983.89 1212.79,2937.68 1184.37,2871.31C1199.23,2875.5 1223.18,2878.29 1245.06,2874.6ZM1368.44,2879.45C1368.44,2879.45 1358.36,2952.35 1312.18,2956.06L1337.35,2984.25C1342.25,2984.16 1364.82,2973.34 1376.19,2955.31C1378.66,2951.38 1382.78,2941.14 1392.05,2959.94C1398.66,2932.85 1382.35,2904.64 1368.44,2879.45ZM1265.12,2759.55C1307.73,2753.47 1344.41,2746.05 1385.91,2732.88C1441.08,2772.65 1471.44,2835.07 1466.72,2917.32C1408.25,2835.51 1324.51,2781.76 1265.12,2759.55ZM1144.46,2799.25C1138.47,2787.15 1151.16,2754.94 1152.59,2741.75C1146.12,2740.21 1139.74,2738.51 1133.46,2736.59C1069.73,2783.65 1052.4,2840.37 1056.96,2917.32C1086.3,2884.47 1115.42,2813.05 1144.46,2799.25ZM1474.22,2821.84C1479.33,2836.65 1483.56,2889.18 1486.74,2910.39C1505.22,2897.99 1516.51,2830.3 1513.74,2798.87C1501.08,2805.08 1489.21,2811.1 1474.22,2821.84ZM1039.8,2821.84C1034.69,2836.65 1030.46,2889.18 1027.29,2910.39C1008.81,2897.99 997.513,2830.3 1000.29,2798.87C1012.95,2805.08 1024.81,2811.1 1039.8,2821.84ZM1483.09,2687.98C1508.47,2676.69 1513.71,2671.68 1534.73,2648.96C1572.09,2694.85 1586.73,2858.21 1525.37,2901.17C1531.08,2796.03 1524.37,2737.99 1483.09,2687.98ZM1030.94,2687.98C1005.56,2676.69 1000.31,2671.68 979.294,2648.96C941.931,2694.85 927.295,2858.21 988.656,2901.17C982.94,2796.03 989.651,2737.99 1030.94,2687.98ZM881.652,2744.13C883.993,2784.53 878.921,2845.99 944.388,2893.02C934.824,2859.95 926.221,2802.72 927.857,2764.89C911.255,2759.19 892.277,2748.48 881.652,2744.13ZM1632.37,2744.13C1630.03,2784.53 1635.1,2845.99 1569.64,2893.02C1579.2,2859.95 1587.8,2802.72 1586.17,2764.89C1602.77,2759.19 1621.75,2748.48 1632.37,2744.13ZM1175.2,2810.28C1173.96,2793.94 1175.7,2780.1 1180.85,2763.77C1182.95,2757.11 1185.1,2750.51 1187.72,2744.13C1210.58,2747.9 1225.84,2751.67 1239.64,2755.44C1232.97,2778.59 1232.35,2799.01 1234.25,2820.26C1208.02,2820.84 1201.56,2815.63 1175.2,2810.28ZM1453.2,2780.16C1438.14,2758.64 1419.85,2748.12 1400.09,2731.05C1421.58,2723.34 1447.26,2715.58 1468.22,2698.88C1479.77,2715.32 1488.34,2728.24 1495.39,2748.13C1476.75,2758.46 1463.97,2768.2 1453.2,2780.16ZM1060.82,2780.16C1075.88,2758.64 1094.17,2748.12 1113.93,2731.05C1092.44,2723.34 1066.77,2715.58 1045.81,2698.88C1034.25,2715.32 1025.68,2728.24 1018.64,2748.13C1037.28,2758.46 1050.06,2768.2 1060.82,2780.16ZM1261.08,2702.83C1268.16,2702.46 1275.2,2701.87 1282.13,2701.09C1328.21,2695.94 1395.99,2687.47 1468.5,2638.81C1476.77,2633.26 1499.98,2602.63 1503.64,2587.2C1506.38,2575.67 1495.96,2563.68 1472.35,2577.84C1462.87,2555.48 1489.48,2534.8 1501.12,2532.71C1517.69,2529.74 1537.16,2520.79 1566.15,2505.52C1592.06,2517.45 1610.16,2521.13 1631.18,2524.41C1637.99,2557.52 1650.39,2590.06 1648.12,2675.16C1639.87,2679.94 1598.72,2574.22 1574.07,2562.14C1549.45,2590.8 1551.21,2600.28 1536.43,2624.52C1508.48,2670.37 1389.03,2742.91 1260.48,2743.4C1131.1,2743.9 1013.8,2683.93 981.512,2630.97C966.731,2606.72 968.493,2591.8 943.865,2563.14C919.22,2575.22 878.07,2680.94 869.824,2676.16C867.546,2591.06 879.951,2558.52 886.762,2525.41C912.522,2521.39 929.92,2518.11 949.099,2509.78C990.141,2522.89 1001.55,2530.97 1016.82,2533.71C1028.46,2535.8 1055.07,2556.48 1045.59,2578.84C1021.98,2564.68 1011.56,2576.67 1014.3,2588.2C1017.97,2603.63 1041.17,2634.26 1049.44,2639.81C1121.95,2688.47 1189.73,2696.94 1235.81,2702.09C1238.32,2702.37 1245.72,2702.99 1261.08,2702.83ZM930.265,2710.82C938.298,2678.45 952.814,2651.34 972.6,2636.62C964.824,2625.81 949.567,2596.07 940.822,2582.32C932.674,2593.4 919.948,2616.45 912.729,2631.85C904.321,2649.78 892.571,2666.82 888.227,2688C900.873,2692.95 911.901,2700.63 930.265,2710.82ZM1583.76,2710.82C1575.73,2678.45 1561.21,2651.34 1541.42,2636.62C1549.2,2625.81 1564.46,2596.07 1573.2,2582.32C1581.35,2593.4 1594.08,2616.45 1601.3,2631.85C1609.7,2649.78 1621.45,2666.82 1625.8,2688C1613.15,2692.95 1602.12,2700.63 1583.76,2710.82ZM1202.54,2669.86C1208.94,2605.3 1236.79,2584.2 1244.56,2558.19C1258.4,2511.91 1252.48,2475.86 1233.97,2491.45C1226.5,2497.74 1189.37,2504.78 1173.97,2497.67C1145.3,2484.44 1135.81,2527.76 1135.81,2527.76C1109.2,2495.6 1111.3,2470.55 1131.39,2457.44C1145.47,2448.26 1183.49,2448.56 1187.74,2438.07C1177.99,2433.2 1185.22,2416.21 1195.36,2411.16C1205.16,2406.29 1244.51,2398.44 1264.31,2405.18C1284.11,2411.93 1298.29,2407.77 1278.91,2385.39C1338.1,2389.11 1391.48,2434.57 1399.15,2458.35C1347.98,2431.55 1319.37,2424.93 1315.61,2449.71C1322.63,2459.66 1342.15,2468.51 1344.96,2445.11C1351.68,2449.44 1355.94,2456.44 1356.55,2468.84C1380.24,2468.71 1393.81,2484.2 1397.29,2509.28C1371.02,2492.03 1329.96,2507.47 1329.19,2508.93C1325.21,2516.55 1324.42,2556.77 1316.52,2570.61C1306.73,2587.75 1283.66,2613.24 1257.61,2676.01C1226.65,2682.23 1218.83,2674.63 1202.54,2669.86Z" style="fill:rgb(51,148,40);"/>
            <path d="M1370,3052.26C1386.91,3089.53 1377.4,3119.15 1376.68,3131.27C1375.08,3158.48 1360.1,3176.23 1340.83,3192.02C1325.98,3204.18 1310.27,3213.99 1290.4,3217.46C1264.04,3222.06 1238.36,3214.73 1217.61,3195.6L1250.63,3169.13C1276.46,3184.08 1307.14,3169.58 1324.77,3145.21C1339.62,3124.67 1340.84,3104.54 1333.93,3086.47L1370,3052.26ZM1223.87,3012.7C1218.6,3018.03 1205.76,3025.76 1200.69,3030.38C1188.18,3028.15 1187.4,3031.7 1181.06,3042.24C1173.35,3055.03 1161.77,3076.08 1162.6,3097.9C1163.83,3130.6 1171.39,3151.88 1178.53,3172.38C1179.28,3174.54 1249.91,3106.68 1250.63,3108.61C1258.52,3120.99 1263.27,3123.88 1270.78,3132.42C1261.21,3151.77 1175.53,3226.12 1163.94,3215.36C1162.93,3214.43 1160.73,3211.33 1160.32,3210.46C1157.32,3204 1154.56,3197.44 1151.52,3191C1144.61,3176.36 1129.26,3134.46 1131.7,3086.08C1133.61,3048.24 1152.24,3023.99 1155.92,3017.05C1163.97,3001.86 1198.15,2986.98 1223.87,3012.7ZM1342.78,3196.43C1348.05,3191.1 1356.14,3182.01 1361.21,3176.54C1367,3180.18 1372.25,3173.62 1375.86,3167.62C1383.57,3154.82 1395.15,3133.77 1394.32,3111.95C1393.09,3079.25 1384.68,3048.73 1377.55,3028.23C1376.8,3026.07 1306.16,3101.34 1305.44,3099.41C1297.56,3087.03 1289.52,3081.58 1282.01,3073.04C1291.58,3053.69 1380.54,2974.49 1392.13,2985.25C1393.14,2986.18 1395.35,2989.28 1395.75,2990.15C1398.75,2996.61 1401.51,3003.17 1404.55,3009.61C1411.46,3024.25 1427.66,3075.39 1425.22,3123.77C1423.31,3161.61 1404.68,3185.86 1401,3192.81C1390.11,3213.35 1368.34,3215.32 1342.78,3196.43ZM1364.64,3074.57C1371.28,3100.87 1364.75,3121.26 1364.2,3130.54C1362.83,3153.89 1349.44,3168.8 1332.91,3182.35C1319.73,3193.15 1305.89,3202.07 1288.25,3205.15C1270.48,3208.25 1253.09,3204.96 1237.83,3195.41C1237.83,3195.41 1252.33,3183.79 1252.33,3183.79C1281.91,3195.35 1315.28,3179.66 1334.9,3152.53C1350.53,3130.93 1353.35,3109.66 1348.22,3090.14C1348.22,3090.14 1364.64,3074.57 1364.64,3074.57L1364.64,3074.57ZM1202.71,3013.38C1200.75,3014.75 1198.82,3016.09 1197.08,3017.36C1191.86,3017.03 1188.17,3017.8 1185.18,3019.11C1179.86,3021.44 1176.07,3026.28 1170.35,3035.79C1161.71,3050.14 1149.18,3073.9 1150.1,3098.37C1151.4,3132.66 1159.24,3154.99 1166.72,3176.49C1167.92,3179.94 1170.18,3182.34 1173.38,3183.8C1174.54,3184.33 1180.82,3186.71 1187.91,3181.3C1196.2,3174.98 1230.86,3142.23 1248.32,3126.63C1250.5,3129.19 1252.57,3131.33 1254.75,3133.58C1252.64,3136.05 1250.02,3138.86 1247.07,3141.92C1230.53,3159.11 1203.65,3182.25 1183.5,3195.37C1179.17,3198.2 1173.8,3200.83 1170.38,3202.41C1167.85,3196.84 1165.44,3191.21 1162.83,3185.67C1156.31,3171.86 1141.88,3132.34 1144.18,3086.71C1145.95,3051.66 1163.56,3029.33 1166.97,3022.9C1168.44,3020.12 1171.55,3017.58 1175.33,3015.49C1182.69,3011.43 1192.81,3009.59 1202.71,3013.38ZM1385.79,2998.43C1388.29,3003.93 1390.67,3009.48 1393.25,3014.94C1399.79,3028.82 1415.05,3077.3 1412.74,3123.14C1410.97,3158.19 1393.36,3180.52 1389.95,3186.95C1387.39,3191.78 1384.04,3195.13 1379.7,3196.38C1374.57,3197.86 1368.75,3196.85 1362.33,3193.83L1362.33,3193.83C1363.47,3192.59 1364.59,3191.36 1365.67,3190.17C1368.44,3189.99 1371.14,3189.11 1373.76,3187.7C1378.56,3185.11 1383.23,3179.62 1386.57,3174.06C1395.21,3159.71 1407.74,3135.95 1406.82,3111.48C1405.52,3077.36 1396.79,3045.51 1389.35,3024.12C1388.04,3020.35 1385.54,3017.9 1382.05,3016.54C1380.93,3016.1 1374.43,3014.04 1367.58,3019.95C1359.28,3027.11 1324.48,3063.63 1307.07,3080.98C1304.05,3077.62 1301.05,3074.72 1298.09,3071.79C1300.29,3069.19 1303.04,3066.2 1306.15,3062.93C1323.26,3044.92 1351.18,3020.29 1372.05,3006.16C1376.6,3003.08 1382.21,3000.18 1385.79,2998.43ZM1212.99,3128.99C1211.21,3125.74 1211.77,3126.61 1210.44,3123.13C1200.19,3096.24 1215.23,3079.26 1233.01,3062.36C1238.54,3057.11 1245.05,3052.33 1251.91,3048.93C1252.76,3048.51 1277.47,3027.22 1277.43,3026.92C1272.75,3024.88 1255.51,3002.33 1252.27,2998.74C1246.3,2998.85 1222.25,3021.16 1217.68,3024.47C1196.3,3039.98 1179.9,3067.92 1173.66,3093.5C1167.05,3120.6 1173.03,3131.41 1186.94,3156.6L1212.99,3128.99ZM1228.99,3077.02C1228.54,3071.57 1249.71,3056.2 1254.08,3057.56C1256.84,3058.41 1325.58,3124.72 1325.88,3126.28C1326.28,3128.38 1309.98,3149.15 1305.58,3152.6C1296.84,3159.46 1229.16,3079.14 1228.99,3077.02ZM1252.01,3072.17C1265.21,3084.11 1296.26,3113.99 1310.03,3127.76C1307.73,3130.85 1304.87,3134.63 1302.43,3137.66C1298.89,3134.87 1293.75,3130.65 1289.62,3126.62C1273.81,3111.18 1254.61,3089.12 1245.03,3077.43L1252.01,3072.17ZM1249.62,3015.18C1252.49,3018.71 1255.87,3022.82 1259.03,3026.45C1253.65,3031.12 1247.48,3036.44 1245.16,3038.35C1237.63,3042.24 1230.5,3047.51 1224.4,3053.3C1203.13,3073.52 1186.76,3094.44 1198.3,3126.34L1189.74,3135.41C1183.65,3123.03 1181.63,3113.55 1185.8,3096.47C1191.39,3073.58 1205.89,3048.47 1225.02,3034.59C1227.75,3032.61 1241.71,3021.49 1249.62,3015.18ZM1245.06,2874.6C1270.35,2944.84 1325.45,2993.74 1330.64,2998.74L1298.8,3033.9C1255.44,2983.89 1212.79,2937.68 1184.37,2871.31C1199.23,2875.5 1223.18,2878.29 1245.06,2874.6ZM1236.9,2888.23C1258.66,2941.9 1296.01,2982.35 1313.21,2999.36C1313.21,2999.36 1298.99,3015.07 1298.99,3015.07C1264.52,2975.53 1231.06,2937.4 1205.91,2887.9C1215.67,2888.89 1226.34,2889.16 1236.9,2888.23ZM1368.44,2879.45C1368.44,2879.45 1358.36,2952.35 1312.18,2956.06L1337.35,2984.25C1342.25,2984.16 1364.82,2973.34 1376.19,2955.31C1378.66,2951.38 1382.78,2941.14 1392.05,2959.94C1398.66,2932.85 1382.35,2904.64 1368.44,2879.45ZM1380.03,2936.63C1377.69,2936.99 1375.51,2937.9 1373.48,2939.25C1370.23,2941.43 1367.41,2945.79 1365.62,2948.64C1359.82,2957.83 1347.56,2965.56 1340.79,2969.34L1334.53,2962.33C1346.5,2956 1355.77,2945.57 1362.7,2933.85C1366.6,2927.24 1369.73,2920.26 1372.22,2913.62L1372.22,2913.62C1373.67,2916.83 1375.02,2920.05 1376.21,2923.29C1377.83,2927.72 1379.18,2932.17 1380.03,2936.63ZM1144.46,2799.25C1138.47,2787.15 1151.16,2754.94 1152.59,2741.75C1146.12,2740.21 1139.74,2738.51 1133.46,2736.59C1069.73,2783.65 1052.4,2840.37 1056.96,2917.32C1086.3,2884.47 1115.42,2813.05 1144.46,2799.25ZM1265.12,2759.55C1307.73,2753.47 1344.41,2746.05 1385.91,2732.88C1441.08,2772.65 1471.44,2835.07 1466.72,2917.32C1408.25,2835.51 1324.51,2781.76 1265.12,2759.55ZM1474.22,2821.84C1479.33,2836.65 1483.56,2889.18 1486.74,2910.39C1505.22,2897.99 1516.51,2830.3 1513.74,2798.87C1501.08,2805.08 1489.21,2811.1 1474.22,2821.84ZM1039.8,2821.84C1034.69,2836.65 1030.46,2889.18 1027.29,2910.39C1008.81,2897.99 997.513,2830.3 1000.29,2798.87C1012.95,2805.08 1024.81,2811.1 1039.8,2821.84ZM1483.09,2687.98C1508.47,2676.69 1513.71,2671.68 1534.73,2648.96C1572.09,2694.85 1586.73,2858.21 1525.37,2901.17C1531.08,2796.03 1524.37,2737.99 1483.09,2687.98ZM1030.94,2687.98C1005.56,2676.69 1000.31,2671.68 979.294,2648.96C941.931,2694.85 927.295,2858.21 988.656,2901.17C982.94,2796.03 989.651,2737.99 1030.94,2687.98ZM881.652,2744.13C883.993,2784.53 878.921,2845.99 944.388,2893.02C934.824,2859.95 926.221,2802.72 927.857,2764.89C911.255,2759.19 892.277,2748.48 881.652,2744.13ZM1632.37,2744.13C1630.03,2784.53 1635.1,2845.99 1569.64,2893.02C1579.2,2859.95 1587.8,2802.72 1586.17,2764.89C1602.77,2759.19 1621.75,2748.48 1632.37,2744.13ZM1308.3,2765.17C1333.44,2760.47 1357.66,2754.67 1383.56,2746.71C1424.14,2777.98 1449.15,2823.14 1453.88,2880.64C1409.15,2828.2 1355.26,2789.35 1308.3,2765.17L1308.3,2765.17ZM1130.52,2793.33C1120.08,2801.36 1109.43,2814.69 1099.11,2830.47C1089.15,2845.68 1079.21,2863.21 1069.24,2879.01C1072.26,2827.03 1090.59,2785.72 1135.99,2750.36C1136.67,2750.55 1137.35,2750.74 1138.03,2750.93C1135.66,2760.4 1132.12,2772.43 1130.89,2782.47C1130.42,2786.34 1130.3,2789.99 1130.52,2793.33ZM1019.93,2867.24C1021.67,2852.49 1023.58,2837.57 1025.62,2827.25L1025.62,2827.25C1021.07,2824.24 1016.79,2821.66 1012.63,2819.32C1013.44,2834.24 1016.01,2851.79 1019.93,2867.24ZM1494.1,2867.24C1498.02,2851.79 1500.58,2834.24 1501.39,2819.32C1497.24,2821.66 1492.96,2824.24 1488.41,2827.25C1490.45,2837.57 1492.36,2852.49 1494.1,2867.24ZM1502.37,2692.68C1514.82,2686.24 1522.01,2680.42 1532.94,2669.12C1549.14,2700.07 1557.94,2756.29 1553.48,2805.93C1551.54,2827.61 1547.2,2848.17 1539.35,2864.51C1541.18,2785.86 1532.42,2735.61 1502.37,2692.68ZM1011.65,2692.68C981.6,2735.61 972.843,2785.86 974.674,2864.51C966.821,2848.17 962.488,2827.61 960.542,2805.93C956.086,2756.29 964.885,2700.07 981.087,2669.12C992.019,2680.42 999.207,2686.24 1011.65,2692.68ZM1619.1,2764.16C1618.06,2791.96 1615.08,2825.59 1590.73,2856.22C1595.58,2829.04 1598.96,2798.29 1598.86,2773.43C1605.74,2770.59 1612.72,2767.27 1619.1,2764.16L1619.1,2764.16ZM894.922,2764.16C901.308,2767.27 908.282,2770.59 915.163,2773.43C915.064,2798.29 918.443,2829.04 923.296,2856.22C898.944,2825.59 895.969,2791.96 894.922,2764.16L894.922,2764.16ZM1175.2,2810.28C1173.96,2793.94 1175.7,2780.1 1180.85,2763.77C1182.95,2757.11 1185.1,2750.51 1187.72,2744.13C1210.58,2747.9 1225.84,2751.67 1239.64,2755.44C1232.97,2778.59 1232.35,2799.01 1234.25,2820.26C1208.02,2820.84 1201.56,2815.63 1175.2,2810.28ZM1187.33,2800.19C1187.37,2789.23 1189.13,2779.08 1192.77,2767.53C1193.76,2764.41 1194.75,2761.3 1195.8,2758.22C1207.05,2760.28 1216.27,2762.34 1224.52,2764.4C1221.36,2779.33 1220.46,2793.37 1220.93,2807.45C1208.43,2806.46 1200.84,2803.48 1187.33,2800.19L1187.33,2800.19ZM1453.2,2780.16C1438.14,2758.64 1419.85,2748.12 1400.09,2731.05C1421.58,2723.34 1447.26,2715.58 1468.22,2698.88C1479.77,2715.32 1488.34,2728.24 1495.39,2748.13C1476.75,2758.46 1463.97,2768.2 1453.2,2780.16ZM1060.82,2780.16C1075.88,2758.64 1094.17,2748.12 1113.93,2731.05C1092.44,2723.34 1066.77,2715.58 1045.81,2698.88C1034.25,2715.32 1025.68,2728.24 1018.64,2748.13C1037.28,2758.46 1050.06,2768.2 1060.82,2780.16ZM1454.27,2761.43C1445.31,2751.4 1435.52,2743.61 1425.12,2735.37C1438.47,2730.4 1452.31,2724.56 1465.12,2716.4C1470.79,2724.86 1475.61,2732.96 1479.84,2742.71C1469.82,2748.81 1461.54,2754.89 1454.27,2761.43L1454.27,2761.43ZM1059.75,2761.43C1052.48,2754.89 1044.2,2748.81 1034.19,2742.71C1038.41,2732.96 1043.24,2724.86 1048.9,2716.4C1061.72,2724.56 1075.55,2730.4 1088.9,2735.37C1078.51,2743.61 1068.72,2751.4 1059.75,2761.43L1059.75,2761.43ZM1261.08,2702.83C1268.16,2702.46 1275.2,2701.87 1282.13,2701.09C1328.21,2695.94 1395.99,2687.47 1468.5,2638.81C1476.77,2633.26 1499.98,2602.63 1503.64,2587.2C1506.38,2575.67 1495.96,2563.68 1472.35,2577.84C1462.87,2555.48 1489.48,2534.8 1501.12,2532.71C1517.69,2529.74 1537.16,2520.79 1566.15,2505.52C1592.06,2517.45 1610.16,2521.13 1631.18,2524.41C1637.99,2557.52 1650.39,2590.06 1648.12,2675.16C1639.87,2679.94 1598.72,2574.22 1574.07,2562.14C1549.45,2590.8 1551.21,2600.28 1536.43,2624.52C1508.48,2670.37 1389.03,2742.91 1260.48,2743.4C1131.1,2743.9 1013.8,2683.93 981.512,2630.97C966.731,2606.72 968.493,2591.8 943.865,2563.14C919.22,2575.22 878.07,2680.94 869.824,2676.16C867.546,2591.06 879.951,2558.52 886.762,2525.41C912.522,2521.39 929.92,2518.11 949.099,2509.78C990.141,2522.89 1001.55,2530.97 1016.82,2533.71C1028.46,2535.8 1055.07,2556.48 1045.59,2578.84C1021.98,2564.68 1011.56,2576.67 1014.3,2588.2C1017.97,2603.63 1041.17,2634.26 1049.44,2639.81C1121.95,2688.47 1189.73,2696.94 1235.81,2702.09C1238.32,2702.37 1245.72,2702.99 1261.08,2702.83ZM1635.39,2630.59C1626.44,2614.25 1615.81,2595.36 1607.26,2581.74C1597.59,2566.32 1587.54,2554.82 1579.58,2550.91L1570.89,2546.66L1564.59,2553.99C1539.28,2583.45 1540.94,2593.1 1525.76,2618.01C1515.29,2635.17 1490.86,2656 1457.93,2675.24C1406.77,2705.14 1335.2,2730.62 1260.43,2730.9C1185.08,2731.19 1113.95,2710.39 1062.33,2682.57C1029.25,2664.73 1004.24,2644.23 992.185,2624.46C977.021,2599.58 978.613,2584.4 953.347,2554.99L947.045,2547.66L938.363,2551.91C932.143,2554.96 924.676,2562.33 917.289,2572.77C905.735,2589.1 893.13,2613.51 882.467,2633.87C884.271,2586.04 891.716,2560.18 897.153,2536.41C917.821,2533.02 933.368,2529.65 949.657,2523.09C988.111,2535.66 999.553,2543.31 1014.61,2546.01C1018.6,2546.73 1024.82,2551.09 1029.56,2556.72C1030.54,2557.88 1031.47,2559.12 1032.28,2560.42C1024.72,2559.22 1018.71,2560.53 1014.37,2562.76C1003.94,2568.09 999.399,2579.56 1002.14,2591.09C1004.23,2599.9 1011.62,2613.2 1019.95,2624.95C1028.36,2636.8 1037.71,2646.99 1042.48,2650.19C1117.18,2700.32 1186.95,2709.2 1234.42,2714.51C1237.08,2714.81 1244.93,2715.5 1261.21,2715.33L1261.47,2715.33C1269.06,2714.93 1276.34,2714.32 1283.52,2713.51C1330.99,2708.2 1400.76,2699.32 1475.46,2649.19C1480.23,2645.99 1489.58,2635.8 1497.99,2623.95C1506.32,2612.2 1513.71,2598.9 1515.8,2590.09C1518.54,2578.56 1514,2567.09 1503.57,2561.76C1499.23,2559.53 1493.22,2558.22 1485.66,2559.42C1486.47,2558.12 1487.4,2556.88 1488.38,2555.72C1493.12,2550.09 1499.34,2545.73 1503.33,2545.01C1519.74,2542.07 1538.95,2533.76 1566.58,2519.4C1587.46,2528.49 1603.61,2532.42 1620.78,2535.38C1626.13,2558.78 1633.43,2584.19 1635.39,2630.59ZM1583.76,2710.82C1575.73,2678.45 1561.21,2651.34 1541.42,2636.62C1549.2,2625.81 1564.46,2596.07 1573.2,2582.32C1581.35,2593.4 1594.08,2616.45 1601.3,2631.85C1609.7,2649.78 1621.45,2666.82 1625.8,2688C1613.15,2692.95 1602.12,2700.63 1583.76,2710.82ZM930.265,2710.82C938.298,2678.45 952.814,2651.34 972.6,2636.62C964.824,2625.81 949.567,2596.07 940.822,2582.32C932.674,2593.4 919.948,2616.45 912.729,2631.85C904.321,2649.78 892.571,2666.82 888.227,2688C900.873,2692.95 911.901,2700.63 930.265,2710.82ZM1591.36,2692.08C1583.52,2668.36 1572.05,2648.21 1557.77,2634.22C1562.59,2626.13 1568.34,2615.68 1573.66,2606.24C1579.6,2616.43 1585.76,2628.16 1589.98,2637.15C1596.69,2651.46 1605.8,2665.1 1611.01,2681.01C1604.96,2684.1 1598.73,2687.79 1591.36,2692.08L1591.36,2692.08ZM922.663,2692.08C915.298,2687.79 909.066,2684.1 903.012,2681.01C908.224,2665.1 917.338,2651.46 924.046,2637.15C928.263,2628.16 934.428,2616.43 940.364,2606.24C945.685,2615.68 951.436,2626.13 956.256,2634.22C941.974,2648.21 930.5,2668.36 922.663,2692.08L922.663,2692.08ZM1202.54,2669.86C1208.94,2605.3 1236.79,2584.2 1244.56,2558.19C1258.4,2511.91 1252.48,2475.86 1233.97,2491.45C1226.5,2497.74 1189.37,2504.78 1173.97,2497.67C1145.3,2484.44 1135.81,2527.76 1135.81,2527.76C1109.2,2495.6 1111.3,2470.55 1131.39,2457.44C1145.47,2448.26 1183.49,2448.56 1187.74,2438.07C1177.99,2433.2 1185.22,2416.21 1195.36,2411.16C1205.16,2406.29 1244.51,2398.44 1264.31,2405.18C1284.11,2411.93 1298.29,2407.77 1278.91,2385.39C1338.1,2389.11 1391.48,2434.57 1399.15,2458.35C1347.98,2431.55 1319.37,2424.93 1315.61,2449.71C1322.63,2459.66 1342.15,2468.51 1344.96,2445.11C1351.68,2449.44 1355.94,2456.44 1356.55,2468.84C1380.24,2468.71 1393.81,2484.2 1397.29,2509.28C1371.02,2492.03 1329.96,2507.47 1329.19,2508.93C1325.21,2516.55 1324.42,2556.77 1316.52,2570.61C1306.73,2587.75 1283.66,2613.24 1257.61,2676.01C1226.65,2682.23 1218.83,2674.63 1202.54,2669.86ZM1300.63,2401.44C1319.34,2406.13 1336.7,2414.72 1351.04,2424.49C1343.21,2422.41 1336.55,2421.51 1331.12,2421.85C1323.16,2422.35 1316.97,2425.03 1312.31,2429.37C1307.78,2433.59 1304.51,2439.58 1303.25,2447.84L1302.5,2452.81L1305.4,2456.92C1309.16,2462.24 1315.32,2467.36 1321.86,2470.1C1327.33,2472.39 1333.04,2473.05 1338.18,2471.9C1340.15,2471.45 1342.15,2470.76 1344.08,2469.73L1344.65,2481.41L1356.62,2481.34C1365.09,2481.29 1371.56,2484.24 1376.2,2489.45C1357.53,2487.43 1338.96,2491.76 1329.88,2494.97C1324.94,2496.71 1321.98,2498.63 1321.19,2499.31C1319.54,2500.71 1318.65,2502.11 1318.12,2503.14C1316.19,2506.81 1314.37,2516.67 1312.88,2528.37C1311.25,2541.24 1309.85,2557.07 1305.66,2564.41C1296.08,2581.18 1274.02,2605.89 1248.74,2664.87C1232.55,2667.24 1224.44,2664.57 1216.15,2661.43L1216.15,2661.43C1220.56,2630.84 1230.31,2611.61 1239.08,2596.39C1246.52,2583.5 1253.18,2573.02 1256.54,2561.77C1263.97,2536.92 1265.93,2514.73 1263.89,2500.61C1262.65,2492.04 1259.76,2485.76 1256.4,2481.96C1252.95,2478.06 1248.79,2475.95 1244.2,2475.39C1239.12,2474.78 1232.75,2476.13 1225.92,2481.88C1223.81,2483.66 1218.13,2484.86 1211.65,2486.14C1200.5,2488.33 1186.69,2489.77 1179.21,2486.32C1170.32,2482.22 1162.57,2481.93 1155.94,2483.6C1146.46,2485.99 1138.93,2492.81 1133.65,2500.95C1133.5,2501.19 1133.34,2501.43 1133.19,2501.67C1125.64,2486.63 1127.33,2475.01 1138.22,2467.91C1142.13,2465.36 1148.48,2464.04 1155.09,2462.64C1163.77,2460.81 1172.92,2459.24 1179.97,2457.11C1190.39,2453.96 1197.03,2448.42 1199.33,2442.76L1203.66,2432.05L1196.35,2428.4C1197.29,2426.44 1199.02,2423.3 1200.93,2422.35C1206.11,2419.78 1220.7,2416.55 1235.26,2415.43C1244.46,2414.73 1253.68,2414.77 1260.28,2417.02C1272.03,2421.02 1282.47,2421.31 1288.5,2419.11C1294.31,2416.99 1297.98,2413.07 1299.7,2407.93C1300.33,2406.05 1300.71,2403.88 1300.63,2401.44Z"/>
        </g>
        <g transform="matrix(0.928214,0,0,0.928214,83.406,27.5544)">
            <path d="M1225.12,2559.16C1237.38,2550.01 1259.04,2557.84 1259.04,2557.84C1259.04,2557.84 1242.51,2575.53 1235.18,2577.97C1219.18,2583.3 1205.15,2581.7 1205.15,2581.7C1205.15,2581.7 1212.88,2568.3 1225.12,2559.16Z" style="fill:rgb(51,148,40);"/>
            <path d="M1225.12,2559.16C1237.38,2550.01 1259.04,2557.84 1259.04,2557.84C1259.04,2557.84 1242.51,2575.53 1235.18,2577.97C1219.18,2583.3 1205.15,2581.7 1205.15,2581.7C1205.15,2581.7 1212.88,2568.3 1225.12,2559.16Z"/>
        </g>
    </g>
</svg>
