<?xml version="1.0" encoding="UTF-8" standalone="no"?>
<!DOCTYPE svg PUBLIC "-//W3C//DTD SVG 1.1//EN" "http://www.w3.org/Graphics/SVG/1.1/DTD/svg11.dtd">
<svg width="100%" height="100%" viewBox="0 0 2550 3300" version="1.1" xmlns="http://www.w3.org/2000/svg" xmlns:xlink="http://www.w3.org/1999/xlink" xml:space="preserve" xmlns:serif="http://www.serif.com/" style="fill-rule:evenodd;clip-rule:evenodd;stroke-linejoin:round;stroke-miterlimit:2;">
    <g transform="matrix(1.00594,0,0,1.00594,-7.25035,18.3745)">
        <g id="Primary" transform="matrix(0.994098,0,0,0.994098,7.20756,-18.2661)">
            <path d="M1212.99,3133.69C1211.21,3130.45 1211.77,3131.32 1210.44,3127.84C1200.19,3100.94 1215.23,3083.97 1233.01,3067.07C1238.54,3061.81 1245.05,3057.04 1251.91,3053.64C1252.76,3053.22 1277.47,3031.92 1277.43,3031.63C1272.75,3029.59 1255.51,3007.04 1252.27,3003.44C1246.3,3003.55 1222.25,3025.87 1217.68,3029.18C1196.3,3044.69 1179.9,3072.63 1173.66,3098.21C1167.05,3125.3 1173.03,3136.11 1186.94,3161.3L1212.99,3133.69ZM1368.44,2884.16C1368.44,2884.16 1358.36,2957.05 1312.18,2960.77L1337.35,2988.95C1342.25,2988.86 1364.82,2978.04 1376.19,2960.01C1378.66,2956.09 1382.78,2945.85 1392.05,2964.64C1398.66,2937.55 1382.35,2909.35 1368.44,2884.16ZM1077.85,2692.73C1058.33,2681.42 1054.39,2676.41 1038.74,2653.67C1007.6,2699.6 989.833,2833.01 1036.44,2876.02C1035.97,2770.76 1043.47,2742.79 1077.85,2692.73ZM1099.11,2779.21C1111.42,2758.23 1126.39,2747.98 1142.56,2731.35C1124.97,2723.84 1103.96,2716.27 1086.82,2699.99C1077.36,2716.01 1070.35,2728.61 1064.59,2748C1079.84,2758.06 1090.3,2767.56 1099.11,2779.21ZM1081.9,2819.84C1077.72,2834.28 1074.26,2855.35 1071.66,2876.02C1056.55,2863.93 1047.31,2828.08 1049.58,2797.45C1059.93,2803.51 1069.64,2809.37 1081.9,2819.84ZM1263.51,2764.25C1297.02,2758.17 1325.87,2750.75 1358.51,2737.58C1404.02,2788.18 1435.83,2810.37 1417.15,2876.02C1371.16,2794.21 1310.22,2786.47 1263.51,2764.25ZM1164.09,2803.95C1160.26,2791.86 1172.57,2759.64 1174.64,2746.45C1169.67,2744.92 1164.77,2743.21 1159.98,2741.29C1106.45,2788.35 1085.6,2814.95 1093.88,2876.02C1119.33,2843.17 1140.26,2817.75 1164.09,2803.95ZM1000.18,2715.52C1006.5,2683.16 1017.91,2656.04 1033.47,2641.33C1027.36,2630.52 1015.36,2600.78 1008.48,2587.03C1002.07,2598.1 992.065,2621.16 986.387,2636.55C979.775,2654.48 970.535,2671.52 967.119,2692.71C977.064,2697.65 985.736,2705.33 1000.18,2715.52ZM961.949,2748.84C963.789,2789.23 959.8,2820.56 1011.28,2867.59C1003.76,2834.52 996.998,2807.43 998.284,2769.6C985.229,2763.9 970.304,2753.18 961.949,2748.84ZM1437.18,2692.73C1456.71,2681.42 1460.64,2676.41 1476.3,2653.67C1507.44,2699.6 1525.2,2833.01 1478.59,2876.02C1479.06,2770.76 1471.57,2742.79 1437.18,2692.73ZM1175.2,2814.99C1173.96,2798.64 1175.7,2784.81 1180.85,2768.48C1182.95,2761.82 1185.1,2755.21 1187.72,2748.84C1210.58,2752.6 1225.84,2756.37 1239.64,2760.14C1232.97,2783.29 1232.35,2803.71 1234.25,2824.97C1208.02,2825.54 1201.56,2820.33 1175.2,2814.99ZM1245.06,2879.3C1270.35,2949.55 1325.45,2998.45 1330.64,3003.44L1298.8,3038.6C1255.44,2988.59 1212.79,2942.38 1184.37,2876.02C1199.23,2880.2 1223.18,2882.99 1245.06,2879.3ZM1207.38,2676.7C1213.3,2617.02 1256.21,2592.62 1267.15,2584.5C1296.73,2562.55 1257.27,2521.78 1246.03,2541.12C1241.49,2548.93 1211.38,2566.64 1195.77,2565.26C1166.69,2562.7 1171.94,2603.35 1171.94,2603.35C1138.76,2583.67 1132.77,2561.21 1146.16,2543.55C1155.55,2531.16 1188.72,2519.56 1189.15,2509.1C1179.14,2507.91 1180.13,2490.87 1187.38,2483.31C1194.39,2476.01 1226.18,2456.91 1245.51,2456.6C1264.84,2456.29 1275.88,2448.24 1252.04,2434.82C1304.71,2419.58 1365.33,2442.49 1379.43,2460.79C1326.54,2453.43 1299.58,2456.59 1304.05,2479.33C1313.26,2485.8 1333,2487.41 1328.14,2466.17C1335.34,2467.84 1341.23,2472.6 1345.63,2483.2C1366.2,2475.7 1382.85,2484.94 1393.7,2505.68C1365.46,2498.87 1334.55,2525.11 1334.34,2526.62C1333.25,2534.5 1346.7,2551.81 1341.95,2565.75C1336.06,2583.02 1282.37,2624.37 1258.29,2682.38C1229.67,2688.14 1222.44,2681.11 1207.38,2676.7ZM1260.63,2696.75C1266.17,2696.38 1271.69,2695.78 1277.12,2695.01C1313.24,2689.86 1366.37,2681.39 1423.2,2632.73C1429.69,2627.18 1447.88,2607.34 1450.75,2591.91C1452.9,2580.37 1444.73,2568.39 1426.22,2582.54C1418.8,2560.18 1439.65,2539.5 1448.77,2537.41C1466.27,2533.41 1486.83,2516.4 1550.72,2529.11C1556.06,2562.23 1565.78,2594.77 1563.99,2679.86C1557.53,2684.64 1525.28,2578.93 1505.96,2566.84C1486.65,2595.51 1488.04,2604.98 1476.45,2629.22C1454.54,2675.08 1360.91,2747.61 1260.15,2748.11C1158.74,2748.6 1066.8,2688.64 1041.49,2635.67C1029.9,2611.42 1031.29,2596.51 1011.98,2567.84C992.664,2579.93 960.409,2685.64 953.945,2680.86C952.16,2595.77 961.884,2563.23 967.223,2530.11C1031.11,2517.4 1051.67,2534.41 1069.17,2538.41C1078.29,2540.5 1099.14,2561.18 1091.72,2583.54C1073.21,2569.39 1065.04,2581.37 1067.19,2592.91C1070.06,2608.34 1088.25,2628.18 1094.74,2633.73C1151.57,2682.39 1204.7,2690.86 1240.82,2696.01C1242.78,2696.29 1248.58,2696.91 1260.63,2696.75ZM1370,3056.96C1386.91,3094.24 1377.4,3123.86 1376.68,3135.98C1375.08,3163.18 1360.1,3180.94 1340.83,3196.72C1325.98,3208.89 1310.27,3218.7 1290.4,3222.16C1264.04,3226.76 1238.36,3219.43 1217.61,3200.31L1250.63,3173.84C1276.46,3188.79 1307.14,3174.29 1324.77,3149.91C1339.62,3129.37 1340.84,3109.24 1333.93,3091.17L1370,3056.96ZM1228.99,3081.72C1228.54,3076.27 1249.71,3060.9 1254.08,3062.26C1256.84,3063.12 1325.58,3129.43 1325.88,3130.98C1326.28,3133.09 1309.98,3153.85 1305.58,3157.3C1296.84,3164.16 1229.16,3083.84 1228.99,3081.72ZM1223.87,3017.4C1218.6,3022.73 1205.76,3030.47 1200.69,3035.09C1188.18,3032.86 1187.4,3036.4 1181.06,3046.94C1173.35,3059.74 1161.77,3080.79 1162.6,3102.61C1163.83,3135.31 1171.39,3156.58 1178.53,3177.09C1179.28,3179.25 1249.91,3111.39 1250.63,3113.32C1258.52,3125.7 1263.27,3128.58 1270.78,3137.13C1261.21,3156.48 1175.53,3230.83 1163.94,3220.07C1162.93,3219.13 1160.73,3216.04 1160.32,3215.16C1157.32,3208.71 1154.56,3202.14 1151.52,3195.71C1144.61,3181.06 1129.26,3139.16 1131.7,3090.79C1133.61,3052.94 1152.24,3028.69 1155.92,3021.75C1163.97,3006.56 1198.15,2991.68 1223.87,3017.4ZM1342.78,3201.13C1348.05,3195.8 1356.14,3186.71 1361.21,3181.24C1367,3184.88 1372.25,3178.33 1375.86,3172.32C1383.57,3159.52 1395.15,3138.47 1394.32,3116.65C1393.09,3083.95 1384.68,3053.43 1377.55,3032.93C1376.8,3030.77 1306.16,3106.04 1305.44,3104.11C1297.56,3091.73 1289.52,3086.29 1282.01,3077.74C1291.58,3058.39 1380.54,2979.19 1392.13,2989.95C1393.14,2990.89 1395.35,2993.98 1395.75,2994.86C1398.75,3001.31 1401.51,3007.87 1404.55,3014.31C1411.46,3028.96 1427.66,3080.1 1425.22,3128.47C1423.31,3166.32 1404.68,3190.57 1401,3197.51C1390.11,3218.05 1368.34,3220.02 1342.78,3201.13ZM1414.76,2779.21C1402.44,2758.23 1387.48,2747.98 1371.31,2731.35C1388.89,2723.84 1409.9,2716.27 1427.05,2699.99C1436.5,2716.01 1443.52,2728.61 1449.28,2748C1434.03,2758.06 1423.57,2767.56 1414.76,2779.21ZM1431.96,2819.84C1436.14,2834.28 1439.6,2855.35 1442.2,2876.02C1457.32,2863.93 1466.56,2828.08 1464.29,2797.45C1453.93,2803.51 1444.23,2809.37 1431.96,2819.84ZM1513.69,2715.52C1507.37,2683.16 1495.96,2656.04 1480.4,2641.33C1486.51,2630.52 1498.51,2600.78 1505.39,2587.03C1511.8,2598.1 1521.8,2621.16 1527.48,2636.55C1534.09,2654.48 1543.33,2671.52 1546.75,2692.71C1536.8,2697.65 1528.13,2705.33 1513.69,2715.52ZM1551.92,2748.84C1550.08,2789.23 1554.07,2820.56 1502.58,2867.59C1510.1,2834.52 1516.87,2807.43 1515.58,2769.6C1528.64,2763.9 1543.56,2753.18 1551.92,2748.84Z" style="fill:rgb(51,148,40);"/>
            <path d="M1370,3056.96C1386.91,3094.24 1377.4,3123.86 1376.68,3135.98C1375.08,3163.18 1360.1,3180.94 1340.83,3196.72C1325.98,3208.89 1310.27,3218.7 1290.4,3222.16C1264.04,3226.76 1238.36,3219.43 1217.61,3200.31L1250.63,3173.84C1276.46,3188.79 1307.14,3174.29 1324.77,3149.91C1339.62,3129.37 1340.84,3109.24 1333.93,3091.17L1370,3056.96ZM1223.87,3017.4C1218.6,3022.73 1205.76,3030.47 1200.69,3035.09C1188.18,3032.86 1187.4,3036.4 1181.06,3046.94C1173.35,3059.74 1161.77,3080.79 1162.6,3102.61C1163.83,3135.31 1171.39,3156.58 1178.53,3177.09C1179.28,3179.25 1249.91,3111.39 1250.63,3113.32C1258.52,3125.7 1263.27,3128.58 1270.78,3137.13C1261.21,3156.48 1175.53,3230.83 1163.94,3220.07C1162.93,3219.13 1160.73,3216.04 1160.32,3215.16C1157.32,3208.71 1154.56,3202.14 1151.52,3195.71C1144.61,3181.06 1129.26,3139.16 1131.7,3090.79C1133.61,3052.94 1152.24,3028.69 1155.92,3021.75C1163.97,3006.56 1198.15,2991.68 1223.87,3017.4ZM1342.78,3201.13C1348.05,3195.8 1356.14,3186.71 1361.21,3181.24C1367,3184.88 1372.25,3178.33 1375.86,3172.32C1383.57,3159.52 1395.15,3138.47 1394.32,3116.65C1393.09,3083.95 1384.68,3053.43 1377.55,3032.93C1376.8,3030.77 1306.16,3106.04 1305.44,3104.11C1297.56,3091.73 1289.52,3086.29 1282.01,3077.74C1291.58,3058.39 1380.54,2979.19 1392.13,2989.95C1393.14,2990.89 1395.35,2993.98 1395.75,2994.86C1398.75,3001.31 1401.51,3007.87 1404.55,3014.31C1411.46,3028.96 1427.66,3080.1 1425.22,3128.47C1423.31,3166.32 1404.68,3190.57 1401,3197.51C1390.11,3218.05 1368.34,3220.02 1342.78,3201.13ZM1364.64,3079.27C1371.28,3105.57 1364.75,3125.97 1364.2,3135.24C1362.83,3158.59 1349.44,3173.51 1332.91,3187.05C1319.73,3197.85 1305.89,3206.77 1288.25,3209.85C1270.48,3212.95 1253.09,3209.67 1237.83,3200.12C1237.83,3200.12 1252.33,3188.49 1252.33,3188.49C1281.91,3200.05 1315.28,3184.37 1334.9,3157.24C1350.53,3135.63 1353.35,3114.37 1348.22,3094.84L1364.64,3079.27ZM1202.71,3018.08C1200.75,3019.45 1198.82,3020.8 1197.08,3022.06C1191.86,3021.73 1188.17,3022.51 1185.18,3023.81C1179.86,3026.15 1176.07,3030.98 1170.35,3040.49C1161.71,3054.85 1149.18,3078.61 1150.1,3103.08C1151.4,3137.37 1159.24,3159.69 1166.72,3181.19C1167.92,3184.65 1170.18,3187.04 1173.38,3188.5C1174.54,3189.03 1180.82,3191.42 1187.91,3186.01C1196.2,3179.68 1230.86,3146.93 1248.32,3131.33C1250.5,3133.9 1252.57,3136.03 1254.75,3138.28C1252.64,3140.75 1250.02,3143.56 1247.07,3146.63C1230.53,3163.81 1203.65,3186.95 1183.5,3200.08C1179.17,3202.9 1173.8,3205.53 1170.38,3207.11C1167.85,3201.54 1165.44,3195.91 1162.83,3190.37C1156.31,3176.56 1141.88,3137.04 1144.18,3091.42C1145.95,3056.37 1163.56,3034.03 1166.97,3027.6C1168.44,3024.82 1171.55,3022.28 1175.33,3020.2C1182.69,3016.13 1192.81,3014.3 1202.71,3018.08ZM1385.79,3003.13C1388.29,3008.63 1390.67,3014.18 1393.25,3019.64C1399.79,3033.52 1415.05,3082 1412.74,3127.84C1410.97,3162.89 1393.36,3185.22 1389.95,3191.66C1387.39,3196.49 1384.04,3199.84 1379.7,3201.09C1374.57,3202.57 1368.75,3201.56 1362.33,3198.53L1362.33,3198.53C1363.47,3197.29 1364.59,3196.06 1365.67,3194.88C1368.44,3194.69 1371.14,3193.82 1373.76,3192.4C1378.56,3189.81 1383.23,3184.32 1386.57,3178.77C1395.21,3164.41 1407.74,3140.65 1406.82,3116.18C1405.52,3082.06 1396.79,3050.22 1389.35,3028.83C1388.04,3025.06 1385.54,3022.6 1382.05,3021.24C1380.93,3020.81 1374.43,3018.75 1367.58,3024.65C1359.28,3031.82 1324.48,3068.33 1307.07,3085.68C1304.05,3082.32 1301.05,3079.42 1298.09,3076.49C1300.29,3073.89 1303.04,3070.91 1306.15,3067.63C1323.26,3049.63 1351.18,3024.99 1372.05,3010.86C1376.6,3007.78 1382.21,3004.88 1385.79,3003.13ZM1212.99,3133.69C1211.21,3130.45 1211.77,3131.32 1210.44,3127.84C1200.19,3100.94 1215.23,3083.97 1233.01,3067.07C1238.54,3061.81 1245.05,3057.04 1251.91,3053.64C1252.76,3053.22 1277.47,3031.92 1277.43,3031.63C1272.75,3029.59 1255.51,3007.04 1252.27,3003.44C1246.3,3003.55 1222.25,3025.87 1217.68,3029.18C1196.3,3044.69 1179.9,3072.63 1173.66,3098.21C1167.05,3125.3 1173.03,3136.11 1186.94,3161.3L1212.99,3133.69ZM1228.99,3081.72C1228.54,3076.27 1249.71,3060.9 1254.08,3062.26C1256.84,3063.12 1325.58,3129.43 1325.88,3130.98C1326.28,3133.09 1309.98,3153.85 1305.58,3157.3C1296.84,3164.16 1229.16,3083.84 1228.99,3081.72ZM1252.01,3076.87C1265.21,3088.82 1296.26,3118.69 1310.03,3132.47C1307.73,3135.56 1304.87,3139.34 1302.43,3142.37C1298.89,3139.58 1293.75,3135.35 1289.62,3131.32C1273.81,3115.89 1254.61,3093.83 1245.03,3082.14L1252.01,3076.87ZM1249.62,3019.88C1252.49,3023.42 1255.87,3027.52 1259.03,3031.15C1253.65,3035.82 1247.48,3041.15 1245.16,3043.05C1237.63,3046.94 1230.5,3052.21 1224.4,3058.01C1203.13,3078.23 1186.76,3099.15 1198.3,3131.05L1189.74,3140.12C1183.65,3127.73 1181.63,3118.26 1185.8,3101.17C1191.39,3078.28 1205.89,3053.17 1225.02,3039.3C1227.75,3037.32 1241.71,3026.2 1249.62,3019.88ZM1245.06,2879.3C1270.35,2949.55 1325.45,2998.45 1330.64,3003.44L1298.8,3038.6C1255.44,2988.59 1212.79,2942.38 1184.37,2876.02C1199.23,2880.2 1223.18,2882.99 1245.06,2879.3ZM1236.9,2892.93C1258.66,2946.6 1296.01,2987.05 1313.21,3004.06C1313.21,3004.06 1298.99,3019.77 1298.99,3019.77C1264.52,2980.23 1231.06,2942.1 1205.91,2892.6C1215.67,2893.6 1226.34,2893.86 1236.9,2892.93ZM1368.44,2884.16C1368.44,2884.16 1358.36,2957.05 1312.18,2960.77L1337.35,2988.95C1342.25,2988.86 1364.82,2978.04 1376.19,2960.01C1378.66,2956.09 1382.78,2945.85 1392.05,2964.64C1398.66,2937.55 1382.35,2909.35 1368.44,2884.16ZM1380.03,2941.33C1377.69,2941.69 1375.51,2942.6 1373.48,2943.96C1370.23,2946.13 1367.41,2950.49 1365.62,2953.35C1359.82,2962.53 1347.56,2970.27 1340.79,2974.05L1334.53,2967.03C1346.5,2960.7 1355.77,2950.28 1362.7,2938.55C1366.6,2931.95 1369.73,2924.97 1372.22,2918.33L1372.22,2918.33C1373.67,2921.53 1375.02,2924.76 1376.21,2927.99C1377.83,2932.42 1379.18,2936.88 1380.03,2941.33ZM1263.51,2764.25C1297.02,2758.17 1325.87,2750.75 1358.51,2737.58C1404.02,2788.18 1435.83,2810.37 1417.15,2876.02C1371.16,2794.21 1310.22,2786.47 1263.51,2764.25ZM1437.18,2692.73C1456.71,2681.42 1460.64,2676.41 1476.3,2653.67C1507.44,2699.6 1525.2,2833.01 1478.59,2876.02C1479.06,2770.76 1471.57,2742.79 1437.18,2692.73ZM1164.09,2803.95C1160.26,2791.86 1172.57,2759.64 1174.64,2746.45C1169.67,2744.92 1164.77,2743.21 1159.98,2741.29C1106.45,2788.35 1085.6,2814.95 1093.88,2876.02C1119.33,2843.17 1140.26,2817.75 1164.09,2803.95ZM1081.9,2819.84C1077.72,2834.28 1074.26,2855.35 1071.66,2876.02C1056.55,2863.93 1047.31,2828.08 1049.58,2797.45C1059.93,2803.51 1069.64,2809.37 1081.9,2819.84ZM1077.85,2692.73C1058.33,2681.42 1054.39,2676.41 1038.74,2653.67C1007.6,2699.6 989.833,2833.01 1036.44,2876.02C1035.97,2770.76 1043.47,2742.79 1077.85,2692.73ZM1431.96,2819.84C1436.14,2834.28 1439.6,2855.35 1442.2,2876.02C1457.32,2863.93 1466.56,2828.08 1464.29,2797.45C1453.93,2803.51 1444.23,2809.37 1431.96,2819.84ZM961.949,2748.84C963.789,2789.23 959.8,2820.56 1011.28,2867.59C1003.76,2834.52 996.998,2807.43 998.284,2769.6C985.229,2763.9 970.304,2753.18 961.949,2748.84ZM1551.92,2748.84C1550.08,2789.23 1554.07,2820.56 1502.58,2867.59C1510.1,2834.52 1516.87,2807.43 1515.58,2769.6C1528.64,2763.9 1543.56,2753.18 1551.92,2748.84ZM1305.25,2768.11C1321.8,2763.93 1338,2758.89 1355.05,2752.37C1366.32,2764.66 1376.59,2775.29 1385.24,2785.48C1400.27,2803.18 1409.88,2819.35 1409.91,2841.98C1377.15,2798.48 1339.68,2781.84 1305.25,2768.11L1305.25,2768.11ZM1158.74,2759.13C1156.33,2767.83 1153.42,2777.96 1151.96,2786.62C1151.31,2790.49 1150.96,2794.16 1150.93,2797.47C1135.48,2807.96 1120.85,2823.04 1105.26,2841.73C1108.5,2809.71 1126.18,2788.51 1158.74,2759.13ZM1448.7,2836.55C1449.93,2831.38 1450.85,2825.94 1451.42,2820.42C1449.69,2821.67 1447.92,2823 1446.09,2824.43L1446.09,2824.43C1447,2828.22 1447.87,2832.28 1448.7,2836.55ZM1065.17,2836.55C1066,2832.28 1066.87,2828.22 1067.78,2824.43L1067.78,2824.43C1065.95,2823 1064.18,2821.67 1062.44,2820.42C1063.02,2825.94 1063.94,2831.38 1065.17,2836.55ZM1454.78,2696.55C1463.04,2690.97 1468.3,2685.81 1474.86,2677.23C1487.66,2706.44 1495.92,2751.43 1494.4,2791.93C1493.95,2803.79 1492.73,2815.3 1490.45,2825.84C1488.09,2761.99 1478.85,2733.73 1454.78,2696.55ZM1060.26,2696.55C1036.19,2733.73 1026.95,2761.99 1024.59,2825.84C1022.31,2815.3 1021.09,2803.79 1020.64,2791.93C1019.11,2751.43 1027.38,2706.44 1040.18,2677.23C1046.74,2685.81 1052,2690.97 1060.26,2696.55ZM1175.2,2814.99C1173.96,2798.64 1175.7,2784.81 1180.85,2768.48C1182.95,2761.82 1185.1,2755.21 1187.72,2748.84C1210.58,2752.6 1225.84,2756.37 1239.64,2760.14C1232.97,2783.29 1232.35,2803.71 1234.25,2824.97C1208.02,2825.54 1201.56,2820.33 1175.2,2814.99ZM1538.57,2771.41C1537.66,2788.31 1535.23,2804.41 1524.73,2822.28C1526.95,2808.21 1528.33,2793.7 1528.24,2777.32C1531.71,2775.47 1535.2,2773.44 1538.57,2771.41L1538.57,2771.41ZM975.301,2771.41C978.671,2773.44 982.16,2775.47 985.63,2777.32C985.542,2793.7 986.913,2808.21 989.139,2822.28C978.642,2804.41 976.204,2788.31 975.301,2771.41L975.301,2771.41ZM1187.33,2804.89C1187.37,2793.93 1189.13,2783.78 1192.77,2772.23C1193.76,2769.11 1194.75,2766 1195.8,2762.93C1207.05,2764.98 1216.27,2767.04 1224.52,2769.1C1221.36,2784.03 1220.46,2798.07 1220.93,2812.16C1208.43,2811.16 1200.84,2808.19 1187.33,2804.89L1187.33,2804.89ZM1099.11,2779.21C1111.42,2758.23 1126.39,2747.98 1142.56,2731.35C1124.97,2723.84 1103.96,2716.27 1086.82,2699.99C1077.36,2716.01 1070.35,2728.61 1064.59,2748C1079.84,2758.06 1090.3,2767.56 1099.11,2779.21ZM1414.76,2779.21C1402.44,2758.23 1387.48,2747.98 1371.31,2731.35C1388.89,2723.84 1409.9,2716.27 1427.05,2699.99C1436.5,2716.01 1443.52,2728.61 1449.28,2748C1434.03,2758.06 1423.57,2767.56 1414.76,2779.21ZM1415.89,2758.83C1408.93,2750.07 1401.41,2743 1393.45,2735.49C1403.46,2731.04 1413.8,2725.89 1423.54,2718.98C1427.72,2726.6 1431.32,2734.09 1434.51,2743.01C1427.36,2748.2 1421.29,2753.37 1415.89,2758.83L1415.89,2758.83ZM1097.97,2758.83C1092.58,2753.37 1086.5,2748.2 1079.36,2743.01C1082.55,2734.09 1086.15,2726.6 1090.33,2718.98C1100.07,2725.89 1110.4,2731.04 1120.41,2735.49C1112.46,2743 1104.93,2750.07 1097.97,2758.83L1097.97,2758.83ZM1260.63,2696.75C1266.17,2696.38 1271.69,2695.78 1277.12,2695.01C1313.24,2689.86 1366.37,2681.39 1423.2,2632.73C1429.69,2627.18 1447.88,2607.34 1450.75,2591.91C1452.9,2580.37 1444.73,2568.39 1426.22,2582.54C1418.8,2560.18 1439.65,2539.5 1448.77,2537.41C1466.27,2533.41 1486.83,2516.4 1550.72,2529.11C1556.06,2562.23 1565.78,2594.77 1563.99,2679.86C1557.53,2684.64 1525.28,2578.93 1505.96,2566.84C1486.65,2595.51 1488.04,2604.98 1476.45,2629.22C1454.54,2675.08 1360.91,2747.61 1260.15,2748.11C1158.74,2748.6 1066.8,2688.64 1041.49,2635.67C1029.9,2611.42 1031.29,2596.51 1011.98,2567.84C992.664,2579.93 960.409,2685.64 953.945,2680.86C952.16,2595.77 961.884,2563.23 967.223,2530.11C1031.11,2517.4 1051.67,2534.41 1069.17,2538.41C1078.29,2540.5 1099.14,2561.18 1091.72,2583.54C1073.21,2569.39 1065.04,2581.37 1067.19,2592.91C1070.06,2608.34 1088.25,2628.18 1094.74,2633.73C1151.57,2682.39 1204.7,2690.86 1240.82,2696.01C1242.78,2696.29 1248.58,2696.91 1260.63,2696.75ZM1550.75,2622.15C1545.35,2609.84 1539.7,2597.35 1534.89,2587.57C1527.19,2571.91 1518.92,2560.21 1512.59,2556.24L1502.34,2549.84L1495.59,2559.86C1475.77,2589.28 1477.06,2598.95 1465.17,2623.84C1457.04,2640.86 1438,2661.63 1412.4,2680.71C1372.93,2710.14 1317.76,2735.32 1260.09,2735.61C1164.18,2736.08 1076.71,2680.38 1052.77,2630.28C1040.9,2605.44 1042.13,2590.23 1022.35,2560.86L1015.6,2550.84L1005.35,2557.24C999.018,2561.21 990.749,2572.91 983.049,2588.57C978.242,2598.35 972.592,2610.84 967.194,2623.15C969.259,2584.8 974.272,2561.97 978.066,2540.84C1032.14,2531.85 1050.57,2546.98 1066.38,2550.6C1068.39,2551.06 1070.99,2553.71 1073.66,2556.85C1075.55,2559.09 1077.38,2561.74 1078.72,2564.68C1072.97,2564.26 1068.31,2565.88 1064.87,2568.12C1057.02,2573.25 1052.84,2584.11 1054.9,2595.19C1058.26,2613.22 1079.03,2636.74 1086.61,2643.23C1145.94,2694.02 1201.34,2703.01 1239.05,2708.39C1241.21,2708.69 1247.58,2709.43 1260.79,2709.25L1261.12,2709.24L1261.45,2709.22C1267.32,2708.84 1273.15,2708.2 1278.89,2707.39C1316.6,2702.01 1372,2693.02 1431.33,2642.23C1438.91,2635.74 1459.68,2612.22 1463.04,2594.19C1465.1,2583.11 1460.92,2572.25 1453.07,2567.12C1449.63,2564.88 1444.97,2563.26 1439.22,2563.68C1440.56,2560.74 1442.38,2558.09 1444.28,2555.85C1446.95,2552.71 1449.55,2550.06 1451.56,2549.6C1467.37,2545.98 1485.79,2530.85 1539.87,2539.84C1543.67,2560.97 1548.68,2583.8 1550.75,2622.15ZM1513.69,2715.52C1507.37,2683.16 1495.96,2656.04 1480.4,2641.33C1486.51,2630.52 1498.51,2600.78 1505.39,2587.03C1511.8,2598.1 1521.8,2621.16 1527.48,2636.55C1534.09,2654.48 1543.33,2671.52 1546.75,2692.71C1536.8,2697.65 1528.13,2705.33 1513.69,2715.52ZM1000.18,2715.52C1006.5,2683.16 1017.91,2656.04 1033.47,2641.33C1027.36,2630.52 1015.36,2600.78 1008.48,2587.03C1002.07,2598.1 992.065,2621.16 986.387,2636.55C979.775,2654.48 970.535,2671.52 967.119,2692.71C977.064,2697.65 985.736,2705.33 1000.18,2715.52ZM1521.55,2694.31C1515.32,2671.72 1506.39,2652.57 1495.46,2639.23C1498.55,2632.73 1502.19,2624.43 1505.77,2616.31C1509.49,2624.8 1513.11,2633.7 1515.75,2640.88C1521.21,2655.68 1528.66,2669.81 1532.72,2686.41C1529.18,2688.72 1525.56,2691.35 1521.55,2694.31L1521.55,2694.31ZM992.314,2694.31C988.307,2691.35 984.683,2688.72 981.144,2686.41C985.205,2669.81 992.656,2655.68 998.115,2640.88C1000.76,2633.7 1004.37,2624.8 1008.1,2616.31C1011.67,2624.43 1015.32,2632.73 1018.41,2639.23C1007.48,2652.57 998.545,2671.72 992.314,2694.31L992.314,2694.31ZM1207.38,2676.7C1213.3,2617.02 1256.21,2592.62 1267.15,2584.5C1296.73,2562.55 1257.27,2521.78 1246.03,2541.12C1241.49,2548.93 1211.38,2566.64 1195.77,2565.26C1166.69,2562.7 1171.94,2603.35 1171.94,2603.35C1138.76,2583.67 1132.77,2561.21 1146.16,2543.55C1155.55,2531.16 1188.72,2519.56 1189.15,2509.1C1179.14,2507.91 1180.13,2490.87 1187.38,2483.31C1194.39,2476.01 1226.18,2456.91 1245.51,2456.6C1264.84,2456.29 1275.88,2448.24 1252.04,2434.82C1304.71,2419.58 1365.33,2442.49 1379.43,2460.79C1326.54,2453.43 1299.58,2456.59 1304.05,2479.33C1313.26,2485.8 1333,2487.41 1328.14,2466.17C1335.34,2467.84 1341.23,2472.6 1345.63,2483.2C1366.2,2475.7 1382.85,2484.94 1393.7,2505.68C1365.46,2498.87 1334.55,2525.11 1334.34,2526.62C1333.25,2534.5 1346.7,2551.81 1341.95,2565.75C1336.06,2583.02 1282.37,2624.37 1258.29,2682.38C1229.67,2688.14 1222.44,2681.11 1207.38,2676.7ZM1321.61,2446C1316.4,2446.73 1312.01,2447.86 1308.47,2449.38C1301.47,2452.4 1296.78,2456.83 1293.99,2462.23C1291.27,2467.48 1290.24,2473.92 1291.78,2481.74L1292.75,2486.68L1296.86,2489.57C1301.93,2493.12 1309.07,2495.72 1315.8,2496.07C1321.47,2496.37 1326.84,2495.1 1331.11,2492.39C1332.37,2491.59 1333.6,2490.66 1334.74,2489.57L1338.67,2499.05L1349.92,2494.95C1356.01,2492.72 1361.51,2492.81 1366.39,2494.76C1350.42,2499.18 1336.6,2508.13 1329.99,2513.52C1326.09,2516.7 1324.05,2519.41 1323.55,2520.28C1322.48,2522.15 1322.12,2523.76 1321.96,2524.91C1321.32,2529.52 1323.19,2536.56 1326.3,2544.39C1327.65,2547.8 1329.16,2551.52 1329.98,2555.3C1330.46,2557.47 1330.82,2559.67 1330.12,2561.72C1328.05,2567.78 1318.74,2576.8 1307.6,2589.21C1288.95,2609.97 1264.84,2637.82 1249.53,2671.22C1235.67,2673.17 1228.34,2671.04 1221.17,2668.36L1221.17,2668.36C1229.9,2621.13 1265.27,2601.46 1274.6,2594.54C1304.68,2572.22 1286.44,2536.4 1266.69,2526.61C1259.78,2523.19 1252.76,2522.72 1246.85,2524.87C1242.45,2526.48 1238.42,2529.49 1235.4,2534.54C1235.02,2534.87 1229.27,2539.79 1224.47,2542.66C1215.62,2547.94 1204.3,2553.47 1196.87,2552.81C1187.58,2551.99 1180.56,2554.23 1175.16,2557.86C1167.7,2562.87 1163.18,2570.99 1161,2579.64C1151.17,2569.74 1149.38,2559.99 1156.12,2551.1C1158.68,2547.72 1163.7,2544.69 1168.9,2541.48C1175.9,2537.16 1183.4,2532.93 1188.89,2528.85C1197.27,2522.64 1201.4,2515.45 1201.64,2509.61L1202.1,2498.06L1194.39,2497.14C1194.42,2496.79 1194.46,2496.45 1194.52,2496.17C1194.84,2494.62 1195.39,2493.03 1196.4,2491.97C1200.06,2488.16 1211.64,2480.9 1223.82,2475.44C1231.47,2472.02 1239.37,2469.2 1245.71,2469.1C1257.46,2468.91 1266.84,2465.78 1271.51,2461.89C1276.15,2458.03 1278.22,2453.21 1278.11,2447.92C1278.07,2446.45 1277.77,2444.73 1277.08,2442.84C1292.43,2441.45 1307.77,2442.91 1321.61,2446Z"/>
        </g>
        <g transform="matrix(0.928214,0,0,0.928214,83.406,27.5544)">
            <path d="M1219.67,2620.22C1227.49,2608.43 1248.78,2608.49 1248.78,2608.49C1248.78,2608.49 1239.91,2629.04 1234.3,2633.44C1222.04,2643.08 1209.34,2646.06 1209.34,2646.06C1209.34,2646.06 1211.88,2631.99 1219.67,2620.22Z" style="fill:rgb(51,148,40);"/>
            <path d="M1219.67,2620.22C1227.49,2608.43 1248.78,2608.49 1248.78,2608.49C1248.78,2608.49 1239.91,2629.04 1234.3,2633.44C1222.04,2643.08 1209.34,2646.06 1209.34,2646.06C1209.34,2646.06 1211.88,2631.99 1219.67,2620.22Z"/>
        </g>
    </g>
</svg>
