<?xml version="1.0" encoding="UTF-8" standalone="no"?>
<!DOCTYPE svg PUBLIC "-//W3C//DTD SVG 1.1//EN" "http://www.w3.org/Graphics/SVG/1.1/DTD/svg11.dtd">
<svg width="100%" height="100%" viewBox="0 0 2550 3300" version="1.1" xmlns="http://www.w3.org/2000/svg" xmlns:xlink="http://www.w3.org/1999/xlink" xml:space="preserve" xmlns:serif="http://www.serif.com/" style="fill-rule:evenodd;clip-rule:evenodd;stroke-linejoin:round;stroke-miterlimit:2;">
    <g transform="matrix(1.00594,0,0,1.00594,-7.25035,12.7992)">
        <g transform="matrix(0.994098,0,0,0.994098,7.20756,-12.7237)">
            <path d="M1384.14,3184.91C1388.15,3183.17 1391.7,3178.32 1394.46,3173.75C1403.6,3158.56 1417.36,3133.57 1416.38,3107.67C1416.28,3105.06 1416.14,3097.72 1415.97,3095.14L1452.7,3086.57C1453.38,3096.63 1453.56,3111.59 1453.05,3121.7C1450.79,3166.62 1428.67,3195.41 1424.3,3203.65C1411.9,3227.04 1387.62,3230.15 1358.88,3210.58C1358.4,3210.98 1357.91,3211.38 1357.42,3211.78C1338.74,3227.09 1318.98,3239.43 1293.99,3243.79C1260.84,3249.57 1228.54,3240.35 1202.45,3216.3L1243.97,3183.01C1276.46,3201.81 1315.04,3183.57 1337.21,3152.92C1340.31,3148.63 1342.94,3144.36 1345.13,3140.11C1356.29,3152.91 1373.16,3162.43 1393.41,3170.03C1390.78,3175.29 1387.66,3180.23 1384.14,3184.91ZM1141.18,3087.8C1142.65,3126.62 1151.73,3155.07 1160.2,3179.41C1191.09,3174.28 1247.25,3108.34 1248.1,3110.63C1257.46,3125.33 1266.08,3130.59 1275,3140.74C1263.64,3163.71 1156.65,3243.2 1142.88,3230.43C1141.69,3229.32 1139.07,3225.64 1138.59,3224.61C1135.03,3216.94 1131.75,3209.15 1128.14,3201.51C1120.56,3185.43 1099.69,3126.97 1099.6,3075.05L1141.18,3087.8ZM1406.91,3112.34C1405.97,3131.75 1398.5,3149.85 1394.26,3160.35C1361.44,3153.44 1334.91,3120.2 1319.99,3103.89L1338.6,3083.27C1354.96,3100.68 1387.15,3106.28 1406.91,3112.34ZM1220.1,3066.2C1219.57,3059.73 1244.7,3041.49 1249.89,3043.1C1253.16,3044.11 1334.77,3122.83 1335.12,3124.67C1335.6,3127.18 1316.25,3151.82 1311.03,3155.92C1300.65,3164.07 1220.31,3068.72 1220.1,3066.2ZM1151.78,3108.34C1152.72,3127.75 1160.19,3145.85 1164.43,3156.35C1197.25,3149.44 1223.78,3116.2 1238.7,3099.89L1220.09,3079.27C1203.73,3096.68 1171.54,3102.28 1151.78,3108.34ZM1348.73,3079.04L1394.1,3036.01C1405.81,3061.84 1407.45,3084.74 1406.4,3102.65C1382.7,3099.26 1363.34,3091.53 1348.73,3079.04ZM1151.78,3099.89L1195.55,3089.76C1199.57,3074.12 1211.58,3061.44 1224.88,3048.8C1231.45,3042.56 1239.17,3036.89 1247.32,3032.86C1248.32,3032.36 1263.61,3017.78 1263.56,3017.43C1258.01,3015.01 1243.56,2983.25 1239.71,2978.98C1232.63,2979.11 1212.1,2999.89 1206.68,3003.82C1181.3,3022.23 1161.83,3055.4 1154.42,3085.77C1153.16,3090.92 1152.29,3095.58 1151.78,3099.89ZM1403.84,3027.23C1402.16,3021.7 1398.1,3012.99 1396.46,3008.28C1395.57,3005.71 1311.71,3095.07 1310.87,3092.78C1301.5,3078.08 1291.97,3071.62 1283.05,3061.47C1294.4,3038.5 1400.01,2944.48 1413.78,2957.26C1414.97,2958.37 1417.59,2962.04 1418.07,2963.08C1421.63,2970.74 1424.91,2978.53 1428.52,2986.17C1430.83,2991.08 1436.4,3003.01 1439.73,3013.77L1403.84,3027.23ZM1262.47,2873.73C1287.75,2943.97 1319.44,2991.54 1324.63,2996.54L1291.91,3043C1248.55,2992.99 1230.2,2936.81 1201.78,2870.44C1216.63,2874.63 1240.59,2877.42 1262.47,2873.73ZM1126.47,3006.49C1141.08,2971 1183.49,2959.31 1214.03,2989.84C1207.77,2996.17 1192.53,3005.35 1186.52,3010.84C1175.84,3008.94 1169.24,3013.89 1160.28,3029.26L1126.47,3006.49ZM1376.26,2856.15C1376.26,2856.15 1357.81,2939.91 1302.84,2947.24L1325.89,2983.96C1331.69,2983.55 1359.73,2969.16 1375.5,2946.79C1378.93,2941.92 1385.13,2929.37 1393.61,2951.37C1416.37,2928.61 1389.38,2885.55 1376.26,2856.15ZM1029.33,2677.28C1015.53,2668.3 1015.05,2666.19 1000.37,2644.03C943.889,2672.37 939.426,2871.77 1008.14,2921.18C968.187,2785.67 994.352,2732.19 1029.33,2677.28ZM1525.89,2677.28C1539.69,2668.3 1540.17,2666.19 1554.85,2644.03C1611.33,2672.37 1615.8,2871.77 1547.08,2921.18C1587.03,2785.67 1560.87,2732.19 1525.89,2677.28ZM1484.06,2813.32C1489.07,2826.95 1493.93,2873.32 1497.04,2921.18C1515.17,2909.78 1525.55,2821.1 1522.82,2792.19C1510.4,2797.91 1498.76,2803.44 1484.06,2813.32ZM1071.16,2813.32C1066.15,2826.95 1065.55,2875.09 1064.2,2921.18C1046.07,2909.78 1029.67,2821.1 1032.4,2792.19C1044.82,2797.91 1056.46,2803.44 1071.16,2813.32ZM1183.04,2798.38C1177.18,2786.28 1190.19,2754.06 1191.76,2740.88C1185.31,2739.34 1157.13,2737.64 1150.87,2735.72C1086.66,2782.78 1068.76,2839.5 1072.54,2916.45C1102.2,2883.6 1153.87,2812.18 1183.04,2798.38ZM1282.53,2758.68C1325.14,2752.6 1361.82,2745.17 1403.32,2732.01C1458.49,2771.78 1488.85,2834.2 1484.13,2916.45C1425.65,2834.64 1341.92,2780.89 1282.53,2758.68ZM1744.91,2689.78C1741.97,2728.89 1652,2845.12 1586.53,2892.14C1596.09,2859.07 1610.71,2805.24 1609.08,2767.41C1650.04,2751.84 1722.17,2692.5 1744.91,2689.78ZM810.311,2689.78C813.253,2728.89 903.224,2845.12 968.691,2892.14C959.127,2859.07 945.572,2807.97 947.208,2770.14C912.929,2760.2 827.807,2701.58 810.311,2689.78ZM1192.61,2809.41C1191.37,2793.07 1193.11,2779.23 1198.26,2762.9C1200.36,2756.24 1202.51,2749.64 1205.13,2743.26C1227.99,2747.03 1243.25,2750.8 1257.05,2754.57C1250.37,2777.72 1249.76,2798.14 1251.66,2819.39C1225.42,2819.97 1218.97,2814.76 1192.61,2809.41ZM1463.43,2774.98C1448.65,2755.18 1430.71,2745.51 1411.32,2729.82C1432.41,2722.72 1457.6,2715.59 1478.16,2700.22C1489.5,2715.34 1497.91,2727.23 1504.82,2745.53C1486.53,2755.02 1473.99,2763.99 1463.43,2774.98ZM1091.79,2774.98C1106.57,2755.18 1124.51,2745.51 1143.9,2729.82C1122.81,2722.72 1097.62,2715.59 1077.06,2700.22C1065.72,2715.34 1057.31,2727.23 1050.4,2745.53C1068.69,2755.02 1081.23,2763.99 1091.79,2774.98ZM1115.9,2665.2C1158.68,2681.82 1187.84,2675.82 1221.32,2684.59C1223.76,2685.23 1231,2686.91 1246.22,2688.96C1253.28,2689.62 1260.33,2690.04 1267.3,2690.28C1303.46,2691.48 1381.02,2686.03 1443.9,2661.58L1470.68,2693.47C1420.01,2719.38 1345.78,2742.27 1277.89,2742.53C1207.68,2742.8 1141.03,2725.27 1089.6,2700.71C1099.55,2688.87 1108.2,2677.03 1115.9,2665.2ZM954.568,2709.95C962.601,2677.58 977.117,2650.47 996.903,2635.75C989.128,2624.94 973.871,2595.2 965.125,2581.45C956.977,2592.53 944.251,2615.58 937.032,2630.97C928.624,2648.91 916.874,2665.95 912.53,2687.13C925.176,2692.07 936.204,2699.76 954.568,2709.95ZM1600.65,2709.95C1592.62,2677.58 1578.1,2650.47 1558.32,2635.75C1566.09,2624.94 1581.35,2595.2 1590.1,2581.45C1598.24,2592.53 1610.97,2615.58 1618.19,2630.97C1626.6,2648.91 1638.35,2665.95 1642.69,2687.13C1630.04,2692.07 1619.02,2699.76 1600.65,2709.95ZM1215.03,2668.99C1221.43,2604.43 1249.28,2583.33 1257.06,2557.32C1270.89,2511.03 1264.49,2476.79 1244.25,2493.84C1236.07,2500.73 1195.47,2508.43 1178.63,2500.66C1147.27,2486.18 1136.88,2533.56 1136.88,2533.56C1107.78,2498.39 1110.08,2470.98 1132.05,2456.65C1147.45,2446.61 1189.04,2446.94 1193.68,2435.46C1183.02,2430.14 1190.92,2411.56 1202.02,2406.03C1212.74,2400.7 1255.77,2392.12 1277.43,2399.5C1299.09,2406.87 1314.6,2402.32 1293.4,2377.85C1358.15,2381.91 1416.52,2431.64 1424.91,2457.65C1368.94,2428.33 1337.65,2421.09 1333.55,2448.2C1341.22,2459.08 1362.57,2468.75 1365.64,2443.16C1372.99,2447.9 1377.65,2455.55 1378.32,2469.12C1404.23,2468.97 1369.43,2485.04 1373.24,2512.47C1358.31,2502.67 1349.24,2511.37 1348.4,2512.97C1344.04,2521.3 1336.91,2555.89 1329.01,2569.73C1319.22,2586.88 1296.15,2612.37 1270.11,2675.14C1239.15,2681.36 1231.33,2673.76 1215.03,2668.99ZM1036.85,2669.26C1019.83,2656.45 1006.82,2643.06 998.919,2630.09C984.139,2605.85 985.901,2590.93 961.273,2562.27C936.627,2574.35 895.478,2680.07 887.231,2675.29C884.953,2590.19 897.359,2557.65 904.17,2524.54C929.93,2520.52 947.327,2517.24 966.507,2508.91C1007.55,2522.02 1018.96,2530.1 1034.23,2532.84C1045.87,2534.93 1072.47,2555.61 1063,2577.97C1039.38,2563.81 1028.97,2575.8 1031.71,2587.33C1034.68,2599.84 1050.5,2622.35 1060.79,2633.38L1036.85,2669.26ZM1497.49,2626C1507.17,2614.12 1518.57,2596.76 1521.05,2586.33C1523.79,2574.8 1513.37,2562.81 1489.76,2576.97C1480.28,2554.61 1506.89,2533.93 1518.53,2531.84C1535.09,2528.87 1554.57,2519.92 1583.56,2504.64C1609.47,2516.58 1627.57,2520.26 1648.59,2523.54C1655.4,2556.65 1667.8,2589.19 1665.52,2674.29C1657.28,2679.07 1616.13,2573.35 1591.48,2561.27C1566.85,2589.93 1568.62,2599.4 1553.84,2623.65C1547.5,2634.04 1536.46,2645.81 1521.68,2657.8L1497.49,2626ZM1732.73,2543.01C1756.03,2561.01 1786.15,2640.42 1786.15,2640.42C1786.15,2640.42 1874.67,2600.21 1906.45,2500.64C1825.94,2554.66 1732.73,2543.01 1732.73,2543.01ZM816.153,2543.01C792.849,2561.01 762.729,2640.42 762.729,2640.42C762.729,2640.42 674.212,2600.21 642.434,2500.64C722.938,2554.66 816.153,2543.01 816.153,2543.01Z" style="fill:rgb(51,148,40);"/>
            <path d="M1384.14,3184.91C1388.15,3183.17 1391.7,3178.32 1394.46,3173.75C1403.6,3158.56 1417.36,3133.57 1416.38,3107.67C1416.28,3105.06 1416.14,3097.72 1415.97,3095.14L1452.7,3086.57C1453.38,3096.63 1453.56,3111.59 1453.05,3121.7C1450.79,3166.62 1428.67,3195.41 1424.3,3203.65C1411.9,3227.04 1387.62,3230.15 1358.88,3210.58C1358.4,3210.98 1357.91,3211.38 1357.42,3211.78C1338.74,3227.09 1318.98,3239.43 1293.99,3243.79C1260.84,3249.57 1228.54,3240.35 1202.45,3216.3L1243.97,3183.01C1276.46,3201.81 1315.04,3183.57 1337.21,3152.92C1340.31,3148.63 1342.94,3144.36 1345.13,3140.11C1356.29,3152.91 1373.16,3162.43 1393.41,3170.03C1390.78,3175.29 1387.66,3180.23 1384.14,3184.91ZM1360,3196.21L1358.14,3194.94L1350.89,3200.96C1350.43,3201.35 1349.96,3201.73 1349.5,3202.12C1332.49,3216.05 1314.6,3227.5 1291.84,3231.47C1267.22,3235.77 1243.15,3230.66 1222.4,3216.32C1222.4,3216.32 1245.57,3197.74 1245.57,3197.74C1281.85,3213.07 1323.16,3193.68 1347.34,3160.24C1347.48,3160.05 1347.62,3159.86 1347.75,3159.67C1355.61,3165.84 1364.85,3171.24 1375.19,3175.99C1374.85,3176.46 1374.5,3176.93 1374.15,3177.39L1360,3196.21ZM1141.18,3087.8C1142.65,3126.62 1151.73,3155.07 1160.2,3179.41C1191.09,3174.28 1247.25,3108.34 1248.1,3110.63C1257.46,3125.33 1266.08,3130.59 1275,3140.74C1263.64,3163.71 1156.65,3243.2 1142.88,3230.43C1141.69,3229.32 1139.07,3225.64 1138.59,3224.61C1135.03,3216.94 1131.75,3209.15 1128.14,3201.51C1120.56,3185.43 1099.69,3126.97 1099.6,3075.05L1141.18,3087.8ZM1129.16,3097.19C1131.62,3133.05 1140.25,3160.11 1148.39,3183.51L1151.85,3193.46L1162.25,3191.74C1172.08,3190.11 1184.28,3183.64 1196.59,3174.55C1215.35,3160.69 1234.95,3140.85 1246.43,3129.25C1250.62,3134.06 1254.71,3137.83 1258.82,3141.88C1256.09,3144.89 1252.52,3148.35 1248.43,3152.15C1227.9,3171.24 1194.34,3196.22 1169.29,3210.09C1163.56,3213.27 1158.32,3215.84 1153.84,3217.54C1152.51,3218.04 1150.93,3218.48 1149.68,3218.8C1146.2,3211.29 1142.98,3203.66 1139.45,3196.18C1133.01,3182.53 1116.58,3136.99 1112.85,3092.19L1129.16,3097.19ZM1371.74,3203.92L1389.12,3196.38C1395.13,3193.77 1401.04,3187.06 1405.17,3180.19C1415.25,3163.45 1429.95,3135.75 1428.87,3107.19C1428.85,3106.64 1428.82,3105.87 1428.8,3104.98C1428.8,3104.98 1440.8,3102.18 1440.8,3102.18C1440.91,3108.84 1440.84,3115.67 1440.57,3121.07C1438.44,3163.2 1417.35,3190.07 1413.25,3197.8C1410,3203.93 1405.73,3208.17 1400.3,3209.95C1392.21,3212.6 1382.56,3210.22 1371.74,3203.92ZM1406.91,3112.34C1405.97,3131.75 1398.5,3149.85 1394.26,3160.35C1361.44,3153.44 1334.91,3120.2 1319.99,3103.89L1338.6,3083.27C1354.96,3100.68 1387.15,3106.28 1406.91,3112.34ZM1220.1,3066.2C1219.57,3059.73 1244.7,3041.49 1249.89,3043.1C1253.16,3044.11 1334.77,3122.83 1335.12,3124.67C1335.6,3127.18 1316.25,3151.82 1311.03,3155.92C1300.65,3164.07 1220.31,3068.72 1220.1,3066.2ZM1151.78,3108.34C1152.72,3127.75 1160.19,3145.85 1164.43,3156.35C1197.25,3149.44 1223.78,3116.2 1238.7,3099.89L1220.09,3079.27C1203.73,3096.68 1171.54,3102.28 1151.78,3108.34ZM1393.37,3121.48C1391.93,3130.18 1389.35,3138.29 1386.85,3145.06C1366.13,3136.77 1348.97,3117.87 1336.76,3103.97C1336.76,3103.97 1339.8,3100.59 1339.8,3100.59C1345.67,3104.64 1352.32,3108.03 1359.33,3110.87C1370.62,3115.44 1382.84,3118.61 1393.37,3121.48L1393.37,3121.48ZM1247.38,3057.23C1262.41,3070.68 1303.21,3109.95 1319.36,3126.18C1316,3130.72 1311.22,3137.07 1307.59,3141.45C1304.27,3138.99 1299.37,3135.19 1295.38,3131.47C1274.71,3112.16 1246.79,3079.93 1235.38,3065.79C1236.06,3065.14 1236.77,3064.49 1237.42,3063.94C1240.2,3061.62 1244.45,3058.96 1247.38,3057.23ZM1165.32,3117.48C1175.85,3114.61 1188.07,3111.44 1199.36,3106.87C1206.37,3104.03 1213.02,3100.64 1218.89,3096.59C1218.89,3096.59 1221.93,3099.97 1221.93,3099.97C1209.71,3113.87 1192.56,3132.77 1171.84,3141.06C1169.34,3134.29 1166.76,3126.18 1165.32,3117.48L1165.32,3117.48ZM1348.73,3079.04L1394.1,3036.01C1405.81,3061.84 1407.45,3084.74 1406.4,3102.65C1382.7,3099.26 1363.34,3091.53 1348.73,3079.04ZM1151.78,3099.89L1195.55,3089.76C1199.57,3074.12 1211.58,3061.44 1224.88,3048.8C1231.45,3042.56 1239.17,3036.89 1247.32,3032.86C1248.32,3032.36 1263.61,3017.78 1263.56,3017.43C1258.01,3015.01 1243.56,2983.25 1239.71,2978.98C1232.63,2979.11 1212.1,2999.89 1206.68,3003.82C1181.3,3022.23 1161.83,3055.4 1154.42,3085.77C1153.16,3090.92 1152.29,3095.58 1151.78,3099.89ZM1403.84,3027.23C1402.16,3021.7 1398.1,3012.99 1396.46,3008.28C1395.57,3005.71 1311.71,3095.07 1310.87,3092.78C1301.5,3078.08 1291.97,3071.62 1283.05,3061.47C1294.4,3038.5 1400.01,2944.48 1413.78,2957.26C1414.97,2958.37 1417.59,2962.04 1418.07,2963.08C1421.63,2970.74 1424.91,2978.53 1428.52,2986.17C1430.83,2991.08 1436.4,3003.01 1439.73,3013.77L1403.84,3027.23ZM1368.39,3077.62L1389.03,3058.05C1392.18,3068.68 1393.6,3078.58 1394.02,3087.56C1384.51,3085.21 1375.94,3081.93 1368.39,3077.62L1368.39,3077.62ZM1235.36,2995.76C1238.51,3001.75 1242.47,3009.59 1246.03,3015.4L1246.65,3016.39L1240.35,3022.38C1231.62,3026.9 1223.34,3033.02 1216.27,3039.74C1203.33,3052.04 1191.84,3064.63 1185.93,3079.15L1168.02,3083.3C1175.63,3057.17 1192.4,3029.63 1214.02,3013.94C1217.06,3011.74 1224.68,3004.48 1232.19,2998.22C1233.13,2997.43 1234.24,2996.58 1235.36,2995.76ZM1407.41,2969.82C1410.72,2977.03 1413.83,2984.33 1417.21,2991.51C1418.6,2994.45 1421.25,3000.08 1423.79,3006.4L1411.03,3011.18C1409.93,3008.52 1408.91,3006.04 1408.27,3004.17C1406.95,3000.4 1404.44,2997.94 1400.96,2996.58C1399.81,2996.14 1393.17,2994.17 1386.16,3000.22C1376.03,3008.96 1332.69,3054.49 1312.68,3074.3C1308.08,3068.93 1303.49,3064.64 1298.99,3060.14C1301.83,3056.64 1305.62,3052.48 1310.01,3047.86C1330.42,3026.38 1363.73,2997 1388.62,2980.14C1395.06,2975.79 1403.25,2971.76 1407.41,2969.82ZM1262.47,2873.73C1287.75,2943.97 1319.44,2991.54 1324.63,2996.54L1291.91,3043C1248.55,2992.99 1230.2,2936.81 1201.78,2870.44C1216.63,2874.63 1240.59,2877.42 1262.47,2873.73ZM1126.47,3006.49C1141.08,2971 1183.49,2959.31 1214.03,2989.84C1207.77,2996.17 1192.53,3005.35 1186.52,3010.84C1175.84,3008.94 1169.24,3013.89 1160.28,3029.26L1126.47,3006.49ZM1254.18,2887.37C1274.28,2940.47 1297.55,2979.72 1309.22,2996.71C1309.22,2996.71 1291.16,3022.35 1291.16,3022.35C1260.11,2982.04 1243.2,2937.53 1222.25,2886.91C1232.26,2888 1243.27,2888.32 1254.18,2887.37ZM1142.79,3002.41C1148.8,2993.63 1157.38,2987.71 1166.94,2985.62C1175.63,2983.73 1184.99,2985.08 1193.84,2990.01C1190.01,2992.72 1186.01,2995.45 1182.75,2997.87C1173.15,2997.54 1165.17,3001.27 1156.86,3011.89L1142.79,3002.41ZM1376.26,2856.15C1376.26,2856.15 1357.81,2939.91 1302.84,2947.24L1325.89,2983.96C1331.69,2983.55 1359.73,2969.16 1375.5,2946.79C1378.93,2941.92 1385.13,2929.37 1393.61,2951.37C1416.37,2928.61 1389.38,2885.55 1376.26,2856.15ZM1331,2968.58L1322.31,2954.75C1339.31,2947.55 1352.73,2934.05 1362.82,2918.96C1369.33,2909.22 1374.44,2898.89 1378.32,2889.6L1378.32,2889.6C1381.42,2896.37 1384.31,2903.28 1386.49,2910.07C1388.44,2916.15 1390.03,2922.12 1390.17,2927.59C1388.88,2927.03 1387.69,2926.7 1386.65,2926.53C1382.23,2925.78 1378.01,2926.79 1374.2,2929.4C1370.66,2931.82 1367.43,2936.55 1365.29,2939.59C1355.7,2953.18 1340.93,2963.38 1331,2968.58ZM1525.89,2677.28C1539.69,2668.3 1540.17,2666.19 1554.85,2644.03C1611.33,2672.37 1615.8,2871.77 1547.08,2921.18C1587.03,2785.67 1560.87,2732.19 1525.89,2677.28ZM1029.33,2677.28C1015.53,2668.3 1015.05,2666.19 1000.37,2644.03C943.889,2672.37 939.426,2871.77 1008.14,2921.18C968.187,2785.67 994.352,2732.19 1029.33,2677.28ZM1071.16,2813.32C1066.15,2826.95 1065.55,2875.09 1064.2,2921.18C1046.07,2909.78 1029.67,2821.1 1032.4,2792.19C1044.82,2797.91 1056.46,2803.44 1071.16,2813.32ZM1484.06,2813.32C1489.07,2826.95 1493.93,2873.32 1497.04,2921.18C1515.17,2909.78 1525.55,2821.1 1522.82,2792.19C1510.4,2797.91 1498.76,2803.44 1484.06,2813.32ZM1282.53,2758.68C1325.14,2752.6 1361.82,2745.17 1403.32,2732.01C1458.49,2771.78 1488.85,2834.2 1484.13,2916.45C1425.65,2834.64 1341.92,2780.89 1282.53,2758.68ZM1183.04,2798.38C1177.18,2786.28 1190.19,2754.06 1191.76,2740.88C1185.31,2739.34 1157.13,2737.64 1150.87,2735.72C1086.66,2782.78 1068.76,2839.5 1072.54,2916.45C1102.2,2883.6 1153.87,2812.18 1183.04,2798.38ZM1744.91,2689.78C1741.97,2728.89 1652,2845.12 1586.53,2892.14C1596.09,2859.07 1610.71,2805.24 1609.08,2767.41C1650.04,2751.84 1722.17,2692.5 1744.91,2689.78ZM810.311,2689.78C813.253,2728.89 903.224,2845.12 968.691,2892.14C959.127,2859.07 945.572,2807.97 947.208,2770.14C912.929,2760.2 827.807,2701.58 810.311,2689.78ZM1169.16,2792.08C1161.24,2797.49 1152.29,2805.45 1142.96,2815.04C1124.08,2834.43 1103.03,2860.63 1084.95,2882.57C1087.76,2828.22 1106.47,2785.41 1154.09,2748.93C1160.41,2749.79 1169.33,2750.62 1176.72,2751.4C1174.27,2760.63 1170.91,2771.95 1169.65,2781.47C1169.15,2785.24 1168.99,2788.82 1169.16,2792.08ZM1325.71,2764.3C1350.85,2759.6 1375.07,2753.8 1400.96,2745.84C1441.55,2777.11 1466.56,2822.27 1471.29,2879.76C1426.56,2827.33 1372.67,2788.48 1325.71,2764.3L1325.71,2764.3ZM1504.86,2864.64C1508.06,2846.6 1510.06,2827.17 1510.62,2811.99C1506.71,2814.05 1502.69,2816.31 1498.43,2818.93C1500.68,2829.67 1502.89,2845.8 1504.86,2864.64ZM1053.55,2864.51C1054.35,2846 1055.43,2829.89 1057.11,2819.13L1057.11,2819.13C1052.91,2816.54 1048.95,2814.29 1045.1,2812.25C1046.28,2827.38 1049.35,2846.64 1053.55,2864.51ZM836.185,2722.09C866.353,2741.86 908.512,2768.27 934.596,2778.9C934.949,2803.47 940.32,2832.08 946.539,2857.76C908.653,2823.08 868.387,2774.18 844.046,2735.22C841.202,2730.67 838.565,2726.28 836.184,2722.09L836.185,2722.09ZM1724.13,2712.64C1720.66,2719.51 1716.24,2727.11 1711.17,2735.22C1686.86,2774.14 1646.65,2822.98 1608.8,2857.64C1615.41,2830.91 1621.31,2800.72 1621.68,2775.64C1646.25,2764.3 1678.64,2741.91 1705.86,2724.29C1712.41,2720.06 1718.56,2716.05 1724.13,2712.64ZM1012.47,2680.64C986.857,2722.33 967.688,2765.91 978.361,2844.86C970.04,2812.38 967.942,2774.65 971.352,2740.85C973.926,2715.33 979.595,2692.05 988.407,2675.26C991.103,2670.12 994.033,2665.62 997.298,2662.03C1003.79,2671.74 1007.19,2676.26 1012.47,2680.64ZM1576.86,2844.86C1587.53,2765.91 1568.36,2722.33 1542.75,2680.64C1548.03,2676.26 1551.43,2671.74 1557.92,2662.03C1561.19,2665.62 1564.12,2670.12 1566.81,2675.26C1575.62,2692.05 1581.29,2715.33 1583.87,2740.85C1587.28,2774.65 1585.18,2812.38 1576.86,2844.86ZM1192.61,2809.41C1191.37,2793.07 1193.11,2779.23 1198.26,2762.9C1200.36,2756.24 1202.51,2749.64 1205.13,2743.26C1227.99,2747.03 1243.25,2750.8 1257.05,2754.57C1250.37,2777.72 1249.76,2798.14 1251.66,2819.39C1225.42,2819.97 1218.97,2814.76 1192.61,2809.41ZM1204.73,2799.32C1204.78,2788.36 1206.54,2778.2 1210.18,2766.66C1211.16,2763.54 1212.16,2760.43 1213.21,2757.35C1224.46,2759.41 1233.68,2761.47 1241.93,2763.53C1238.77,2778.45 1237.87,2792.5 1238.34,2806.58C1225.84,2805.59 1218.25,2802.61 1204.73,2799.32L1204.73,2799.32ZM1463.43,2774.98C1448.65,2755.18 1430.71,2745.51 1411.32,2729.82C1432.41,2722.72 1457.6,2715.59 1478.16,2700.22C1489.5,2715.34 1497.91,2727.23 1504.82,2745.53C1486.53,2755.02 1473.99,2763.99 1463.43,2774.98ZM1091.79,2774.98C1106.57,2755.18 1124.51,2745.51 1143.9,2729.82C1122.81,2722.72 1097.62,2715.59 1077.06,2700.22C1065.72,2715.34 1057.31,2727.23 1050.4,2745.53C1068.69,2755.02 1081.23,2763.99 1091.79,2774.98ZM1090.75,2756.88C1083.78,2750.98 1075.86,2745.49 1066.32,2739.99C1070.29,2731.64 1074.8,2724.59 1080.05,2717.24C1092.09,2724.45 1105.05,2729.7 1117.64,2734.15C1108.08,2741.28 1099.06,2748.16 1090.75,2756.88ZM1464.47,2756.88C1456.16,2748.16 1447.14,2741.28 1437.58,2734.15C1450.17,2729.7 1463.13,2724.45 1475.17,2717.24C1480.42,2724.59 1484.93,2731.64 1488.9,2739.99C1479.36,2745.49 1471.44,2750.98 1464.47,2756.88ZM1115.9,2665.2C1158.68,2681.82 1187.84,2675.82 1221.32,2684.59C1223.76,2685.23 1231,2686.91 1246.22,2688.96C1253.28,2689.62 1260.33,2690.04 1267.3,2690.28C1303.46,2691.48 1381.02,2686.03 1443.9,2661.58L1470.68,2693.47C1420.01,2719.38 1345.78,2742.27 1277.89,2742.53C1207.68,2742.8 1141.03,2725.27 1089.6,2700.71C1099.55,2688.87 1108.2,2677.03 1115.9,2665.2ZM1120.87,2680.26C1159.16,2692.89 1186.77,2688.46 1218.16,2696.68C1220.74,2697.36 1228.41,2699.17 1244.55,2701.35L1244.81,2701.39C1252.37,2702.09 1259.67,2702.53 1266.88,2702.77C1302.46,2703.95 1377,2698.84 1440,2676.37C1440,2676.37 1450.79,2689.23 1450.79,2689.23C1402.53,2711.42 1337.66,2729.8 1277.84,2730.03C1216.07,2730.27 1157.13,2716.32 1109.44,2695.96C1113.47,2690.73 1117.26,2685.49 1120.87,2680.26ZM954.568,2709.95C962.601,2677.58 977.117,2650.47 996.903,2635.75C989.128,2624.94 973.871,2595.2 965.125,2581.45C956.977,2592.53 944.251,2615.58 937.032,2630.97C928.624,2648.91 916.874,2665.95 912.53,2687.13C925.176,2692.07 936.204,2699.76 954.568,2709.95ZM1600.65,2709.95C1592.62,2677.58 1578.1,2650.47 1558.32,2635.75C1566.09,2624.94 1581.35,2595.2 1590.1,2581.45C1598.24,2592.53 1610.97,2615.58 1618.19,2630.97C1626.6,2648.91 1638.35,2665.95 1642.69,2687.13C1630.04,2692.07 1619.02,2699.76 1600.65,2709.95ZM946.966,2691.21C939.601,2686.92 933.369,2683.22 927.315,2680.14C932.527,2664.22 941.641,2650.59 948.349,2636.28C952.566,2627.29 958.731,2615.56 964.668,2605.37C969.988,2614.81 975.74,2625.26 980.559,2633.35C966.277,2647.34 954.803,2667.48 946.966,2691.21L946.966,2691.21ZM1608.25,2691.21C1600.42,2667.48 1588.94,2647.34 1574.66,2633.35C1579.48,2625.26 1585.23,2614.81 1590.55,2605.37C1596.49,2615.56 1602.65,2627.29 1606.87,2636.28C1613.58,2650.59 1622.69,2664.22 1627.9,2680.13C1621.85,2683.22 1615.62,2686.92 1608.25,2691.21L1608.25,2691.21ZM1215.03,2668.99C1221.43,2604.43 1249.28,2583.33 1257.06,2557.32C1270.89,2511.03 1264.49,2476.79 1244.25,2493.84C1236.07,2500.73 1195.47,2508.43 1178.63,2500.66C1147.27,2486.18 1136.88,2533.56 1136.88,2533.56C1107.78,2498.39 1110.08,2470.98 1132.05,2456.65C1147.45,2446.61 1189.04,2446.94 1193.68,2435.46C1183.02,2430.14 1190.92,2411.56 1202.02,2406.03C1212.74,2400.7 1255.77,2392.12 1277.43,2399.5C1299.09,2406.87 1314.6,2402.32 1293.4,2377.85C1358.15,2381.91 1416.52,2431.64 1424.91,2457.65C1368.94,2428.33 1337.65,2421.09 1333.55,2448.2C1341.22,2459.08 1362.57,2468.75 1365.64,2443.16C1372.99,2447.9 1377.65,2455.55 1378.32,2469.12C1404.23,2468.97 1369.43,2485.04 1373.24,2512.47C1358.31,2502.67 1349.24,2511.37 1348.4,2512.97C1344.04,2521.3 1336.91,2555.89 1329.01,2569.73C1319.22,2586.88 1296.15,2612.37 1270.11,2675.14C1239.15,2681.36 1231.33,2673.76 1215.03,2668.99ZM1036.85,2669.26C1019.83,2656.45 1006.82,2643.06 998.919,2630.09C984.139,2605.85 985.901,2590.93 961.273,2562.27C936.627,2574.35 895.478,2680.07 887.231,2675.29C884.953,2590.19 897.359,2557.65 904.17,2524.54C929.93,2520.52 947.327,2517.24 966.507,2508.91C1007.55,2522.02 1018.96,2530.1 1034.23,2532.84C1045.87,2534.93 1072.47,2555.61 1063,2577.97C1039.38,2563.81 1028.97,2575.8 1031.71,2587.33C1034.68,2599.84 1050.5,2622.35 1060.79,2633.38L1036.85,2669.26ZM1497.49,2626C1507.17,2614.12 1518.57,2596.76 1521.05,2586.33C1523.79,2574.8 1513.37,2562.81 1489.76,2576.97C1480.28,2554.61 1506.89,2533.93 1518.53,2531.84C1535.09,2528.87 1554.57,2519.92 1583.56,2504.64C1609.47,2516.58 1627.57,2520.26 1648.59,2523.54C1655.4,2556.65 1667.8,2589.19 1665.52,2674.29C1657.28,2679.07 1616.13,2573.35 1591.48,2561.27C1566.85,2589.93 1568.62,2599.4 1553.84,2623.65C1547.5,2634.04 1536.46,2645.81 1521.68,2657.8L1497.49,2626ZM1315.88,2393.87C1339.63,2399.56 1361.47,2411.01 1378.65,2423.67C1367.3,2420.06 1357.91,2418.44 1350.58,2418.89C1342.18,2419.42 1335.64,2422.23 1330.73,2426.81C1325.95,2431.27 1322.51,2437.6 1321.19,2446.32L1320.43,2451.3L1323.33,2455.4C1327.33,2461.06 1333.87,2466.51 1340.84,2469.42C1346.57,2471.82 1352.57,2472.53 1357.97,2471.32C1360.59,2470.73 1363.24,2469.72 1365.73,2468.11C1365.77,2468.64 1365.81,2469.18 1365.83,2469.73L1366.42,2481.68L1368.44,2481.67C1367.76,2482.82 1367.09,2484.01 1366.45,2485.25C1364.85,2488.35 1363.43,2491.68 1362.38,2495.24C1347.24,2493.83 1338.41,2505.11 1337.33,2507.18C1333,2515.45 1326,2549.8 1318.16,2563.54C1308.58,2580.31 1286.51,2605.02 1261.24,2664C1245.05,2666.37 1236.93,2663.7 1228.64,2660.55L1228.64,2660.55C1233.06,2629.97 1242.8,2610.74 1251.58,2595.51C1259.01,2582.62 1265.67,2572.14 1269.03,2560.9C1278.51,2529.21 1278.42,2502.39 1272.84,2490.27C1269.05,2482.03 1263.03,2477.94 1256.31,2477.06C1250.85,2476.34 1243.84,2477.84 1236.19,2484.28C1233.81,2486.29 1227.41,2487.74 1220.06,2489.19C1207.62,2491.63 1192.21,2493.16 1183.87,2489.3C1174.43,2484.95 1166.22,2484.62 1159.19,2486.4C1149.11,2488.94 1141.13,2496.22 1135.51,2504.87C1134.97,2505.7 1134.45,2506.55 1133.96,2507.39C1124.29,2489.37 1126.09,2475.46 1138.88,2467.12C1143.26,2464.27 1150.34,2462.76 1157.73,2461.2C1167.19,2459.2 1177.16,2457.49 1184.85,2455.17C1195.81,2451.85 1202.86,2446.11 1205.27,2440.15L1209.61,2429.44L1201.67,2425.48C1202.68,2423.19 1204.98,2418.53 1207.59,2417.23C1213.32,2414.38 1229.46,2410.78 1245.58,2409.54C1255.8,2408.75 1266.06,2408.83 1273.4,2411.33C1285.93,2415.6 1297.06,2415.97 1303.49,2413.63C1309.47,2411.44 1313.26,2407.41 1315.03,2402.12C1315.81,2399.79 1316.21,2397.04 1315.88,2393.87ZM899.875,2633C901.679,2585.17 909.124,2559.31 914.561,2535.54C935.229,2532.15 950.775,2528.78 967.065,2522.22C1005.52,2534.79 1016.96,2542.44 1032.02,2545.14C1036.01,2545.86 1042.23,2550.22 1046.97,2555.85C1047.94,2557.01 1048.88,2558.25 1049.69,2559.55C1042.13,2558.35 1036.12,2559.66 1031.78,2561.89C1021.35,2567.22 1016.81,2578.69 1019.55,2590.22C1022.28,2601.73 1034.5,2620.99 1045.14,2634.31C1045.14,2634.31 1034.02,2650.98 1034.02,2650.98L1034.02,2650.98C1023.45,2641.89 1015.12,2632.66 1009.59,2623.59C994.429,2598.71 996.021,2583.53 970.755,2554.12L964.453,2546.79L955.77,2551.04C949.55,2554.09 942.084,2561.46 934.696,2571.9C923.142,2588.23 910.538,2612.64 899.875,2633ZM1732.73,2543.01C1756.03,2561.01 1786.15,2640.42 1786.15,2640.42C1786.15,2640.42 1874.67,2600.21 1906.45,2500.64C1825.94,2554.66 1732.73,2543.01 1732.73,2543.01ZM816.153,2543.01C792.849,2561.01 762.729,2640.42 762.729,2640.42C762.729,2640.42 674.212,2600.21 642.434,2500.64C722.938,2554.66 816.153,2543.01 816.153,2543.01ZM1652.8,2629.71C1643.85,2613.38 1633.21,2594.49 1624.67,2580.87C1615,2565.44 1604.94,2553.95 1596.98,2550.04L1588.3,2545.79L1582,2553.12C1556.69,2582.58 1558.35,2592.22 1543.16,2617.14C1538.9,2624.14 1532.23,2631.76 1523.6,2639.67C1523.6,2639.67 1513.22,2626.04 1513.22,2626.04L1513.22,2626.04C1522.25,2613.65 1530.94,2598.76 1533.21,2589.22C1535.95,2577.69 1531.4,2566.22 1520.98,2560.89C1516.63,2558.66 1510.62,2557.35 1503.06,2558.55C1503.88,2557.25 1504.81,2556.01 1505.79,2554.85C1510.53,2549.22 1516.75,2544.86 1520.73,2544.14C1537.15,2541.2 1556.36,2532.89 1583.99,2518.53C1604.87,2527.62 1621.02,2531.55 1638.19,2534.51C1643.54,2557.91 1650.84,2583.32 1652.8,2629.71ZM1759.79,2556.49C1788.39,2556.02 1834.69,2551.22 1881.17,2529.27C1854.56,2581.29 1812.69,2610.85 1792.56,2622.78C1786.65,2608.5 1776.46,2585.18 1765.4,2565.79C1763.56,2562.57 1761.68,2559.45 1759.79,2556.49L1759.79,2556.49ZM789.09,2556.49C787.197,2559.45 785.321,2562.57 783.48,2565.79C772.418,2585.18 762.228,2608.5 756.326,2622.78C736.19,2610.85 694.325,2581.29 667.71,2529.27C714.19,2551.22 760.489,2556.02 789.09,2556.49L789.09,2556.49Z"/>
        </g>
        <g transform="matrix(0.784515,0.0986311,-0.0986311,0.784515,560.246,296.168)">
            <path d="M1168.9,2533.48C1180.33,2518.98 1208,2521.34 1208,2521.34C1208,2521.34 1194.27,2547.11 1186.5,2552.24C1169.53,2563.45 1152.69,2565.97 1152.69,2565.97C1152.69,2565.97 1157.5,2547.94 1168.9,2533.48Z" style="fill:rgb(215,162,8);"/>
            <path d="M1168.9,2533.48C1180.33,2518.98 1208,2521.34 1208,2521.34C1208,2521.34 1194.27,2547.11 1186.5,2552.24C1169.53,2563.45 1152.69,2565.97 1152.69,2565.97C1152.69,2565.97 1157.5,2547.94 1168.9,2533.48Z"/>
        </g>
    </g>
</svg>
