<?xml version="1.0" encoding="UTF-8" standalone="no"?>
<!DOCTYPE svg PUBLIC "-//W3C//DTD SVG 1.1//EN" "http://www.w3.org/Graphics/SVG/1.1/DTD/svg11.dtd">
<svg width="100%" height="100%" viewBox="0 0 2550 3300" version="1.1" xmlns="http://www.w3.org/2000/svg" xmlns:xlink="http://www.w3.org/1999/xlink" xml:space="preserve" xmlns:serif="http://www.serif.com/" style="fill-rule:evenodd;clip-rule:evenodd;stroke-linejoin:round;stroke-miterlimit:2;">
    <g transform="matrix(1.00594,0,0,1.00594,-7.25035,15.284)">
        <g id="Primary" transform="matrix(0.994098,0,0,0.994098,7.20756,-15.1938)">
            <path d="M1212.99,3130.6C1211.21,3127.36 1211.77,3128.22 1210.44,3124.75C1200.19,3097.85 1215.23,3080.87 1233.01,3063.98C1238.54,3058.72 1245.05,3053.95 1251.91,3050.55C1252.76,3050.13 1277.47,3028.83 1277.43,3028.54C1272.75,3026.49 1255.51,3003.95 1252.27,3000.35C1246.3,3000.46 1222.25,3022.78 1217.68,3026.09C1196.3,3041.6 1179.9,3069.54 1173.66,3095.12C1167.05,3122.21 1173.03,3133.02 1186.94,3158.21L1212.99,3130.6ZM1368.44,2881.07C1368.44,2881.07 1358.36,2953.96 1312.18,2957.68L1337.35,2985.86C1342.25,2985.77 1364.82,2974.95 1376.19,2956.92C1378.66,2953 1382.78,2942.76 1392.05,2961.55C1398.66,2934.46 1382.35,2906.26 1368.44,2881.07ZM1077.85,2689.64C1058.33,2678.33 1054.39,2673.32 1038.74,2650.58C1007.6,2696.51 989.833,2829.92 1036.44,2872.93C1035.97,2767.67 1043.47,2739.7 1077.85,2689.64ZM1099.11,2776.12C1111.42,2755.14 1126.39,2744.89 1142.56,2728.26C1124.97,2720.74 1103.96,2713.18 1086.82,2696.9C1077.36,2712.92 1070.35,2725.52 1064.59,2744.91C1079.84,2754.97 1090.3,2764.47 1099.11,2776.12ZM1081.9,2816.75C1077.72,2831.19 1074.26,2852.26 1071.66,2872.93C1056.55,2860.84 1047.31,2824.99 1049.58,2794.36C1059.93,2800.42 1069.64,2806.28 1081.9,2816.75ZM1263.51,2761.16C1297.02,2755.08 1325.87,2747.66 1358.51,2734.49C1404.02,2785.09 1435.83,2807.28 1417.15,2872.93C1371.16,2791.12 1310.22,2783.38 1263.51,2761.16ZM1164.09,2800.87C1160.26,2788.77 1172.57,2756.55 1174.64,2743.36C1169.67,2741.83 1164.77,2740.12 1159.98,2738.2C1106.45,2785.26 1085.6,2811.85 1093.88,2872.93C1119.33,2840.08 1140.26,2814.66 1164.09,2800.87ZM1000.18,2712.43C1006.5,2680.07 1017.91,2652.95 1033.47,2638.24C1027.36,2627.43 1015.36,2597.69 1008.48,2583.93C1002.07,2595.01 992.065,2618.06 986.387,2633.46C979.775,2651.39 970.535,2668.43 967.119,2689.62C977.064,2694.56 985.736,2702.24 1000.18,2712.43ZM961.949,2745.74C963.789,2786.14 959.8,2817.47 1011.28,2864.5C1003.76,2831.43 996.998,2804.34 998.284,2766.51C985.229,2760.81 970.304,2750.09 961.949,2745.74ZM1437.18,2689.64C1456.71,2678.33 1460.64,2673.32 1476.3,2650.58C1507.44,2696.51 1525.2,2829.92 1478.59,2872.93C1479.06,2767.67 1471.57,2739.7 1437.18,2689.64ZM1175.2,2811.9C1173.96,2795.55 1175.7,2781.72 1180.85,2765.39C1182.95,2758.73 1185.1,2752.12 1187.72,2745.74C1210.58,2749.51 1225.84,2753.28 1239.64,2757.05C1232.97,2780.2 1232.35,2800.62 1234.25,2821.88C1208.02,2822.45 1201.56,2817.24 1175.2,2811.9ZM1245.06,2876.22C1270.35,2946.46 1325.45,2995.36 1330.64,3000.35L1298.8,3035.51C1255.44,2985.5 1212.79,2939.29 1184.37,2872.93C1199.23,2877.11 1223.18,2879.9 1245.06,2876.22ZM1202.54,2671.47C1208.94,2606.91 1255.36,2573.59 1267.19,2564.81C1299.19,2541.07 1259.39,2482.46 1244.16,2501.27C1238.01,2508.87 1202.89,2522.81 1186.43,2518.74C1155.77,2511.17 1154.64,2555.51 1154.64,2555.51C1122.43,2528.96 1119.76,2503.96 1137,2487.3C1149.09,2475.61 1186.48,2468.72 1188.66,2457.61C1178.17,2454.67 1182.05,2436.62 1191.06,2429.75C1199.76,2423.11 1236.91,2407.95 1257.63,2410.83C1278.35,2413.71 1291.48,2406.93 1268.22,2388.63C1327.05,2381.08 1388.06,2415.62 1400.09,2437.52C1344.78,2420.89 1315.43,2419.79 1316.43,2444.84C1325.21,2453.28 1346.05,2458.28 1344.38,2434.77C1351.8,2437.75 1357.3,2443.82 1360.25,2455.88C1383.49,2451.27 1399.74,2463.91 1407.91,2487.88C1378.85,2475.92 1341.45,2498.84 1340.98,2500.43C1338.5,2508.66 1353.26,2529.45 1348.11,2544.53C1341.75,2563.22 1283.66,2614.86 1257.61,2677.62C1226.65,2683.84 1218.83,2676.25 1202.54,2671.47ZM1260.63,2693.66C1266.17,2693.29 1271.69,2692.69 1277.12,2691.92C1313.24,2686.77 1366.37,2678.3 1423.2,2629.64C1429.69,2624.09 1447.88,2604.24 1450.75,2588.82C1452.9,2577.28 1444.73,2565.3 1426.22,2579.45C1418.8,2557.09 1439.65,2536.41 1448.77,2534.32C1461.76,2531.35 1477.03,2522.4 1499.75,2507.13C1520.06,2519.07 1534.24,2522.74 1550.72,2526.02C1556.06,2559.14 1565.78,2591.68 1563.99,2676.77C1557.53,2681.55 1525.28,2575.83 1505.96,2563.75C1486.65,2592.42 1488.04,2601.89 1476.45,2626.13C1454.54,2671.99 1360.91,2744.52 1260.15,2745.02C1158.74,2745.51 1066.8,2685.55 1041.49,2632.58C1029.9,2608.33 1031.29,2593.42 1011.98,2564.75C992.664,2576.83 960.409,2682.55 953.945,2677.77C952.16,2592.68 961.884,2560.14 967.223,2527.02C987.414,2523 1001.05,2519.73 1016.08,2511.39C1048.25,2524.5 1057.2,2532.58 1069.17,2535.32C1078.29,2537.41 1099.14,2558.09 1091.72,2580.45C1073.21,2566.3 1065.04,2578.28 1067.19,2589.82C1070.06,2605.24 1088.25,2625.09 1094.74,2630.64C1151.57,2679.3 1204.7,2687.77 1240.82,2692.92C1242.78,2693.2 1248.58,2693.82 1260.63,2693.66ZM1370,3053.87C1386.91,3091.15 1377.4,3120.77 1376.68,3132.89C1375.08,3160.09 1360.1,3177.85 1340.83,3193.63C1325.98,3205.8 1310.27,3215.61 1290.4,3219.07C1264.04,3223.67 1238.36,3216.34 1217.61,3197.22L1250.63,3170.75C1276.46,3185.7 1307.14,3171.2 1324.77,3146.82C1339.62,3126.28 1340.84,3106.15 1333.93,3088.08L1370,3053.87ZM1228.99,3078.63C1228.54,3073.18 1249.71,3057.81 1254.08,3059.17C1256.84,3060.03 1325.58,3126.34 1325.88,3127.89C1326.28,3130 1309.98,3150.76 1305.58,3154.21C1296.84,3161.08 1229.16,3080.75 1228.99,3078.63ZM1223.87,3014.31C1218.6,3019.64 1205.76,3027.38 1200.69,3032C1188.18,3029.77 1187.4,3033.31 1181.06,3043.85C1173.35,3056.64 1161.77,3077.7 1162.6,3099.51C1163.83,3132.22 1171.39,3153.49 1178.53,3173.99C1179.28,3176.16 1249.91,3108.3 1250.63,3110.22C1258.52,3122.61 1263.27,3125.49 1270.78,3134.04C1261.21,3153.39 1175.53,3227.73 1163.94,3216.97C1162.93,3216.04 1160.73,3212.95 1160.32,3212.07C1157.32,3205.62 1154.56,3199.06 1151.52,3192.62C1144.61,3177.97 1129.26,3136.07 1131.7,3087.7C1133.61,3049.85 1152.24,3025.6 1155.92,3018.66C1163.97,3003.47 1198.15,2988.59 1223.87,3014.31ZM1342.78,3198.04C1348.05,3192.71 1356.14,3183.62 1361.21,3178.15C1367,3181.79 1372.25,3175.23 1375.86,3169.23C1383.57,3156.43 1395.15,3135.38 1394.32,3113.56C1393.09,3080.86 1384.68,3050.34 1377.55,3029.84C1376.8,3027.68 1306.16,3102.95 1305.44,3101.02C1297.56,3088.64 1289.52,3083.2 1282.01,3074.65C1291.58,3055.3 1380.54,2976.1 1392.13,2986.86C1393.14,2987.8 1395.35,2990.89 1395.75,2991.76C1398.75,2998.22 1401.51,3004.78 1404.55,3011.22C1411.46,3025.87 1427.66,3077.01 1425.22,3125.38C1423.31,3163.23 1404.68,3187.48 1401,3194.42C1390.11,3214.96 1368.34,3216.93 1342.78,3198.04ZM1414.76,2776.12C1402.44,2755.14 1387.48,2744.89 1371.31,2728.26C1388.89,2720.74 1409.9,2713.18 1427.05,2696.9C1436.5,2712.92 1443.52,2725.52 1449.28,2744.91C1434.03,2754.97 1423.57,2764.47 1414.76,2776.12ZM1431.96,2816.75C1436.14,2831.19 1439.6,2852.26 1442.2,2872.93C1457.32,2860.84 1466.56,2824.99 1464.29,2794.36C1453.93,2800.42 1444.23,2806.28 1431.96,2816.75ZM1513.69,2712.43C1507.37,2680.07 1495.96,2652.95 1480.4,2638.24C1486.51,2627.43 1498.51,2597.69 1505.39,2583.93C1511.8,2595.01 1521.8,2618.06 1527.48,2633.46C1534.09,2651.39 1543.33,2668.43 1546.75,2689.62C1536.8,2694.56 1528.13,2702.24 1513.69,2712.43ZM1551.92,2745.74C1550.08,2786.14 1554.07,2817.47 1502.58,2864.5C1510.1,2831.43 1516.87,2804.34 1515.58,2766.51C1528.64,2760.81 1543.56,2750.09 1551.92,2745.74Z" style="fill:rgb(51,148,40);"/>
            <path d="M1370,3053.87C1386.91,3091.15 1377.4,3120.77 1376.68,3132.89C1375.08,3160.09 1360.1,3177.85 1340.83,3193.63C1325.98,3205.8 1310.27,3215.61 1290.4,3219.07C1264.04,3223.67 1238.36,3216.34 1217.61,3197.22L1250.63,3170.75C1276.46,3185.7 1307.14,3171.2 1324.77,3146.82C1339.62,3126.28 1340.84,3106.15 1333.93,3088.08L1370,3053.87ZM1223.87,3014.31C1218.6,3019.64 1205.76,3027.38 1200.69,3032C1188.18,3029.77 1187.4,3033.31 1181.06,3043.85C1173.35,3056.64 1161.77,3077.7 1162.6,3099.51C1163.83,3132.22 1171.39,3153.49 1178.53,3173.99C1179.28,3176.16 1249.91,3108.3 1250.63,3110.22C1258.52,3122.61 1263.27,3125.49 1270.78,3134.04C1261.21,3153.39 1175.53,3227.73 1163.94,3216.97C1162.93,3216.04 1160.73,3212.95 1160.32,3212.07C1157.32,3205.62 1154.56,3199.06 1151.52,3192.62C1144.61,3177.97 1129.26,3136.07 1131.7,3087.7C1133.61,3049.85 1152.24,3025.6 1155.92,3018.66C1163.97,3003.47 1198.15,2988.59 1223.87,3014.31ZM1342.78,3198.04C1348.05,3192.71 1356.14,3183.62 1361.21,3178.15C1367,3181.79 1372.25,3175.23 1375.86,3169.23C1383.57,3156.43 1395.15,3135.38 1394.32,3113.56C1393.09,3080.86 1384.68,3050.34 1377.55,3029.84C1376.8,3027.68 1306.16,3102.95 1305.44,3101.02C1297.56,3088.64 1289.52,3083.2 1282.01,3074.65C1291.58,3055.3 1380.54,2976.1 1392.13,2986.86C1393.14,2987.8 1395.35,2990.89 1395.75,2991.76C1398.75,2998.22 1401.51,3004.78 1404.55,3011.22C1411.46,3025.87 1427.66,3077.01 1425.22,3125.38C1423.31,3163.23 1404.68,3187.48 1401,3194.42C1390.11,3214.96 1368.34,3216.93 1342.78,3198.04ZM1364.64,3076.18C1371.28,3102.48 1364.75,3122.88 1364.2,3132.15C1362.83,3155.5 1349.44,3170.42 1332.91,3183.96C1319.73,3194.76 1305.89,3203.68 1288.25,3206.76C1270.48,3209.86 1253.09,3206.58 1237.83,3197.03C1237.83,3197.03 1252.33,3185.41 1252.33,3185.41C1281.91,3196.96 1315.28,3181.28 1334.9,3154.15C1350.53,3132.54 1353.35,3111.28 1348.22,3091.75L1364.64,3076.18ZM1202.71,3014.99C1200.75,3016.36 1198.82,3017.71 1197.08,3018.97C1191.86,3018.64 1188.17,3019.42 1185.18,3020.72C1179.86,3023.06 1176.07,3027.89 1170.35,3037.4C1161.71,3051.75 1149.18,3075.52 1150.1,3099.99C1151.4,3134.28 1159.24,3156.6 1166.72,3178.1C1167.92,3181.56 1170.18,3183.95 1173.38,3185.41C1174.54,3185.94 1180.82,3188.33 1187.91,3182.91C1196.2,3176.59 1230.86,3143.84 1248.32,3128.24C1250.5,3130.81 1252.57,3132.94 1254.75,3135.19C1252.64,3137.66 1250.02,3140.47 1247.07,3143.54C1230.53,3160.72 1203.65,3183.87 1183.5,3196.99C1179.17,3199.81 1173.8,3202.44 1170.38,3204.02C1167.85,3198.45 1165.44,3192.82 1162.83,3187.28C1156.31,3173.47 1141.88,3133.95 1144.18,3088.33C1145.95,3053.28 1163.56,3030.94 1166.97,3024.51C1168.44,3021.73 1171.55,3019.19 1175.33,3017.11C1182.69,3013.04 1192.81,3011.21 1202.71,3014.99ZM1385.79,3000.04C1388.29,3005.54 1390.67,3011.09 1393.25,3016.55C1399.79,3030.43 1415.05,3078.91 1412.74,3124.75C1410.97,3159.8 1393.36,3182.14 1389.95,3188.57C1387.39,3193.4 1384.04,3196.75 1379.7,3198C1374.57,3199.47 1368.75,3198.46 1362.33,3195.45L1362.33,3195.45C1363.47,3194.2 1364.59,3192.97 1365.67,3191.79C1368.44,3191.6 1371.14,3190.73 1373.76,3189.31C1378.56,3186.72 1383.23,3181.23 1386.57,3175.68C1395.21,3161.32 1407.74,3137.56 1406.82,3113.09C1405.52,3078.97 1396.79,3047.12 1389.35,3025.73C1388.04,3021.97 1385.54,3019.51 1382.05,3018.15C1380.93,3017.72 1374.43,3015.66 1367.58,3021.56C1359.28,3028.73 1324.48,3065.24 1307.07,3082.59C1304.05,3079.23 1301.05,3076.33 1298.09,3073.4C1300.29,3070.8 1303.04,3067.82 1306.15,3064.54C1323.26,3046.54 1351.18,3021.9 1372.05,3007.77C1376.6,3004.69 1382.21,3001.79 1385.79,3000.04ZM1212.99,3130.6C1211.21,3127.36 1211.77,3128.22 1210.44,3124.75C1200.19,3097.85 1215.23,3080.87 1233.01,3063.98C1238.54,3058.72 1245.05,3053.95 1251.91,3050.55C1252.76,3050.13 1277.47,3028.83 1277.43,3028.54C1272.75,3026.49 1255.51,3003.95 1252.27,3000.35C1246.3,3000.46 1222.25,3022.78 1217.68,3026.09C1196.3,3041.6 1179.9,3069.54 1173.66,3095.12C1167.05,3122.21 1173.03,3133.02 1186.94,3158.21L1212.99,3130.6ZM1228.99,3078.63C1228.54,3073.18 1249.71,3057.81 1254.08,3059.17C1256.84,3060.03 1325.58,3126.34 1325.88,3127.89C1326.28,3130 1309.98,3150.76 1305.58,3154.21C1296.84,3161.08 1229.16,3080.75 1228.99,3078.63ZM1252.01,3073.78C1265.21,3085.72 1296.26,3115.6 1310.03,3129.38C1307.73,3132.47 1304.87,3136.25 1302.43,3139.28C1298.89,3136.49 1293.75,3132.26 1289.62,3128.23C1273.81,3112.8 1254.61,3090.74 1245.03,3079.05L1252.01,3073.78ZM1249.62,3016.79C1252.49,3020.33 1255.87,3024.43 1259.03,3028.06C1253.65,3032.73 1247.48,3038.06 1245.16,3039.96C1237.63,3043.85 1230.5,3049.12 1224.4,3054.92C1203.13,3075.14 1186.76,3096.06 1198.3,3127.95L1189.74,3137.03C1183.65,3124.64 1181.63,3115.17 1185.8,3098.08C1191.39,3075.19 1205.89,3050.08 1225.02,3036.21C1227.75,3034.23 1241.71,3023.11 1249.62,3016.79ZM1245.06,2876.22C1270.35,2946.46 1325.45,2995.36 1330.64,3000.35L1298.8,3035.51C1255.44,2985.5 1212.79,2939.29 1184.37,2872.93C1199.23,2877.11 1223.18,2879.9 1245.06,2876.22ZM1236.9,2889.84C1258.66,2943.51 1296.01,2983.96 1313.21,3000.97C1313.21,3000.97 1298.99,3016.68 1298.99,3016.68C1264.52,2977.14 1231.06,2939.01 1205.91,2889.51C1215.67,2890.51 1226.34,2890.77 1236.9,2889.84ZM1368.44,2881.07C1368.44,2881.07 1358.36,2953.96 1312.18,2957.68L1337.35,2985.86C1342.25,2985.77 1364.82,2974.95 1376.19,2956.92C1378.66,2953 1382.78,2942.76 1392.05,2961.55C1398.66,2934.46 1382.35,2906.26 1368.44,2881.07ZM1380.03,2938.24C1377.69,2938.6 1375.51,2939.51 1373.48,2940.87C1370.23,2943.04 1367.41,2947.41 1365.62,2950.26C1359.82,2959.44 1347.56,2967.18 1340.79,2970.95L1334.53,2963.94C1346.5,2957.61 1355.77,2947.19 1362.7,2935.46C1366.6,2928.86 1369.73,2921.88 1372.22,2915.24L1372.22,2915.24C1373.67,2918.44 1375.02,2921.66 1376.21,2924.91C1377.83,2929.33 1379.18,2933.79 1380.03,2938.24ZM1263.51,2761.16C1297.02,2755.08 1325.87,2747.66 1358.51,2734.49C1404.02,2785.09 1435.83,2807.28 1417.15,2872.93C1371.16,2791.12 1310.22,2783.38 1263.51,2761.16ZM1081.9,2816.75C1077.72,2831.19 1074.26,2852.26 1071.66,2872.93C1056.55,2860.84 1047.31,2824.99 1049.58,2794.36C1059.93,2800.42 1069.64,2806.28 1081.9,2816.75ZM1431.96,2816.75C1436.14,2831.19 1439.6,2852.26 1442.2,2872.93C1457.32,2860.84 1466.56,2824.99 1464.29,2794.36C1453.93,2800.42 1444.23,2806.28 1431.96,2816.75ZM1077.85,2689.64C1058.33,2678.33 1054.39,2673.32 1038.74,2650.58C1007.6,2696.51 989.833,2829.92 1036.44,2872.93C1035.97,2767.67 1043.47,2739.7 1077.85,2689.64ZM1437.18,2689.64C1456.71,2678.33 1460.64,2673.32 1476.3,2650.58C1507.44,2696.51 1525.2,2829.92 1478.59,2872.93C1479.06,2767.67 1471.57,2739.7 1437.18,2689.64ZM1164.09,2800.87C1160.26,2788.77 1172.57,2756.55 1174.64,2743.36C1169.67,2741.83 1164.77,2740.12 1159.98,2738.2C1106.45,2785.26 1085.6,2811.85 1093.88,2872.93C1119.33,2840.08 1140.26,2814.66 1164.09,2800.87ZM961.949,2745.74C963.789,2786.14 959.8,2817.47 1011.28,2864.5C1003.76,2831.43 996.998,2804.34 998.284,2766.51C985.229,2760.81 970.304,2750.09 961.949,2745.74ZM1551.92,2745.74C1550.08,2786.14 1554.07,2817.47 1502.58,2864.5C1510.1,2831.43 1516.87,2804.34 1515.58,2766.51C1528.64,2760.81 1543.56,2750.09 1551.92,2745.74ZM1305.25,2765.02C1321.8,2760.84 1338,2755.8 1355.05,2749.28C1366.32,2761.56 1376.59,2772.2 1385.24,2782.39C1400.27,2800.09 1409.88,2816.26 1409.91,2838.89C1377.15,2795.39 1339.68,2778.75 1305.25,2765.02L1305.25,2765.02ZM1158.74,2756.04C1156.33,2764.74 1153.42,2774.87 1151.96,2783.53C1151.31,2787.4 1150.96,2791.07 1150.93,2794.39C1135.48,2804.87 1120.85,2819.95 1105.26,2838.64C1108.5,2806.62 1126.18,2785.41 1158.74,2756.04ZM1448.7,2833.46C1449.93,2828.29 1450.85,2822.85 1451.42,2817.33C1449.69,2818.58 1447.92,2819.91 1446.09,2821.34L1446.09,2821.34C1447,2825.13 1447.87,2829.19 1448.7,2833.46ZM1065.17,2833.46C1066,2829.19 1066.87,2825.13 1067.78,2821.34L1067.78,2821.34C1065.95,2819.91 1064.18,2818.58 1062.44,2817.33C1063.02,2822.85 1063.94,2828.29 1065.17,2833.46ZM1454.78,2693.46C1463.04,2687.88 1468.3,2682.72 1474.86,2674.14C1487.66,2703.35 1495.92,2748.34 1494.4,2788.84C1493.95,2800.7 1492.73,2812.21 1490.45,2822.75C1488.09,2758.9 1478.85,2730.64 1454.78,2693.46ZM1060.26,2693.46C1036.19,2730.64 1026.95,2758.9 1024.59,2822.75C1022.31,2812.21 1021.09,2800.7 1020.64,2788.84C1019.11,2748.34 1027.38,2703.35 1040.18,2674.14C1046.74,2682.72 1052,2687.88 1060.26,2693.46ZM1175.2,2811.9C1173.96,2795.55 1175.7,2781.72 1180.85,2765.39C1182.95,2758.73 1185.1,2752.12 1187.72,2745.74C1210.58,2749.51 1225.84,2753.28 1239.64,2757.05C1232.97,2780.2 1232.35,2800.62 1234.25,2821.88C1208.02,2822.45 1201.56,2817.24 1175.2,2811.9ZM1538.57,2768.32C1537.66,2785.22 1535.23,2801.32 1524.73,2819.19C1526.95,2805.12 1528.33,2790.61 1528.24,2774.23C1531.71,2772.38 1535.2,2770.35 1538.57,2768.32L1538.57,2768.32ZM975.301,2768.32C978.671,2770.35 982.16,2772.38 985.63,2774.23C985.542,2790.61 986.913,2805.12 989.139,2819.19C978.642,2801.32 976.204,2785.22 975.301,2768.32L975.301,2768.32ZM1187.33,2801.8C1187.37,2790.84 1189.13,2780.69 1192.77,2769.14C1193.76,2766.02 1194.75,2762.91 1195.8,2759.83C1207.05,2761.89 1216.27,2763.95 1224.52,2766.01C1221.36,2780.94 1220.46,2794.98 1220.93,2809.07C1208.43,2808.07 1200.84,2805.1 1187.33,2801.8L1187.33,2801.8ZM1414.76,2776.12C1402.44,2755.14 1387.48,2744.89 1371.31,2728.26C1388.89,2720.74 1409.9,2713.18 1427.05,2696.9C1436.5,2712.92 1443.52,2725.52 1449.28,2744.91C1434.03,2754.97 1423.57,2764.47 1414.76,2776.12ZM1099.11,2776.12C1111.42,2755.14 1126.39,2744.89 1142.56,2728.26C1124.97,2720.74 1103.96,2713.18 1086.82,2696.9C1077.36,2712.92 1070.35,2725.52 1064.59,2744.91C1079.84,2754.97 1090.3,2764.47 1099.11,2776.12ZM1415.89,2755.74C1408.93,2746.98 1401.41,2739.91 1393.45,2732.39C1403.46,2727.95 1413.8,2722.8 1423.54,2715.89C1427.72,2723.51 1431.32,2731 1434.51,2739.92C1427.36,2745.11 1421.29,2750.28 1415.89,2755.74L1415.89,2755.74ZM1097.97,2755.74C1092.58,2750.28 1086.5,2745.11 1079.36,2739.92C1082.55,2731 1086.15,2723.51 1090.33,2715.89C1100.07,2722.8 1110.4,2727.95 1120.41,2732.39C1112.46,2739.91 1104.93,2746.98 1097.97,2755.74L1097.97,2755.74ZM1260.63,2693.66C1266.17,2693.29 1271.69,2692.69 1277.12,2691.92C1313.24,2686.77 1366.37,2678.3 1423.2,2629.64C1429.69,2624.09 1447.88,2604.24 1450.75,2588.82C1452.9,2577.28 1444.73,2565.3 1426.22,2579.45C1418.8,2557.09 1439.65,2536.41 1448.77,2534.32C1461.76,2531.35 1477.03,2522.4 1499.75,2507.13C1520.06,2519.07 1534.24,2522.74 1550.72,2526.02C1556.06,2559.14 1565.78,2591.68 1563.99,2676.77C1557.53,2681.55 1525.28,2575.83 1505.96,2563.75C1486.65,2592.42 1488.04,2601.89 1476.45,2626.13C1454.54,2671.99 1360.91,2744.52 1260.15,2745.02C1158.74,2745.51 1066.8,2685.55 1041.49,2632.58C1029.9,2608.33 1031.29,2593.42 1011.98,2564.75C992.664,2576.83 960.409,2682.55 953.945,2677.77C952.16,2592.68 961.884,2560.14 967.223,2527.02C987.414,2523 1001.05,2519.73 1016.08,2511.39C1048.25,2524.5 1057.2,2532.58 1069.17,2535.32C1078.29,2537.41 1099.14,2558.09 1091.72,2580.45C1073.21,2566.3 1065.04,2578.28 1067.19,2589.82C1070.06,2605.24 1088.25,2625.09 1094.74,2630.64C1151.57,2679.3 1204.7,2687.77 1240.82,2692.92C1242.78,2693.2 1248.58,2693.82 1260.63,2693.66ZM1550.75,2619.06C1545.35,2606.75 1539.7,2594.26 1534.89,2584.48C1527.19,2568.82 1518.92,2557.12 1512.59,2553.15L1502.34,2546.74L1495.59,2556.77C1475.77,2586.2 1477.06,2595.86 1465.17,2620.74C1457.04,2637.77 1438,2658.53 1412.4,2677.62C1372.93,2707.05 1317.76,2732.23 1260.09,2732.52C1164.18,2732.99 1076.71,2677.28 1052.77,2627.19C1040.9,2602.35 1042.13,2587.14 1022.35,2557.77L1015.6,2547.74L1005.35,2554.15C999.018,2558.12 990.749,2569.82 983.049,2585.48C978.242,2595.26 972.592,2607.75 967.194,2620.06C969.266,2581.59 974.304,2558.74 978.101,2537.55C993.089,2534.35 1004.73,2531.07 1016.7,2525.18C1045.69,2537.42 1054.68,2544.83 1066.38,2547.51C1068.39,2547.97 1070.99,2550.62 1073.66,2553.76C1075.55,2556 1077.38,2558.65 1078.72,2561.59C1072.97,2561.17 1068.31,2562.79 1064.87,2565.03C1057.02,2570.16 1052.84,2581.02 1054.9,2592.1C1058.26,2610.13 1079.03,2633.65 1086.61,2640.14C1145.94,2690.93 1201.34,2699.91 1239.05,2705.29C1241.21,2705.6 1247.58,2706.34 1260.79,2706.16L1261.12,2706.15L1261.45,2706.13C1267.32,2705.74 1273.15,2705.11 1278.89,2704.29C1316.6,2698.91 1372,2689.93 1431.33,2639.14C1438.91,2632.65 1459.68,2609.13 1463.04,2591.1C1465.1,2580.02 1460.92,2569.16 1453.07,2564.03C1449.63,2561.79 1444.97,2560.17 1439.22,2560.59C1440.56,2557.65 1442.38,2555 1444.28,2552.76C1446.95,2549.62 1449.55,2546.97 1451.56,2546.51C1464.31,2543.59 1479.24,2535.61 1500.29,2521.78C1515.29,2529.83 1527.29,2533.65 1539.83,2536.5C1543.63,2557.71 1548.67,2580.56 1550.75,2619.06ZM1000.18,2712.43C1006.5,2680.07 1017.91,2652.95 1033.47,2638.24C1027.36,2627.43 1015.36,2597.69 1008.48,2583.93C1002.07,2595.01 992.065,2618.06 986.387,2633.46C979.775,2651.39 970.535,2668.43 967.119,2689.62C977.064,2694.56 985.736,2702.24 1000.18,2712.43ZM1513.69,2712.43C1507.37,2680.07 1495.96,2652.95 1480.4,2638.24C1486.51,2627.43 1498.51,2597.69 1505.39,2583.93C1511.8,2595.01 1521.8,2618.06 1527.48,2633.46C1534.09,2651.39 1543.33,2668.43 1546.75,2689.62C1536.8,2694.56 1528.13,2702.24 1513.69,2712.43ZM1521.55,2691.22C1515.32,2668.63 1506.39,2649.48 1495.46,2636.14C1498.55,2629.64 1502.19,2621.35 1505.77,2613.22C1509.49,2621.71 1513.11,2630.61 1515.75,2637.78C1521.21,2652.59 1528.66,2666.72 1532.72,2683.32C1529.18,2685.63 1525.56,2688.26 1521.55,2691.22L1521.55,2691.22ZM992.314,2691.22C988.307,2688.26 984.683,2685.63 981.144,2683.32C985.205,2666.72 992.656,2652.59 998.115,2637.78C1000.76,2630.61 1004.37,2621.71 1008.1,2613.22C1011.67,2621.35 1015.32,2629.64 1018.41,2636.14C1007.48,2649.48 998.545,2668.63 992.314,2691.22L992.314,2691.22ZM1202.54,2671.47C1208.94,2606.91 1255.36,2573.59 1267.19,2564.81C1299.19,2541.07 1259.39,2482.46 1244.16,2501.27C1238.01,2508.87 1202.89,2522.81 1186.43,2518.74C1155.77,2511.17 1154.64,2555.51 1154.64,2555.51C1122.43,2528.96 1119.76,2503.96 1137,2487.3C1149.09,2475.61 1186.48,2468.72 1188.66,2457.61C1178.17,2454.67 1182.05,2436.62 1191.06,2429.75C1199.76,2423.11 1236.91,2407.95 1257.63,2410.83C1278.35,2413.71 1291.48,2406.93 1268.22,2388.63C1327.05,2381.08 1388.06,2415.62 1400.09,2437.52C1344.78,2420.89 1315.43,2419.79 1316.43,2444.84C1325.21,2453.28 1346.05,2458.28 1344.38,2434.77C1351.8,2437.75 1357.3,2443.82 1360.25,2455.88C1383.49,2451.27 1399.74,2463.91 1407.91,2487.88C1378.85,2475.92 1341.45,2498.84 1340.98,2500.43C1338.5,2508.66 1353.26,2529.45 1348.11,2544.53C1341.75,2563.22 1283.66,2614.86 1257.61,2677.62C1226.65,2683.84 1218.83,2676.25 1202.54,2671.47ZM1292.58,2400.28C1311.85,2401.34 1330.52,2406.5 1346.45,2413.38C1338.37,2412.81 1331.66,2413.19 1326.39,2414.55C1318.66,2416.55 1313.09,2420.36 1309.34,2425.5C1305.69,2430.5 1303.61,2437 1303.94,2445.34L1304.14,2450.37L1307.77,2453.85C1312.46,2458.37 1319.48,2462.23 1326.43,2463.68C1332.23,2464.9 1337.96,2464.46 1342.79,2462.36C1344.64,2461.55 1346.48,2460.49 1348.17,2459.12L1350.94,2470.47L1362.68,2468.14C1371,2466.49 1377.9,2468.17 1383.45,2472.4C1364.73,2473.95 1347.31,2481.72 1339.01,2486.58C1334.49,2489.23 1331.94,2491.68 1331.29,2492.49C1329.94,2494.18 1329.34,2495.72 1329,2496.83C1327.51,2501.8 1328.86,2510.02 1332.1,2519.29C1333.54,2523.39 1335.2,2527.91 1336.13,2532.42C1336.7,2535.21 1337.13,2538 1336.28,2540.5C1333.98,2547.24 1323.77,2558.41 1311.37,2573.41C1291.27,2597.74 1265.24,2630.17 1248.82,2666.47C1232.67,2668.85 1224.54,2666.21 1216.28,2663.09L1216.28,2663.09C1225.52,2610.07 1264.37,2582.47 1274.64,2574.85C1290.1,2563.38 1293.94,2546.2 1290.82,2529.58C1288,2514.52 1279.17,2500.24 1269.84,2492.56C1257.11,2482.08 1243.55,2482.16 1234.44,2493.41C1232.71,2495.55 1227.37,2497.81 1221.24,2500.28C1210.7,2504.54 1197.42,2508.58 1189.42,2506.61C1179.91,2504.26 1172.25,2505.44 1166.06,2508.34C1157.2,2512.48 1151.1,2520.6 1147.46,2529.59C1147.35,2529.85 1147.24,2530.12 1147.14,2530.38C1136.88,2517.04 1136.34,2505.32 1145.69,2496.28C1149.05,2493.04 1155.03,2490.54 1161.25,2487.92C1169.43,2484.47 1178.12,2481.2 1184.64,2477.78C1194.27,2472.71 1199.75,2466.01 1200.93,2460.02L1203.16,2448.68L1195.3,2446.48C1195.84,2444.38 1196.95,2440.97 1198.64,2439.68C1203.24,2436.18 1216.96,2430.24 1231.05,2426.39C1239.94,2423.96 1249.01,2422.25 1255.91,2423.21C1268.21,2424.92 1278.52,2423.23 1284.02,2419.93C1289.32,2416.74 1292.19,2412.2 1292.9,2406.83C1293.16,2404.86 1293.12,2402.66 1292.58,2400.28Z"/>
        </g>
        <g transform="matrix(0.928214,0,0,0.928214,83.406,27.5544)">
            <path d="M1224.03,2571.85C1234.34,2560.54 1257.09,2564.13 1257.09,2564.13C1257.09,2564.13 1244.2,2584.63 1237.47,2588.41C1222.77,2596.67 1208.69,2597.75 1208.69,2597.75C1208.69,2597.75 1213.74,2583.13 1224.03,2571.85Z" style="fill:rgb(51,148,40);"/>
            <path d="M1224.03,2571.85C1234.34,2560.54 1257.09,2564.13 1257.09,2564.13C1257.09,2564.13 1244.2,2584.63 1237.47,2588.41C1222.77,2596.67 1208.69,2597.75 1208.69,2597.75C1208.69,2597.75 1213.74,2583.13 1224.03,2571.85Z"/>
        </g>
    </g>
</svg>
