<?xml version="1.0" encoding="UTF-8" standalone="no"?>
<!DOCTYPE svg PUBLIC "-//W3C//DTD SVG 1.1//EN" "http://www.w3.org/Graphics/SVG/1.1/DTD/svg11.dtd">
<svg width="100%" height="100%" viewBox="0 0 2550 3300" version="1.1" xmlns="http://www.w3.org/2000/svg" xmlns:xlink="http://www.w3.org/1999/xlink" xml:space="preserve" xmlns:serif="http://www.serif.com/" style="fill-rule:evenodd;clip-rule:evenodd;stroke-linejoin:round;stroke-miterlimit:2;">
    <g transform="matrix(1.00594,0,0,1.00594,-7.25035,13.9241)">
        <g transform="matrix(0.928214,0,0,0.928214,83.406,168.127)">
            <path d="M1217,3155.31C1215.09,3151.84 1215.68,3152.77 1214.27,3149.04C1203.28,3120.24 1219.4,3102.06 1238.44,3083.96C1244.36,3078.33 1251.33,3073.21 1258.68,3069.58C1259.59,3069.12 1286.05,3046.32 1286.01,3046C1281,3043.82 1262.53,3019.67 1259.07,3015.82C1252.67,3015.94 1226.91,3039.84 1222.02,3043.38C1199.12,3059.99 1181.56,3089.91 1174.87,3117.31C1167.79,3146.32 1174.2,3157.9 1189.1,3184.88L1217,3155.31Z" style="fill:rgb(51,148,40);"/>
            <path d="M1217,3155.31C1215.09,3151.84 1215.68,3152.77 1214.27,3149.04C1203.28,3120.24 1219.4,3102.06 1238.44,3083.96C1244.36,3078.33 1251.33,3073.21 1258.68,3069.58C1259.59,3069.12 1286.05,3046.32 1286.01,3046C1281,3043.82 1262.53,3019.67 1259.07,3015.82C1252.67,3015.94 1226.91,3039.84 1222.02,3043.38C1199.12,3059.99 1181.56,3089.91 1174.87,3117.31C1167.79,3146.32 1174.2,3157.9 1189.1,3184.88L1217,3155.31ZM1256.59,3030.36C1260.38,3035.03 1265.26,3041.03 1269.5,3045.76C1263.21,3051.22 1255.44,3057.87 1252.69,3060.11C1244.73,3064.19 1237.19,3069.75 1230.75,3075.87C1208.35,3097.17 1190.92,3119.12 1203.84,3153L1191.54,3166.03C1183.64,3150.74 1180.77,3140.19 1185.71,3119.95C1191.81,3094.96 1207.68,3067.56 1228.57,3052.41C1231.69,3050.15 1248.37,3036.9 1256.59,3030.36Z"/>
        </g>
        <g transform="matrix(-0.928214,1.11022e-16,-1.11022e-16,-0.928214,2505.34,5752.37)">
            <path d="M1225.76,3128.05C1225.76,3128.05 1236.56,3049.98 1286.01,3046L1259.07,3015.82C1253.82,3015.91 1229.64,3027.5 1217.46,3046.81C1214.82,3051.01 1210.41,3061.98 1200.48,3041.85C1193.4,3070.87 1210.87,3101.07 1225.76,3128.05Z" style="fill:rgb(51,148,40);"/>
            <path d="M1225.76,3128.05C1225.76,3128.05 1236.56,3049.98 1286.01,3046L1259.07,3015.82C1253.82,3015.91 1229.64,3027.5 1217.46,3046.81C1214.82,3051.01 1210.41,3061.98 1200.48,3041.85C1193.4,3070.87 1210.87,3101.07 1225.76,3128.05ZM1210.73,3064.76C1213.79,3064.8 1216.59,3063.85 1219.12,3062.15C1222.36,3059.99 1225.11,3055.6 1226.9,3052.76C1233.75,3041.9 1248.72,3032.89 1255.89,3029.01L1265.69,3039.99C1251.99,3046.38 1241.53,3057.9 1233.83,3070.93C1228.72,3079.59 1224.86,3088.85 1222,3097.29L1222,3097.29C1219.53,3092.2 1217.26,3087.05 1215.35,3081.87C1213.27,3076.19 1211.62,3070.48 1210.73,3064.76Z"/>
        </g>
        <g transform="matrix(0.879698,0,0,0.879698,158.951,316.414)">
            <path d="M1274.84,2838.99C1371.42,2829.76 1462.82,2783.91 1472.85,2709.35C1495.61,2816.02 1429.52,2849.43 1398.41,2903.72C1382.77,2817 1334.14,2871.03 1274.84,2838.99Z" style="fill:rgb(51,148,40);"/>
            <path d="M1274.84,2838.99C1371.42,2829.76 1462.82,2783.91 1472.85,2709.35C1495.61,2816.02 1429.52,2849.43 1398.41,2903.72C1382.77,2817 1334.14,2871.03 1274.84,2838.99ZM1340.13,2838.99C1376.2,2829.04 1408.94,2813.76 1433.98,2793.73C1446.45,2783.76 1457.05,2772.61 1465.34,2760.37C1463.09,2792.27 1450.31,2815.24 1435.17,2835.53C1424.71,2849.55 1413.27,2862.42 1403.06,2875.84C1397.58,2861.68 1390.5,2853.15 1382.64,2847.81C1374.22,2842.1 1364.57,2839.78 1353.73,2839.1C1349.42,2838.84 1344.88,2838.89 1340.13,2838.99L1340.13,2838.99Z"/>
        </g>
        <g transform="matrix(-0.879698,0,0,0.879698,2368.18,316.414)">
            <path d="M1335.39,2850.93C1331.12,2842.35 1330.02,2834.01 1326.55,2823.22C1390.3,2802.35 1440.31,2763.39 1447.58,2709.35C1470.34,2816.02 1404.25,2849.43 1373.13,2903.72C1365.45,2861.1 1356.36,2852.48 1335.39,2850.93Z" style="fill:rgb(51,148,40);"/>
            <path d="M1335.39,2850.93C1331.12,2842.35 1330.02,2834.01 1326.55,2823.22C1390.3,2802.35 1440.31,2763.39 1447.58,2709.35C1470.34,2816.02 1404.25,2849.43 1373.13,2903.72C1365.45,2861.1 1356.36,2852.48 1335.39,2850.93ZM1343.57,2840.08C1351.41,2841.48 1357.8,2844.25 1363.28,2849.05C1369.14,2854.19 1374.11,2862.21 1378.34,2875.12C1388.41,2861.97 1399.63,2849.3 1409.9,2835.53C1425.07,2815.2 1437.88,2792.16 1440.08,2760.15C1419.16,2791.01 1383.55,2815 1340.85,2830.71C1341.69,2833.97 1342.5,2837.05 1343.57,2840.08L1343.57,2840.08Z"/>
        </g>
        <g transform="matrix(0.821396,0,0,0.821396,226.38,410.211)">
            <path d="M1259.07,2920.91C1219.17,3059.27 1334.64,3106.31 1342.99,3114.35L1308.9,3152C1255.77,3090.72 1228.62,3101.9 1195.86,3012.84C1185.13,2983.67 1187.41,2957.41 1196.11,2929.83C1198.35,2922.7 1200.66,2915.62 1203.47,2908.79C1227.95,2912.83 1244.29,2916.87 1259.07,2920.91Z" style="fill:rgb(51,148,40);"/>
            <path d="M1259.07,2920.91C1219.17,3059.27 1334.64,3106.31 1342.99,3114.35L1308.9,3152C1255.77,3090.72 1228.62,3101.9 1195.86,3012.84C1185.13,2983.67 1187.41,2957.41 1196.11,2929.83C1198.35,2922.7 1200.66,2915.62 1203.47,2908.79C1227.95,2912.83 1244.29,2916.87 1259.07,2920.91ZM1323.58,3117.01L1308.91,3133.21C1291.37,3114.57 1276.72,3103.31 1263.63,3092.48C1242.56,3075.05 1226.15,3058.66 1207.69,3008.49C1198.02,2982.18 1200.29,2958.5 1208.13,2933.62C1209.25,2930.06 1210.39,2926.51 1211.6,2923C1224.25,2925.3 1234.52,2927.6 1243.69,2929.9L1243.69,2929.9C1217.71,3040.62 1286.66,3093.69 1320.49,3115.08L1323.58,3117.01Z"/>
        </g>
        <g transform="matrix(0.821396,0,0,0.821396,226.38,410.211)">
            <path d="M1234.85,2837.68C1254.55,2823.57 1276.82,2794.4 1288.53,2785.71C1320.21,2762.2 1277.95,2718.54 1265.91,2739.25C1261.05,2747.61 1228.81,2766.58 1212.08,2765.1C1180.94,2762.36 1186.57,2805.89 1186.57,2805.89C1151.03,2784.82 1144.62,2760.77 1158.96,2741.85C1165.5,2733.21 1182.82,2724.94 1194.26,2717.13C1200.39,2712.93 1199.03,2702.09 1197.92,2698.76C1195.79,2692.36 1198,2682.66 1203.11,2677.34C1210.61,2669.52 1250.61,2648.39 1270.21,2655.05C1281.29,2658.8 1335.3,2659.8 1403.08,2727.58C1372.84,2720.28 1346.05,2728.95 1345.83,2730.57C1344.66,2739.01 1359.07,2757.55 1353.98,2772.48C1347.67,2790.98 1325.29,2817.47 1306.79,2836.48C1276.14,2842.64 1250.98,2842.41 1234.85,2837.68Z" style="fill:rgb(51,148,40);"/>
            <path d="M1234.85,2837.68C1254.55,2823.57 1276.82,2794.4 1288.53,2785.71C1320.21,2762.2 1277.95,2718.54 1265.91,2739.25C1261.05,2747.61 1228.81,2766.58 1212.08,2765.1C1180.94,2762.36 1186.57,2805.89 1186.57,2805.89C1151.03,2784.82 1144.62,2760.77 1158.96,2741.85C1165.5,2733.21 1182.82,2724.94 1194.26,2717.13C1200.39,2712.93 1199.03,2702.09 1197.92,2698.76C1195.79,2692.36 1198,2682.66 1203.11,2677.34C1210.61,2669.52 1250.61,2648.39 1270.21,2655.05C1281.29,2658.8 1335.3,2659.8 1403.08,2727.58C1372.84,2720.28 1346.05,2728.95 1345.83,2730.57C1344.66,2739.01 1359.07,2757.55 1353.98,2772.48C1347.67,2790.98 1325.29,2817.47 1306.79,2836.48C1276.14,2842.64 1250.98,2842.41 1234.85,2837.68ZM1263.75,2828.62C1276.56,2815.52 1288.49,2801.43 1296.04,2795.83C1327.67,2772.36 1308.46,2734.7 1287.69,2724.41C1280.51,2720.85 1273.2,2720.35 1267.06,2722.58C1262.4,2724.28 1258.16,2727.5 1255.01,2732.91C1253.65,2735.26 1248.8,2738.24 1243.22,2741.56C1233.6,2747.3 1221.28,2753.26 1213.19,2752.55C1203.47,2751.69 1196.11,2754.02 1190.44,2757.82C1182.36,2763.25 1177.6,2772.18 1175.38,2781.58C1175.35,2781.72 1175.31,2781.86 1175.28,2782.01C1163.58,2770.72 1161.36,2759.55 1169,2749.46C1170.92,2746.93 1174.24,2744.6 1177.91,2742.16C1185.45,2737.13 1194.47,2732.25 1201.37,2727.54C1206.61,2723.95 1209.73,2718.36 1210.9,2712.16C1212.2,2705.32 1210.93,2697.92 1209.88,2694.77C1209.01,2692.16 1210.12,2688.24 1212.2,2686.07C1216.05,2682.06 1230.12,2674.36 1244.21,2669.75C1252.29,2667.1 1260.39,2665.02 1266.16,2666.98C1275.33,2670.09 1315.14,2671.02 1367.58,2712.68C1353.88,2713.92 1343.85,2717.13 1340.78,2718.75C1334.61,2722.01 1333.6,2726.96 1333.34,2728.84C1332.67,2733.69 1334.67,2741.08 1337.94,2749.31C1339.4,2753 1341.03,2757.03 1341.92,2761.12C1342.46,2763.59 1342.84,2766.08 1342.04,2768.41C1336.48,2784.72 1317.15,2807.47 1300.49,2824.86C1286.85,2827.41 1274.47,2828.62 1263.75,2828.62L1263.75,2828.62Z"/>
        </g>
        <g transform="matrix(0.821396,0,0,0.821396,226.38,410.211)">
            <path d="M1296.22,2860.4C1329.34,2855.68 1378.05,2847.91 1430.16,2803.3C1436.11,2798.21 1452.78,2780.01 1455.42,2765.87C1457.39,2755.29 1449.9,2744.3 1432.93,2757.28C1426.12,2736.78 1445.06,2716.67 1453.61,2715.9C1479.51,2713.56 1497.11,2767.14 1478.98,2805.08C1450.66,2864.36 1344.29,2909.55 1278.59,2909.57C1180.43,2909.58 1094.85,2841.84 1077.28,2805.08C1060.13,2769.17 1077.69,2715.37 1100.41,2713.27C1109.62,2712.42 1130.79,2717.25 1126.1,2751.8C1118.78,2745.19 1111.26,2746.49 1108.46,2747.72C1087.87,2756.76 1116.96,2795.47 1126.1,2803.3C1163.15,2835.01 1204,2847.7 1232.22,2856.9C1252.53,2863.52 1275.07,2863.42 1296.22,2860.4Z" style="fill:rgb(51,148,40);"/>
            <path d="M1296.22,2860.4C1329.34,2855.68 1378.05,2847.91 1430.16,2803.3C1436.11,2798.21 1452.78,2780.01 1455.42,2765.87C1457.39,2755.29 1449.9,2744.3 1432.93,2757.28C1426.12,2736.78 1445.06,2716.67 1453.61,2715.9C1479.51,2713.56 1497.11,2767.14 1478.98,2805.08C1450.66,2864.36 1344.29,2909.55 1278.59,2909.57C1180.43,2909.58 1094.85,2841.84 1077.28,2805.08C1060.13,2769.17 1077.69,2715.37 1100.41,2713.27C1109.62,2712.42 1130.79,2717.25 1126.1,2751.8C1118.78,2745.19 1111.26,2746.49 1108.46,2747.72C1087.87,2756.76 1116.96,2795.47 1126.1,2803.3C1163.15,2835.01 1204,2847.7 1232.22,2856.9C1252.53,2863.52 1275.07,2863.42 1296.22,2860.4ZM1298,2872.88C1332.72,2867.93 1383.73,2859.64 1438.36,2812.88C1445.41,2806.84 1464.69,2784.94 1467.81,2768.17C1469.8,2757.52 1465.71,2747.11 1458.17,2742.18C1455.2,2740.24 1451.27,2738.77 1446.48,2738.77C1447.58,2736.62 1448.93,2734.67 1450.33,2733C1451.91,2731.12 1454.66,2729.07 1455.53,2728.44C1457.17,2728.53 1458.66,2729.36 1460.06,2730.48C1463.05,2732.87 1465.52,2736.51 1467.59,2740.81C1475.12,2756.48 1476.78,2780.43 1467.61,2799.64C1457.2,2821.43 1435.02,2840.83 1408.65,2856.65C1367.61,2881.26 1316.15,2896.95 1278.59,2896.96C1222.56,2896.97 1170.88,2873.65 1134.86,2847.54C1111.77,2830.8 1095.09,2813.1 1088.66,2799.64C1079.92,2781.35 1082.04,2757.59 1089.1,2741.12C1091.2,2736.23 1093.72,2732 1096.67,2728.97C1098.23,2727.37 1099.75,2725.99 1101.57,2725.83C1104.09,2725.59 1108.6,2726.17 1111.32,2730.16C1112.08,2731.28 1112.7,2732.59 1113.16,2734.1C1108.89,2734.23 1105.42,2735.29 1103.39,2736.18C1091.39,2741.44 1087.25,2751.49 1088.97,2763.95C1091.42,2781.72 1110.31,2806.37 1117.91,2812.88C1156.48,2845.9 1198.92,2859.31 1228.31,2868.89C1250.44,2876.09 1274.97,2876.17 1298,2872.88Z"/>
        </g>
        <g transform="matrix(0.928214,0,0,0.928214,83.406,168.127)">
            <path d="M1385.15,3073.14C1403.26,3113.06 1393.07,3144.78 1392.31,3157.76C1390.59,3186.9 1374.55,3205.91 1353.91,3222.81C1338.01,3235.85 1321.18,3246.35 1299.9,3250.06C1271.67,3254.99 1244.17,3247.14 1221.95,3226.65L1257.31,3198.31C1284.97,3214.32 1317.83,3198.79 1336.71,3172.68C1352.62,3150.68 1353.92,3129.12 1346.52,3109.78L1385.15,3073.14Z" style="fill:rgb(51,148,40);"/>
            <path d="M1385.15,3073.14C1403.26,3113.06 1393.07,3144.78 1392.31,3157.76C1390.59,3186.9 1374.55,3205.91 1353.91,3222.81C1338.01,3235.85 1321.18,3246.35 1299.9,3250.06C1271.67,3254.99 1244.17,3247.14 1221.95,3226.65L1257.31,3198.31C1284.97,3214.32 1317.83,3198.79 1336.71,3172.68C1352.62,3150.68 1353.92,3129.12 1346.52,3109.78L1385.15,3073.14ZM1380.58,3092.84C1389.35,3123.08 1381.79,3146.62 1381.17,3157.1C1379.66,3182.8 1365.04,3199.28 1346.84,3214.18C1332.43,3226 1317.27,3235.71 1297.98,3239.07C1277.38,3242.67 1257.23,3238.48 1239.8,3226.64C1239.8,3226.64 1258.75,3211.45 1258.75,3211.45C1289.8,3224.37 1325.08,3207.8 1345.75,3179.22C1362.36,3156.26 1365.11,3133.67 1359.33,3113L1380.58,3092.84Z"/>
        </g>
        <g transform="matrix(0.821396,0,0,0.821396,226.38,410.211)">
            <path d="M1233.21,2687.35C1241.02,2675.55 1262.31,2675.61 1262.31,2675.61C1262.31,2675.61 1253.45,2696.16 1247.84,2700.57C1235.58,2710.2 1222.87,2713.18 1222.87,2713.18C1222.87,2713.18 1225.41,2699.11 1233.21,2687.35Z" style="fill:rgb(51,148,40);"/>
            <path d="M1233.21,2687.35C1241.02,2675.55 1262.31,2675.61 1262.31,2675.61C1262.31,2675.61 1253.45,2696.16 1247.84,2700.57C1235.58,2710.2 1222.87,2713.18 1222.87,2713.18C1222.87,2713.18 1225.41,2699.11 1233.21,2687.35Z"/>
        </g>
        <g transform="matrix(0.928214,0,0,0.928214,83.406,168.127)">
            <path d="M1234.13,3099.65C1233.65,3093.82 1256.32,3077.36 1261,3078.81C1263.96,3079.73 1337.58,3150.74 1337.9,3152.41C1338.33,3154.66 1320.87,3176.9 1316.16,3180.6C1306.8,3187.95 1234.32,3101.93 1234.13,3099.65Z" style="fill:rgb(51,148,40);"/>
            <path d="M1234.13,3099.65C1233.65,3093.82 1256.32,3077.36 1261,3078.81C1263.96,3079.73 1337.58,3150.74 1337.9,3152.41C1338.33,3154.66 1320.87,3176.9 1316.16,3180.6C1306.8,3187.95 1234.32,3101.93 1234.13,3099.65ZM1258.75,3091.41C1272.29,3103.52 1309.29,3139.13 1323.83,3153.76C1320.78,3157.89 1316.39,3163.72 1313.08,3167.7C1310.08,3165.48 1305.59,3162.02 1301.96,3158.63C1283.27,3141.17 1258,3111.99 1247.75,3099.28C1248.39,3098.66 1249.06,3098.04 1249.68,3097.52C1252.21,3095.4 1256.1,3092.98 1258.75,3091.41Z"/>
        </g>
        <g transform="matrix(0.928214,0,0,0.928214,83.406,168.127)">
            <path d="M1228.65,3030.77C1223,3036.47 1209.26,3044.76 1203.83,3049.71C1190.43,3047.32 1189.59,3051.12 1182.8,3062.4C1174.55,3076.11 1162.14,3098.65 1163.02,3122.02C1164.35,3157.04 1172.45,3179.83 1180.08,3201.78C1180.89,3204.1 1256.54,3131.42 1257.31,3133.49C1265.75,3146.75 1270.84,3149.84 1278.89,3158.99C1268.64,3179.71 1176.88,3259.34 1164.46,3247.82C1163.38,3246.82 1161.02,3243.5 1160.59,3242.56C1157.38,3235.65 1154.42,3228.62 1151.16,3221.73C1143.77,3206.04 1127.33,3161.17 1129.94,3109.36C1131.98,3068.83 1151.94,3042.86 1155.88,3035.42C1164.5,3019.16 1201.1,3003.22 1228.65,3030.77Z" style="fill:rgb(51,148,40);"/>
            <path d="M1248.54,3140.48C1253.78,3135.83 1257.15,3133.06 1257.31,3133.49C1265.75,3146.75 1270.84,3149.84 1278.89,3158.99C1268.64,3179.71 1176.88,3259.34 1164.46,3247.82C1163.38,3246.82 1161.02,3243.5 1160.59,3242.56C1157.38,3235.65 1154.42,3228.62 1151.16,3221.73C1143.77,3206.04 1127.33,3161.17 1129.94,3109.36C1131.98,3068.83 1151.94,3042.86 1155.88,3035.42C1164.5,3019.16 1201.1,3003.22 1228.65,3030.77C1223,3036.47 1209.26,3044.76 1203.83,3049.71C1190.43,3047.32 1189.59,3051.12 1182.8,3062.4C1174.55,3076.11 1162.14,3098.65 1163.02,3122.02C1164.35,3157.04 1172.45,3179.83 1180.08,3201.78C1180.72,3203.62 1228.44,3158.29 1248.54,3140.48L1248.55,3140.49L1248.54,3140.48ZM1210.46,3031.04C1207.06,3033.46 1203.51,3035.88 1200.59,3038.04C1195.06,3037.59 1191.2,3038.32 1188.11,3039.68C1182.73,3042.04 1179.03,3047.03 1173.24,3056.65C1164.15,3071.74 1150.9,3096.71 1151.88,3122.44C1153.26,3158.88 1161.6,3182.6 1169.55,3205.45C1170.62,3208.53 1172.64,3210.68 1175.5,3211.98C1176.56,3212.46 1182.29,3214.52 1188.78,3209.57C1197.92,3202.59 1237.01,3165.61 1255.07,3149.58C1258.39,3153.71 1261.39,3156.69 1264.7,3160.11C1262.22,3163.16 1258.92,3166.75 1255.1,3170.71C1237.29,3189.22 1208.34,3214.14 1186.63,3228.28C1181.01,3231.94 1173.8,3235.27 1170.23,3236.84C1167.19,3230.24 1164.36,3223.54 1161.25,3216.97C1154.21,3202.03 1138.59,3159.28 1141.08,3109.92C1143,3071.89 1162.04,3047.63 1165.74,3040.65C1167.48,3037.35 1171.11,3034.27 1175.58,3031.81C1184.88,3026.67 1198.05,3024.65 1210.46,3031.04Z"/>
        </g>
        <g transform="matrix(-0.928214,1.13673e-16,-1.13673e-16,-0.928214,2472,5968.71)">
            <path d="M1217.32,3021.65C1211.67,3027.35 1203.01,3037.09 1197.58,3042.95C1191.38,3039.05 1185.76,3046.07 1181.89,3052.5C1173.64,3066.21 1161.23,3088.75 1162.12,3112.12C1163.44,3147.14 1172.45,3179.83 1180.08,3201.78C1180.89,3204.1 1256.54,3123.48 1257.31,3125.55C1265.75,3138.81 1274.36,3144.64 1282.4,3153.79C1272.16,3174.52 1176.88,3259.34 1164.46,3247.82C1163.38,3246.82 1161.02,3243.5 1160.59,3242.56C1157.38,3235.65 1154.42,3228.62 1151.16,3221.73C1143.77,3206.04 1126.42,3151.27 1129.03,3099.46C1131.07,3058.93 1151.03,3032.96 1154.97,3025.52C1166.63,3003.53 1189.95,3001.41 1217.32,3021.65Z" style="fill:rgb(51,148,40);"/>
            <path d="M1217.32,3021.65C1211.67,3027.35 1203.01,3037.09 1197.58,3042.95C1191.38,3039.05 1185.76,3046.07 1181.89,3052.5C1173.64,3066.21 1161.23,3088.75 1162.12,3112.12C1163.44,3147.14 1172.45,3179.83 1180.08,3201.78C1180.89,3204.1 1256.54,3123.48 1257.31,3125.55C1265.75,3138.81 1274.36,3144.64 1282.4,3153.79C1272.16,3174.52 1176.88,3259.34 1164.46,3247.82C1163.38,3246.82 1161.02,3243.5 1160.59,3242.56C1157.38,3235.65 1154.42,3228.62 1151.16,3221.73C1143.77,3206.04 1126.42,3151.27 1129.03,3099.46C1131.07,3058.93 1151.03,3032.96 1154.97,3025.52C1166.63,3003.53 1189.95,3001.41 1217.32,3021.65ZM1170.14,3236.64C1167.14,3230.1 1164.33,3223.48 1161.25,3216.97C1154.18,3201.97 1137.67,3149.57 1140.17,3100.02C1142.09,3061.99 1161.13,3037.73 1164.83,3030.75C1167.89,3024.97 1171.97,3021.05 1177.16,3019.55C1183.78,3017.64 1191.47,3019.25 1200,3023.78L1200,3023.78C1197.89,3026.08 1195.77,3028.4 1193.81,3030.56C1190.85,3030.59 1187.97,3031.46 1185.2,3032.96C1180.36,3035.57 1175.7,3041.14 1172.33,3046.75C1163.25,3061.84 1149.99,3086.81 1150.97,3112.54C1152.34,3148.83 1161.64,3182.7 1169.55,3205.45C1170.72,3208.82 1172.96,3211.01 1176.07,3212.22C1177.1,3212.62 1183.03,3214.37 1189.3,3208.96C1198.45,3201.07 1237.66,3159.87 1255.67,3142.04C1259.88,3146.97 1264.07,3150.88 1268.18,3154.99C1265.61,3158.16 1262.16,3161.95 1258.17,3166.16C1239.75,3185.54 1209.69,3212.05 1187.22,3227.27C1181.36,3231.24 1173.88,3234.9 1170.14,3236.64Z"/>
        </g>
    </g>
</svg>
