<?xml version="1.0" encoding="UTF-8" standalone="no"?>
<!DOCTYPE svg PUBLIC "-//W3C//DTD SVG 1.1//EN" "http://www.w3.org/Graphics/SVG/1.1/DTD/svg11.dtd">
<svg width="100%" height="100%" viewBox="0 0 2550 3300" version="1.1" xmlns="http://www.w3.org/2000/svg" xmlns:xlink="http://www.w3.org/1999/xlink" xml:space="preserve" xmlns:serif="http://www.serif.com/" style="fill-rule:evenodd;clip-rule:evenodd;stroke-linejoin:round;stroke-miterlimit:2;">
    <g transform="matrix(1.00594,0,0,1.00594,-7.25035,15.4076)">
        <g transform="matrix(0.928214,0,0,0.928214,83.406,168.127)">
            <path d="M1217,3155.31C1215.09,3151.84 1215.68,3152.77 1214.27,3149.04C1203.28,3120.24 1219.4,3102.06 1238.44,3083.96C1244.36,3078.33 1251.33,3073.21 1258.68,3069.58C1259.59,3069.12 1286.05,3046.32 1286.01,3046C1281,3043.82 1262.53,3019.67 1259.07,3015.82C1252.67,3015.94 1226.91,3039.84 1222.02,3043.38C1199.12,3059.99 1181.56,3089.91 1174.87,3117.31C1167.79,3146.32 1174.2,3157.9 1189.1,3184.88L1217,3155.31Z" style="fill:rgb(51,148,40);"/>
            <path d="M1217,3155.31C1215.09,3151.84 1215.68,3152.77 1214.27,3149.04C1203.28,3120.24 1219.4,3102.06 1238.44,3083.96C1244.36,3078.33 1251.33,3073.21 1258.68,3069.58C1259.59,3069.12 1286.05,3046.32 1286.01,3046C1281,3043.82 1262.53,3019.67 1259.07,3015.82C1252.67,3015.94 1226.91,3039.84 1222.02,3043.38C1199.12,3059.99 1181.56,3089.91 1174.87,3117.31C1167.79,3146.32 1174.2,3157.9 1189.1,3184.88L1217,3155.31ZM1256.23,3033.42C1259.3,3037.21 1262.92,3041.61 1266.31,3045.49C1260.54,3050.49 1253.93,3056.2 1251.45,3058.24C1243.39,3062.41 1235.75,3068.05 1229.21,3074.26C1206.43,3095.91 1188.9,3118.31 1201.26,3152.48L1192.1,3162.19C1185.57,3148.93 1183.41,3138.78 1187.88,3120.48C1193.86,3095.97 1209.39,3069.08 1229.88,3054.22C1232.81,3052.1 1247.76,3040.19 1256.23,3033.42Z"/>
        </g>
        <g transform="matrix(-0.928214,1.11022e-16,-1.11022e-16,-0.928214,2505.34,5752.37)">
            <path d="M1225.76,3128.05C1225.76,3128.05 1236.56,3049.98 1286.01,3046L1259.07,3015.82C1253.82,3015.91 1229.64,3027.5 1217.46,3046.81C1214.82,3051.01 1210.41,3061.98 1200.48,3041.85C1193.4,3070.87 1210.87,3101.07 1225.76,3128.05Z" style="fill:rgb(51,148,40);"/>
            <path d="M1225.76,3128.05C1225.76,3128.05 1236.56,3049.98 1286.01,3046L1259.07,3015.82C1253.82,3015.91 1229.64,3027.5 1217.46,3046.81C1214.82,3051.01 1210.41,3061.98 1200.48,3041.85C1193.4,3070.87 1210.87,3101.07 1225.76,3128.05ZM1213.35,3066.81C1215.86,3066.43 1218.19,3065.46 1220.36,3064.01C1223.84,3061.68 1226.86,3057 1228.79,3053.95C1234.99,3044.11 1248.12,3035.83 1255.37,3031.78L1262.08,3039.29C1249.27,3046.07 1239.33,3057.24 1231.91,3069.79C1227.73,3076.87 1224.38,3084.34 1221.72,3091.45L1221.72,3091.45C1220.16,3088.02 1218.72,3084.57 1217.45,3081.1C1215.7,3076.36 1214.27,3071.59 1213.35,3066.81Z"/>
        </g>
        <g transform="matrix(0.928214,0,0,0.928214,83.406,76.6687)">
            <path d="M1263.56,2888.61C1223.66,3026.98 1334.64,3106.31 1342.99,3114.35L1308.9,3152C1255.77,3090.72 1233.11,3069.61 1200.35,2980.55C1189.62,2951.38 1191.9,2925.12 1200.59,2897.54C1202.84,2890.41 1205.14,2883.33 1207.95,2876.5C1232.44,2880.54 1248.78,2884.58 1263.56,2888.61Z" style="fill:rgb(51,148,40);"/>
            <path d="M1263.56,2888.61C1223.66,3026.98 1334.64,3106.31 1342.99,3114.35L1308.9,3152C1255.77,3090.72 1233.11,3069.61 1200.35,2980.55C1189.62,2951.38 1191.9,2925.12 1200.59,2897.54C1202.84,2890.41 1205.14,2883.33 1207.95,2876.5C1232.44,2880.54 1248.78,2884.58 1263.56,2888.61ZM1247.25,2898.18C1220.29,3015.62 1295.46,3090.62 1323.86,3115.53C1323.86,3115.53 1309.09,3131.84 1309.09,3131.84C1264.16,3080.4 1242.78,3057.12 1212.91,2975.93C1203.3,2949.8 1205.57,2926.27 1213.36,2901.56C1214.41,2898.22 1215.48,2894.89 1216.61,2891.59C1228.6,2893.79 1238.45,2895.98 1247.25,2898.18L1247.25,2898.18Z"/>
        </g>
        <g transform="matrix(0.928214,0,0,0.928214,83.406,76.6687)">
            <path d="M1239.33,2805.39C1259.03,2791.28 1281.3,2762.11 1293.02,2753.41C1324.7,2729.91 1282.44,2686.25 1270.4,2706.96C1265.54,2715.32 1233.3,2734.29 1216.57,2732.81C1185.43,2730.06 1191.06,2773.6 1191.06,2773.6C1155.51,2752.53 1149.1,2728.48 1163.44,2709.55C1173.5,2696.29 1209.03,2683.87 1209.48,2672.67C1198.77,2671.39 1199.83,2653.14 1207.59,2645.05C1215.09,2637.23 1255.09,2616.1 1274.7,2622.75C1285.78,2626.51 1296.06,2626.92 1270.52,2612.55C1293.07,2606.03 1321.98,2605.18 1347.88,2618.99C1338.29,2626.02 1332.02,2634.11 1341.57,2630.9C1392.54,2613.78 1402.61,2685.8 1407.57,2695.29C1377.33,2687.99 1350.54,2696.66 1350.31,2698.28C1349.14,2706.72 1363.55,2725.25 1358.46,2740.19C1352.16,2758.69 1329.78,2785.18 1311.28,2804.19C1280.63,2810.35 1255.47,2810.12 1239.33,2805.39Z" style="fill:rgb(51,148,40);"/>
            <path d="M1239.33,2805.39C1259.03,2791.28 1281.3,2762.11 1293.02,2753.41C1324.7,2729.91 1282.44,2686.25 1270.4,2706.96C1265.54,2715.32 1233.3,2734.29 1216.57,2732.81C1185.43,2730.06 1191.06,2773.6 1191.06,2773.6C1155.51,2752.53 1149.1,2728.48 1163.44,2709.55C1173.5,2696.29 1209.03,2683.87 1209.48,2672.67C1198.77,2671.39 1199.83,2653.14 1207.59,2645.05C1215.09,2637.23 1255.09,2616.1 1274.7,2622.75C1285.78,2626.51 1296.06,2626.92 1270.52,2612.55C1293.07,2606.03 1321.98,2605.18 1347.88,2618.99C1338.29,2626.02 1332.02,2634.11 1341.57,2630.9C1392.54,2613.78 1402.61,2685.8 1407.57,2695.29C1377.33,2687.99 1350.54,2696.66 1350.31,2698.28C1349.14,2706.72 1363.55,2725.25 1358.46,2740.19C1352.16,2758.69 1329.78,2785.18 1311.28,2804.19C1280.63,2810.35 1255.47,2810.12 1239.33,2805.39ZM1324.84,2624.23C1322.49,2629.51 1323.4,2633.89 1324.85,2636.89C1326.53,2640.36 1332.3,2648.14 1345.83,2643.59C1352.64,2641.3 1358.34,2641.1 1363.15,2642.76C1370.89,2645.44 1376.05,2652.32 1380.13,2659.64C1383.69,2666.03 1386.43,2672.89 1388.6,2679.21C1366.56,2678.26 1349.14,2683.54 1344.91,2685.77C1338.38,2689.21 1337.33,2694.45 1337.05,2696.45C1336.37,2701.38 1338.37,2708.93 1341.7,2717.31C1343.14,2720.96 1344.76,2724.95 1345.64,2728.99C1346.15,2731.32 1346.54,2733.68 1345.79,2735.87C1340.28,2752.05 1321.13,2774.57 1304.59,2791.85C1291.86,2794.21 1280.25,2795.41 1270.07,2795.54L1270.07,2795.54C1282.36,2782.85 1293.71,2769.57 1301,2764.17C1333.21,2740.27 1313.68,2701.9 1292.53,2691.42C1285.13,2687.76 1277.6,2687.26 1271.28,2689.56C1266.56,2691.28 1262.25,2694.51 1259.02,2699.91C1258.61,2700.27 1252.45,2705.53 1247.31,2708.6C1237.83,2714.26 1225.71,2720.18 1217.75,2719.48C1207.81,2718.6 1200.28,2721 1194.5,2724.89C1186.51,2730.25 1181.67,2738.95 1179.33,2748.21C1168.81,2737.61 1166.89,2727.17 1174.11,2717.64C1176.85,2714.03 1182.23,2710.78 1187.8,2707.35C1195.3,2702.72 1203.33,2698.18 1209.21,2693.82C1218.18,2687.17 1222.6,2679.47 1222.86,2673.21L1223.36,2660.84L1215.1,2659.86C1215.13,2659.48 1215.17,2659.12 1215.23,2658.82C1215.57,2657.16 1216.16,2655.45 1217.25,2654.32C1221.06,2650.35 1235,2642.76 1248.94,2638.2C1256.85,2635.61 1264.75,2633.51 1270.4,2635.43C1277.41,2637.81 1284.36,2638.63 1287.42,2638.15C1292.89,2637.3 1295.98,2634.3 1297.7,2631.53C1299.33,2628.92 1300.59,2625.54 1299.67,2621.4C1307.88,2621.17 1316.4,2621.98 1324.84,2624.23Z"/>
        </g>
        <g transform="matrix(0.999371,0,0,0.928214,-6.63491,71.6982)">
            <path d="M1299.42,2828.11C1332.54,2823.39 1381.25,2815.62 1433.36,2771.01C1439.31,2765.92 1455.99,2747.72 1458.62,2733.57C1460.59,2723 1453.1,2712.01 1436.13,2724.99C1429.32,2704.49 1448.26,2684.38 1456.81,2683.61C1482.71,2681.27 1500.31,2734.85 1482.19,2772.78C1453.86,2832.07 1347.5,2877.26 1281.79,2877.28C1183.64,2877.29 1098.06,2809.55 1080.49,2772.78C1063.33,2736.88 1080.9,2683.08 1103.62,2680.98C1112.83,2680.13 1133.99,2684.96 1129.31,2719.5C1121.98,2712.9 1114.47,2714.2 1111.66,2715.43C1091.07,2724.47 1120.16,2763.18 1129.31,2771.01C1166.35,2802.72 1207.2,2815.41 1235.42,2824.61C1255.74,2831.22 1278.27,2831.13 1299.42,2828.11Z" style="fill:rgb(51,148,40);"/>
            <path d="M1299.42,2828.11C1332.54,2823.39 1381.25,2815.62 1433.36,2771.01C1439.31,2765.92 1455.99,2747.72 1458.62,2733.57C1460.59,2723 1453.1,2712.01 1436.13,2724.99C1429.32,2704.49 1448.26,2684.38 1456.81,2683.61C1482.71,2681.27 1500.31,2734.85 1482.19,2772.78C1453.86,2832.07 1347.5,2877.26 1281.79,2877.28C1183.64,2877.29 1098.06,2809.55 1080.49,2772.78C1063.33,2736.88 1080.9,2683.08 1103.62,2680.98C1112.83,2680.13 1133.99,2684.96 1129.31,2719.5C1121.98,2712.9 1114.47,2714.2 1111.66,2715.43C1091.07,2724.47 1120.16,2763.18 1129.31,2771.01C1166.35,2802.72 1207.2,2815.41 1235.42,2824.61C1255.74,2831.22 1278.27,2831.13 1299.42,2828.11ZM1301.06,2841.38C1335.7,2836.44 1386.59,2828.15 1441.1,2781.49C1448.23,2775.39 1467.66,2753.16 1470.81,2736.2C1472.89,2725.06 1468.82,2714.16 1460.93,2709C1458.15,2707.19 1454.53,2705.81 1450.15,2705.72C1451.05,2704.2 1452.07,2702.81 1453.11,2701.58C1454.76,2699.6 1457.75,2697.45 1458.5,2696.92C1463.98,2696.86 1467.89,2702.52 1471.11,2709.21C1478.46,2724.51 1480.09,2747.91 1471.13,2766.66C1460.74,2788.4 1438.6,2807.69 1412.28,2823.47C1371.12,2848.16 1319.48,2863.88 1281.79,2863.89C1225.59,2863.9 1173.74,2840.54 1137.61,2814.35C1114.59,2797.66 1097.95,2780.07 1091.54,2766.66C1083,2748.79 1085.1,2725.57 1092.01,2709.48C1094.06,2704.69 1096.54,2700.54 1099.42,2697.58C1101.07,2695.88 1102.75,2694.5 1104.68,2694.32C1107.3,2694.08 1112.08,2694.52 1114.91,2698.69C1115.39,2699.4 1115.81,2700.19 1116.17,2701.06C1112.15,2701.2 1108.9,2702.19 1106.97,2703.03C1094.55,2708.48 1090.58,2719 1092.36,2731.91C1094.85,2749.89 1113.88,2774.91 1121.57,2781.49C1160.09,2814.46 1202.48,2827.86 1231.82,2837.42C1253.8,2844.58 1278.17,2844.65 1301.06,2841.38ZM1301.06,2841.38L1302.97,2841.11L1301.06,2841.38Z"/>
        </g>
        <g transform="matrix(0.928214,0,0,0.928214,83.406,168.127)">
            <path d="M1385.15,3073.14C1403.26,3113.06 1393.07,3144.78 1392.31,3157.76C1390.59,3186.9 1374.55,3205.91 1353.91,3222.81C1338.01,3235.85 1321.18,3246.35 1299.9,3250.06C1271.67,3254.99 1244.17,3247.14 1221.95,3226.65L1257.31,3198.31C1284.97,3214.32 1317.83,3198.79 1336.71,3172.68C1352.62,3150.68 1353.92,3129.12 1346.52,3109.78L1385.15,3073.14Z" style="fill:rgb(51,148,40);"/>
            <path d="M1385.15,3073.14C1403.26,3113.06 1393.07,3144.78 1392.31,3157.76C1390.59,3186.9 1374.55,3205.91 1353.91,3222.81C1338.01,3235.85 1321.18,3246.35 1299.9,3250.06C1271.67,3254.99 1244.17,3247.14 1221.95,3226.65L1257.31,3198.31C1284.97,3214.32 1317.83,3198.79 1336.71,3172.68C1352.62,3150.68 1353.92,3129.12 1346.52,3109.78L1385.15,3073.14ZM1379.41,3097.03C1386.52,3125.19 1379.53,3147.04 1378.94,3156.97C1377.47,3181.98 1363.13,3197.95 1345.43,3212.46C1331.31,3224.03 1316.49,3233.58 1297.6,3236.88C1278.57,3240.2 1259.94,3236.68 1243.6,3226.45C1243.6,3226.45 1259.13,3214 1259.13,3214C1290.81,3226.38 1326.54,3209.58 1347.56,3180.53C1364.29,3157.39 1367.32,3134.61 1361.83,3113.7L1379.41,3097.03Z"/>
        </g>
        <g transform="matrix(0.928214,0,0,0.928214,83.406,76.6687)">
            <path d="M1237.69,2655.05C1245.51,2643.26 1266.8,2643.32 1266.8,2643.32C1266.8,2643.32 1257.93,2663.87 1252.32,2668.28C1240.06,2677.91 1227.36,2680.89 1227.36,2680.89C1227.36,2680.89 1229.9,2666.82 1237.69,2655.05Z" style="fill:rgb(51,148,40);"/>
            <path d="M1237.69,2655.05C1245.51,2643.26 1266.8,2643.32 1266.8,2643.32C1266.8,2643.32 1257.93,2663.87 1252.32,2668.28C1240.06,2677.91 1227.36,2680.89 1227.36,2680.89C1227.36,2680.89 1229.9,2666.82 1237.69,2655.05Z"/>
        </g>
        <g transform="matrix(0.928214,0,0,0.928214,83.406,168.127)">
            <path d="M1234.13,3099.65C1233.65,3093.82 1256.32,3077.36 1261,3078.81C1263.96,3079.73 1337.58,3150.74 1337.9,3152.41C1338.33,3154.66 1320.87,3176.9 1316.16,3180.6C1306.8,3187.95 1234.32,3101.93 1234.13,3099.65Z" style="fill:rgb(51,148,40);"/>
            <path d="M1234.13,3099.65C1233.65,3093.82 1256.32,3077.36 1261,3078.81C1263.96,3079.73 1337.58,3150.74 1337.9,3152.41C1338.33,3154.66 1320.87,3176.9 1316.16,3180.6C1306.8,3187.95 1234.32,3101.93 1234.13,3099.65ZM1258.79,3094.46C1272.92,3107.25 1306.17,3139.25 1320.93,3154C1318.46,3157.31 1315.4,3161.36 1312.78,3164.6C1309,3161.61 1303.48,3157.09 1299.07,3152.77C1282.14,3136.24 1261.57,3112.62 1251.31,3100.1L1258.79,3094.46Z"/>
        </g>
        <g transform="matrix(0.928214,0,0,0.928214,83.406,168.127)">
            <path d="M1228.65,3030.77C1223,3036.47 1209.26,3044.76 1203.83,3049.71C1190.43,3047.32 1189.59,3051.12 1182.8,3062.4C1174.55,3076.11 1162.14,3098.65 1163.02,3122.02C1164.35,3157.04 1172.45,3179.83 1180.08,3201.78C1180.89,3204.1 1256.54,3131.42 1257.31,3133.49C1265.75,3146.75 1270.84,3149.84 1278.89,3158.99C1268.64,3179.71 1176.88,3259.34 1164.46,3247.82C1163.38,3246.82 1161.02,3243.5 1160.59,3242.56C1157.38,3235.65 1154.42,3228.62 1151.16,3221.73C1143.77,3206.04 1127.33,3161.17 1129.94,3109.36C1131.98,3068.83 1151.94,3042.86 1155.88,3035.42C1164.5,3019.16 1201.1,3003.22 1228.65,3030.77Z" style="fill:rgb(51,148,40);"/>
            <path d="M1228.65,3030.77C1223,3036.47 1209.26,3044.76 1203.83,3049.71C1190.43,3047.32 1189.59,3051.12 1182.8,3062.4C1174.55,3076.11 1162.14,3098.65 1163.02,3122.02C1164.35,3157.04 1172.45,3179.83 1180.08,3201.78C1180.89,3204.1 1256.54,3131.42 1257.31,3133.49C1265.75,3146.75 1270.84,3149.84 1278.89,3158.99C1268.64,3179.71 1176.88,3259.34 1164.46,3247.82C1163.38,3246.82 1161.02,3243.5 1160.59,3242.56C1157.38,3235.65 1154.42,3228.62 1151.16,3221.73C1143.77,3206.04 1127.33,3161.17 1129.94,3109.36C1131.98,3068.83 1151.94,3042.86 1155.88,3035.42C1164.5,3019.16 1201.1,3003.22 1228.65,3030.77ZM1205.99,3031.49C1203.89,3032.96 1201.82,3034.4 1199.96,3035.76C1194.37,3035.41 1190.41,3036.23 1187.21,3037.63C1181.52,3040.13 1177.46,3045.31 1171.33,3055.5C1162.07,3070.87 1148.65,3096.32 1149.65,3122.53C1151.04,3159.25 1159.43,3183.16 1167.44,3206.18C1168.73,3209.88 1171.15,3212.45 1174.57,3214.01C1175.81,3214.58 1182.54,3217.13 1190.13,3211.34C1199.01,3204.56 1236.14,3169.49 1254.83,3152.78C1257.16,3155.53 1259.38,3157.82 1261.72,3160.22C1259.46,3162.87 1256.66,3165.88 1253.5,3169.16C1235.78,3187.57 1206.99,3212.36 1185.41,3226.41C1180.77,3229.43 1175.03,3232.25 1171.36,3233.94C1168.65,3227.97 1166.07,3221.95 1163.27,3216.01C1156.29,3201.22 1140.84,3158.9 1143.31,3110.03C1145.2,3072.5 1164.06,3048.58 1167.71,3041.69C1169.29,3038.71 1172.62,3035.99 1176.66,3033.76C1184.55,3029.41 1195.38,3027.44 1205.99,3031.49Z"/>
        </g>
        <g transform="matrix(-0.928214,1.13673e-16,-1.13673e-16,-0.928214,2472,5968.71)">
            <path d="M1217.32,3021.65C1211.67,3027.35 1203.01,3037.09 1197.58,3042.95C1191.38,3039.05 1185.76,3046.07 1181.89,3052.5C1173.64,3066.21 1161.23,3088.75 1162.12,3112.12C1163.44,3147.14 1172.45,3179.83 1180.08,3201.78C1180.89,3204.1 1256.54,3123.48 1257.31,3125.55C1265.75,3138.81 1274.36,3144.64 1282.4,3153.79C1272.16,3174.52 1176.88,3259.34 1164.46,3247.82C1163.38,3246.82 1161.02,3243.5 1160.59,3242.56C1157.38,3235.65 1154.42,3228.62 1151.16,3221.73C1143.77,3206.04 1126.42,3151.27 1129.03,3099.46C1131.07,3058.93 1151.03,3032.96 1154.97,3025.52C1166.63,3003.53 1189.95,3001.41 1217.32,3021.65Z" style="fill:rgb(51,148,40);"/>
            <path d="M1217.32,3021.65C1211.67,3027.35 1203.01,3037.09 1197.58,3042.95C1191.38,3039.05 1185.76,3046.07 1181.89,3052.5C1173.64,3066.21 1161.23,3088.75 1162.12,3112.12C1163.44,3147.14 1172.45,3179.83 1180.08,3201.78C1180.89,3204.1 1256.54,3123.48 1257.31,3125.55C1265.75,3138.81 1274.36,3144.64 1282.4,3153.79C1272.16,3174.52 1176.88,3259.34 1164.46,3247.82C1163.38,3246.82 1161.02,3243.5 1160.59,3242.56C1157.38,3235.65 1154.42,3228.62 1151.16,3221.73C1143.77,3206.04 1126.42,3151.27 1129.03,3099.46C1131.07,3058.93 1151.03,3032.96 1154.97,3025.52C1166.63,3003.53 1189.95,3001.41 1217.32,3021.65ZM1171.25,3233.7C1168.58,3227.81 1166.03,3221.87 1163.27,3216.01C1156.26,3201.15 1139.92,3149.23 1142.4,3100.14C1144.29,3062.6 1163.15,3038.68 1166.8,3031.79C1169.54,3026.62 1173.13,3023.03 1177.78,3021.69C1183.27,3020.11 1189.5,3021.19 1196.38,3024.43L1196.38,3024.43C1195.16,3025.76 1193.96,3027.08 1192.81,3028.34C1189.84,3028.54 1186.94,3029.48 1184.14,3030.99C1179,3033.77 1174,3039.65 1170.42,3045.6C1161.17,3060.97 1147.75,3086.42 1148.74,3112.63C1150.12,3149.16 1159.47,3183.27 1167.44,3206.18C1168.84,3210.22 1171.53,3212.85 1175.26,3214.3C1176.46,3214.77 1183.43,3216.97 1190.76,3210.65C1199.65,3202.98 1236.92,3163.87 1255.57,3145.29C1258.8,3148.89 1262.01,3151.99 1265.18,3155.13C1262.83,3157.92 1259.88,3161.11 1256.55,3164.62C1238.22,3183.9 1208.32,3210.28 1185.97,3225.42C1181.1,3228.72 1175.09,3231.83 1171.25,3233.7Z"/>
        </g>
        <g transform="matrix(1.07031,0,0,0.994098,-88.6747,-34.2968)">
            <path d="M1426.12,2747.91C1453.58,2735.08 1485.37,2683.48 1474.59,2642.9C1528.57,2677.66 1502.05,2912.08 1461.57,2927.73C1474.43,2835.28 1456.35,2800.8 1426.12,2747.91Z" style="fill:rgb(51,148,40);"/>
            <path d="M1426.12,2747.91C1453.58,2735.08 1485.37,2683.48 1474.59,2642.9C1528.57,2677.66 1502.05,2912.08 1461.57,2927.73C1474.43,2835.28 1456.35,2800.8 1426.12,2747.91ZM1477.42,2877.06C1478.18,2822.28 1463.93,2790.96 1442.22,2752.3C1454.28,2743.14 1466.21,2728.71 1474.86,2711.85C1479.52,2702.75 1483.21,2692.98 1485.53,2683.03C1486.89,2687.99 1488.05,2693.36 1489.07,2699.02C1495.74,2736.11 1494.23,2785.63 1487.73,2828.71C1485.06,2846.37 1481.58,2862.94 1477.42,2877.06Z"/>
        </g>
        <g transform="matrix(-1.07031,0,0,0.994098,2604.59,-34.2968)">
            <path d="M1394.86,2747.91C1438.71,2721.1 1454.11,2683.48 1443.33,2642.9C1497.32,2677.66 1470.79,2912.08 1430.31,2927.73C1443.18,2835.28 1425.1,2800.8 1394.86,2747.91Z" style="fill:rgb(51,148,40);"/>
            <path d="M1394.86,2747.91C1438.71,2721.1 1454.11,2683.48 1443.33,2642.9C1497.32,2677.66 1470.79,2912.08 1430.31,2927.73C1443.18,2835.28 1425.1,2800.8 1394.86,2747.91ZM1410.81,2752.03C1432.61,2790.81 1446.93,2822.15 1446.17,2877.06C1450.32,2862.94 1453.81,2846.37 1456.47,2828.71C1462.97,2785.63 1464.49,2736.11 1457.81,2699.02C1457.22,2695.72 1456.58,2692.51 1455.87,2689.43C1450.37,2712.86 1435.6,2734.28 1410.81,2752.03Z"/>
        </g>
        <g transform="matrix(-1.07031,0,0,0.994098,2604.59,-34.2968)">
            <path d="M1345.01,2779.56C1362.68,2771.38 1381.96,2759.67 1387.57,2752.37C1416.48,2801.38 1432.64,2891.72 1414.91,2927.73C1420.04,2920.33 1368.84,2799.81 1345.01,2779.56ZM1402.87,2917.7C1382.04,2889.43 1358.62,2869.48 1335.06,2854.24C1336.3,2823.08 1326.74,2800.55 1323.72,2787.41C1344.56,2798.7 1396.57,2880.03 1402.87,2917.7Z" style="fill:rgb(51,148,40);"/>
            <path d="M1415.08,2927.36C1415.04,2927.51 1414.98,2927.63 1414.91,2927.73L1415.08,2927.36C1418.65,2917.07 1368.52,2799.54 1345.01,2779.56C1362.68,2771.38 1381.96,2759.67 1387.57,2752.37C1416.38,2801.21 1432.53,2891.11 1415.08,2927.36ZM1402.87,2917.7C1382.04,2889.43 1358.62,2869.48 1335.06,2854.24C1336.3,2823.08 1326.74,2800.55 1323.72,2787.41C1344.56,2798.7 1396.57,2880.03 1402.87,2917.7ZM1410.36,2874.05C1400.54,2850.38 1387.59,2822.84 1375.62,2801.95C1371.67,2795.07 1367.78,2788.89 1364.1,2783.68L1364.1,2783.68C1371.47,2779.61 1378.48,2775.25 1384.2,2771.15C1397.36,2798.34 1406.76,2834.15 1409.72,2865.82C1409.98,2868.6 1410.2,2871.35 1410.36,2874.05ZM1366.65,2862.16C1361.17,2852.67 1355.27,2843.3 1349.41,2834.69C1348.09,2832.77 1346.78,2830.87 1345.49,2829.03C1346.23,2834.73 1346.71,2840.83 1346.77,2847.32C1353.44,2851.86 1360.08,2856.78 1366.65,2862.16L1366.65,2862.16Z"/>
        </g>
        <g transform="matrix(1.07031,0,0,0.994098,-54.8459,-34.2968)">
            <path d="M1345.35,2782.19C1363.03,2774.01 1381.96,2759.67 1387.57,2752.37C1416.48,2801.38 1432.64,2891.72 1414.91,2927.73C1420.04,2920.33 1369.19,2802.44 1345.35,2782.19ZM1402.87,2917.7C1382.04,2889.43 1330.39,2838.71 1242.19,2815.41C1283.58,2803.3 1305.31,2798.78 1325.43,2789.3C1346.27,2800.59 1396.57,2880.03 1402.87,2917.7Z" style="fill:rgb(51,148,40);"/>
            <path d="M1415.09,2927.35C1418.63,2917.07 1368.86,2802.16 1345.35,2782.19C1363.03,2774.01 1381.96,2759.67 1387.57,2752.37C1416.38,2801.21 1432.53,2891.11 1415.09,2927.35C1415.04,2927.5 1414.98,2927.62 1414.91,2927.73L1415.09,2927.35ZM1402.87,2917.7C1382.04,2889.43 1330.39,2838.71 1242.19,2815.41C1283.58,2803.3 1305.31,2798.78 1325.43,2789.3C1346.27,2800.59 1396.57,2880.03 1402.87,2917.7ZM1410.4,2874.77C1410.23,2871.84 1410,2868.85 1409.72,2865.82C1406.78,2834.4 1397.51,2798.91 1384.52,2771.8C1378.78,2776.45 1371.73,2781.47 1364.28,2785.97L1364.28,2785.97C1367.98,2791.14 1371.9,2797.29 1375.88,2804.14C1387.79,2824.64 1400.65,2851.59 1410.4,2874.77ZM1368.73,2865.42C1347.42,2848.01 1319.55,2830.19 1284.62,2816.31C1300.73,2811.77 1312.99,2808.11 1324.28,2803.34C1331.44,2809.37 1340.81,2821.59 1350.49,2835.89C1356.73,2845.1 1363.01,2855.23 1368.73,2865.42L1368.73,2865.42Z"/>
        </g>
    </g>
</svg>
