<?xml version="1.0" encoding="UTF-8" standalone="no"?>
<!DOCTYPE svg PUBLIC "-//W3C//DTD SVG 1.1//EN" "http://www.w3.org/Graphics/SVG/1.1/DTD/svg11.dtd">
<svg width="100%" height="100%" viewBox="0 0 2550 3300" version="1.1" xmlns="http://www.w3.org/2000/svg" xmlns:xlink="http://www.w3.org/1999/xlink" xml:space="preserve" xmlns:serif="http://www.serif.com/" style="fill-rule:evenodd;clip-rule:evenodd;stroke-linejoin:round;stroke-miterlimit:2;">
    <g transform="matrix(1.00594,0,0,1.00594,-7.25035,13.8865)">
        <g transform="matrix(0.928214,0,0,0.928214,83.406,168.127)">
            <path d="M1217,3155.31C1215.09,3151.84 1215.68,3152.77 1214.27,3149.04C1203.28,3120.24 1219.4,3102.06 1238.44,3083.96C1244.36,3078.33 1251.33,3073.21 1258.68,3069.58C1259.59,3069.12 1286.05,3046.32 1286.01,3046C1281,3043.82 1262.53,3019.67 1259.07,3015.82C1252.67,3015.94 1226.91,3039.84 1222.02,3043.38C1199.12,3059.99 1181.56,3089.91 1174.87,3117.31C1167.79,3146.32 1174.2,3157.9 1189.1,3184.88L1217,3155.31Z" style="fill:rgb(51,148,40);"/>
            <path d="M1217,3155.31C1215.09,3151.84 1215.68,3152.77 1214.27,3149.04C1203.28,3120.24 1219.4,3102.06 1238.44,3083.96C1244.36,3078.33 1251.33,3073.21 1258.68,3069.58C1259.59,3069.12 1286.05,3046.32 1286.01,3046C1281,3043.82 1262.53,3019.67 1259.07,3015.82C1252.67,3015.94 1226.91,3039.84 1222.02,3043.38C1199.12,3059.99 1181.56,3089.91 1174.87,3117.31C1167.79,3146.32 1174.2,3157.9 1189.1,3184.88L1217,3155.31ZM1256.23,3033.42C1259.3,3037.21 1262.92,3041.61 1266.31,3045.49C1260.54,3050.49 1253.93,3056.2 1251.45,3058.24C1243.39,3062.41 1235.75,3068.05 1229.21,3074.26C1206.43,3095.91 1188.9,3118.31 1201.26,3152.48L1192.1,3162.19C1185.57,3148.93 1183.41,3138.78 1187.88,3120.48C1193.86,3095.97 1209.39,3069.08 1229.88,3054.22C1232.81,3052.1 1247.76,3040.19 1256.23,3033.42Z"/>
        </g>
        <g transform="matrix(-0.928214,1.11022e-16,-1.11022e-16,-0.928214,2505.34,5752.37)">
            <path d="M1225.76,3128.05C1225.76,3128.05 1236.56,3049.98 1286.01,3046L1259.07,3015.82C1253.82,3015.91 1229.64,3027.5 1217.46,3046.81C1214.82,3051.01 1210.41,3061.98 1200.48,3041.85C1193.4,3070.87 1210.87,3101.07 1225.76,3128.05Z" style="fill:rgb(51,148,40);"/>
            <path d="M1225.76,3128.05C1225.76,3128.05 1236.56,3049.98 1286.01,3046L1259.07,3015.82C1253.82,3015.91 1229.64,3027.5 1217.46,3046.81C1214.82,3051.01 1210.41,3061.98 1200.48,3041.85C1193.4,3070.87 1210.87,3101.07 1225.76,3128.05ZM1213.35,3066.81C1215.86,3066.43 1218.19,3065.46 1220.36,3064.01C1223.84,3061.68 1226.86,3057 1228.79,3053.95C1234.99,3044.11 1248.12,3035.83 1255.37,3031.78L1262.08,3039.29C1249.27,3046.07 1239.33,3057.24 1231.91,3069.79C1227.73,3076.87 1224.38,3084.34 1221.72,3091.45L1221.72,3091.45C1220.16,3088.02 1218.72,3084.57 1217.45,3081.1C1215.7,3076.36 1214.27,3071.59 1213.35,3066.81Z"/>
        </g>
        <g transform="matrix(0.994098,0,0,0.994098,7.20756,-29.3264)">
            <path d="M1427.32,2745.79C1447.65,2744.76 1486.56,2681.36 1475.79,2640.78C1529.77,2675.54 1503.25,2909.96 1462.77,2925.61C1475.63,2833.16 1457.55,2798.67 1427.32,2745.79Z" style="fill:rgb(51,148,40);"/>
            <path d="M1427.32,2745.79C1447.65,2744.76 1486.56,2681.36 1475.79,2640.78C1529.77,2675.54 1503.25,2909.96 1462.77,2925.61C1475.63,2833.16 1457.55,2798.67 1427.32,2745.79ZM1479.52,2868.65C1479.14,2818.21 1465.37,2787.98 1444.8,2751.27C1449.33,2748.03 1453.99,2743.68 1458.44,2738.27C1469.92,2724.32 1480.77,2703.54 1486.27,2682.33C1487.43,2686.84 1488.45,2691.67 1489.36,2696.74C1496.05,2733.91 1494.54,2783.55 1488.02,2826.73C1485.76,2841.77 1482.89,2856.02 1479.52,2868.65Z"/>
        </g>
        <g transform="matrix(0.994098,0,0,0.994098,7.20756,-29.3264)">
            <path d="M1275.49,2806.3C1307.37,2805.76 1403.06,2772.33 1420.02,2750.25C1451.98,2804.43 1466.04,2891.1 1438.76,2920.85C1387.91,2844.63 1323.61,2829.19 1275.49,2806.3Z" style="fill:rgb(51,148,40);"/>
            <path d="M1275.49,2806.3C1307.37,2805.76 1403.06,2772.33 1420.02,2750.25C1451.98,2804.43 1466.04,2891.1 1438.76,2920.85C1387.91,2844.63 1323.61,2829.19 1275.49,2806.3ZM1317.38,2811.03C1341.94,2804.31 1370.6,2794 1392.8,2783.24C1401.89,2778.83 1409.91,2774.25 1416.35,2769.81C1430.52,2798.72 1439.66,2834.03 1440.66,2863.97C1441.08,2876.57 1440.26,2888.2 1437.43,2897.61C1399.54,2848.81 1356.16,2827.78 1317.38,2811.03L1317.38,2811.03Z"/>
        </g>
        <g transform="matrix(0.994098,0,0,0.994098,7.20756,-29.3264)">
            <path d="M1122.68,2745.79C1102.35,2744.76 1063.44,2681.36 1074.21,2640.78C1020.23,2675.54 1046.75,2909.96 1087.23,2925.61C1074.37,2833.16 1092.45,2798.67 1122.68,2745.79Z" style="fill:rgb(51,148,40);"/>
            <path d="M1122.68,2745.79C1102.35,2744.76 1063.44,2681.36 1074.21,2640.78C1020.23,2675.54 1046.75,2909.96 1087.23,2925.61C1074.37,2833.16 1092.45,2798.67 1122.68,2745.79ZM1105.2,2751.27C1084.63,2787.98 1070.86,2818.21 1070.48,2868.65C1067.11,2856.02 1064.25,2841.77 1061.98,2826.73C1055.46,2783.55 1053.95,2733.91 1060.64,2696.74C1061.55,2691.67 1062.57,2686.84 1063.73,2682.33C1069.23,2703.53 1080.08,2724.32 1091.56,2738.27C1096.01,2743.68 1100.67,2748.03 1105.2,2751.27Z"/>
        </g>
        <g transform="matrix(0.994098,0,0,0.994098,7.20756,-29.3264)">
            <path d="M1181.1,2852.98C1180.44,2839.81 1180.22,2808.16 1190.73,2786.82C1163.92,2776.26 1137.68,2760.27 1129.98,2750.25C1098.02,2804.43 1083.96,2891.1 1111.24,2920.85C1134.17,2886.48 1155.41,2868.89 1181.1,2852.98Z" style="fill:rgb(51,148,40);"/>
            <path d="M1181.1,2852.98C1180.44,2839.81 1180.22,2808.16 1190.73,2786.82C1163.92,2776.26 1137.68,2760.27 1129.98,2750.25C1098.02,2804.43 1083.96,2891.1 1111.24,2920.85C1134.17,2886.48 1155.41,2868.89 1181.1,2852.98ZM1168.38,2846.24C1148.3,2859.27 1130.63,2874.03 1112.55,2897.53C1109.74,2888.14 1108.92,2876.54 1109.34,2863.97C1110.34,2834.11 1119.43,2798.91 1133.54,2770.04C1144.1,2777.81 1158.88,2786.43 1174.71,2793.6C1169.15,2811.71 1168.21,2832.72 1168.38,2846.24Z"/>
        </g>
        <g transform="matrix(0.928214,0,0,0.928214,83.406,76.6687)">
            <path d="M1263.56,2886.34C1223.66,3024.71 1334.64,3106.31 1342.99,3114.35L1308.9,3152C1255.77,3090.72 1233.11,3067.33 1200.35,2978.28C1189.62,2949.11 1191.9,2922.85 1200.59,2895.27C1202.84,2888.14 1205.14,2881.06 1207.95,2874.23C1232.44,2878.27 1248.78,2882.3 1263.56,2886.34Z" style="fill:rgb(51,148,40);"/>
            <path d="M1263.56,2886.34C1223.66,3024.71 1334.64,3106.31 1342.99,3114.35L1308.9,3152C1255.77,3090.72 1233.11,3067.33 1200.35,2978.28C1189.62,2949.11 1191.9,2922.85 1200.59,2895.27C1202.84,2888.14 1205.14,2881.06 1207.95,2874.23C1232.44,2878.27 1248.78,2882.3 1263.56,2886.34ZM1247.26,2895.91C1220.28,3013.5 1295.59,3090.13 1323.93,3115.46C1323.93,3115.46 1309.11,3131.83 1309.11,3131.83C1264.15,3080.1 1242.79,3054.87 1212.91,2973.66C1203.3,2947.53 1205.57,2924 1213.36,2899.29C1214.41,2895.95 1215.48,2892.62 1216.61,2889.32C1228.6,2891.52 1238.45,2893.71 1247.26,2895.91L1247.26,2895.91Z"/>
        </g>
        <g transform="matrix(0.928214,0,0,0.928214,83.406,76.6687)">
            <path d="M1239.33,2803.12C1259.03,2789.01 1281.3,2759.84 1293.02,2751.14C1324.7,2727.64 1282.44,2683.97 1270.4,2704.69C1265.54,2713.05 1233.3,2732.02 1216.57,2730.54C1185.43,2727.79 1191.06,2771.33 1191.06,2771.33C1155.51,2750.26 1149.1,2726.2 1163.44,2707.28C1173.5,2694.02 1209.03,2681.6 1209.48,2670.39C1198.77,2669.12 1199.83,2650.87 1207.59,2642.78C1215.09,2634.96 1255.09,2613.83 1274.7,2620.48C1285.78,2624.24 1296.06,2624.65 1270.52,2610.28C1326.92,2593.96 1395.95,2670.81 1407.57,2693.02C1377.33,2685.72 1350.54,2694.39 1350.31,2696.01C1349.14,2704.45 1363.55,2722.98 1358.46,2737.92C1352.16,2756.41 1329.78,2782.91 1311.28,2801.92C1280.63,2808.08 1255.47,2807.85 1239.33,2803.12Z" style="fill:rgb(51,148,40);"/>
            <path d="M1239.33,2803.12C1259.03,2789.01 1281.3,2759.84 1293.02,2751.14C1324.7,2727.64 1282.44,2683.97 1270.4,2704.69C1265.54,2713.05 1233.3,2732.02 1216.57,2730.54C1185.43,2727.79 1191.06,2771.33 1191.06,2771.33C1155.51,2750.26 1149.1,2726.2 1163.44,2707.28C1173.5,2694.02 1209.03,2681.6 1209.48,2670.39C1198.77,2669.12 1199.83,2650.87 1207.59,2642.78C1215.09,2634.96 1255.09,2613.83 1274.7,2620.48C1285.78,2624.24 1296.06,2624.65 1270.52,2610.28C1326.92,2593.96 1395.95,2670.81 1407.57,2693.02C1377.33,2685.72 1350.54,2694.39 1350.31,2696.01C1349.14,2704.45 1363.55,2722.98 1358.46,2737.92C1352.16,2756.41 1329.78,2782.91 1311.28,2801.92C1280.63,2808.08 1255.47,2807.85 1239.33,2803.12ZM1299.94,2622.83C1311.05,2625.33 1322.16,2630.73 1332.68,2637.31C1350.79,2648.63 1367.19,2663.81 1378.93,2676.9C1361.58,2677.52 1348.5,2681.6 1344.91,2683.5C1338.38,2686.94 1337.33,2692.18 1337.05,2694.17C1336.37,2699.11 1338.37,2706.65 1341.7,2715.04C1343.14,2718.69 1344.76,2722.68 1345.64,2726.72C1346.15,2729.05 1346.54,2731.4 1345.79,2733.6C1340.28,2749.78 1321.13,2772.29 1304.59,2789.58C1291.86,2791.94 1280.25,2793.14 1270.07,2793.27L1270.07,2793.27C1282.36,2780.58 1293.71,2767.3 1301,2761.89C1333.21,2737.99 1313.68,2699.63 1292.53,2689.15C1285.13,2685.49 1277.6,2684.98 1271.28,2687.29C1266.56,2689 1262.25,2692.24 1259.02,2697.64C1258.61,2698 1252.45,2703.26 1247.31,2706.33C1237.83,2711.99 1225.71,2717.91 1217.75,2717.21C1207.81,2716.33 1200.28,2718.73 1194.5,2722.61C1186.51,2727.98 1181.67,2736.68 1179.33,2745.94C1168.81,2735.34 1166.89,2724.9 1174.11,2715.37C1176.85,2711.76 1182.23,2708.51 1187.8,2705.07C1195.3,2700.45 1203.33,2695.91 1209.21,2691.55C1218.18,2684.9 1222.6,2677.2 1222.86,2670.94L1223.36,2658.57L1215.1,2657.58C1215.13,2657.21 1215.17,2656.85 1215.23,2656.55C1215.57,2654.89 1216.16,2653.18 1217.25,2652.05C1221.06,2648.08 1235,2640.49 1248.94,2635.93C1256.85,2633.33 1264.75,2631.24 1270.4,2633.16C1277.41,2635.54 1284.36,2636.36 1287.42,2635.88C1292.89,2635.03 1295.98,2632.03 1297.7,2629.25C1298.81,2627.47 1299.75,2625.33 1299.94,2622.83Z"/>
        </g>
        <g transform="matrix(0.928214,0,0,0.928214,83.406,76.6687)">
            <path d="M1300.7,2825.84C1333.82,2821.11 1382.53,2813.35 1434.65,2768.74C1440.59,2763.65 1457.27,2745.45 1459.9,2731.3C1461.87,2720.72 1454.39,2709.74 1437.41,2722.72C1430.61,2702.22 1449.55,2682.11 1458.09,2681.34C1484,2678.99 1501.6,2732.58 1483.47,2770.51C1455.14,2829.79 1348.78,2874.99 1283.08,2875C1184.92,2875.02 1099.34,2807.28 1081.77,2770.51C1064.61,2734.61 1082.18,2680.81 1104.9,2678.71C1114.11,2677.86 1135.28,2682.69 1130.59,2717.23C1123.26,2710.63 1115.75,2711.93 1112.94,2713.16C1092.35,2722.19 1121.45,2760.91 1130.59,2768.74C1167.63,2800.45 1208.48,2813.14 1236.7,2822.34C1257.02,2828.95 1279.55,2828.86 1300.7,2825.84Z" style="fill:rgb(51,148,40);"/>
            <path d="M1300.7,2825.84C1333.82,2821.11 1382.53,2813.35 1434.65,2768.74C1440.59,2763.65 1457.27,2745.45 1459.9,2731.3C1461.87,2720.72 1454.39,2709.74 1437.41,2722.72C1430.61,2702.22 1449.55,2682.11 1458.09,2681.34C1484,2678.99 1501.6,2732.58 1483.47,2770.51C1455.14,2829.79 1348.78,2874.99 1283.08,2875C1184.92,2875.02 1099.34,2807.28 1081.77,2770.51C1064.61,2734.61 1082.18,2680.81 1104.9,2678.71C1114.11,2677.86 1135.28,2682.69 1130.59,2717.23C1123.26,2710.63 1115.75,2711.93 1112.94,2713.16C1092.35,2722.19 1121.45,2760.91 1130.59,2768.74C1167.63,2800.45 1208.48,2813.14 1236.7,2822.34C1257.02,2828.95 1279.55,2828.86 1300.7,2825.84ZM1302.6,2839.09C1337.42,2834.12 1388.56,2825.81 1443.35,2778.91C1450.47,2772.82 1469.91,2750.69 1473.07,2733.75C1475.11,2722.77 1470.86,2712.05 1463.08,2706.97C1460.28,2705.14 1456.64,2703.69 1452.26,2703.45C1453.2,2701.79 1454.3,2700.27 1455.42,2698.93C1456.85,2697.23 1459.31,2695.34 1460.22,2694.67C1462.17,2694.86 1463.85,2696.18 1465.45,2697.78C1467.74,2700.07 1469.7,2703.11 1471.37,2706.59C1478.81,2722.07 1480.46,2745.76 1471.39,2764.74C1461.04,2786.41 1438.96,2805.69 1412.73,2821.42C1371.82,2845.95 1320.53,2861.61 1283.07,2861.62C1227.23,2861.63 1175.71,2838.37 1139.81,2812.34C1116.85,2795.7 1100.24,2778.12 1093.85,2764.74C1085.2,2746.65 1087.32,2723.16 1094.31,2706.87C1096.36,2702.07 1098.82,2697.92 1101.71,2694.96C1103.13,2693.5 1104.48,2692.19 1106.13,2692.04C1108.46,2691.82 1112.65,2692.35 1115.16,2696.03C1115.71,2696.86 1116.19,2697.78 1116.58,2698.8C1112.66,2699.06 1109.49,2700.06 1107.57,2700.9C1095.2,2706.32 1090.91,2716.66 1092.68,2729.5C1095.16,2747.44 1114.21,2772.34 1121.88,2778.91C1160.56,2812.01 1203.1,2825.47 1232.56,2835.06C1254.79,2842.31 1279.45,2842.39 1302.6,2839.09Z"/>
        </g>
        <g transform="matrix(0.928214,0,0,0.928214,83.406,168.127)">
            <path d="M1385.15,3073.14C1403.26,3113.06 1393.07,3144.78 1392.31,3157.76C1390.59,3186.9 1374.55,3205.91 1353.91,3222.81C1338.01,3235.85 1321.18,3246.35 1299.9,3250.06C1271.67,3254.99 1244.17,3247.14 1221.95,3226.65L1257.31,3198.31C1284.97,3214.32 1317.83,3198.79 1336.71,3172.68C1352.62,3150.68 1353.92,3129.12 1346.52,3109.78L1385.15,3073.14Z" style="fill:rgb(51,148,40);"/>
            <path d="M1385.15,3073.14C1403.26,3113.06 1393.07,3144.78 1392.31,3157.76C1390.59,3186.9 1374.55,3205.91 1353.91,3222.81C1338.01,3235.85 1321.18,3246.35 1299.9,3250.06C1271.67,3254.99 1244.17,3247.14 1221.95,3226.65L1257.31,3198.31C1284.97,3214.32 1317.83,3198.79 1336.71,3172.68C1352.62,3150.68 1353.92,3129.12 1346.52,3109.78L1385.15,3073.14ZM1379.41,3097.03C1386.52,3125.19 1379.53,3147.04 1378.94,3156.97C1377.47,3181.98 1363.13,3197.95 1345.43,3212.46C1331.31,3224.03 1316.49,3233.58 1297.6,3236.88C1278.57,3240.2 1259.94,3236.68 1243.6,3226.45C1243.6,3226.45 1259.13,3214 1259.13,3214C1290.81,3226.38 1326.54,3209.58 1347.56,3180.53C1364.29,3157.39 1367.32,3134.61 1361.83,3113.7L1379.41,3097.03Z"/>
        </g>
        <g transform="matrix(0.928214,0,0,0.928214,83.406,76.6687)">
            <path d="M1237.69,2652.78C1245.51,2640.99 1266.8,2641.05 1266.8,2641.05C1266.8,2641.05 1257.93,2661.6 1252.32,2666.01C1240.06,2675.64 1227.36,2678.62 1227.36,2678.62C1227.36,2678.62 1229.9,2664.55 1237.69,2652.78Z" style="fill:rgb(51,148,40);"/>
            <path d="M1237.69,2652.78C1245.51,2640.99 1266.8,2641.05 1266.8,2641.05C1266.8,2641.05 1257.93,2661.6 1252.32,2666.01C1240.06,2675.64 1227.36,2678.62 1227.36,2678.62C1227.36,2678.62 1229.9,2664.55 1237.69,2652.78Z"/>
        </g>
        <g transform="matrix(0.928214,0,0,0.928214,83.406,168.127)">
            <path d="M1234.13,3099.65C1233.65,3093.82 1256.32,3077.36 1261,3078.81C1263.96,3079.73 1337.58,3150.74 1337.9,3152.41C1338.33,3154.66 1320.87,3176.9 1316.16,3180.6C1306.8,3187.95 1234.32,3101.93 1234.13,3099.65Z" style="fill:rgb(51,148,40);"/>
            <path d="M1234.13,3099.65C1233.65,3093.82 1256.32,3077.36 1261,3078.81C1263.96,3079.73 1337.58,3150.74 1337.9,3152.41C1338.33,3154.66 1320.87,3176.9 1316.16,3180.6C1306.8,3187.95 1234.32,3101.93 1234.13,3099.65ZM1258.79,3094.46C1272.92,3107.25 1306.17,3139.25 1320.93,3154C1318.46,3157.31 1315.4,3161.36 1312.78,3164.6C1309,3161.61 1303.48,3157.09 1299.07,3152.77C1282.14,3136.24 1261.57,3112.62 1251.31,3100.1L1258.79,3094.46Z"/>
        </g>
        <g transform="matrix(0.928214,0,0,0.928214,83.406,168.127)">
            <path d="M1228.65,3030.77C1223,3036.47 1209.26,3044.76 1203.83,3049.71C1190.43,3047.32 1189.59,3051.12 1182.8,3062.4C1174.55,3076.11 1162.14,3098.65 1163.02,3122.02C1164.35,3157.04 1172.45,3179.83 1180.08,3201.78C1180.89,3204.1 1256.54,3131.42 1257.31,3133.49C1265.75,3146.75 1270.84,3149.84 1278.89,3158.99C1268.64,3179.71 1176.88,3259.34 1164.46,3247.82C1163.38,3246.82 1161.02,3243.5 1160.59,3242.56C1157.38,3235.65 1154.42,3228.62 1151.16,3221.73C1143.77,3206.04 1127.33,3161.17 1129.94,3109.36C1131.98,3068.83 1151.94,3042.86 1155.88,3035.42C1164.5,3019.16 1201.1,3003.22 1228.65,3030.77Z" style="fill:rgb(51,148,40);"/>
            <path d="M1228.65,3030.77C1223,3036.47 1209.26,3044.76 1203.83,3049.71C1190.43,3047.32 1189.59,3051.12 1182.8,3062.4C1174.55,3076.11 1162.14,3098.65 1163.02,3122.02C1164.35,3157.04 1172.45,3179.83 1180.08,3201.78C1180.89,3204.1 1256.54,3131.42 1257.31,3133.49C1265.75,3146.75 1270.84,3149.84 1278.89,3158.99C1268.64,3179.71 1176.88,3259.34 1164.46,3247.82C1163.38,3246.82 1161.02,3243.5 1160.59,3242.56C1157.38,3235.65 1154.42,3228.62 1151.16,3221.73C1143.77,3206.04 1127.33,3161.17 1129.94,3109.36C1131.98,3068.83 1151.94,3042.86 1155.88,3035.42C1164.5,3019.16 1201.1,3003.22 1228.65,3030.77ZM1205.99,3031.49C1203.89,3032.96 1201.82,3034.4 1199.96,3035.76C1194.37,3035.41 1190.41,3036.23 1187.21,3037.63C1181.52,3040.13 1177.46,3045.31 1171.33,3055.5C1162.07,3070.87 1148.65,3096.32 1149.65,3122.53C1151.04,3159.25 1159.43,3183.16 1167.44,3206.18C1168.73,3209.88 1171.15,3212.45 1174.57,3214.01C1175.81,3214.58 1182.54,3217.13 1190.13,3211.34C1199.01,3204.56 1236.14,3169.49 1254.83,3152.78C1257.16,3155.53 1259.38,3157.82 1261.72,3160.22C1259.46,3162.87 1256.66,3165.88 1253.5,3169.16C1235.78,3187.57 1206.99,3212.36 1185.41,3226.41C1180.77,3229.43 1175.03,3232.25 1171.36,3233.94C1168.65,3227.97 1166.07,3221.95 1163.27,3216.01C1156.29,3201.22 1140.84,3158.9 1143.31,3110.03C1145.2,3072.5 1164.06,3048.58 1167.71,3041.69C1169.29,3038.71 1172.62,3035.99 1176.66,3033.76C1184.55,3029.41 1195.38,3027.44 1205.99,3031.49Z"/>
        </g>
        <g transform="matrix(-0.928214,1.13673e-16,-1.13673e-16,-0.928214,2472,5968.71)">
            <path d="M1217.32,3021.65C1211.67,3027.35 1203.01,3037.09 1197.58,3042.95C1191.38,3039.05 1185.76,3046.07 1181.89,3052.5C1173.64,3066.21 1161.23,3088.75 1162.12,3112.12C1163.44,3147.14 1172.45,3179.83 1180.08,3201.78C1180.89,3204.1 1256.54,3123.48 1257.31,3125.55C1265.75,3138.81 1274.36,3144.64 1282.4,3153.79C1272.16,3174.52 1176.88,3259.34 1164.46,3247.82C1163.38,3246.82 1161.02,3243.5 1160.59,3242.56C1157.38,3235.65 1154.42,3228.62 1151.16,3221.73C1143.77,3206.04 1126.42,3151.27 1129.03,3099.46C1131.07,3058.93 1151.03,3032.96 1154.97,3025.52C1166.63,3003.53 1189.95,3001.41 1217.32,3021.65Z" style="fill:rgb(51,148,40);"/>
            <path d="M1217.32,3021.65C1211.67,3027.35 1203.01,3037.09 1197.58,3042.95C1191.38,3039.05 1185.76,3046.07 1181.89,3052.5C1173.64,3066.21 1161.23,3088.75 1162.12,3112.12C1163.44,3147.14 1172.45,3179.83 1180.08,3201.78C1180.89,3204.1 1256.54,3123.48 1257.31,3125.55C1265.75,3138.81 1274.36,3144.64 1282.4,3153.79C1272.16,3174.52 1176.88,3259.34 1164.46,3247.82C1163.38,3246.82 1161.02,3243.5 1160.59,3242.56C1157.38,3235.65 1154.42,3228.62 1151.16,3221.73C1143.77,3206.04 1126.42,3151.27 1129.03,3099.46C1131.07,3058.93 1151.03,3032.96 1154.97,3025.52C1166.63,3003.53 1189.95,3001.41 1217.32,3021.65ZM1171.25,3233.7C1168.58,3227.81 1166.03,3221.87 1163.27,3216.01C1156.26,3201.15 1139.92,3149.23 1142.4,3100.14C1144.29,3062.6 1163.15,3038.68 1166.8,3031.79C1169.54,3026.62 1173.13,3023.03 1177.78,3021.69C1183.27,3020.11 1189.5,3021.19 1196.38,3024.43L1196.38,3024.43C1195.16,3025.76 1193.96,3027.08 1192.81,3028.34C1189.84,3028.54 1186.94,3029.48 1184.14,3030.99C1179,3033.77 1174,3039.65 1170.42,3045.6C1161.17,3060.97 1147.75,3086.42 1148.74,3112.63C1150.12,3149.16 1159.47,3183.27 1167.44,3206.18C1168.84,3210.22 1171.53,3212.85 1175.26,3214.3C1176.46,3214.77 1183.43,3216.97 1190.76,3210.65C1199.65,3202.98 1236.92,3163.87 1255.57,3145.29C1258.8,3148.89 1262.01,3151.99 1265.18,3155.13C1262.83,3157.92 1259.88,3161.11 1256.55,3164.62C1238.22,3183.9 1208.32,3210.28 1185.97,3225.42C1181.1,3228.72 1175.09,3231.83 1171.25,3233.7Z"/>
        </g>
    </g>
</svg>
