<?xml version="1.0" encoding="UTF-8" standalone="no"?>
<!DOCTYPE svg PUBLIC "-//W3C//DTD SVG 1.1//EN" "http://www.w3.org/Graphics/SVG/1.1/DTD/svg11.dtd">
<svg width="100%" height="100%" viewBox="0 0 2550 3300" version="1.1" xmlns="http://www.w3.org/2000/svg" xmlns:xlink="http://www.w3.org/1999/xlink" xml:space="preserve" xmlns:serif="http://www.serif.com/" style="fill-rule:evenodd;clip-rule:evenodd;stroke-linejoin:round;stroke-miterlimit:2;">
    <g transform="matrix(1.00594,0,0,1.00594,-7.25035,15.284)">
        <g transform="matrix(0.994098,0,0,0.994098,7.20756,-15.1938)">
            <path d="M1212.99,3130.6C1211.21,3127.36 1211.77,3128.22 1210.44,3124.75C1200.19,3097.85 1215.23,3080.87 1233.01,3063.98C1238.54,3058.72 1245.05,3053.95 1251.91,3050.55C1252.76,3050.13 1277.47,3028.83 1277.43,3028.54C1272.75,3026.49 1255.51,3003.95 1252.27,3000.35C1246.3,3000.46 1222.25,3022.78 1217.68,3026.09C1196.3,3041.6 1179.9,3069.54 1173.66,3095.12C1167.05,3122.21 1173.03,3133.02 1186.94,3158.21L1212.99,3130.6ZM1368.44,2881.07C1368.44,2881.07 1358.36,2953.96 1312.18,2957.68L1337.35,2985.86C1342.25,2985.77 1364.82,2974.95 1376.19,2956.92C1378.66,2953 1382.78,2942.76 1392.05,2961.55C1398.66,2934.46 1382.35,2906.26 1368.44,2881.07ZM1083.85,2739.48C1064.33,2728.18 1060.39,2723.17 1044.74,2700.42C1013.6,2746.36 995.833,2879.77 1042.44,2922.77C1041.97,2817.52 1049.47,2789.55 1083.85,2739.48ZM1148.56,2778.11C1130.97,2770.59 1109.96,2763.02 1092.82,2746.74C1059.12,2803.87 1045.1,2896.74 1077.66,2922.77C1088.92,2833.2 1116.36,2811.23 1148.56,2778.11ZM1269.51,2811.01C1303.02,2804.93 1331.87,2797.5 1364.51,2784.34C1410.02,2834.93 1441.83,2857.12 1423.15,2922.77C1377.16,2840.96 1316.22,2833.22 1269.51,2811.01ZM1170.09,2850.71C1166.26,2838.61 1178.57,2806.39 1180.64,2793.2C1175.67,2791.67 1170.77,2789.97 1165.98,2788.04C1112.45,2835.11 1091.6,2861.7 1099.88,2922.77C1125.33,2889.92 1146.26,2864.51 1170.09,2850.71ZM1489.11,2688.08C1495.23,2677.27 1507.23,2647.53 1514.1,2633.78C1520.51,2644.86 1530.52,2667.91 1536.2,2683.3C1559.71,2747.06 1571.33,2834.63 1511.94,2922.77C1541.39,2842.52 1528.58,2725.41 1489.11,2688.08ZM1039.47,2688.08C1033.36,2677.27 1021.36,2647.53 1014.48,2633.78C1008.07,2644.86 998.065,2667.91 992.387,2683.3C968.877,2747.06 957.254,2834.63 1016.64,2922.77C987.197,2842.52 1000,2725.41 1039.47,2688.08ZM1443.18,2739.48C1462.71,2728.18 1466.64,2723.17 1482.3,2700.42C1513.44,2746.36 1531.2,2879.77 1484.59,2922.77C1485.06,2817.52 1477.57,2789.55 1443.18,2739.48ZM1378.48,2778.11C1396.06,2770.59 1417.07,2763.02 1434.22,2746.74C1467.92,2803.87 1481.93,2896.74 1449.37,2922.77C1438.11,2833.2 1410.68,2811.23 1378.48,2778.11ZM1245.64,2806.9C1208.39,2936.09 1322.84,2992.85 1330.64,3000.35L1298.8,3035.51C1249.19,2978.29 1217.21,2975.89 1186.62,2892.74C1176.6,2865.51 1178.73,2840.99 1186.85,2815.23C1188.95,2808.57 1191.1,2801.96 1193.72,2795.59C1216.58,2799.36 1231.84,2803.13 1245.64,2806.9ZM1213.38,2723.45C1219.3,2663.78 1262.21,2639.37 1273.15,2631.25C1302.73,2609.31 1263.27,2568.53 1252.03,2587.88C1247.49,2595.68 1217.38,2613.39 1201.77,2612.02C1172.69,2609.45 1177.94,2650.1 1177.94,2650.1C1144.76,2630.42 1138.77,2607.97 1152.16,2590.3C1161.55,2577.91 1194.72,2566.31 1195.15,2555.86C1185.14,2554.66 1186.13,2537.63 1193.38,2530.07C1200.39,2522.77 1232.18,2503.66 1251.51,2503.35C1270.84,2503.04 1281.88,2494.99 1258.04,2481.57C1310.71,2466.34 1371.33,2489.24 1385.43,2507.54C1332.54,2500.19 1305.58,2503.35 1310.05,2526.09C1319.26,2532.55 1339,2534.16 1334.14,2512.92C1341.34,2514.6 1347.23,2519.36 1351.63,2529.96C1372.2,2522.45 1388.85,2531.7 1399.7,2552.43C1371.46,2545.62 1340.55,2571.87 1340.34,2573.38C1339.25,2581.25 1352.7,2598.56 1347.95,2612.51C1342.06,2629.78 1288.37,2671.12 1264.29,2729.14C1235.67,2734.89 1228.44,2727.87 1213.38,2723.45ZM1266.63,2743.5C1272.17,2743.14 1277.69,2742.54 1283.12,2741.76C1319.24,2736.61 1372.37,2728.14 1429.2,2679.49C1435.69,2673.94 1453.88,2654.09 1456.75,2638.66C1458.9,2627.12 1450.73,2615.14 1432.22,2629.3C1424.8,2606.94 1445.65,2586.25 1454.77,2584.17C1472.27,2580.16 1492.83,2563.15 1556.72,2575.87C1562.06,2608.98 1571.78,2641.52 1569.99,2726.62C1563.53,2731.4 1531.28,2625.68 1511.96,2613.6C1492.65,2642.26 1494.04,2651.73 1482.45,2675.98C1460.54,2721.83 1366.91,2794.37 1266.15,2794.86C1164.74,2795.36 1072.8,2735.39 1047.49,2682.42C1035.9,2658.18 1037.29,2643.26 1017.98,2614.6C998.664,2626.68 966.409,2732.4 959.945,2727.62C958.16,2642.52 967.884,2609.98 973.223,2576.87C1037.11,2564.15 1057.67,2581.16 1075.17,2585.17C1084.29,2587.25 1105.14,2607.94 1097.72,2630.3C1079.21,2616.14 1071.04,2628.12 1073.19,2639.66C1076.06,2655.09 1094.25,2674.94 1100.74,2680.49C1157.57,2729.14 1210.7,2737.61 1246.82,2742.76C1248.78,2743.04 1254.58,2743.67 1266.63,2743.5ZM1370,3053.87C1386.91,3091.15 1377.4,3120.77 1376.68,3132.89C1375.08,3160.09 1360.1,3177.85 1340.83,3193.63C1325.98,3205.8 1310.27,3215.61 1290.4,3219.07C1264.04,3223.67 1238.36,3216.34 1217.61,3197.22L1250.63,3170.75C1276.46,3185.7 1307.14,3171.2 1324.77,3146.82C1339.62,3126.28 1340.84,3106.15 1333.93,3088.08L1370,3053.87ZM1228.99,3078.63C1228.54,3073.18 1249.71,3057.81 1254.08,3059.17C1256.84,3060.03 1325.58,3126.34 1325.88,3127.89C1326.28,3130 1309.98,3150.76 1305.58,3154.21C1296.84,3161.08 1229.16,3080.75 1228.99,3078.63ZM1223.87,3014.31C1218.6,3019.64 1205.76,3027.38 1200.69,3032C1188.18,3029.77 1187.4,3033.31 1181.06,3043.85C1173.35,3056.64 1161.77,3077.7 1162.6,3099.51C1163.83,3132.22 1171.39,3153.49 1178.53,3173.99C1179.28,3176.16 1249.91,3108.3 1250.63,3110.22C1258.52,3122.61 1263.27,3125.49 1270.78,3134.04C1261.21,3153.39 1175.53,3227.73 1163.94,3216.97C1162.93,3216.04 1160.73,3212.95 1160.32,3212.07C1157.32,3205.62 1154.56,3199.06 1151.52,3192.62C1144.61,3177.97 1129.26,3136.07 1131.7,3087.7C1133.61,3049.85 1152.24,3025.6 1155.92,3018.66C1163.97,3003.47 1198.15,2988.59 1223.87,3014.31ZM1342.78,3198.04C1348.05,3192.71 1356.14,3183.62 1361.21,3178.15C1367,3181.79 1372.25,3175.23 1375.86,3169.23C1383.57,3156.43 1395.15,3135.38 1394.32,3113.56C1393.09,3080.86 1384.68,3050.34 1377.55,3029.84C1376.8,3027.68 1306.16,3102.95 1305.44,3101.02C1297.56,3088.64 1289.52,3083.2 1282.01,3074.65C1291.58,3055.3 1380.54,2976.1 1392.13,2986.86C1393.14,2987.8 1395.35,2990.89 1395.75,2991.76C1398.75,2998.22 1401.51,3004.78 1404.55,3011.22C1411.46,3025.87 1427.66,3077.01 1425.22,3125.38C1423.31,3163.23 1404.68,3187.48 1401,3194.42C1390.11,3214.96 1368.34,3216.93 1342.78,3198.04Z" style="fill:rgb(51,148,40);"/>
            <path d="M1370,3053.87C1386.91,3091.15 1377.4,3120.77 1376.68,3132.89C1375.08,3160.09 1360.1,3177.85 1340.83,3193.63C1325.98,3205.8 1310.27,3215.61 1290.4,3219.07C1264.04,3223.67 1238.36,3216.34 1217.61,3197.22L1250.63,3170.75C1276.46,3185.7 1307.14,3171.2 1324.77,3146.82C1339.62,3126.28 1340.84,3106.15 1333.93,3088.08L1370,3053.87ZM1223.87,3014.31C1218.6,3019.64 1205.76,3027.38 1200.69,3032C1188.18,3029.77 1187.4,3033.31 1181.06,3043.85C1173.35,3056.64 1161.77,3077.7 1162.6,3099.51C1163.83,3132.22 1171.39,3153.49 1178.53,3173.99C1179.28,3176.16 1249.91,3108.3 1250.63,3110.22C1258.52,3122.61 1263.27,3125.49 1270.78,3134.04C1261.21,3153.39 1175.53,3227.73 1163.94,3216.97C1162.93,3216.04 1160.73,3212.95 1160.32,3212.07C1157.32,3205.62 1154.56,3199.06 1151.52,3192.62C1144.61,3177.97 1129.26,3136.07 1131.7,3087.7C1133.61,3049.85 1152.24,3025.6 1155.92,3018.66C1163.97,3003.47 1198.15,2988.59 1223.87,3014.31ZM1342.78,3198.04C1348.05,3192.71 1356.14,3183.62 1361.21,3178.15C1367,3181.79 1372.25,3175.23 1375.86,3169.23C1383.57,3156.43 1395.15,3135.38 1394.32,3113.56C1393.09,3080.86 1384.68,3050.34 1377.55,3029.84C1376.8,3027.68 1306.16,3102.95 1305.44,3101.02C1297.56,3088.64 1289.52,3083.2 1282.01,3074.65C1291.58,3055.3 1380.54,2976.1 1392.13,2986.86C1393.14,2987.8 1395.35,2990.89 1395.75,2991.76C1398.75,2998.22 1401.51,3004.78 1404.55,3011.22C1411.46,3025.87 1427.66,3077.01 1425.22,3125.38C1423.31,3163.23 1404.68,3187.48 1401,3194.42C1390.11,3214.96 1368.34,3216.93 1342.78,3198.04ZM1364.64,3076.18C1371.28,3102.48 1364.75,3122.88 1364.2,3132.15C1362.83,3155.5 1349.44,3170.42 1332.91,3183.96C1319.73,3194.76 1305.89,3203.68 1288.25,3206.76C1270.48,3209.86 1253.09,3206.58 1237.83,3197.03C1237.83,3197.03 1252.33,3185.41 1252.33,3185.41C1281.91,3196.96 1315.28,3181.28 1334.9,3154.15C1350.53,3132.54 1353.35,3111.28 1348.22,3091.75L1364.64,3076.18ZM1202.71,3014.99C1200.75,3016.36 1198.82,3017.71 1197.08,3018.97C1191.86,3018.64 1188.17,3019.42 1185.18,3020.72C1179.86,3023.06 1176.07,3027.89 1170.35,3037.4C1161.71,3051.75 1149.18,3075.52 1150.1,3099.99C1151.4,3134.28 1159.24,3156.6 1166.72,3178.1C1167.92,3181.56 1170.18,3183.95 1173.38,3185.41C1174.54,3185.94 1180.82,3188.33 1187.91,3182.91C1196.2,3176.59 1230.86,3143.84 1248.32,3128.24C1250.5,3130.81 1252.57,3132.94 1254.75,3135.19C1252.64,3137.66 1250.02,3140.47 1247.07,3143.54C1230.53,3160.72 1203.65,3183.87 1183.5,3196.99C1179.17,3199.81 1173.8,3202.44 1170.38,3204.02C1167.85,3198.45 1165.44,3192.82 1162.83,3187.28C1156.31,3173.47 1141.88,3133.95 1144.18,3088.33C1145.95,3053.28 1163.56,3030.94 1166.97,3024.51C1168.44,3021.73 1171.55,3019.19 1175.33,3017.11C1182.69,3013.04 1192.81,3011.21 1202.71,3014.99ZM1385.79,3000.04C1388.29,3005.54 1390.67,3011.09 1393.25,3016.55C1399.79,3030.43 1415.05,3078.91 1412.74,3124.75C1410.97,3159.8 1393.36,3182.14 1389.95,3188.57C1387.39,3193.4 1384.04,3196.75 1379.7,3198C1374.57,3199.47 1368.75,3198.46 1362.33,3195.45L1362.33,3195.45C1363.47,3194.2 1364.59,3192.97 1365.67,3191.79C1368.44,3191.6 1371.14,3190.73 1373.76,3189.31C1378.56,3186.72 1383.23,3181.23 1386.57,3175.68C1395.21,3161.32 1407.74,3137.56 1406.82,3113.09C1405.52,3078.97 1396.79,3047.12 1389.35,3025.73C1388.04,3021.97 1385.54,3019.51 1382.05,3018.15C1380.93,3017.72 1374.43,3015.66 1367.58,3021.56C1359.28,3028.73 1324.48,3065.24 1307.07,3082.59C1304.05,3079.23 1301.05,3076.33 1298.09,3073.4C1300.29,3070.8 1303.04,3067.82 1306.15,3064.54C1323.26,3046.54 1351.18,3021.9 1372.05,3007.77C1376.6,3004.69 1382.21,3001.79 1385.79,3000.04ZM1212.99,3130.6C1211.21,3127.36 1211.77,3128.22 1210.44,3124.75C1200.19,3097.85 1215.23,3080.87 1233.01,3063.98C1238.54,3058.72 1245.05,3053.95 1251.91,3050.55C1252.76,3050.13 1277.47,3028.83 1277.43,3028.54C1272.75,3026.49 1255.51,3003.95 1252.27,3000.35C1246.3,3000.46 1222.25,3022.78 1217.68,3026.09C1196.3,3041.6 1179.9,3069.54 1173.66,3095.12C1167.05,3122.21 1173.03,3133.02 1186.94,3158.21L1212.99,3130.6ZM1228.99,3078.63C1228.54,3073.18 1249.71,3057.81 1254.08,3059.17C1256.84,3060.03 1325.58,3126.34 1325.88,3127.89C1326.28,3130 1309.98,3150.76 1305.58,3154.21C1296.84,3161.08 1229.16,3080.75 1228.99,3078.63ZM1252.01,3073.78C1265.21,3085.72 1296.26,3115.6 1310.03,3129.38C1307.73,3132.47 1304.87,3136.25 1302.43,3139.28C1298.89,3136.49 1293.75,3132.26 1289.62,3128.23C1273.81,3112.8 1254.61,3090.74 1245.03,3079.05L1252.01,3073.78ZM1249.62,3016.79C1252.49,3020.33 1255.87,3024.43 1259.03,3028.06C1253.65,3032.73 1247.48,3038.06 1245.16,3039.96C1237.63,3043.85 1230.5,3049.12 1224.4,3054.92C1203.13,3075.14 1186.76,3096.06 1198.3,3127.95L1189.74,3137.03C1183.65,3124.64 1181.63,3115.17 1185.8,3098.08C1191.39,3075.19 1205.89,3050.08 1225.02,3036.21C1227.75,3034.23 1241.71,3023.11 1249.62,3016.79ZM1245.64,2806.9C1208.39,2936.09 1322.84,2992.85 1330.64,3000.35L1298.8,3035.51C1249.19,2978.29 1217.21,2975.89 1186.62,2892.74C1176.6,2865.51 1178.73,2840.99 1186.85,2815.23C1188.95,2808.57 1191.1,2801.96 1193.72,2795.59C1216.58,2799.36 1231.84,2803.13 1245.64,2806.9ZM1230.43,2815.83C1205.77,2924.68 1283.08,2982.58 1311.97,3002.34C1311.97,3002.34 1298.83,3016.86 1298.83,3016.86C1282.57,2999.42 1268.23,2987.31 1255.16,2975.28C1233.52,2955.38 1215.72,2935.64 1198.35,2888.42C1189.38,2864.03 1191.5,2842.06 1198.77,2818.99C1199.76,2815.87 1200.75,2812.76 1201.8,2809.68C1213.01,2811.73 1222.21,2813.78 1230.43,2815.83L1230.43,2815.83ZM1368.44,2881.07C1368.44,2881.07 1358.36,2953.96 1312.18,2957.68L1337.35,2985.86C1342.25,2985.77 1364.82,2974.95 1376.19,2956.92C1378.66,2953 1382.78,2942.76 1392.05,2961.55C1398.66,2934.46 1382.35,2906.26 1368.44,2881.07ZM1380.03,2938.24C1377.69,2938.6 1375.51,2939.51 1373.48,2940.87C1370.23,2943.04 1367.41,2947.41 1365.62,2950.26C1359.82,2959.44 1347.56,2967.18 1340.79,2970.95L1334.53,2963.94C1346.5,2957.61 1355.77,2947.19 1362.7,2935.46C1366.6,2928.86 1369.73,2921.88 1372.22,2915.24L1372.22,2915.24C1373.67,2918.44 1375.02,2921.66 1376.21,2924.91C1377.83,2929.33 1379.18,2933.79 1380.03,2938.24ZM1269.51,2811.01C1303.02,2804.93 1331.87,2797.5 1364.51,2784.34C1410.02,2834.93 1441.83,2857.12 1423.15,2922.77C1377.16,2840.96 1316.22,2833.22 1269.51,2811.01ZM1083.85,2739.48C1064.33,2728.18 1060.39,2723.17 1044.74,2700.42C1013.6,2746.36 995.833,2879.77 1042.44,2922.77C1041.97,2817.52 1049.47,2789.55 1083.85,2739.48ZM1148.56,2778.11C1130.97,2770.59 1109.96,2763.02 1092.82,2746.74C1059.12,2803.87 1045.1,2896.74 1077.66,2922.77C1088.92,2833.2 1116.36,2811.23 1148.56,2778.11ZM1039.47,2688.08C1033.36,2677.27 1021.36,2647.53 1014.48,2633.78C1008.07,2644.86 998.065,2667.91 992.387,2683.3C968.877,2747.06 957.254,2834.63 1016.64,2922.77C987.197,2842.52 1000,2725.41 1039.47,2688.08ZM1489.11,2688.08C1495.23,2677.27 1507.23,2647.53 1514.1,2633.78C1520.51,2644.86 1530.52,2667.91 1536.2,2683.3C1559.71,2747.06 1571.33,2834.63 1511.94,2922.77C1541.39,2842.52 1528.58,2725.41 1489.11,2688.08ZM1443.18,2739.48C1462.71,2728.18 1466.64,2723.17 1482.3,2700.42C1513.44,2746.36 1531.2,2879.77 1484.59,2922.77C1485.06,2817.52 1477.57,2789.55 1443.18,2739.48ZM1378.48,2778.11C1396.06,2770.59 1417.07,2763.02 1434.22,2746.74C1467.92,2803.87 1481.93,2896.74 1449.37,2922.77C1438.11,2833.2 1410.68,2811.23 1378.48,2778.11ZM1170.09,2850.71C1166.26,2838.61 1178.57,2806.39 1180.64,2793.2C1175.67,2791.67 1170.77,2789.97 1165.98,2788.04C1112.45,2835.11 1091.6,2861.7 1099.88,2922.77C1125.33,2889.92 1146.26,2864.51 1170.09,2850.71ZM1311.25,2814.87C1327.8,2810.68 1344,2805.64 1361.05,2799.12C1372.32,2811.41 1382.59,2822.04 1391.24,2832.23C1406.27,2849.93 1415.88,2866.11 1415.91,2888.74C1383.15,2845.23 1345.68,2828.59 1311.25,2814.87L1311.25,2814.87ZM1164.74,2805.88C1162.33,2814.59 1159.42,2824.72 1157.96,2833.37C1157.31,2837.25 1156.96,2840.91 1156.93,2844.23C1141.48,2854.72 1126.85,2869.79 1111.26,2888.49C1114.5,2856.46 1132.18,2835.26 1164.74,2805.88ZM1400.22,2782.42C1410.25,2777.98 1420.61,2772.85 1430.39,2765.96C1445.57,2796.73 1455.12,2834.77 1455.31,2866.1C1455.34,2871.18 1455.17,2876.09 1454.74,2880.72C1442.69,2828.85 1423.11,2805.9 1400.22,2782.42L1400.22,2782.42ZM1126.82,2782.42C1103.93,2805.9 1084.34,2828.85 1072.3,2880.72C1071.86,2876.09 1071.69,2871.18 1071.72,2866.1C1071.92,2834.77 1081.47,2796.73 1096.65,2765.96C1106.43,2772.85 1116.79,2777.98 1126.82,2782.42L1126.82,2782.42ZM1460.78,2743.31C1469.04,2737.72 1474.3,2732.57 1480.86,2723.99C1493.66,2753.19 1501.92,2798.19 1500.4,2838.68C1499.95,2850.55 1498.73,2862.05 1496.45,2872.6C1494.09,2808.74 1484.85,2780.48 1460.78,2743.31ZM1066.26,2743.31C1042.19,2780.48 1032.95,2808.74 1030.59,2872.59C1028.31,2862.05 1027.09,2850.55 1026.64,2838.68C1025.11,2798.19 1033.38,2753.19 1046.18,2723.99C1052.74,2732.57 1058,2737.72 1066.26,2743.31ZM1504.18,2685.99C1507.26,2679.49 1510.91,2671.19 1514.49,2663.07C1518.21,2671.55 1521.82,2680.46 1524.47,2687.63C1537.93,2724.14 1547.38,2768.86 1540.49,2816.97C1540.15,2797.69 1538.27,2778.82 1534.96,2761.38C1529.01,2729.98 1518.25,2703.17 1504.18,2685.99ZM1024.41,2685.99C1010.33,2703.17 999.577,2729.98 993.623,2761.38C990.314,2778.82 988.429,2797.69 988.096,2816.97C981.202,2768.86 990.651,2724.14 1004.12,2687.63C1006.76,2680.46 1010.37,2671.55 1014.1,2663.07C1017.67,2671.19 1021.32,2679.49 1024.41,2685.99ZM1266.63,2743.5C1272.17,2743.14 1277.69,2742.54 1283.12,2741.76C1319.24,2736.61 1372.37,2728.14 1429.2,2679.49C1435.69,2673.94 1453.88,2654.09 1456.75,2638.66C1458.9,2627.12 1450.73,2615.14 1432.22,2629.3C1424.8,2606.94 1445.65,2586.25 1454.77,2584.17C1472.27,2580.16 1492.83,2563.15 1556.72,2575.87C1562.06,2608.98 1571.78,2641.52 1569.99,2726.62C1563.53,2731.4 1531.28,2625.68 1511.96,2613.6C1492.65,2642.26 1494.04,2651.73 1482.45,2675.98C1460.54,2721.83 1366.91,2794.37 1266.15,2794.86C1164.74,2795.36 1072.8,2735.39 1047.49,2682.42C1035.9,2658.18 1037.29,2643.26 1017.98,2614.6C998.664,2626.68 966.409,2732.4 959.945,2727.62C958.16,2642.52 967.884,2609.98 973.223,2576.87C1037.11,2564.15 1057.67,2581.16 1075.17,2585.17C1084.29,2587.25 1105.14,2607.94 1097.72,2630.3C1079.21,2616.14 1071.04,2628.12 1073.19,2639.66C1076.06,2655.09 1094.25,2674.94 1100.74,2680.49C1157.57,2729.14 1210.7,2737.61 1246.82,2742.76C1248.78,2743.04 1254.58,2743.67 1266.63,2743.5ZM1556.75,2668.91C1551.35,2656.59 1545.7,2644.11 1540.89,2634.33C1533.19,2618.66 1524.92,2606.96 1518.59,2603L1508.34,2596.59L1501.59,2606.61C1481.77,2636.04 1483.06,2645.7 1471.17,2670.59C1463.04,2687.62 1444,2708.38 1418.4,2727.47C1378.93,2756.89 1323.76,2782.08 1266.09,2782.36C1170.18,2782.83 1082.71,2727.13 1058.77,2677.03C1046.9,2652.19 1048.13,2636.99 1028.35,2607.61L1021.6,2597.59L1011.35,2604C1005.02,2607.96 996.749,2619.66 989.049,2635.33C984.242,2645.11 978.592,2657.59 973.194,2669.91C975.259,2631.55 980.272,2608.73 984.066,2587.59C1038.14,2578.61 1056.57,2593.73 1072.38,2597.35C1074.39,2597.81 1076.99,2600.46 1079.66,2603.61C1081.55,2605.84 1083.38,2608.49 1084.72,2611.43C1078.97,2611.02 1074.31,2612.63 1070.87,2614.88C1063.02,2620.01 1058.84,2630.86 1060.9,2641.95C1064.26,2659.98 1085.03,2683.5 1092.61,2689.98C1151.94,2740.78 1207.34,2749.76 1245.05,2755.14C1247.21,2755.45 1253.58,2756.18 1266.79,2756L1267.12,2756L1267.45,2755.98C1273.32,2755.59 1279.15,2754.96 1284.89,2754.14C1322.6,2748.76 1378,2739.78 1437.33,2688.98C1444.91,2682.5 1465.68,2658.98 1469.04,2640.95C1471.1,2629.86 1466.92,2619.01 1459.07,2613.88C1455.63,2611.63 1450.97,2610.02 1445.22,2610.43C1446.56,2607.49 1448.38,2604.84 1450.28,2602.61C1452.95,2599.46 1455.55,2596.81 1457.56,2596.35C1473.37,2592.73 1491.79,2577.61 1545.87,2586.59C1549.67,2607.73 1554.68,2630.55 1556.75,2668.91ZM1213.38,2723.45C1219.3,2663.78 1262.21,2639.37 1273.15,2631.25C1302.73,2609.31 1263.27,2568.53 1252.03,2587.88C1247.49,2595.68 1217.38,2613.39 1201.77,2612.02C1172.69,2609.45 1177.94,2650.1 1177.94,2650.1C1144.76,2630.42 1138.77,2607.97 1152.16,2590.3C1161.55,2577.91 1194.72,2566.31 1195.15,2555.86C1185.14,2554.66 1186.13,2537.63 1193.38,2530.07C1200.39,2522.77 1232.18,2503.66 1251.51,2503.35C1270.84,2503.04 1281.88,2494.99 1258.04,2481.57C1310.71,2466.34 1371.33,2489.24 1385.43,2507.54C1332.54,2500.19 1305.58,2503.35 1310.05,2526.09C1319.26,2532.55 1339,2534.16 1334.14,2512.92C1341.34,2514.6 1347.23,2519.36 1351.63,2529.96C1372.2,2522.45 1388.85,2531.7 1399.7,2552.43C1371.46,2545.62 1340.55,2571.87 1340.34,2573.38C1339.25,2581.25 1352.7,2598.56 1347.95,2612.51C1342.06,2629.78 1288.37,2671.12 1264.29,2729.14C1235.67,2734.89 1228.44,2727.87 1213.38,2723.45ZM1327.61,2492.75C1322.4,2493.49 1318.01,2494.61 1314.47,2496.14C1307.47,2499.15 1302.78,2503.58 1299.99,2508.99C1297.27,2514.24 1296.24,2520.67 1297.78,2528.49L1298.75,2533.43L1302.86,2536.32C1307.93,2539.87 1315.07,2542.47 1321.8,2542.82C1327.47,2543.12 1332.84,2541.85 1337.11,2539.15C1338.37,2538.35 1339.6,2537.41 1340.74,2536.32L1344.67,2545.8L1355.92,2541.7C1362.01,2539.48 1367.51,2539.57 1372.39,2541.52C1356.42,2545.93 1342.6,2554.89 1335.99,2560.28C1332.09,2563.46 1330.05,2566.16 1329.55,2567.03C1328.48,2568.9 1328.12,2570.52 1327.96,2571.66C1327.32,2576.27 1329.19,2583.31 1332.3,2591.14C1333.65,2594.55 1335.16,2598.28 1335.98,2602.05C1336.46,2604.23 1336.82,2606.42 1336.12,2608.47C1334.05,2614.54 1324.74,2623.55 1313.6,2635.96C1294.95,2656.72 1270.84,2684.58 1255.53,2717.97C1241.67,2719.93 1234.34,2717.79 1227.17,2715.12L1227.17,2715.12C1235.9,2667.88 1271.27,2648.21 1280.6,2641.29C1310.68,2618.97 1292.44,2583.15 1272.69,2573.37C1265.78,2569.95 1258.76,2569.48 1252.85,2571.63C1248.45,2573.23 1244.42,2576.25 1241.4,2581.3C1241.02,2581.63 1235.27,2586.54 1230.47,2589.41C1221.62,2594.69 1210.3,2600.22 1202.87,2599.56C1193.58,2598.74 1186.56,2600.99 1181.16,2604.61C1173.7,2609.62 1169.18,2617.75 1167,2626.39C1157.17,2616.49 1155.38,2606.75 1162.12,2597.85C1164.68,2594.48 1169.7,2591.44 1174.9,2588.24C1181.9,2583.91 1189.4,2579.68 1194.89,2575.61C1203.27,2569.4 1207.4,2562.2 1207.64,2556.36L1208.1,2544.81L1200.39,2543.89C1200.42,2543.55 1200.46,2543.21 1200.52,2542.93C1200.84,2541.38 1201.39,2539.78 1202.4,2538.72C1206.06,2534.91 1217.64,2527.65 1229.82,2522.2C1237.47,2518.77 1245.37,2515.95 1251.71,2515.85C1263.46,2515.66 1272.84,2512.53 1277.51,2508.65C1282.15,2504.78 1284.22,2499.96 1284.11,2494.68C1284.07,2493.2 1283.77,2491.48 1283.08,2489.59C1298.43,2488.2 1313.77,2489.67 1327.61,2492.75Z"/>
        </g>
        <g transform="matrix(0.928214,0,0,0.928214,83.406,27.5544)">
            <path d="M1226.1,2673.6C1233.92,2661.81 1255.2,2661.87 1255.2,2661.87C1255.2,2661.87 1246.34,2682.42 1240.73,2686.83C1228.47,2696.46 1215.76,2699.44 1215.76,2699.44C1215.76,2699.44 1218.3,2685.37 1226.1,2673.6Z" style="fill:rgb(51,148,40);"/>
            <path d="M1226.1,2673.6C1233.92,2661.81 1255.2,2661.87 1255.2,2661.87C1255.2,2661.87 1246.34,2682.42 1240.73,2686.83C1228.47,2696.46 1215.76,2699.44 1215.76,2699.44C1215.76,2699.44 1218.3,2685.37 1226.1,2673.6Z"/>
        </g>
    </g>
</svg>
