<?xml version="1.0" encoding="UTF-8" standalone="no"?>
<!DOCTYPE svg PUBLIC "-//W3C//DTD SVG 1.1//EN" "http://www.w3.org/Graphics/SVG/1.1/DTD/svg11.dtd">
<svg width="100%" height="100%" viewBox="0 0 2550 3300" version="1.1" xmlns="http://www.w3.org/2000/svg" xmlns:xlink="http://www.w3.org/1999/xlink" xml:space="preserve" xmlns:serif="http://www.serif.com/" style="fill-rule:evenodd;clip-rule:evenodd;stroke-linejoin:round;stroke-miterlimit:2;">
    <g transform="matrix(1.00594,0,0,1.00594,-11.9219,18.9926)">
        <g transform="matrix(0.928214,0,0,0.928214,83.406,168.127)">
            <path d="M1217,3155.31C1215.09,3151.84 1215.68,3152.77 1214.27,3149.04C1203.28,3120.24 1219.4,3102.06 1238.44,3083.96C1244.36,3078.33 1251.33,3073.21 1258.68,3069.58C1259.59,3069.12 1286.05,3046.32 1286.01,3046C1281,3043.82 1262.53,3019.67 1259.07,3015.82C1252.67,3015.94 1226.91,3039.84 1222.02,3043.38C1199.12,3059.99 1181.56,3089.91 1174.87,3117.31C1167.79,3146.32 1174.2,3157.9 1189.1,3184.88L1217,3155.31Z" style="fill:rgb(51,148,40);"/>
            <path d="M1217,3155.31C1215.09,3151.84 1215.68,3152.77 1214.27,3149.04C1203.28,3120.24 1219.4,3102.06 1238.44,3083.96C1244.36,3078.33 1251.33,3073.21 1258.68,3069.58C1259.59,3069.12 1286.05,3046.32 1286.01,3046C1281,3043.82 1262.53,3019.67 1259.07,3015.82C1252.67,3015.94 1226.91,3039.84 1222.02,3043.38C1199.12,3059.99 1181.56,3089.91 1174.87,3117.31C1167.79,3146.32 1174.2,3157.9 1189.1,3184.88L1217,3155.31ZM1256.23,3033.42C1259.3,3037.21 1262.92,3041.61 1266.31,3045.49C1260.54,3050.49 1253.93,3056.2 1251.45,3058.24C1243.39,3062.41 1235.75,3068.05 1229.21,3074.26C1206.43,3095.91 1188.9,3118.31 1201.26,3152.48L1192.1,3162.19C1185.57,3148.93 1183.41,3138.78 1187.88,3120.48C1193.86,3095.97 1209.39,3069.08 1229.88,3054.22C1232.81,3052.1 1247.76,3040.19 1256.23,3033.42Z"/>
        </g>
        <g transform="matrix(-0.928214,1.11022e-16,-1.11022e-16,-0.928214,2505.34,5752.37)">
            <path d="M1225.76,3128.05C1225.76,3128.05 1236.56,3049.98 1286.01,3046L1259.07,3015.82C1253.82,3015.91 1229.64,3027.5 1217.46,3046.81C1214.82,3051.01 1210.41,3061.98 1200.48,3041.85C1193.4,3070.87 1210.87,3101.07 1225.76,3128.05Z" style="fill:rgb(51,148,40);"/>
            <path d="M1225.76,3128.05C1225.76,3128.05 1236.56,3049.98 1286.01,3046L1259.07,3015.82C1253.82,3015.91 1229.64,3027.5 1217.46,3046.81C1214.82,3051.01 1210.41,3061.98 1200.48,3041.85C1193.4,3070.87 1210.87,3101.07 1225.76,3128.05ZM1213.35,3066.81C1215.86,3066.43 1218.19,3065.46 1220.36,3064.01C1223.84,3061.68 1226.86,3057 1228.79,3053.95C1234.99,3044.11 1248.12,3035.83 1255.37,3031.78L1262.08,3039.29C1249.27,3046.07 1239.33,3057.24 1231.91,3069.79C1227.73,3076.87 1224.38,3084.34 1221.72,3091.45L1221.72,3091.45C1220.16,3088.02 1218.72,3084.57 1217.45,3081.1C1215.7,3076.36 1214.27,3071.59 1213.35,3066.81Z"/>
        </g>
        <g transform="matrix(0.928214,0,0,0.928214,83.406,76.6687)">
            <path d="M1029.83,2744.24C1016.31,2720.35 1010.5,2700.86 1016.46,2663.77C988.026,2721.64 912.65,2857.98 1005.38,2995.59C973.843,2909.65 987.555,2784.22 1029.83,2744.24Z" style="fill:rgb(51,148,40);"/>
            <path d="M1029.83,2744.24C1016.31,2720.35 1010.5,2700.86 1016.46,2663.77C988.026,2721.64 912.65,2857.98 1005.38,2995.59C973.843,2909.65 987.555,2784.22 1029.83,2744.24ZM1013.53,2742.21C998.537,2760.61 987.078,2789.24 980.725,2822.74C977.584,2839.3 975.642,2857.06 974.992,2875.25C969.182,2815.56 986.592,2761.05 1004.51,2719.75C1006.69,2727.45 1009.73,2734.74 1013.53,2742.21Z"/>
        </g>
        <g transform="matrix(0.928214,0,0,0.928214,83.406,76.6687)">
            <path d="M1079.02,2799.3C1058.11,2787.19 1053.89,2781.82 1037.12,2757.46C1003.77,2806.66 984.748,2949.54 1034.67,2995.59C1034.16,2882.87 1042.19,2852.91 1079.02,2799.3Z" style="fill:rgb(51,148,40);"/>
            <path d="M1079.02,2799.3C1058.11,2787.19 1053.89,2781.82 1037.12,2757.46C1003.77,2806.66 984.748,2949.54 1034.67,2995.59C1034.16,2882.87 1042.19,2852.91 1079.02,2799.3ZM1060.17,2803.39C1034.39,2843.2 1024.5,2873.47 1021.97,2941.86C1019.53,2930.56 1018.22,2918.24 1017.74,2905.54C1016.11,2862.17 1024.96,2813.98 1038.67,2782.7C1045.69,2791.89 1051.33,2797.41 1060.17,2803.39Z"/>
        </g>
        <g transform="matrix(0.928214,0,0,0.928214,83.406,76.6687)">
            <path d="M1148.31,2840.66C1129.48,2832.61 1106.98,2824.51 1088.62,2807.07C1052.52,2868.25 1037.51,2967.72 1072.39,2995.59C1084.45,2899.66 1113.83,2876.14 1148.31,2840.66Z" style="fill:rgb(51,148,40);"/>
            <path d="M1148.31,2840.66C1129.48,2832.61 1106.98,2824.51 1088.62,2807.07C1052.52,2868.25 1037.51,2967.72 1072.39,2995.59C1084.45,2899.66 1113.83,2876.14 1148.31,2840.66ZM1125.03,2845.28C1100.51,2870.42 1079.54,2895.01 1066.64,2950.56C1066.17,2945.6 1065.99,2940.34 1066.03,2934.89C1066.24,2901.34 1076.46,2860.6 1092.72,2827.65C1103.19,2835.03 1114.29,2840.53 1125.03,2845.28L1125.03,2845.28Z"/>
        </g>
        <g transform="matrix(-1.77044,0,0.00389414,0.750482,3268.53,613.485)">
            <path d="M1135.35,2841.68C1116.52,2833.63 1100.3,2823.79 1081.94,2806.35C1056.53,2873.37 1038.73,2902.76 1049.41,2989.72C1075,2881.36 1109.19,2871.11 1135.35,2841.68Z" style="fill:rgb(51,148,40);"/>
            <path d="M1135.35,2841.68C1116.52,2833.63 1100.3,2823.79 1081.94,2806.35C1056.53,2873.37 1038.73,2902.76 1049.41,2989.72C1075,2881.36 1109.19,2871.11 1135.35,2841.68ZM1111.93,2846.79C1102.62,2841.25 1093.51,2834.58 1083.92,2825.94C1077.63,2842.21 1071.89,2856.3 1067.06,2869.8C1058.67,2893.24 1053.33,2914.67 1053.38,2944.64C1071.64,2887.02 1092.63,2864.98 1111.93,2846.79L1111.93,2846.79Z"/>
        </g>
        <g transform="matrix(1.77044,0,-0.122773,0.698139,-412.584,759.49)">
            <path d="M1095.54,2902.14C1092.19,2884.91 1095.92,2839.03 1095.78,2820.25C1092.84,2818.07 1089.92,2815.64 1087.04,2812.91C1061.63,2879.92 1052.55,2917.78 1063.23,3004.75C1074.28,2957.97 1083.52,2921.78 1095.54,2902.14Z" style="fill:rgb(51,148,40);"/>
            <path d="M1095.54,2902.14C1092.19,2884.91 1095.92,2839.03 1095.78,2820.25C1092.84,2818.07 1089.92,2815.64 1087.04,2812.91C1061.63,2879.92 1052.55,2917.78 1063.23,3004.75C1074.28,2957.97 1083.52,2921.78 1095.54,2902.14ZM1088.1,2838.31C1087.61,2850.7 1086.98,2865.12 1087.01,2877.45C1087.03,2882.97 1087.2,2888.19 1087.51,2892.91C1079.87,2907.84 1073.14,2929.31 1066.23,2955.93C1064.89,2910.33 1072.72,2880.14 1088.1,2838.31Z"/>
        </g>
        <g transform="matrix(-0.928214,0,0,0.928214,2431.2,76.6687)">
            <path d="M1016.33,2744.24C1002.81,2720.35 996.998,2700.86 1002.97,2663.77C974.528,2721.64 899.153,2857.98 991.879,2995.59C960.346,2909.65 974.058,2784.22 1016.33,2744.24Z" style="fill:rgb(51,148,40);"/>
            <path d="M1016.33,2744.24C1002.81,2720.35 996.998,2700.86 1002.97,2663.77C974.528,2721.64 899.153,2857.98 991.879,2995.59C960.346,2909.65 974.058,2784.22 1016.33,2744.24ZM1000.03,2742.21C996.23,2734.74 993.188,2727.45 991.019,2719.75C973.095,2761.05 955.684,2815.56 961.495,2875.25C962.144,2857.06 964.087,2839.3 967.228,2822.74C973.581,2789.24 985.04,2760.61 1000.03,2742.21Z"/>
        </g>
        <g transform="matrix(-0.928214,0,0,0.928214,2431.2,76.6687)">
            <path d="M1065.52,2799.3C1044.61,2787.19 1040.39,2781.82 1023.62,2757.46C990.275,2806.66 971.251,2949.54 1021.17,2995.59C1020.67,2882.87 1028.7,2852.91 1065.52,2799.3Z" style="fill:rgb(51,148,40);"/>
            <path d="M1065.52,2799.3C1044.61,2787.19 1040.39,2781.82 1023.62,2757.46C990.275,2806.66 971.251,2949.54 1021.17,2995.59C1020.67,2882.87 1028.7,2852.91 1065.52,2799.3ZM1046.68,2803.39C1037.83,2797.41 1032.2,2791.89 1025.17,2782.7C1011.46,2813.98 1002.61,2862.17 1004.24,2905.54C1004.72,2918.24 1006.03,2930.56 1008.47,2941.86C1011,2873.47 1020.89,2843.2 1046.68,2803.39Z"/>
        </g>
        <g transform="matrix(-0.928214,0,0,0.928214,2431.2,76.6687)">
            <path d="M1134.82,2840.66C1115.98,2832.61 1093.48,2824.51 1075.12,2807.07C1039.03,2868.25 1024.02,2967.72 1058.89,2995.59C1070.95,2899.66 1100.33,2876.14 1134.82,2840.66Z" style="fill:rgb(51,148,40);"/>
            <path d="M1134.82,2840.66C1115.98,2832.61 1093.48,2824.51 1075.12,2807.07C1039.03,2868.25 1024.02,2967.72 1058.89,2995.59C1070.95,2899.66 1100.33,2876.14 1134.82,2840.66ZM1111.53,2845.28C1100.8,2840.53 1089.7,2835.03 1079.22,2827.65C1062.96,2860.6 1052.74,2901.34 1052.53,2934.89C1052.5,2940.34 1052.68,2945.6 1053.14,2950.56C1066.04,2895.01 1087.02,2870.42 1111.53,2845.28L1111.53,2845.28Z"/>
        </g>
        <g transform="matrix(0.928214,0,0,0.928214,83.406,76.6687)">
            <path d="M1252.29,2871.49C1212.39,3009.86 1334.64,3106.31 1342.99,3114.35L1308.9,3152C1255.77,3090.72 1221.84,3052.49 1189.08,2963.43C1178.35,2934.26 1180.63,2908 1189.32,2880.42C1191.57,2873.29 1193.87,2866.21 1196.68,2859.38C1221.17,2863.42 1237.51,2867.46 1252.29,2871.49Z" style="fill:rgb(51,148,40);"/>
            <path d="M1252.29,2871.49C1212.39,3009.86 1334.64,3106.31 1342.99,3114.35L1308.9,3152C1255.77,3090.72 1221.84,3052.49 1189.08,2963.43C1178.35,2934.26 1180.63,2908 1189.32,2880.42C1191.57,2873.29 1193.87,2866.21 1196.68,2859.38C1221.17,2863.42 1237.51,2867.46 1252.29,2871.49ZM1236.03,2881.07C1209.51,2999.97 1294.11,3087.61 1324.07,3115.3C1324.07,3115.3 1309.12,3131.82 1309.12,3131.82C1262.7,3078.21 1231.62,3040.29 1201.64,2958.81C1192.03,2932.68 1194.3,2909.15 1202.09,2884.44C1203.14,2881.1 1204.21,2877.77 1205.34,2874.47C1217.35,2876.67 1227.21,2878.87 1236.03,2881.07L1236.03,2881.07Z"/>
        </g>
        <g transform="matrix(0.928214,0,0,0.928214,83.406,76.6687)">
            <path d="M1228.06,2788.27C1247.76,2774.16 1270.03,2744.99 1281.75,2736.3C1313.43,2712.79 1271.17,2669.13 1259.13,2689.84C1254.27,2698.2 1222.02,2717.17 1205.3,2715.69C1174.16,2712.94 1179.79,2756.48 1179.79,2756.48C1144.24,2735.41 1137.83,2711.36 1152.17,2692.43C1162.23,2679.17 1197.76,2666.75 1198.21,2655.55C1187.5,2654.27 1188.56,2636.02 1196.32,2627.93C1203.82,2620.11 1237.87,2599.65 1258.57,2599.32C1279.28,2598.99 1291.1,2590.37 1265.57,2575.99C1321.97,2559.68 1386.9,2584.2 1401.99,2603.8C1345.36,2595.93 1316.48,2599.31 1321.26,2623.66C1331.13,2630.59 1352.27,2632.31 1347.07,2609.57C1354.78,2611.36 1361.09,2616.46 1365.8,2627.81C1387.84,2619.77 1405.66,2629.67 1417.28,2651.88C1387.04,2644.59 1353.93,2672.69 1353.71,2674.31C1352.54,2682.75 1366.95,2701.28 1361.86,2716.22C1355.55,2734.72 1318.51,2768.06 1300.01,2787.07C1269.36,2793.23 1244.19,2793 1228.06,2788.27Z" style="fill:rgb(51,148,40);"/>
            <path d="M1228.06,2788.27C1247.76,2774.16 1270.03,2744.99 1281.75,2736.3C1313.43,2712.79 1271.17,2669.13 1259.13,2689.84C1254.27,2698.2 1222.02,2717.17 1205.3,2715.69C1174.16,2712.94 1179.79,2756.48 1179.79,2756.48C1144.24,2735.41 1137.83,2711.36 1152.17,2692.43C1162.23,2679.17 1197.76,2666.75 1198.21,2655.55C1187.5,2654.27 1188.56,2636.02 1196.32,2627.93C1203.82,2620.11 1237.87,2599.65 1258.57,2599.32C1279.28,2598.99 1291.1,2590.37 1265.57,2575.99C1321.97,2559.68 1386.9,2584.2 1401.99,2603.8C1345.36,2595.93 1316.48,2599.31 1321.26,2623.66C1331.13,2630.59 1352.27,2632.31 1347.07,2609.57C1354.78,2611.36 1361.09,2616.46 1365.8,2627.81C1387.84,2619.77 1405.66,2629.67 1417.28,2651.88C1387.04,2644.59 1353.93,2672.69 1353.71,2674.31C1352.54,2682.75 1366.95,2701.28 1361.86,2716.22C1355.55,2734.72 1318.51,2768.06 1300.01,2787.07C1269.36,2793.23 1244.19,2793 1228.06,2788.27ZM1340.07,2587.97C1334.49,2588.75 1329.8,2589.96 1326.01,2591.59C1318.5,2594.82 1313.48,2599.56 1310.49,2605.35C1307.58,2610.98 1306.48,2617.87 1308.13,2626.24L1309.16,2631.53L1313.57,2634.62C1318.99,2638.43 1326.64,2641.22 1333.85,2641.59C1339.93,2641.91 1345.68,2640.55 1350.25,2637.65C1351.6,2636.8 1352.91,2635.8 1354.13,2634.62L1358.35,2644.78L1370.39,2640.39C1376.91,2638.01 1382.8,2638.1 1388.04,2640.19C1370.93,2644.92 1356.13,2654.51 1349.05,2660.28C1344.87,2663.69 1342.69,2666.59 1342.16,2667.51C1341,2669.52 1340.62,2671.25 1340.45,2672.47C1339.77,2677.41 1341.77,2684.95 1345.1,2693.34C1346.54,2696.99 1348.16,2700.98 1349.04,2705.02C1349.55,2707.35 1349.93,2709.71 1349.19,2711.9C1347.07,2718.12 1340.46,2726.1 1332.72,2734.75C1320.21,2748.72 1304.41,2763.63 1293.39,2774.72C1280.64,2777.09 1269,2778.29 1258.8,2778.42L1258.8,2778.42C1271.09,2765.73 1282.44,2752.45 1289.73,2747.05C1321.94,2723.15 1302.4,2684.78 1281.25,2674.3C1273.86,2670.64 1266.33,2670.14 1260.01,2672.44C1255.29,2674.16 1250.98,2677.39 1247.75,2682.8C1247.34,2683.15 1241.18,2688.41 1236.04,2691.48C1226.56,2697.14 1214.44,2703.06 1206.48,2702.36C1196.54,2701.48 1189.01,2703.88 1183.23,2707.77C1175.24,2713.13 1170.4,2721.83 1168.06,2731.09C1157.54,2720.49 1155.62,2710.05 1162.84,2700.52C1165.58,2696.91 1170.95,2693.66 1176.52,2690.22C1184.03,2685.6 1192.06,2681.06 1197.94,2676.7C1206.91,2670.05 1211.33,2662.35 1211.58,2656.09L1212.09,2643.72L1203.83,2642.74C1203.86,2642.36 1203.9,2642 1203.96,2641.7C1204.3,2640.04 1204.89,2638.33 1205.98,2637.2C1209.9,2633.12 1222.3,2625.34 1235.35,2619.5C1243.54,2615.83 1252,2612.81 1258.79,2612.7C1271.37,2612.5 1281.42,2609.15 1286.42,2604.99C1291.39,2600.85 1293.61,2595.69 1293.48,2590.03C1293.45,2588.45 1293.12,2586.61 1292.38,2584.58C1308.82,2583.09 1325.25,2584.66 1340.07,2587.97Z"/>
        </g>
        <g transform="matrix(0.928214,0,0,0.928214,83.406,76.6687)">
            <path d="M1292.43,2801.74C1331.11,2796.22 1388.01,2787.15 1448.88,2735.04C1455.82,2729.1 1475.3,2707.84 1478.38,2691.32C1480.68,2678.96 1471.93,2666.13 1452.11,2681.29C1444.16,2657.34 1466.28,2633.86 1476.26,2632.95C1506.52,2630.22 1527.08,2692.8 1505.9,2737.11C1472.82,2806.36 1348.58,2859.15 1271.84,2859.16C1268.04,2859.16 1184.92,2842.93 1176.99,2840.05C1174.81,2839.71 1172.6,2839.14 1170.39,2838.3C1112.81,2816.68 1057.22,2780.06 1036.7,2737.11C1016.67,2695.18 1037.18,2632.34 1063.72,2629.89C1074.48,2628.89 1099.2,2634.53 1093.73,2674.88C1085.17,2667.17 1076.39,2668.69 1073.12,2670.12C1049.06,2680.68 1083.05,2725.9 1093.73,2735.04C1137,2772.08 1184.71,2786.91 1217.67,2797.65C1241.4,2805.38 1267.72,2805.26 1292.43,2801.74Z" style="fill:rgb(51,148,40);"/>
            <path d="M1292.43,2801.74C1331.11,2796.22 1388.01,2787.15 1448.88,2735.04C1455.82,2729.1 1475.3,2707.84 1478.38,2691.32C1480.68,2678.96 1471.93,2666.13 1452.11,2681.29C1444.16,2657.34 1466.28,2633.86 1476.26,2632.95C1506.52,2630.22 1527.08,2692.8 1505.9,2737.11C1472.82,2806.36 1348.58,2859.15 1271.84,2859.16C1268.04,2859.16 1184.92,2842.93 1176.99,2840.05C1174.81,2839.71 1172.6,2839.14 1170.39,2838.3C1112.81,2816.68 1057.22,2780.06 1036.7,2737.11C1016.67,2695.18 1037.18,2632.34 1063.72,2629.89C1074.48,2628.89 1099.2,2634.53 1093.73,2674.88C1085.17,2667.17 1076.39,2668.69 1073.12,2670.12C1049.06,2680.68 1083.05,2725.9 1093.73,2735.04C1137,2772.08 1184.71,2786.91 1217.67,2797.65C1241.4,2805.38 1267.72,2805.26 1292.43,2801.74ZM1294.32,2814.99C1334.7,2809.23 1394.04,2799.61 1457.58,2745.21C1465.7,2738.26 1487.94,2713.08 1491.54,2693.77C1493.75,2681.89 1489.27,2670.27 1480.86,2664.77C1477.13,2662.34 1472.06,2660.6 1465.81,2661.1C1467.24,2657.69 1469.28,2654.61 1471.42,2652.06C1473.5,2649.58 1477.28,2646.88 1478.17,2646.26C1480.52,2646.26 1482.66,2647.36 1484.64,2648.94C1488.27,2651.84 1491.29,2656.25 1493.8,2661.47C1502.74,2680.08 1504.72,2708.53 1493.83,2731.34C1481.57,2756.99 1455.49,2779.88 1424.44,2798.5C1376.29,2827.38 1315.91,2845.77 1271.84,2845.78C1268.22,2845.78 1189.11,2830.2 1181.56,2827.46L1180.33,2827.02L1179.05,2826.82C1177.74,2826.62 1176.42,2826.27 1175.09,2825.77C1120.94,2805.43 1068.09,2771.74 1048.78,2731.34C1038.41,2709.64 1040.89,2681.43 1049.28,2661.89C1051.8,2656.01 1054.84,2650.93 1058.39,2647.29C1060.46,2645.16 1062.54,2643.44 1064.95,2643.22C1068.21,2642.91 1074.05,2643.69 1077.56,2648.86C1078.8,2650.68 1079.74,2652.89 1080.35,2655.55C1074.8,2655.42 1070.27,2656.76 1067.74,2657.87C1054.34,2663.74 1049.76,2674.98 1051.68,2688.9C1054.51,2709.36 1076.28,2737.72 1085.02,2745.21C1129.92,2783.64 1179.32,2799.23 1213.53,2810.38C1239.18,2818.73 1267.62,2818.8 1294.32,2814.99ZM1294.32,2814.99L1296.72,2814.65L1294.32,2814.99Z"/>
        </g>
        <g transform="matrix(0.928214,0,0,0.928214,83.406,168.127)">
            <path d="M1385.15,3073.14C1403.26,3113.06 1393.07,3144.78 1392.31,3157.76C1390.59,3186.9 1374.55,3205.91 1353.91,3222.81C1338.01,3235.85 1321.18,3246.35 1299.9,3250.06C1271.67,3254.99 1244.17,3247.14 1221.95,3226.65L1257.31,3198.31C1284.97,3214.32 1317.83,3198.79 1336.71,3172.68C1352.62,3150.68 1353.92,3129.12 1346.52,3109.78L1385.15,3073.14Z" style="fill:rgb(51,148,40);"/>
            <path d="M1385.15,3073.14C1403.26,3113.06 1393.07,3144.78 1392.31,3157.76C1390.59,3186.9 1374.55,3205.91 1353.91,3222.81C1338.01,3235.85 1321.18,3246.35 1299.9,3250.06C1271.67,3254.99 1244.17,3247.14 1221.95,3226.65L1257.31,3198.31C1284.97,3214.32 1317.83,3198.79 1336.71,3172.68C1352.62,3150.68 1353.92,3129.12 1346.52,3109.78L1385.15,3073.14ZM1379.41,3097.03C1386.52,3125.19 1379.53,3147.04 1378.94,3156.97C1377.47,3181.98 1363.13,3197.95 1345.43,3212.46C1331.31,3224.03 1316.49,3233.58 1297.6,3236.88C1278.57,3240.2 1259.94,3236.68 1243.6,3226.45C1243.6,3226.45 1259.13,3214 1259.13,3214C1290.81,3226.38 1326.54,3209.58 1347.56,3180.53C1364.29,3157.39 1367.32,3134.61 1361.83,3113.7L1379.41,3097.03Z"/>
        </g>
        <g transform="matrix(0.928214,0,0,0.928214,83.406,76.6687)">
            <path d="M1226.42,2637.93C1234.24,2626.14 1255.53,2626.2 1255.53,2626.2C1255.53,2626.2 1246.66,2646.75 1241.05,2651.16C1228.79,2660.79 1216.09,2663.77 1216.09,2663.77C1216.09,2663.77 1218.63,2649.7 1226.42,2637.93Z" style="fill:rgb(51,148,40);"/>
            <path d="M1226.42,2637.93C1234.24,2626.14 1255.53,2626.2 1255.53,2626.2C1255.53,2626.2 1246.66,2646.75 1241.05,2651.16C1228.79,2660.79 1216.09,2663.77 1216.09,2663.77C1216.09,2663.77 1218.63,2649.7 1226.42,2637.93Z"/>
        </g>
        <g transform="matrix(0.928214,0,0,0.928214,83.406,168.127)">
            <path d="M1234.13,3099.65C1233.65,3093.82 1256.32,3077.36 1261,3078.81C1263.96,3079.73 1337.58,3150.74 1337.9,3152.41C1338.33,3154.66 1320.87,3176.9 1316.16,3180.6C1306.8,3187.95 1234.32,3101.93 1234.13,3099.65Z" style="fill:rgb(51,148,40);"/>
            <path d="M1234.13,3099.65C1233.65,3093.82 1256.32,3077.36 1261,3078.81C1263.96,3079.73 1337.58,3150.74 1337.9,3152.41C1338.33,3154.66 1320.87,3176.9 1316.16,3180.6C1306.8,3187.95 1234.32,3101.93 1234.13,3099.65ZM1258.79,3094.46C1272.92,3107.25 1306.17,3139.25 1320.93,3154C1318.46,3157.31 1315.4,3161.36 1312.78,3164.6C1309,3161.61 1303.48,3157.09 1299.07,3152.77C1282.14,3136.24 1261.57,3112.62 1251.31,3100.1L1258.79,3094.46Z"/>
        </g>
        <g transform="matrix(0.928214,0,0,0.928214,83.406,168.127)">
            <path d="M1228.65,3030.77C1223,3036.47 1209.26,3044.76 1203.83,3049.71C1190.43,3047.32 1189.59,3051.12 1182.8,3062.4C1174.55,3076.11 1162.14,3098.65 1163.02,3122.02C1164.35,3157.04 1172.45,3179.83 1180.08,3201.78C1180.89,3204.1 1256.54,3131.42 1257.31,3133.49C1265.75,3146.75 1270.84,3149.84 1278.89,3158.99C1268.64,3179.71 1176.88,3259.34 1164.46,3247.82C1163.38,3246.82 1161.02,3243.5 1160.59,3242.56C1157.38,3235.65 1154.42,3228.62 1151.16,3221.73C1143.77,3206.04 1127.33,3161.17 1129.94,3109.36C1131.98,3068.83 1151.94,3042.86 1155.88,3035.42C1164.5,3019.16 1201.1,3003.22 1228.65,3030.77Z" style="fill:rgb(51,148,40);"/>
            <path d="M1228.65,3030.77C1223,3036.47 1209.26,3044.76 1203.83,3049.71C1190.43,3047.32 1189.59,3051.12 1182.8,3062.4C1174.55,3076.11 1162.14,3098.65 1163.02,3122.02C1164.35,3157.04 1172.45,3179.83 1180.08,3201.78C1180.89,3204.1 1256.54,3131.42 1257.31,3133.49C1265.75,3146.75 1270.84,3149.84 1278.89,3158.99C1268.64,3179.71 1176.88,3259.34 1164.46,3247.82C1163.38,3246.82 1161.02,3243.5 1160.59,3242.56C1157.38,3235.65 1154.42,3228.62 1151.16,3221.73C1143.77,3206.04 1127.33,3161.17 1129.94,3109.36C1131.98,3068.83 1151.94,3042.86 1155.88,3035.42C1164.5,3019.16 1201.1,3003.22 1228.65,3030.77ZM1205.99,3031.49C1203.89,3032.96 1201.82,3034.4 1199.96,3035.76C1194.37,3035.41 1190.41,3036.23 1187.21,3037.63C1181.52,3040.13 1177.46,3045.31 1171.33,3055.5C1162.07,3070.87 1148.65,3096.32 1149.65,3122.53C1151.04,3159.25 1159.43,3183.16 1167.44,3206.18C1168.73,3209.88 1171.15,3212.45 1174.57,3214.01C1175.81,3214.58 1182.54,3217.13 1190.13,3211.34C1199.01,3204.56 1236.14,3169.49 1254.83,3152.78C1257.16,3155.53 1259.38,3157.82 1261.72,3160.22C1259.46,3162.87 1256.66,3165.88 1253.5,3169.16C1235.78,3187.57 1206.99,3212.36 1185.41,3226.41C1180.77,3229.43 1175.03,3232.25 1171.36,3233.94C1168.65,3227.97 1166.07,3221.95 1163.27,3216.01C1156.29,3201.22 1140.84,3158.9 1143.31,3110.03C1145.2,3072.5 1164.06,3048.58 1167.71,3041.69C1169.29,3038.71 1172.62,3035.99 1176.66,3033.76C1184.55,3029.41 1195.38,3027.44 1205.99,3031.49Z"/>
        </g>
        <g transform="matrix(-0.928214,1.13673e-16,-1.13673e-16,-0.928214,2472,5968.71)">
            <path d="M1217.32,3021.65C1211.67,3027.35 1203.01,3037.09 1197.58,3042.95C1191.38,3039.05 1185.76,3046.07 1181.89,3052.5C1173.64,3066.21 1161.23,3088.75 1162.12,3112.12C1163.44,3147.14 1172.45,3179.83 1180.08,3201.78C1180.89,3204.1 1256.54,3123.48 1257.31,3125.55C1265.75,3138.81 1274.36,3144.64 1282.4,3153.79C1272.16,3174.52 1176.88,3259.34 1164.46,3247.82C1163.38,3246.82 1161.02,3243.5 1160.59,3242.56C1157.38,3235.65 1154.42,3228.62 1151.16,3221.73C1143.77,3206.04 1126.42,3151.27 1129.03,3099.46C1131.07,3058.93 1151.03,3032.96 1154.97,3025.52C1166.63,3003.53 1189.95,3001.41 1217.32,3021.65Z" style="fill:rgb(51,148,40);"/>
            <path d="M1217.32,3021.65C1211.67,3027.35 1203.01,3037.09 1197.58,3042.95C1191.38,3039.05 1185.76,3046.07 1181.89,3052.5C1173.64,3066.21 1161.23,3088.75 1162.12,3112.12C1163.44,3147.14 1172.45,3179.83 1180.08,3201.78C1180.89,3204.1 1256.54,3123.48 1257.31,3125.55C1265.75,3138.81 1274.36,3144.64 1282.4,3153.79C1272.16,3174.52 1176.88,3259.34 1164.46,3247.82C1163.38,3246.82 1161.02,3243.5 1160.59,3242.56C1157.38,3235.65 1154.42,3228.62 1151.16,3221.73C1143.77,3206.04 1126.42,3151.27 1129.03,3099.46C1131.07,3058.93 1151.03,3032.96 1154.97,3025.52C1166.63,3003.53 1189.95,3001.41 1217.32,3021.65ZM1171.25,3233.7C1168.58,3227.81 1166.03,3221.87 1163.27,3216.01C1156.26,3201.15 1139.92,3149.23 1142.4,3100.14C1144.29,3062.6 1163.15,3038.68 1166.8,3031.79C1169.54,3026.62 1173.13,3023.03 1177.78,3021.69C1183.27,3020.11 1189.5,3021.19 1196.38,3024.43L1196.38,3024.43C1195.16,3025.76 1193.96,3027.08 1192.81,3028.34C1189.84,3028.54 1186.94,3029.48 1184.14,3030.99C1179,3033.77 1174,3039.65 1170.42,3045.6C1161.17,3060.97 1147.75,3086.42 1148.74,3112.63C1150.12,3149.16 1159.47,3183.27 1167.44,3206.18C1168.84,3210.22 1171.53,3212.85 1175.26,3214.3C1176.46,3214.77 1183.43,3216.97 1190.76,3210.65C1199.65,3202.98 1236.92,3163.87 1255.57,3145.29C1258.8,3148.89 1262.01,3151.99 1265.18,3155.13C1262.83,3157.92 1259.88,3161.11 1256.55,3164.62C1238.22,3183.9 1208.32,3210.28 1185.97,3225.42C1181.1,3228.72 1175.09,3231.83 1171.25,3233.7Z"/>
        </g>
    </g>
</svg>
