<?xml version="1.0" encoding="UTF-8" standalone="no"?>
<!DOCTYPE svg PUBLIC "-//W3C//DTD SVG 1.1//EN" "http://www.w3.org/Graphics/SVG/1.1/DTD/svg11.dtd">
<svg width="100%" height="100%" viewBox="0 0 2550 3300" version="1.1" xmlns="http://www.w3.org/2000/svg" xmlns:xlink="http://www.w3.org/1999/xlink" xml:space="preserve" xmlns:serif="http://www.serif.com/" style="fill-rule:evenodd;clip-rule:evenodd;stroke-linejoin:round;stroke-miterlimit:2;">
    <g transform="matrix(1.00594,0,0,1.00594,-7.25035,15.284)">
        <g transform="matrix(0.928214,0,0,0.928214,83.406,168.127)">
            <path d="M1217,3155.31C1215.09,3151.84 1215.68,3152.77 1214.27,3149.04C1203.28,3120.24 1219.4,3102.06 1238.44,3083.96C1244.36,3078.33 1251.33,3073.21 1258.68,3069.58C1259.59,3069.12 1286.05,3046.32 1286.01,3046C1281,3043.82 1262.53,3019.67 1259.07,3015.82C1252.67,3015.94 1226.91,3039.84 1222.02,3043.38C1199.12,3059.99 1181.56,3089.91 1174.87,3117.31C1167.79,3146.32 1174.2,3157.9 1189.1,3184.88L1217,3155.31Z" style="fill:rgb(51,148,40);"/>
            <path d="M1217,3155.31C1215.09,3151.84 1215.68,3152.77 1214.27,3149.04C1203.28,3120.24 1219.4,3102.06 1238.44,3083.96C1244.36,3078.33 1251.33,3073.21 1258.68,3069.58C1259.59,3069.12 1286.05,3046.32 1286.01,3046C1281,3043.82 1262.53,3019.67 1259.07,3015.82C1252.67,3015.94 1226.91,3039.84 1222.02,3043.38C1199.12,3059.99 1181.56,3089.91 1174.87,3117.31C1167.79,3146.32 1174.2,3157.9 1189.1,3184.88L1217,3155.31ZM1256.23,3033.42C1259.3,3037.21 1262.92,3041.61 1266.31,3045.49C1260.54,3050.49 1253.93,3056.2 1251.45,3058.24C1243.39,3062.41 1235.75,3068.05 1229.21,3074.26C1206.43,3095.91 1188.9,3118.31 1201.26,3152.48L1192.1,3162.19C1185.57,3148.93 1183.41,3138.78 1187.88,3120.48C1193.86,3095.97 1209.39,3069.08 1229.88,3054.22C1232.81,3052.1 1247.76,3040.19 1256.23,3033.42Z"/>
        </g>
        <g transform="matrix(-0.928214,1.11022e-16,-1.11022e-16,-0.928214,2505.34,5752.37)">
            <path d="M1225.76,3128.05C1225.76,3128.05 1236.56,3049.98 1286.01,3046L1259.07,3015.82C1253.82,3015.91 1229.64,3027.5 1217.46,3046.81C1214.82,3051.01 1210.41,3061.98 1200.48,3041.85C1193.4,3070.87 1210.87,3101.07 1225.76,3128.05Z" style="fill:rgb(51,148,40);"/>
            <path d="M1225.76,3128.05C1225.76,3128.05 1236.56,3049.98 1286.01,3046L1259.07,3015.82C1253.82,3015.91 1229.64,3027.5 1217.46,3046.81C1214.82,3051.01 1210.41,3061.98 1200.48,3041.85C1193.4,3070.87 1210.87,3101.07 1225.76,3128.05ZM1213.35,3066.81C1215.86,3066.43 1218.19,3065.46 1220.36,3064.01C1223.84,3061.68 1226.86,3057 1228.79,3053.95C1234.99,3044.11 1248.12,3035.83 1255.37,3031.78L1262.08,3039.29C1249.27,3046.07 1239.33,3057.24 1231.91,3069.79C1227.73,3076.87 1224.38,3084.34 1221.72,3091.45L1221.72,3091.45C1220.16,3088.02 1218.72,3084.57 1217.45,3081.1C1215.7,3076.36 1214.27,3071.59 1213.35,3066.81Z"/>
        </g>
        <g transform="matrix(0.928214,0,0,0.928214,83.406,76.6687)">
            <path d="M1078.69,2834.96C1057.78,2822.86 1053.57,2817.49 1036.8,2793.13C1003.45,2842.32 984.426,2985.2 1034.35,3031.26C1033.84,2918.54 1041.87,2888.58 1078.69,2834.96Z" style="fill:rgb(51,148,40);"/>
            <path d="M1078.69,2834.96C1057.78,2822.86 1053.57,2817.49 1036.8,2793.13C1003.45,2842.32 984.426,2985.2 1034.35,3031.26C1033.84,2918.54 1041.87,2888.58 1078.69,2834.96ZM1059.85,2839.06C1034.07,2878.87 1024.18,2909.14 1021.64,2977.52C1019.21,2966.23 1017.89,2953.91 1017.42,2941.2C1015.78,2897.83 1024.64,2849.65 1038.34,2818.37C1045.37,2827.55 1051.01,2833.07 1059.85,2839.06Z"/>
        </g>
        <g transform="matrix(0.928214,0,0,0.928214,83.406,76.6687)">
            <path d="M1147.99,2876.33C1129.16,2868.28 1106.66,2860.18 1088.29,2842.74C1052.2,2903.92 1037.19,3003.38 1072.07,3031.26C1084.12,2935.33 1113.51,2911.8 1147.99,2876.33Z" style="fill:rgb(51,148,40);"/>
            <path d="M1147.99,2876.33C1129.16,2868.28 1106.66,2860.18 1088.29,2842.74C1052.2,2903.92 1037.19,3003.38 1072.07,3031.26C1084.12,2935.33 1113.51,2911.8 1147.99,2876.33ZM1124.71,2880.95C1100.19,2906.09 1079.22,2930.68 1066.32,2986.22C1065.85,2981.26 1065.67,2976.01 1065.7,2970.56C1065.92,2937.01 1076.14,2896.27 1092.39,2863.32C1102.87,2870.7 1113.97,2876.2 1124.71,2880.95L1124.71,2880.95Z"/>
        </g>
        <g transform="matrix(-1.77044,0,0.00389414,0.750482,3268.53,613.485)">
            <path d="M1135.62,2885.79C1116.79,2877.74 1100.57,2867.91 1082.2,2850.47C1056.8,2917.48 1039,2946.88 1049.68,3033.84C1075.26,2925.47 1109.46,2915.22 1135.62,2885.79Z" style="fill:rgb(51,148,40);"/>
            <path d="M1135.62,2885.79C1116.79,2877.74 1100.57,2867.91 1082.2,2850.47C1056.8,2917.48 1039,2946.88 1049.68,3033.84C1075.26,2925.47 1109.46,2915.22 1135.62,2885.79ZM1112.2,2890.91C1102.89,2885.37 1093.78,2878.69 1084.18,2870.05C1077.89,2886.33 1072.16,2900.41 1067.33,2913.91C1058.94,2937.36 1053.59,2958.78 1053.64,2988.76C1071.91,2931.13 1092.9,2909.09 1112.2,2890.91L1112.2,2890.91Z"/>
        </g>
        <g transform="matrix(1.77044,0,-0.122773,0.698139,-412.584,759.49)">
            <path d="M1098.66,2949.56C1095.31,2932.33 1099.04,2886.46 1098.9,2867.68C1095.96,2865.49 1093.04,2863.07 1090.16,2860.33C1064.75,2927.34 1055.67,2965.21 1066.35,3052.17C1077.39,3005.39 1086.64,2969.21 1098.66,2949.56Z" style="fill:rgb(51,148,40);"/>
            <path d="M1098.66,2949.56C1095.31,2932.33 1099.04,2886.46 1098.9,2867.68C1095.96,2865.49 1093.04,2863.07 1090.16,2860.33C1064.75,2927.34 1055.67,2965.21 1066.35,3052.17C1077.39,3005.39 1086.64,2969.21 1098.66,2949.56ZM1091.22,2885.73C1090.73,2898.12 1090.1,2912.55 1090.13,2924.87C1090.15,2930.39 1090.32,2935.61 1090.63,2940.33C1082.99,2955.26 1076.26,2976.73 1069.35,3003.35C1068.01,2957.75 1075.84,2927.56 1091.22,2885.73Z"/>
        </g>
        <g transform="matrix(-0.928214,0,0,0.928214,2431.2,76.6687)">
            <path d="M1016.65,2779.91C1010.1,2768.34 997.254,2736.48 989.888,2721.76C983.026,2733.62 972.307,2758.31 966.227,2774.8C941.049,2843.08 928.6,2936.87 992.202,3031.26C960.669,2945.31 974.381,2819.89 1016.65,2779.91Z" style="fill:rgb(51,148,40);"/>
            <path d="M1016.65,2779.91C1010.1,2768.34 997.254,2736.48 989.888,2721.76C983.026,2733.62 972.307,2758.31 966.227,2774.8C941.049,2843.08 928.6,2936.87 992.202,3031.26C960.669,2945.31 974.381,2819.89 1016.65,2779.91ZM1000.52,2777.67C997.213,2770.71 993.309,2761.82 989.479,2753.12C985.491,2762.21 981.62,2771.75 978.788,2779.43C964.368,2818.53 954.248,2866.43 961.632,2917.95C961.988,2897.3 964.007,2877.1 967.55,2858.41C973.928,2824.78 985.448,2796.07 1000.52,2777.67Z"/>
        </g>
        <g transform="matrix(0.928214,0,0,0.928214,84.943,76.6687)">
            <path d="M1029.51,2779.91C1022.96,2768.34 1010.11,2736.48 1002.74,2721.76C995.877,2733.62 985.159,2758.31 979.079,2774.8C953.9,2843.08 941.451,2936.87 1005.05,3031.26C973.521,2945.31 987.232,2819.89 1029.51,2779.91Z" style="fill:rgb(51,148,40);"/>
            <path d="M1029.51,2779.91C1022.96,2768.34 1010.11,2736.48 1002.74,2721.76C995.877,2733.62 985.159,2758.31 979.079,2774.8C953.9,2843.08 941.451,2936.87 1005.05,3031.26C973.521,2945.31 987.232,2819.89 1029.51,2779.91ZM1013.37,2777.67C998.299,2796.07 986.779,2824.78 980.402,2858.41C976.858,2877.1 974.84,2897.3 974.483,2917.95C967.099,2866.43 977.22,2818.53 991.64,2779.43C994.472,2771.75 998.343,2762.21 1002.33,2753.12C1006.16,2761.82 1010.06,2770.71 1013.37,2777.67Z"/>
        </g>
        <g transform="matrix(-0.928214,0,0,0.928214,2431.2,76.6687)">
            <path d="M1065.84,2834.96C1044.93,2822.86 1040.72,2817.49 1023.95,2793.13C990.598,2842.32 971.574,2985.2 1021.49,3031.26C1020.99,2918.54 1029.02,2888.58 1065.84,2834.96Z" style="fill:rgb(51,148,40);"/>
            <path d="M1065.84,2834.96C1044.93,2822.86 1040.72,2817.49 1023.95,2793.13C990.598,2842.32 971.574,2985.2 1021.49,3031.26C1020.99,2918.54 1029.02,2888.58 1065.84,2834.96ZM1047,2839.06C1038.15,2833.07 1032.52,2827.55 1025.49,2818.37C1011.78,2849.65 1002.93,2897.83 1004.57,2941.2C1005.04,2953.91 1006.36,2966.23 1008.79,2977.53C1011.33,2909.14 1021.22,2878.87 1047,2839.06Z"/>
        </g>
        <g transform="matrix(-0.928214,0,0,0.928214,2431.2,76.6687)">
            <path d="M1135.14,2876.33C1116.31,2868.28 1093.81,2860.18 1075.44,2842.74C1039.35,2903.92 1024.34,3003.38 1059.21,3031.26C1071.27,2935.33 1100.65,2911.8 1135.14,2876.33Z" style="fill:rgb(51,148,40);"/>
            <path d="M1135.14,2876.33C1116.31,2868.28 1093.81,2860.18 1075.44,2842.74C1039.35,2903.92 1024.34,3003.38 1059.21,3031.26C1071.27,2935.33 1100.65,2911.8 1135.14,2876.33ZM1111.86,2880.95C1101.12,2876.2 1090.02,2870.7 1079.54,2863.32C1063.29,2896.27 1053.06,2937.01 1052.85,2970.56C1052.82,2976.01 1053,2981.26 1053.46,2986.23C1066.37,2930.68 1087.34,2906.09 1111.86,2880.95L1111.86,2880.95Z"/>
        </g>
        <g transform="matrix(0.928214,0,0,0.928214,83.406,76.6687)">
            <path d="M1251.96,2907.16C1212.07,3045.53 1334.64,3106.31 1342.99,3114.35L1308.9,3152C1255.77,3090.72 1221.52,3088.15 1188.76,2999.1C1178.03,2969.93 1180.31,2943.67 1189,2916.09C1191.25,2908.96 1193.55,2901.88 1196.36,2895.05C1220.85,2899.09 1237.18,2903.12 1251.96,2907.16Z" style="fill:rgb(51,148,40);"/>
            <path d="M1251.96,2907.16C1212.07,3045.53 1334.64,3106.31 1342.99,3114.35L1308.9,3152C1255.77,3090.72 1221.52,3088.15 1188.76,2999.1C1178.03,2969.93 1180.31,2943.67 1189,2916.09C1191.25,2908.96 1193.55,2901.88 1196.36,2895.05C1220.85,2899.09 1237.18,2903.12 1251.96,2907.16ZM1235.68,2916.73C1209.26,3033.3 1292.06,3095.31 1323,3116.48C1323,3116.48 1308.93,3132.02 1308.93,3132.02C1291.51,3113.35 1276.15,3100.38 1262.15,3087.5C1238.98,3066.18 1219.92,3045.05 1201.32,2994.48C1191.71,2968.35 1193.98,2944.82 1201.77,2920.11C1202.82,2916.77 1203.88,2913.44 1205.01,2910.14C1217.02,2912.34 1226.87,2914.53 1235.68,2916.73L1235.68,2916.73Z"/>
        </g>
        <g transform="matrix(0.928214,0,0,0.928214,83.406,27.5544)">
            <path d="M1217.41,2870.71C1223.75,2806.79 1269.71,2780.66 1281.43,2771.96C1313.11,2748.46 1270.85,2704.79 1258.81,2725.51C1253.94,2733.87 1221.7,2752.84 1204.98,2751.36C1173.84,2748.61 1179.46,2792.15 1179.46,2792.15C1143.92,2771.08 1137.51,2747.02 1151.85,2728.1C1161.9,2714.84 1197.43,2702.41 1197.88,2691.21C1187.17,2689.94 1188.23,2671.69 1196,2663.6C1203.5,2655.78 1237.54,2635.32 1258.25,2634.99C1278.95,2634.65 1290.78,2626.03 1265.24,2611.66C1321.65,2595.34 1386.58,2619.87 1401.67,2639.47C1345.03,2631.59 1316.16,2634.98 1320.94,2659.33C1330.8,2666.26 1351.95,2667.98 1346.75,2645.24C1354.46,2647.03 1360.77,2652.12 1365.48,2663.48C1387.51,2655.44 1405.34,2665.34 1416.96,2687.55C1386.72,2680.25 1353.61,2708.36 1353.39,2709.98C1352.22,2718.41 1366.63,2736.95 1361.54,2751.89C1355.23,2770.38 1297.73,2814.66 1271.94,2876.8C1241.29,2882.96 1233.55,2875.43 1217.41,2870.71Z" style="fill:rgb(51,148,40);"/>
            <path d="M1217.41,2870.71C1223.75,2806.79 1269.71,2780.66 1281.43,2771.96C1313.11,2748.46 1270.85,2704.79 1258.81,2725.51C1253.94,2733.87 1221.7,2752.84 1204.98,2751.36C1173.84,2748.61 1179.46,2792.15 1179.46,2792.15C1143.92,2771.08 1137.51,2747.02 1151.85,2728.1C1161.9,2714.84 1197.43,2702.41 1197.88,2691.21C1187.17,2689.94 1188.23,2671.69 1196,2663.6C1203.5,2655.78 1237.54,2635.32 1258.25,2634.99C1278.95,2634.65 1290.78,2626.03 1265.24,2611.66C1321.65,2595.34 1386.58,2619.87 1401.67,2639.47C1345.03,2631.59 1316.16,2634.98 1320.94,2659.33C1330.8,2666.26 1351.95,2667.98 1346.75,2645.24C1354.46,2647.03 1360.77,2652.12 1365.48,2663.48C1387.51,2655.44 1405.34,2665.34 1416.96,2687.55C1386.72,2680.25 1353.61,2708.36 1353.39,2709.98C1352.22,2718.41 1366.63,2736.95 1361.54,2751.89C1355.23,2770.38 1297.73,2814.66 1271.94,2876.8C1241.29,2882.96 1233.55,2875.43 1217.41,2870.71ZM1339.75,2623.63C1334.17,2624.42 1329.47,2625.62 1325.68,2627.26C1318.18,2630.49 1313.15,2635.23 1310.17,2641.02C1307.26,2646.64 1306.16,2653.53 1307.8,2661.91L1308.84,2667.2L1313.25,2670.29C1318.67,2674.1 1326.32,2676.88 1333.53,2677.26C1339.6,2677.57 1345.36,2676.22 1349.92,2673.32C1351.27,2672.46 1352.59,2671.46 1353.81,2670.29L1358.03,2680.45L1370.07,2676.05C1376.59,2673.67 1382.48,2673.77 1387.72,2675.86C1370.6,2680.59 1355.81,2690.18 1348.72,2695.95C1344.55,2699.36 1342.37,2702.25 1341.83,2703.18C1340.68,2705.19 1340.3,2706.92 1340.13,2708.14C1339.44,2713.08 1341.45,2720.62 1344.77,2729.01C1346.22,2732.66 1347.84,2736.65 1348.72,2740.69C1349.23,2743.02 1349.61,2745.37 1348.87,2747.57C1346.65,2754.06 1336.68,2763.72 1324.74,2777.01C1304.77,2799.24 1278.95,2829.07 1262.56,2864.83C1247.71,2866.93 1239.86,2864.65 1232.18,2861.78L1232.18,2861.78C1241.54,2811.19 1279.41,2790.13 1289.4,2782.71C1321.62,2758.81 1302.08,2720.45 1280.93,2709.97C1273.54,2706.3 1266.01,2705.8 1259.68,2708.11C1254.97,2709.82 1250.65,2713.06 1247.42,2718.46C1247.01,2718.82 1240.85,2724.08 1235.71,2727.15C1226.24,2732.81 1214.12,2738.73 1206.15,2738.03C1196.21,2737.15 1188.69,2739.55 1182.9,2743.43C1174.91,2748.8 1170.08,2757.5 1167.74,2766.76C1157.21,2756.16 1155.3,2745.72 1162.52,2736.19C1165.26,2732.58 1170.63,2729.33 1176.2,2725.89C1183.7,2721.26 1191.73,2716.73 1197.62,2712.37C1206.58,2705.72 1211.01,2698.01 1211.26,2691.76L1211.76,2679.39L1203.51,2678.4C1203.53,2678.03 1203.57,2677.67 1203.64,2677.37C1203.98,2675.71 1204.57,2674 1205.66,2672.87C1209.58,2668.78 1221.97,2661.01 1235.02,2655.17C1243.22,2651.5 1251.68,2648.48 1258.46,2648.37C1271.05,2648.17 1281.1,2644.82 1286.09,2640.66C1291.07,2636.52 1293.28,2631.35 1293.16,2625.69C1293.12,2624.12 1292.8,2622.27 1292.06,2620.25C1308.5,2618.76 1324.93,2620.33 1339.75,2623.63Z"/>
        </g>
        <g transform="matrix(0.994098,0,0,0.994098,7.20756,-29.3264)">
            <path d="M1266.63,2757.72C1272.17,2757.35 1277.69,2756.76 1283.12,2755.98C1319.24,2750.83 1372.37,2742.36 1429.2,2693.7C1435.69,2688.15 1453.88,2668.3 1456.75,2652.88C1458.9,2641.34 1450.73,2629.36 1432.22,2643.51C1424.8,2621.15 1445.65,2600.47 1454.77,2598.38C1472.27,2594.38 1492.83,2577.37 1556.72,2590.08C1562.06,2623.2 1571.78,2655.74 1569.99,2740.83C1563.53,2745.61 1531.28,2639.89 1511.96,2627.81C1492.65,2656.48 1494.04,2665.95 1482.45,2690.2C1460.54,2736.05 1366.91,2808.58 1266.15,2809.08C1164.74,2809.57 1072.8,2749.61 1047.49,2696.64C1035.9,2672.39 1037.29,2657.48 1017.98,2628.81C998.664,2640.89 966.409,2746.61 959.945,2741.83C958.16,2656.74 967.884,2624.2 973.223,2591.08C1037.11,2578.37 1057.67,2595.38 1075.17,2599.38C1084.29,2601.47 1105.14,2622.15 1097.72,2644.51C1079.21,2630.36 1071.04,2642.34 1073.19,2653.88C1076.06,2669.3 1094.25,2689.15 1100.74,2694.7C1157.57,2743.36 1210.7,2751.83 1246.82,2756.98C1248.78,2757.26 1254.58,2757.88 1266.63,2757.72Z" style="fill:rgb(51,148,40);"/>
            <path d="M1266.63,2757.72C1272.17,2757.35 1277.69,2756.76 1283.12,2755.98C1319.24,2750.83 1372.37,2742.36 1429.2,2693.7C1435.69,2688.15 1453.88,2668.3 1456.75,2652.88C1458.9,2641.34 1450.73,2629.36 1432.22,2643.51C1424.8,2621.15 1445.65,2600.47 1454.77,2598.38C1472.27,2594.38 1492.83,2577.37 1556.72,2590.08C1562.06,2623.2 1571.78,2655.74 1569.99,2740.83C1563.53,2745.61 1531.28,2639.89 1511.96,2627.81C1492.65,2656.48 1494.04,2665.95 1482.45,2690.2C1460.54,2736.05 1366.91,2808.58 1266.15,2809.08C1164.74,2809.57 1072.8,2749.61 1047.49,2696.64C1035.9,2672.39 1037.29,2657.48 1017.98,2628.81C998.664,2640.89 966.409,2746.61 959.945,2741.83C958.16,2656.74 967.884,2624.2 973.223,2591.08C1037.11,2578.37 1057.67,2595.38 1075.17,2599.38C1084.29,2601.47 1105.14,2622.15 1097.72,2644.51C1079.21,2630.36 1071.04,2642.34 1073.19,2653.88C1076.06,2669.3 1094.25,2689.15 1100.74,2694.7C1157.57,2743.36 1210.7,2751.83 1246.82,2756.98C1248.78,2757.26 1254.58,2757.88 1266.63,2757.72ZM1556.75,2683.12C1551.35,2670.81 1545.7,2658.32 1540.89,2648.54C1533.19,2632.88 1524.92,2621.18 1518.59,2617.21L1508.34,2610.8L1501.59,2620.83C1481.77,2650.26 1483.06,2659.92 1471.17,2684.8C1463.04,2701.83 1444,2722.6 1418.4,2741.68C1378.93,2771.11 1323.76,2796.29 1266.09,2796.58C1170.18,2797.05 1082.71,2741.35 1058.77,2691.25C1046.9,2666.41 1048.13,2651.2 1028.35,2621.83L1021.6,2611.8L1011.35,2618.21C1005.02,2622.18 996.749,2633.88 989.049,2649.54C984.242,2659.32 978.592,2671.81 973.194,2684.12C975.259,2645.77 980.272,2622.95 984.066,2601.8C1038.14,2592.82 1056.57,2607.95 1072.38,2611.57C1074.39,2612.03 1076.99,2614.68 1079.66,2617.82C1081.55,2620.06 1083.38,2622.71 1084.72,2625.65C1078.97,2625.23 1074.31,2626.85 1070.87,2629.09C1063.02,2634.22 1058.84,2645.08 1060.9,2656.16C1064.26,2674.19 1085.03,2697.71 1092.61,2704.2C1151.94,2754.99 1207.34,2763.97 1245.05,2769.36C1247.21,2769.66 1253.58,2770.4 1266.79,2770.22L1267.12,2770.22L1267.45,2770.19C1273.32,2769.8 1279.15,2769.17 1284.89,2768.36C1322.6,2762.97 1378,2753.99 1437.33,2703.2C1444.91,2696.71 1465.68,2673.19 1469.04,2655.16C1471.1,2644.08 1466.92,2633.22 1459.07,2628.09C1455.63,2625.85 1450.97,2624.23 1445.22,2624.65C1446.56,2621.71 1448.38,2619.06 1450.28,2616.82C1452.95,2613.68 1455.55,2611.03 1457.56,2610.57C1473.37,2606.95 1491.79,2591.82 1545.87,2600.8C1549.67,2621.95 1554.68,2644.77 1556.75,2683.12Z"/>
        </g>
        <g transform="matrix(0.928214,0,0,0.928214,83.406,168.127)">
            <path d="M1385.15,3073.14C1403.26,3113.06 1393.07,3144.78 1392.31,3157.76C1390.59,3186.9 1374.55,3205.91 1353.91,3222.81C1338.01,3235.85 1321.18,3246.35 1299.9,3250.06C1271.67,3254.99 1244.17,3247.14 1221.95,3226.65L1257.31,3198.31C1284.97,3214.32 1317.83,3198.79 1336.71,3172.68C1352.62,3150.68 1353.92,3129.12 1346.52,3109.78L1385.15,3073.14Z" style="fill:rgb(51,148,40);"/>
            <path d="M1385.15,3073.14C1403.26,3113.06 1393.07,3144.78 1392.31,3157.76C1390.59,3186.9 1374.55,3205.91 1353.91,3222.81C1338.01,3235.85 1321.18,3246.35 1299.9,3250.06C1271.67,3254.99 1244.17,3247.14 1221.95,3226.65L1257.31,3198.31C1284.97,3214.32 1317.83,3198.79 1336.71,3172.68C1352.62,3150.68 1353.92,3129.12 1346.52,3109.78L1385.15,3073.14ZM1379.41,3097.03C1386.52,3125.19 1379.53,3147.04 1378.94,3156.97C1377.47,3181.98 1363.13,3197.95 1345.43,3212.46C1331.31,3224.03 1316.49,3233.58 1297.6,3236.88C1278.57,3240.2 1259.94,3236.68 1243.6,3226.45C1243.6,3226.45 1259.13,3214 1259.13,3214C1290.81,3226.38 1326.54,3209.58 1347.56,3180.53C1364.29,3157.39 1367.32,3134.61 1361.83,3113.7L1379.41,3097.03Z"/>
        </g>
        <g transform="matrix(0.928214,0,0,0.928214,83.406,27.5544)">
            <path d="M1226.1,2673.6C1233.92,2661.81 1255.2,2661.87 1255.2,2661.87C1255.2,2661.87 1246.34,2682.42 1240.73,2686.83C1228.47,2696.46 1215.76,2699.44 1215.76,2699.44C1215.76,2699.44 1218.3,2685.37 1226.1,2673.6Z" style="fill:rgb(51,148,40);"/>
            <path d="M1226.1,2673.6C1233.92,2661.81 1255.2,2661.87 1255.2,2661.87C1255.2,2661.87 1246.34,2682.42 1240.73,2686.83C1228.47,2696.46 1215.76,2699.44 1215.76,2699.44C1215.76,2699.44 1218.3,2685.37 1226.1,2673.6Z"/>
        </g>
        <g transform="matrix(0.928214,0,0,0.928214,83.406,168.127)">
            <path d="M1234.13,3099.65C1233.65,3093.82 1256.32,3077.36 1261,3078.81C1263.96,3079.73 1337.58,3150.74 1337.9,3152.41C1338.33,3154.66 1320.87,3176.9 1316.16,3180.6C1306.8,3187.95 1234.32,3101.93 1234.13,3099.65Z" style="fill:rgb(51,148,40);"/>
            <path d="M1234.13,3099.65C1233.65,3093.82 1256.32,3077.36 1261,3078.81C1263.96,3079.73 1337.58,3150.74 1337.9,3152.41C1338.33,3154.66 1320.87,3176.9 1316.16,3180.6C1306.8,3187.95 1234.32,3101.93 1234.13,3099.65ZM1258.79,3094.46C1272.92,3107.25 1306.17,3139.25 1320.93,3154C1318.46,3157.31 1315.4,3161.36 1312.78,3164.6C1309,3161.61 1303.48,3157.09 1299.07,3152.77C1282.14,3136.24 1261.57,3112.62 1251.31,3100.1L1258.79,3094.46Z"/>
        </g>
        <g transform="matrix(0.928214,0,0,0.928214,83.406,168.127)">
            <path d="M1228.65,3030.77C1223,3036.47 1209.26,3044.76 1203.83,3049.71C1190.43,3047.32 1189.59,3051.12 1182.8,3062.4C1174.55,3076.11 1162.14,3098.65 1163.02,3122.02C1164.35,3157.04 1172.45,3179.83 1180.08,3201.78C1180.89,3204.1 1256.54,3131.42 1257.31,3133.49C1265.75,3146.75 1270.84,3149.84 1278.89,3158.99C1268.64,3179.71 1176.88,3259.34 1164.46,3247.82C1163.38,3246.82 1161.02,3243.5 1160.59,3242.56C1157.38,3235.65 1154.42,3228.62 1151.16,3221.73C1143.77,3206.04 1127.33,3161.17 1129.94,3109.36C1131.98,3068.83 1151.94,3042.86 1155.88,3035.42C1164.5,3019.16 1201.1,3003.22 1228.65,3030.77Z" style="fill:rgb(51,148,40);"/>
            <path d="M1228.65,3030.77C1223,3036.47 1209.26,3044.76 1203.83,3049.71C1190.43,3047.32 1189.59,3051.12 1182.8,3062.4C1174.55,3076.11 1162.14,3098.65 1163.02,3122.02C1164.35,3157.04 1172.45,3179.83 1180.08,3201.78C1180.89,3204.1 1256.54,3131.42 1257.31,3133.49C1265.75,3146.75 1270.84,3149.84 1278.89,3158.99C1268.64,3179.71 1176.88,3259.34 1164.46,3247.82C1163.38,3246.82 1161.02,3243.5 1160.59,3242.56C1157.38,3235.65 1154.42,3228.62 1151.16,3221.73C1143.77,3206.04 1127.33,3161.17 1129.94,3109.36C1131.98,3068.83 1151.94,3042.86 1155.88,3035.42C1164.5,3019.16 1201.1,3003.22 1228.65,3030.77ZM1205.99,3031.49C1203.89,3032.96 1201.82,3034.4 1199.96,3035.76C1194.37,3035.41 1190.41,3036.23 1187.21,3037.63C1181.52,3040.13 1177.46,3045.31 1171.33,3055.5C1162.07,3070.87 1148.65,3096.32 1149.65,3122.53C1151.04,3159.25 1159.43,3183.16 1167.44,3206.18C1168.73,3209.88 1171.15,3212.45 1174.57,3214.01C1175.81,3214.58 1182.54,3217.13 1190.13,3211.34C1199.01,3204.56 1236.14,3169.49 1254.83,3152.78C1257.16,3155.53 1259.38,3157.82 1261.72,3160.22C1259.46,3162.87 1256.66,3165.88 1253.5,3169.16C1235.78,3187.57 1206.99,3212.36 1185.41,3226.41C1180.77,3229.43 1175.03,3232.25 1171.36,3233.94C1168.65,3227.97 1166.07,3221.95 1163.27,3216.01C1156.29,3201.22 1140.84,3158.9 1143.31,3110.03C1145.2,3072.5 1164.06,3048.58 1167.71,3041.69C1169.29,3038.71 1172.62,3035.99 1176.66,3033.76C1184.55,3029.41 1195.38,3027.44 1205.99,3031.49Z"/>
        </g>
        <g transform="matrix(-0.928214,1.13673e-16,-1.13673e-16,-0.928214,2472,5968.71)">
            <path d="M1217.32,3021.65C1211.67,3027.35 1203.01,3037.09 1197.58,3042.95C1191.38,3039.05 1185.76,3046.07 1181.89,3052.5C1173.64,3066.21 1161.23,3088.75 1162.12,3112.12C1163.44,3147.14 1172.45,3179.83 1180.08,3201.78C1180.89,3204.1 1256.54,3123.48 1257.31,3125.55C1265.75,3138.81 1274.36,3144.64 1282.4,3153.79C1272.16,3174.52 1176.88,3259.34 1164.46,3247.82C1163.38,3246.82 1161.02,3243.5 1160.59,3242.56C1157.38,3235.65 1154.42,3228.62 1151.16,3221.73C1143.77,3206.04 1126.42,3151.27 1129.03,3099.46C1131.07,3058.93 1151.03,3032.96 1154.97,3025.52C1166.63,3003.53 1189.95,3001.41 1217.32,3021.65Z" style="fill:rgb(51,148,40);"/>
            <path d="M1217.32,3021.65C1211.67,3027.35 1203.01,3037.09 1197.58,3042.95C1191.38,3039.05 1185.76,3046.07 1181.89,3052.5C1173.64,3066.21 1161.23,3088.75 1162.12,3112.12C1163.44,3147.14 1172.45,3179.83 1180.08,3201.78C1180.89,3204.1 1256.54,3123.48 1257.31,3125.55C1265.75,3138.81 1274.36,3144.64 1282.4,3153.79C1272.16,3174.52 1176.88,3259.34 1164.46,3247.82C1163.38,3246.82 1161.02,3243.5 1160.59,3242.56C1157.38,3235.65 1154.42,3228.62 1151.16,3221.73C1143.77,3206.04 1126.42,3151.27 1129.03,3099.46C1131.07,3058.93 1151.03,3032.96 1154.97,3025.52C1166.63,3003.53 1189.95,3001.41 1217.32,3021.65ZM1171.25,3233.7C1168.58,3227.81 1166.03,3221.87 1163.27,3216.01C1156.26,3201.15 1139.92,3149.23 1142.4,3100.14C1144.29,3062.6 1163.15,3038.68 1166.8,3031.79C1169.54,3026.62 1173.13,3023.03 1177.78,3021.69C1183.27,3020.11 1189.5,3021.19 1196.38,3024.43L1196.38,3024.43C1195.16,3025.76 1193.96,3027.08 1192.81,3028.34C1189.84,3028.54 1186.94,3029.48 1184.14,3030.99C1179,3033.77 1174,3039.65 1170.42,3045.6C1161.17,3060.97 1147.75,3086.42 1148.74,3112.63C1150.12,3149.16 1159.47,3183.27 1167.44,3206.18C1168.84,3210.22 1171.53,3212.85 1175.26,3214.3C1176.46,3214.77 1183.43,3216.97 1190.76,3210.65C1199.65,3202.98 1236.92,3163.87 1255.57,3145.29C1258.8,3148.89 1262.01,3151.99 1265.18,3155.13C1262.83,3157.92 1259.88,3161.11 1256.55,3164.62C1238.22,3183.9 1208.32,3210.28 1185.97,3225.42C1181.1,3228.72 1175.09,3231.83 1171.25,3233.7Z"/>
        </g>
    </g>
</svg>
