<?xml version="1.0" encoding="UTF-8" standalone="no"?>
<!DOCTYPE svg PUBLIC "-//W3C//DTD SVG 1.1//EN" "http://www.w3.org/Graphics/SVG/1.1/DTD/svg11.dtd">
<svg width="100%" height="100%" viewBox="0 0 2550 3300" version="1.1" xmlns="http://www.w3.org/2000/svg" xmlns:xlink="http://www.w3.org/1999/xlink" xml:space="preserve" xmlns:serif="http://www.serif.com/" style="fill-rule:evenodd;clip-rule:evenodd;stroke-linejoin:round;stroke-miterlimit:2;">
    <g transform="matrix(1.00594,0,0,1.00594,-7.25035,18.4239)">
        <g id="Primary" transform="matrix(0.994098,0,0,0.994098,7.20756,-18.3152)">
            <path d="M1370,3057.01C1386.91,3094.29 1377.4,3123.91 1376.68,3136.03C1375.08,3163.23 1360.1,3180.99 1340.83,3196.77C1325.98,3208.94 1310.27,3218.75 1290.4,3222.21C1264.04,3226.81 1238.36,3219.48 1217.61,3200.36L1250.63,3173.89C1276.46,3188.84 1307.14,3174.34 1324.77,3149.96C1339.62,3129.42 1340.84,3109.29 1333.93,3091.22L1370,3057.01ZM1223.87,3017.45C1218.6,3022.78 1205.76,3030.52 1200.69,3035.14C1188.18,3032.91 1187.4,3036.45 1181.06,3046.99C1173.35,3059.78 1161.77,3080.84 1162.6,3102.65C1163.83,3135.36 1171.39,3156.63 1178.53,3177.14C1179.28,3179.3 1249.91,3111.44 1250.63,3113.37C1258.52,3125.75 1263.27,3128.63 1270.78,3137.18C1261.21,3156.53 1175.53,3230.87 1163.94,3220.12C1162.93,3219.18 1160.73,3216.09 1160.32,3215.21C1157.32,3208.76 1154.56,3202.2 1151.52,3195.76C1144.61,3181.11 1129.26,3139.21 1131.7,3090.84C1133.61,3052.99 1152.24,3028.74 1155.92,3021.8C1163.97,3006.61 1198.15,2991.73 1223.87,3017.45ZM1342.78,3201.18C1348.05,3195.85 1356.14,3186.76 1361.21,3181.29C1367,3184.93 1372.25,3178.37 1375.86,3172.37C1383.57,3159.57 1395.15,3138.52 1394.32,3116.7C1393.09,3084 1384.68,3053.48 1377.55,3032.98C1376.8,3030.82 1306.16,3106.09 1305.44,3104.16C1297.56,3091.78 1289.52,3086.34 1282.01,3077.79C1291.58,3058.44 1380.54,2979.24 1392.13,2990C1393.14,2990.93 1395.35,2994.03 1395.75,2994.91C1398.75,3001.36 1401.51,3007.92 1404.55,3014.36C1411.46,3029.01 1427.66,3080.14 1425.22,3128.52C1423.31,3166.37 1404.68,3190.62 1401,3197.56C1390.11,3218.1 1368.34,3220.07 1342.78,3201.18ZM1212.99,3133.74C1211.21,3130.5 1211.77,3131.37 1210.44,3127.89C1200.19,3100.99 1215.23,3084.01 1233.01,3067.12C1238.54,3061.86 1245.05,3057.09 1251.91,3053.69C1252.76,3053.27 1277.47,3031.97 1277.43,3031.68C1272.75,3029.64 1255.51,3007.09 1252.27,3003.49C1246.3,3003.6 1222.25,3025.92 1217.68,3029.23C1196.3,3044.74 1179.9,3072.68 1173.66,3098.26C1167.05,3125.35 1173.03,3136.16 1186.94,3161.35L1212.99,3133.74ZM1228.99,3081.77C1228.54,3076.32 1249.71,3060.95 1254.08,3062.31C1256.84,3063.17 1325.58,3129.47 1325.88,3131.03C1326.28,3133.14 1309.98,3153.9 1305.58,3157.35C1296.84,3164.22 1229.16,3083.89 1228.99,3081.77ZM1245.06,2879.36C1270.35,2949.6 1325.45,2998.5 1330.64,3003.49L1298.8,3038.65C1255.44,2988.64 1212.79,2942.43 1184.37,2876.07C1199.23,2880.25 1223.18,2883.04 1245.06,2879.36ZM1368.44,2884.21C1368.44,2884.21 1358.36,2957.1 1312.18,2960.82L1337.35,2989C1342.25,2988.91 1364.82,2978.09 1376.19,2960.06C1378.66,2956.14 1382.78,2945.89 1392.05,2964.69C1398.66,2937.6 1382.35,2909.4 1368.44,2884.21ZM1011.92,2682.91C998.124,2673.92 997.645,2671.82 982.959,2649.65C926.481,2677.99 922.018,2877.39 990.732,2926.81C950.779,2791.29 976.944,2737.82 1011.92,2682.91ZM1508.49,2682.91C1522.28,2673.92 1522.76,2671.82 1537.45,2649.65C1593.92,2677.99 1598.39,2877.39 1529.67,2926.81C1569.63,2791.29 1543.46,2737.82 1508.49,2682.91ZM1053.76,2818.95C1048.74,2832.57 1048.14,2880.72 1046.79,2926.81C1028.66,2915.4 1012.27,2826.72 1014.99,2797.81C1027.41,2803.53 1039.05,2809.06 1053.76,2818.95ZM1143.82,2804.01C1137.95,2791.91 1150.97,2759.69 1152.53,2746.5C1146.09,2744.97 1139.72,2743.26 1133.46,2741.34C1069.26,2788.4 1051.35,2845.12 1055.13,2922.07C1084.79,2889.22 1114.65,2817.8 1143.82,2804.01ZM1265.12,2764.3C1307.73,2758.22 1344.41,2750.8 1385.91,2737.63C1441.08,2777.4 1471.44,2839.83 1466.72,2922.07C1408.25,2840.27 1324.51,2786.52 1265.12,2764.3ZM1729.87,2695.41C1726.92,2734.51 1636.95,2850.74 1571.48,2897.77C1581.05,2864.7 1595.67,2810.86 1594.03,2773.03C1635,2757.47 1707.12,2698.13 1729.87,2695.41ZM795.266,2695.41C798.209,2734.51 888.179,2850.74 953.647,2897.77C944.082,2864.7 930.527,2813.6 932.163,2775.77C897.884,2765.83 812.762,2707.2 795.266,2695.41ZM1175.2,2815.04C1173.96,2798.69 1175.7,2784.86 1180.85,2768.53C1182.95,2761.87 1185.1,2755.26 1187.72,2748.88C1210.58,2752.65 1225.84,2756.42 1239.64,2760.19C1232.97,2783.34 1232.35,2803.76 1234.25,2825.02C1208.02,2825.59 1201.56,2820.38 1175.2,2815.04ZM1074.38,2780.6C1089.16,2760.81 1107.11,2751.14 1126.49,2735.44C1105.4,2728.35 1080.21,2721.21 1059.65,2705.84C1048.31,2720.97 1039.9,2732.86 1032.99,2751.15C1051.28,2760.65 1063.82,2769.61 1074.38,2780.6ZM1097.53,2671.37C1140.31,2687.99 1169.47,2682 1202.95,2690.76C1205.39,2691.4 1212.62,2693.08 1227.85,2695.14C1234.91,2695.8 1241.95,2696.22 1248.92,2696.45C1285.09,2697.66 1362.64,2692.2 1425.52,2667.75L1452.31,2699.65C1401.63,2725.55 1327.4,2748.45 1259.51,2748.71C1189.31,2748.98 1122.66,2731.44 1071.22,2706.88C1081.18,2695.05 1089.83,2683.21 1097.53,2671.37ZM939.524,2715.57C947.556,2683.21 962.072,2656.09 981.858,2641.38C974.083,2630.57 958.826,2600.83 950.08,2587.08C941.932,2598.15 929.206,2621.2 921.987,2636.6C913.579,2654.53 901.83,2671.57 897.485,2692.76C910.132,2697.7 921.159,2705.38 939.524,2715.57ZM1585.61,2715.57C1577.58,2683.21 1563.06,2656.09 1543.27,2641.38C1551.05,2630.57 1566.31,2600.83 1575.05,2587.08C1583.2,2598.15 1595.92,2621.2 1603.14,2636.6C1611.55,2654.53 1623.3,2671.57 1627.65,2692.76C1615,2697.7 1603.97,2705.38 1585.61,2715.57ZM1202.54,2674.61C1208.94,2610.05 1236.79,2588.96 1244.56,2562.95C1258.4,2516.66 1252,2482.42 1231.75,2499.47C1223.58,2506.35 1182.97,2514.05 1166.13,2506.28C1134.77,2491.81 1124.39,2539.18 1124.39,2539.18C1095.28,2504.01 1097.59,2476.61 1119.56,2462.28C1134.96,2452.23 1176.54,2452.56 1181.19,2441.09C1170.52,2435.76 1178.43,2417.18 1189.53,2411.66C1200.24,2406.33 1243.28,2397.74 1264.93,2405.12C1286.59,2412.5 1302.1,2407.94 1280.91,2383.47C1345.65,2387.54 1404.03,2437.26 1412.42,2463.27C1356.45,2433.96 1325.16,2426.71 1321.05,2453.82C1328.73,2464.7 1350.07,2474.38 1353.15,2448.79C1360.5,2453.52 1365.16,2461.18 1365.82,2474.74C1391.74,2474.6 1406.58,2491.55 1410.38,2518.98C1381.65,2500.11 1336.74,2516.99 1335.9,2518.6C1331.54,2526.93 1324.42,2561.52 1316.52,2575.36C1306.73,2592.5 1283.66,2618 1257.61,2680.76C1226.65,2686.98 1218.83,2679.39 1202.54,2674.61ZM1018.48,2675.44C1001.45,2662.62 988.45,2649.24 980.545,2636.27C965.764,2612.02 967.526,2597.11 942.898,2568.44C918.253,2580.53 877.103,2686.24 868.856,2681.46C866.578,2596.37 878.984,2563.83 885.795,2530.71C911.555,2526.7 928.952,2523.42 948.132,2515.08C989.174,2528.19 1000.59,2536.27 1015.85,2539.01C1027.49,2541.1 1054.1,2561.78 1044.62,2584.14C1021.01,2569.99 1010.59,2581.97 1013.33,2593.51C1016.31,2606.02 1032.13,2628.53 1042.41,2639.55L1018.48,2675.44ZM1479.11,2632.18C1488.8,2620.3 1500.2,2602.93 1502.67,2592.51C1505.41,2580.97 1494.99,2568.99 1471.38,2583.14C1461.91,2560.78 1488.51,2540.1 1500.15,2538.01C1516.72,2535.04 1536.19,2526.09 1565.19,2510.82C1591.1,2522.76 1609.19,2526.43 1630.21,2529.71C1637.02,2562.83 1649.43,2595.37 1647.15,2680.46C1638.9,2685.24 1597.75,2579.53 1573.11,2567.44C1548.48,2596.11 1550.24,2605.58 1535.46,2629.83C1529.12,2640.22 1518.09,2651.98 1503.31,2663.97L1479.11,2632.18Z" style="fill:rgb(51,148,40);"/>
            <path d="M1370,3057.01C1386.91,3094.29 1377.4,3123.91 1376.68,3136.03C1375.08,3163.23 1360.1,3180.99 1340.83,3196.77C1325.98,3208.94 1310.27,3218.75 1290.4,3222.21C1264.04,3226.81 1238.36,3219.48 1217.61,3200.36L1250.63,3173.89C1276.46,3188.84 1307.14,3174.34 1324.77,3149.96C1339.62,3129.42 1340.84,3109.29 1333.93,3091.22L1370,3057.01ZM1223.87,3017.45C1218.6,3022.78 1205.76,3030.52 1200.69,3035.14C1188.18,3032.91 1187.4,3036.45 1181.06,3046.99C1173.35,3059.78 1161.77,3080.84 1162.6,3102.65C1163.83,3135.36 1171.39,3156.63 1178.53,3177.14C1179.28,3179.3 1249.91,3111.44 1250.63,3113.37C1258.52,3125.75 1263.27,3128.63 1270.78,3137.18C1261.21,3156.53 1175.53,3230.87 1163.94,3220.12C1162.93,3219.18 1160.73,3216.09 1160.32,3215.21C1157.32,3208.76 1154.56,3202.2 1151.52,3195.76C1144.61,3181.11 1129.26,3139.21 1131.7,3090.84C1133.61,3052.99 1152.24,3028.74 1155.92,3021.8C1163.97,3006.61 1198.15,2991.73 1223.87,3017.45ZM1342.78,3201.18C1348.05,3195.85 1356.14,3186.76 1361.21,3181.29C1367,3184.93 1372.25,3178.37 1375.86,3172.37C1383.57,3159.57 1395.15,3138.52 1394.32,3116.7C1393.09,3084 1384.68,3053.48 1377.55,3032.98C1376.8,3030.82 1306.16,3106.09 1305.44,3104.16C1297.56,3091.78 1289.52,3086.34 1282.01,3077.79C1291.58,3058.44 1380.54,2979.24 1392.13,2990C1393.14,2990.93 1395.35,2994.03 1395.75,2994.91C1398.75,3001.36 1401.51,3007.92 1404.55,3014.36C1411.46,3029.01 1427.66,3080.14 1425.22,3128.52C1423.31,3166.37 1404.68,3190.62 1401,3197.56C1390.11,3218.1 1368.34,3220.07 1342.78,3201.18ZM1364.64,3079.32C1371.28,3105.62 1364.75,3126.01 1364.2,3135.29C1362.83,3158.64 1349.44,3173.56 1332.91,3187.1C1319.73,3197.9 1305.89,3206.82 1288.25,3209.9C1270.48,3213 1253.09,3209.72 1237.83,3200.17C1237.83,3200.17 1252.33,3188.55 1252.33,3188.55C1281.91,3200.1 1315.28,3184.42 1334.9,3157.29C1350.53,3135.68 1353.35,3114.41 1348.22,3094.89C1348.22,3094.89 1364.64,3079.32 1364.64,3079.32L1364.64,3079.32ZM1202.71,3018.13C1200.75,3019.5 1198.82,3020.85 1197.08,3022.11C1191.86,3021.78 1188.17,3022.56 1185.18,3023.86C1179.86,3026.2 1176.07,3031.03 1170.35,3040.54C1161.71,3054.89 1149.18,3078.66 1150.1,3103.13C1151.4,3137.42 1159.24,3159.74 1166.72,3181.24C1167.92,3184.7 1170.18,3187.09 1173.38,3188.55C1174.54,3189.08 1180.82,3191.47 1187.91,3186.06C1196.2,3179.73 1230.86,3146.98 1248.32,3131.38C1250.5,3133.95 1252.57,3136.08 1254.75,3138.33C1252.64,3140.8 1250.02,3143.61 1247.07,3146.68C1230.53,3163.86 1203.65,3187.01 1183.5,3200.13C1179.17,3202.95 1173.8,3205.58 1170.38,3207.16C1167.85,3201.59 1165.44,3195.96 1162.83,3190.42C1156.31,3176.61 1141.88,3137.09 1144.18,3091.47C1145.95,3056.42 1163.56,3034.08 1166.97,3027.65C1168.44,3024.87 1171.55,3022.33 1175.33,3020.24C1182.69,3016.18 1192.81,3014.35 1202.71,3018.13ZM1385.79,3003.18C1388.29,3008.68 1390.67,3014.23 1393.25,3019.69C1399.79,3033.57 1415.05,3082.05 1412.74,3127.89C1410.97,3162.94 1393.36,3185.28 1389.95,3191.7C1387.39,3196.54 1384.04,3199.89 1379.7,3201.14C1374.57,3202.62 1368.75,3201.6 1362.33,3198.59L1362.33,3198.59C1363.47,3197.34 1364.59,3196.11 1365.67,3194.93C1368.44,3194.74 1371.14,3193.87 1373.76,3192.45C1378.56,3189.86 1383.23,3184.37 1386.57,3178.82C1395.21,3164.46 1407.74,3140.7 1406.82,3116.23C1405.52,3082.11 1396.79,3050.26 1389.35,3028.87C1388.04,3025.11 1385.54,3022.65 1382.05,3021.29C1380.93,3020.86 1374.43,3018.8 1367.58,3024.7C1359.28,3031.87 1324.48,3068.38 1307.07,3085.73C1304.05,3082.37 1301.05,3079.47 1298.09,3076.54C1300.29,3073.94 1303.04,3070.96 1306.15,3067.68C1323.26,3049.68 1351.18,3025.04 1372.05,3010.91C1376.6,3007.83 1382.21,3004.93 1385.79,3003.18ZM1212.99,3133.74C1211.21,3130.5 1211.77,3131.37 1210.44,3127.89C1200.19,3100.99 1215.23,3084.01 1233.01,3067.12C1238.54,3061.86 1245.05,3057.09 1251.91,3053.69C1252.76,3053.27 1277.47,3031.97 1277.43,3031.68C1272.75,3029.64 1255.51,3007.09 1252.27,3003.49C1246.3,3003.6 1222.25,3025.92 1217.68,3029.23C1196.3,3044.74 1179.9,3072.68 1173.66,3098.26C1167.05,3125.35 1173.03,3136.16 1186.94,3161.35L1212.99,3133.74ZM1228.99,3081.77C1228.54,3076.32 1249.71,3060.95 1254.08,3062.31C1256.84,3063.17 1325.58,3129.47 1325.88,3131.03C1326.28,3133.14 1309.98,3153.9 1305.58,3157.35C1296.84,3164.22 1229.16,3083.89 1228.99,3081.77ZM1252.01,3076.92C1265.21,3088.87 1296.26,3118.74 1310.03,3132.52C1307.73,3135.61 1304.87,3139.39 1302.43,3142.42C1298.89,3139.63 1293.75,3135.4 1289.62,3131.37C1273.81,3115.94 1254.61,3093.88 1245.03,3082.19L1252.01,3076.92ZM1249.62,3019.93C1252.49,3023.47 1255.87,3027.57 1259.03,3031.2C1253.65,3035.87 1247.48,3041.2 1245.16,3043.1C1237.63,3046.99 1230.5,3052.26 1224.4,3058.06C1203.13,3078.28 1186.76,3099.2 1198.3,3131.1L1189.74,3140.17C1183.65,3127.78 1181.63,3118.31 1185.8,3101.22C1191.39,3078.33 1205.89,3053.22 1225.02,3039.35C1227.75,3037.37 1241.71,3026.25 1249.62,3019.93ZM1245.06,2879.36C1270.35,2949.6 1325.45,2998.5 1330.64,3003.49L1298.8,3038.65C1255.44,2988.64 1212.79,2942.43 1184.37,2876.07C1199.23,2880.25 1223.18,2883.04 1245.06,2879.36ZM1236.9,2892.98C1258.66,2946.65 1296.01,2987.1 1313.21,3004.11C1313.21,3004.11 1298.99,3019.82 1298.99,3019.82C1264.52,2980.28 1231.06,2942.15 1205.91,2892.65C1215.67,2893.64 1226.34,2893.91 1236.9,2892.98ZM1368.44,2884.21C1368.44,2884.21 1358.36,2957.1 1312.18,2960.82L1337.35,2989C1342.25,2988.91 1364.82,2978.09 1376.19,2960.06C1378.66,2956.14 1382.78,2945.89 1392.05,2964.69C1398.66,2937.6 1382.35,2909.4 1368.44,2884.21ZM1380.03,2941.38C1377.69,2941.74 1375.51,2942.65 1373.48,2944.01C1370.23,2946.18 1367.41,2950.55 1365.62,2953.39C1359.82,2962.58 1347.56,2970.32 1340.79,2974.09L1334.53,2967.08C1346.5,2960.75 1355.77,2950.33 1362.7,2938.6C1366.6,2932 1369.73,2925.02 1372.22,2918.38L1372.22,2918.38C1373.67,2921.58 1375.02,2924.8 1376.21,2928.05C1377.83,2932.47 1379.18,2936.93 1380.03,2941.38ZM1508.49,2682.91C1522.28,2673.92 1522.76,2671.82 1537.45,2649.65C1593.92,2677.99 1598.39,2877.39 1529.67,2926.81C1569.63,2791.29 1543.46,2737.82 1508.49,2682.91ZM1011.92,2682.91C998.124,2673.92 997.645,2671.82 982.959,2649.65C926.481,2677.99 922.018,2877.39 990.732,2926.81C950.779,2791.29 976.944,2737.82 1011.92,2682.91ZM1053.76,2818.95C1048.74,2832.57 1048.14,2880.72 1046.79,2926.81C1028.66,2915.4 1012.27,2826.72 1014.99,2797.81C1027.41,2803.53 1039.05,2809.06 1053.76,2818.95ZM1265.12,2764.3C1307.73,2758.22 1344.41,2750.8 1385.91,2737.63C1441.08,2777.4 1471.44,2839.83 1466.72,2922.07C1408.25,2840.27 1324.51,2786.52 1265.12,2764.3ZM1143.82,2804.01C1137.95,2791.91 1150.97,2759.69 1152.53,2746.5C1146.09,2744.97 1139.72,2743.26 1133.46,2741.34C1069.26,2788.4 1051.35,2845.12 1055.13,2922.07C1084.79,2889.22 1114.65,2817.8 1143.82,2804.01ZM795.266,2695.41C798.209,2734.51 888.179,2850.74 953.647,2897.77C944.082,2864.7 930.527,2813.6 932.163,2775.77C897.884,2765.83 812.762,2707.2 795.266,2695.41ZM1729.87,2695.41C1726.92,2734.51 1636.95,2850.74 1571.48,2897.77C1581.05,2864.7 1595.67,2810.86 1594.03,2773.03C1635,2757.47 1707.12,2698.13 1729.87,2695.41ZM1308.3,2769.93C1333.44,2765.22 1357.66,2759.42 1383.56,2751.46C1424.14,2782.74 1449.15,2827.89 1453.88,2885.39C1409.15,2832.95 1355.26,2794.1 1308.3,2769.93L1308.3,2769.93ZM1129.95,2798C1119.42,2806.01 1108.63,2819.35 1098.13,2835.15C1088.03,2850.35 1077.93,2867.84 1067.82,2883.63C1071.41,2831.71 1090.2,2790.44 1135.96,2755.11C1136.59,2755.29 1137.22,2755.46 1137.86,2755.64C1135.4,2765.1 1131.75,2777.09 1130.43,2787.1C1129.91,2790.98 1129.76,2794.65 1129.95,2798ZM1036.14,2870.14C1036.94,2851.63 1038.02,2835.52 1039.7,2824.75L1039.7,2824.75C1035.51,2822.16 1031.54,2819.92 1027.69,2817.88C1028.87,2833 1031.94,2852.27 1036.14,2870.14ZM821.14,2727.72C851.309,2747.49 893.468,2773.9 919.552,2784.52C919.904,2809.1 925.275,2837.71 931.494,2863.38C893.608,2828.71 853.342,2779.8 829.001,2740.85C826.157,2736.3 823.52,2731.91 821.14,2727.72L821.14,2727.72ZM1709.09,2718.27C1705.61,2725.13 1701.2,2732.74 1696.13,2740.85C1671.82,2779.76 1631.61,2828.6 1593.76,2863.27C1600.36,2836.53 1606.27,2806.35 1606.64,2781.26C1631.2,2769.92 1663.6,2747.54 1690.82,2729.92C1697.36,2725.68 1703.52,2721.68 1709.09,2718.27ZM1559.45,2850.49C1570.12,2771.54 1550.96,2727.96 1525.34,2686.26C1530.62,2681.89 1534.03,2677.36 1540.52,2667.65C1543.78,2671.25 1546.71,2675.75 1549.41,2680.89C1558.22,2697.68 1563.89,2720.95 1566.46,2746.48C1569.87,2780.28 1567.77,2818.01 1559.45,2850.49ZM995.066,2686.26C969.449,2727.96 950.28,2771.54 960.953,2850.49C952.632,2818.01 950.535,2780.28 953.944,2746.48C956.519,2720.95 962.187,2697.68 970.999,2680.89C973.696,2675.75 976.625,2671.25 979.89,2667.65C986.38,2677.36 989.782,2681.89 995.066,2686.26ZM1175.2,2815.04C1173.96,2798.69 1175.7,2784.86 1180.85,2768.53C1182.95,2761.87 1185.1,2755.26 1187.72,2748.88C1210.58,2752.65 1225.84,2756.42 1239.64,2760.19C1232.97,2783.34 1232.35,2803.76 1234.25,2825.02C1208.02,2825.59 1201.56,2820.38 1175.2,2815.04ZM1187.33,2804.94C1187.37,2793.98 1189.13,2783.83 1192.77,2772.28C1193.76,2769.16 1194.75,2766.05 1195.8,2762.97C1207.05,2765.03 1216.27,2767.09 1224.52,2769.15C1221.36,2784.08 1220.46,2798.12 1220.93,2812.21C1208.43,2811.21 1200.84,2808.24 1187.33,2804.94L1187.33,2804.94ZM1074.38,2780.6C1089.16,2760.81 1107.11,2751.14 1126.49,2735.44C1105.4,2728.35 1080.21,2721.21 1059.65,2705.84C1048.31,2720.97 1039.9,2732.86 1032.99,2751.15C1051.28,2760.65 1063.82,2769.61 1074.38,2780.6ZM1073.34,2762.51C1066.37,2756.6 1058.45,2751.11 1048.91,2745.61C1052.88,2737.27 1057.39,2730.21 1062.64,2722.86C1074.68,2730.08 1087.64,2735.33 1100.23,2739.78C1090.67,2746.9 1081.65,2753.79 1073.34,2762.51ZM1097.53,2671.37C1140.31,2687.99 1169.47,2682 1202.95,2690.76C1205.39,2691.4 1212.62,2693.08 1227.85,2695.14C1234.91,2695.8 1241.95,2696.22 1248.92,2696.45C1285.09,2697.66 1362.64,2692.2 1425.52,2667.75L1452.31,2699.65C1401.63,2725.55 1327.4,2748.45 1259.51,2748.71C1189.31,2748.98 1122.66,2731.44 1071.22,2706.88C1081.18,2695.05 1089.83,2683.21 1097.53,2671.37ZM1102.49,2686.43C1140.78,2699.07 1168.39,2694.64 1199.78,2702.86C1202.37,2703.53 1210.03,2705.35 1226.18,2707.53L1226.43,2707.56C1234,2708.27 1241.29,2708.7 1248.51,2708.94C1284.08,2710.13 1358.62,2705.01 1421.62,2682.54C1421.62,2682.54 1432.42,2695.4 1432.42,2695.4C1384.16,2717.6 1319.28,2735.98 1259.47,2736.21C1197.69,2736.44 1138.76,2722.5 1091.07,2702.14C1095.09,2696.9 1098.89,2691.67 1102.49,2686.43ZM939.524,2715.57C947.556,2683.21 962.072,2656.09 981.858,2641.38C974.083,2630.57 958.826,2600.83 950.08,2587.08C941.932,2598.15 929.206,2621.2 921.987,2636.6C913.579,2654.53 901.83,2671.57 897.485,2692.76C910.132,2697.7 921.159,2705.38 939.524,2715.57ZM1585.61,2715.57C1577.58,2683.21 1563.06,2656.09 1543.27,2641.38C1551.05,2630.57 1566.31,2600.83 1575.05,2587.08C1583.2,2598.15 1595.92,2621.2 1603.14,2636.6C1611.55,2654.53 1623.3,2671.57 1627.65,2692.76C1615,2697.7 1603.97,2705.38 1585.61,2715.57ZM931.922,2696.84C924.557,2692.55 918.325,2688.85 912.271,2685.76C917.482,2669.85 926.596,2656.21 933.305,2641.91C937.522,2632.91 943.686,2621.18 949.623,2610.99C954.944,2620.43 960.695,2630.88 965.515,2638.97C951.232,2652.96 939.759,2673.11 931.922,2696.84L931.922,2696.84ZM1593.21,2696.84C1585.37,2673.11 1573.9,2652.96 1559.62,2638.97C1564.44,2630.88 1570.19,2620.43 1575.51,2610.99C1581.44,2621.18 1587.61,2632.91 1591.83,2641.91C1598.54,2656.21 1607.65,2669.85 1612.86,2685.76C1606.81,2688.85 1600.57,2692.55 1593.21,2696.84L1593.21,2696.84ZM1202.54,2674.61C1208.94,2610.05 1236.79,2588.96 1244.56,2562.95C1258.4,2516.66 1252,2482.42 1231.75,2499.47C1223.58,2506.35 1182.97,2514.05 1166.13,2506.28C1134.77,2491.81 1124.39,2539.18 1124.39,2539.18C1095.28,2504.01 1097.59,2476.61 1119.56,2462.28C1134.96,2452.23 1176.54,2452.56 1181.19,2441.09C1170.52,2435.76 1178.43,2417.18 1189.53,2411.66C1200.24,2406.33 1243.28,2397.74 1264.93,2405.12C1286.59,2412.5 1302.1,2407.94 1280.91,2383.47C1345.65,2387.54 1404.03,2437.26 1412.42,2463.27C1356.45,2433.96 1325.16,2426.71 1321.05,2453.82C1328.73,2464.7 1350.07,2474.38 1353.15,2448.79C1360.5,2453.52 1365.16,2461.18 1365.82,2474.74C1391.74,2474.6 1406.58,2491.55 1410.38,2518.98C1381.65,2500.11 1336.74,2516.99 1335.9,2518.6C1331.54,2526.93 1324.42,2561.52 1316.52,2575.36C1306.73,2592.5 1283.66,2618 1257.61,2680.76C1226.65,2686.98 1218.83,2679.39 1202.54,2674.61ZM1018.48,2675.44C1001.45,2662.62 988.45,2649.24 980.545,2636.27C965.764,2612.02 967.526,2597.11 942.898,2568.44C918.253,2580.53 877.103,2686.24 868.856,2681.46C866.578,2596.37 878.984,2563.83 885.795,2530.71C911.555,2526.7 928.952,2523.42 948.132,2515.08C989.174,2528.19 1000.59,2536.27 1015.85,2539.01C1027.49,2541.1 1054.1,2561.78 1044.62,2584.14C1021.01,2569.99 1010.59,2581.97 1013.33,2593.51C1016.31,2606.02 1032.13,2628.53 1042.41,2639.55L1018.48,2675.44ZM1479.11,2632.18C1488.8,2620.3 1500.2,2602.93 1502.67,2592.51C1505.41,2580.97 1494.99,2568.99 1471.38,2583.14C1461.91,2560.78 1488.51,2540.1 1500.15,2538.01C1516.72,2535.04 1536.19,2526.09 1565.19,2510.82C1591.1,2522.76 1609.19,2526.43 1630.21,2529.71C1637.02,2562.83 1649.43,2595.37 1647.15,2680.46C1638.9,2685.24 1597.75,2579.53 1573.11,2567.44C1548.48,2596.11 1550.24,2605.58 1535.46,2629.83C1529.12,2640.22 1518.09,2651.98 1503.31,2663.97L1479.11,2632.18ZM1303.38,2399.49C1327.13,2405.19 1348.98,2416.63 1366.15,2429.3C1354.81,2425.69 1345.42,2424.06 1338.09,2424.52C1329.69,2425.04 1323.15,2427.86 1318.24,2432.43C1313.45,2436.89 1310.01,2443.23 1308.69,2451.95L1307.94,2456.92L1310.84,2461.03C1314.83,2466.69 1321.38,2472.13 1328.34,2475.05C1334.08,2477.45 1340.08,2478.16 1345.47,2476.94C1348.1,2476.35 1350.75,2475.34 1353.23,2473.74C1353.28,2474.26 1353.31,2474.8 1353.34,2475.35L1353.92,2487.31L1365.89,2487.24C1376.73,2487.18 1384.69,2491.42 1390.07,2498.79C1368.91,2495.79 1347.33,2500.79 1337.05,2504.42C1331.86,2506.26 1328.74,2508.25 1327.91,2508.96C1326.26,2510.37 1325.37,2511.77 1324.83,2512.8C1320.5,2521.07 1313.5,2555.43 1305.66,2569.16C1296.08,2585.94 1274.02,2610.65 1248.74,2669.63C1232.55,2671.99 1224.44,2669.32 1216.15,2666.18L1216.15,2666.18C1220.56,2635.6 1230.31,2616.36 1239.08,2601.14C1246.52,2588.25 1253.18,2577.77 1256.54,2566.53C1266.01,2534.84 1265.92,2508.01 1260.35,2495.89C1256.56,2487.65 1250.54,2483.57 1243.81,2482.68C1238.36,2481.97 1231.34,2483.47 1223.7,2489.91C1221.31,2491.92 1214.91,2493.37 1207.57,2494.81C1195.12,2497.25 1179.71,2498.78 1171.37,2494.93C1161.94,2490.58 1153.73,2490.25 1146.69,2492.02C1136.61,2494.57 1128.63,2501.85 1123.02,2510.5C1122.48,2511.33 1121.96,2512.17 1121.46,2513.02C1111.79,2495 1113.6,2481.09 1126.38,2472.75C1130.76,2469.89 1137.84,2468.38 1145.23,2466.82C1154.69,2464.82 1164.67,2463.12 1172.36,2460.79C1183.31,2457.48 1190.36,2451.73 1192.77,2445.78L1197.11,2435.06L1189.18,2431.1C1190.18,2428.81 1192.48,2424.15 1195.09,2422.85C1200.82,2420 1216.96,2416.4 1233.08,2415.16C1243.31,2414.38 1253.56,2414.45 1260.9,2416.95C1273.44,2421.22 1284.57,2421.6 1290.99,2419.25C1296.97,2417.07 1300.77,2413.04 1302.53,2407.75C1303.31,2405.42 1303.71,2402.67 1303.38,2399.49ZM881.5,2639.17C883.304,2591.35 890.749,2565.49 896.186,2541.71C916.854,2538.32 932.4,2534.96 948.69,2528.4C987.144,2540.97 998.586,2548.61 1013.65,2551.32C1017.63,2552.03 1023.85,2556.39 1028.59,2562.02C1029.57,2563.19 1030.5,2564.43 1031.32,2565.73C1023.75,2564.53 1017.75,2565.84 1013.4,2568.06C1002.98,2573.4 998.432,2584.86 1001.17,2596.39C1003.91,2607.91 1016.12,2627.17 1026.77,2640.48C1026.77,2640.48 1015.65,2657.15 1015.65,2657.15L1015.65,2657.15C1005.07,2648.07 996.748,2638.83 991.218,2629.76C976.054,2604.89 977.646,2589.71 952.38,2560.3L946.078,2552.96L937.396,2557.22C931.175,2560.27 923.709,2567.63 916.321,2578.08C904.767,2594.41 892.163,2618.81 881.5,2639.17ZM1634.42,2635.89C1625.47,2619.55 1614.84,2600.67 1606.3,2587.05C1596.62,2571.62 1586.57,2560.12 1578.61,2556.22L1569.93,2551.96L1563.62,2559.3C1538.32,2588.76 1539.98,2598.4 1524.79,2623.32C1520.52,2630.32 1513.85,2637.94 1505.22,2645.85C1505.22,2645.85 1494.85,2632.22 1494.85,2632.22L1494.85,2632.22C1503.87,2619.83 1512.57,2604.94 1514.83,2595.39C1517.57,2583.86 1513.03,2572.4 1502.6,2567.06C1498.26,2564.84 1492.25,2563.53 1484.69,2564.73C1485.5,2563.43 1486.43,2562.19 1487.41,2561.02C1492.15,2555.39 1498.37,2551.03 1502.36,2550.32C1518.77,2547.37 1537.98,2539.06 1565.61,2524.71C1586.5,2533.79 1602.64,2537.72 1619.81,2540.68C1625.16,2564.08 1632.46,2589.49 1634.42,2635.89Z"/>
        </g>
        <g transform="matrix(0.928214,0,0,0.928214,83.406,27.5544)">
            <path d="M1221.4,2556.59C1234.81,2546.58 1258.5,2555.14 1258.5,2555.14C1258.5,2555.14 1240.42,2574.49 1232.41,2577.16C1214.91,2582.99 1199.56,2581.24 1199.56,2581.24C1199.56,2581.24 1208.01,2566.58 1221.4,2556.59Z" style="fill:rgb(215,162,8);"/>
            <path d="M1221.4,2556.59C1234.81,2546.58 1258.5,2555.14 1258.5,2555.14C1258.5,2555.14 1240.42,2574.49 1232.41,2577.16C1214.91,2582.99 1199.56,2581.24 1199.56,2581.24C1199.56,2581.24 1208.01,2566.58 1221.4,2556.59Z"/>
        </g>
    </g>
</svg>
