<?xml version="1.0" encoding="UTF-8" standalone="no"?>
<!DOCTYPE svg PUBLIC "-//W3C//DTD SVG 1.1//EN" "http://www.w3.org/Graphics/SVG/1.1/DTD/svg11.dtd">
<svg viewBox="0 0 2550 3300" width="2550" height="3300" version="1.1" xmlns="http://www.w3.org/2000/svg"
 xml:space="preserve" style="fill-rule:evenodd;clip-rule:evenodd;stroke-linejoin:round;stroke-miterlimit:2;">
    <style>
        symbol {  overflow:visible; }
    </style>
    <defs> 
        <symbol id="Border-A-1">
            <path d="M200.729,504.976C193.584,497.14 187.309,490.831 176.685,480.474C166.577,470.621 149.108,452.386 149.108,452.386C140.688,458.12 133.546,468.573 131.712,479.137C138.858,486.974 144.248,492.495 154.871,502.851C164.98,512.705 176.649,524.483 183.448,531.939C196.042,518.945 199.024,511.586 200.729,504.976Z"/>
            <path fill="black" d="M200.729,504.976C193.584,497.14 187.309,490.831 176.685,480.474C166.577,470.621 149.108,452.386 149.108,452.386C140.688,458.12 133.546,468.573 131.712,479.137C138.858,486.974 144.248,492.495 154.871,502.851C164.98,512.705 176.649,524.483 183.448,531.939C196.042,518.945 199.024,511.586 200.729,504.976ZM191.248,507.077C189.881,510.508 187.626,514.417 183.34,519.562C176.686,512.621 168.279,504.2 160.73,496.842C151.803,488.14 146.626,482.904 140.929,476.762C142.453,472.039 145.195,467.53 148.554,463.907C154.577,470.138 164.25,480.072 170.827,486.484C179.651,495.086 185.433,500.853 191.248,507.077L191.248,507.077Z"/>
        </symbol>
        <symbol id="Border-B-1">
            <path d="M102.258,527.275C109.854,515.757 117.598,505.432 125.587,497.055C125.506,495.314 125.472,493.521 125.472,491.663C125.472,469.284 132.748,457.77 158.814,430.512L162.74,426.586L140.061,405.082L136.229,408.914C101.536,445.192 94.222,461.878 94.222,491.663C94.222,512.139 98.294,522.261 102.258,527.275Z"/>
            <path fill="black" d="M102.258,527.275C109.854,515.757 117.598,505.432 125.587,497.055C125.506,495.314 125.472,493.521 125.472,491.663C125.472,469.284 132.748,457.77 158.814,430.512L162.74,426.586L140.061,405.082L136.229,408.914C101.536,445.192 94.222,461.878 94.222,491.663C94.222,512.139 98.294,522.261 102.258,527.275ZM150.765,426.798C124.017,455.017 117.079,467.867 117.079,491.663C117.079,492.405 117.085,493.138 117.096,493.862C112.692,498.71 108.353,504.109 104.071,509.945L104.071,509.946C103.166,505.289 102.614,499.313 102.614,491.663C102.614,464.466 109.621,449.216 140.271,416.846L150.765,426.798Z"/>
        </symbol>
        <symbol id="Border-C1-1">
            <path d="M195.46,483.275C209.851,468.825 244.362,433.84 244.362,433.84C236.732,431.328 230.211,428.804 218.493,416.107C205.163,429.7 188.483,446.551 174.151,460.942L195.46,483.275Z" />
            <path fill="black" d="M195.46,483.275C209.851,468.825 244.362,433.84 244.362,433.84C236.732,431.328 230.211,428.804 218.493,416.107C205.163,429.7 188.483,446.551 174.151,460.942L195.46,483.275ZM195.578,471.4L185.717,461.066C196.534,450.185 208.192,438.405 218.496,427.928C222.82,432.018 226.488,434.749 229.866,436.73C220.606,446.11 205.924,460.973 195.578,471.4L195.578,471.4Z"/>
        </symbol>
        <symbol id="Border-C2-1">
            <path d="M128.929,594.196C128.929,594.196 124.046,583.466 124.046,575.723C124.046,546.632 124.105,524.006 128.929,507.878C143.493,506.604 172.051,503.879 200.616,505.95C222.682,507.55 234.761,513.826 261.193,539.723L282.234,517.125C247.024,482.628 229.793,476.336 200.816,476.336C155.936,476.336 116.119,480.825 116.119,480.825L104.651,482.116C104.651,482.116 102.057,486.405 100.417,498.351C98.1,515.227 95.532,538.307 95.532,583.945C95.532,595.919 95.158,602.1 104.378,626.513C111.38,616.068 117.877,602.86 128.929,594.196Z" />
            <path fill="black" d="M128.929,594.196C128.929,594.196 124.046,583.466 124.046,575.723C124.046,546.632 124.105,524.006 128.929,507.878C143.493,506.604 172.051,503.879 200.616,505.95C222.682,507.55 234.761,513.826 261.193,539.723L282.234,517.125C247.024,482.628 229.793,476.336 200.816,476.336C155.936,476.336 116.119,480.825 116.119,480.825L104.651,482.116C104.651,482.116 102.057,486.405 100.417,498.351C98.1,515.227 95.532,538.307 95.532,583.945C95.532,595.919 95.158,602.1 104.378,626.513C111.38,616.068 117.877,602.86 128.929,594.196ZM119.205,591.729C114.338,596.533 110.31,602.109 106.631,607.72C103.573,597.101 103.714,591.905 103.714,583.945C103.714,538.932 106.233,516.167 108.518,499.521C109.118,495.153 109.827,492.027 110.433,489.908L117.013,489.167C117.013,489.167 156.409,484.728 200.816,484.728C226.161,484.728 241.703,490.247 270.613,517.455C270.613,517.455 260.875,527.914 260.875,527.914C236.316,504.781 223.304,499.182 201.193,497.579C172.121,495.471 143.056,498.219 128.234,499.516C124.907,499.807 122.087,502.142 121.108,505.416C116.107,522.133 115.865,545.57 115.865,575.723C115.865,580.892 117.644,587.194 119.205,591.729Z"/>
        </symbol>
        <symbol id="Border-C3-1">
            <path d="M129.002,505.18C129.749,504.418 131.733,502.408 132.508,501.626C137.653,496.445 143.436,490.822 149.935,484.646C151.465,483.192 160.549,474.245 169.194,465.716L191.423,487.127C182.593,495.839 173.312,504.974 171.748,506.46C164.565,513.286 148.263,529.22 142.788,534.803C136.96,526.514 130.15,521.207 129.002,505.18Z" />
            <path fill="black" d="M129.002,505.18C129.749,504.418 131.733,502.408 132.508,501.626C137.653,496.445 143.436,490.822 149.935,484.646C151.465,483.192 160.549,474.245 169.194,465.716L191.423,487.127C182.593,495.839 173.312,504.974 171.748,506.46C164.565,513.286 148.263,529.22 142.788,534.803C136.96,526.514 130.15,521.207 129.002,505.18ZM137.76,508.103C138.741,514.525 140.997,518.673 143.61,522.273C150.832,515.14 160.713,505.522 165.89,500.602C167.095,499.457 172.91,493.742 179.553,487.195C179.553,487.195 169.264,477.285 169.264,477.285C162.71,483.744 156.983,489.374 155.793,490.505C149.359,496.619 143.632,502.186 138.539,507.316L137.76,508.103Z"/>  
        </symbol>
        <symbol id="Border-C4-1">
            <path d="M204.148,694.398C196.929,686.439 185.828,674.947 175.92,665.039C166.589,655.708 163.386,644.921 162.407,637.012C165.231,636.867 170.414,636.809 173.716,636.931C182.951,627.459 199.653,611.49 199.653,611.49C199.653,611.49 199.204,611.027 195.044,608.848C184.019,603.073 158.644,605.428 148.6,606.4C144.175,606.828 134.523,608.014 134.523,608.014C134.523,608.014 132.643,614.617 132.643,620.641C132.643,634.089 130.853,662.998 154.656,687.416C164.16,696.92 174.92,708.049 181.844,715.684L204.148,694.398Z" />
            <path fill="black" d="M204.148,694.398C196.929,686.439 185.828,674.947 175.92,665.039C166.589,655.708 163.386,644.921 162.407,637.012C165.231,636.867 170.414,636.809 173.716,636.931C182.951,627.459 199.653,611.49 199.653,611.49C199.653,611.49 199.204,611.027 195.044,608.848C184.019,603.073 158.644,605.428 148.6,606.4C144.175,606.828 134.523,608.014 134.523,608.014C134.523,608.014 132.643,614.617 132.643,620.641C132.643,634.089 130.853,662.998 154.656,687.416C164.16,696.92 174.92,708.049 181.844,715.684L204.148,694.398ZM184.74,614.356C180.214,618.748 174.819,624.03 170.411,628.476C167.407,628.46 164.091,628.522 161.996,628.63C159.721,628.748 157.597,629.833 156.135,631.624C154.672,633.416 154.004,635.751 154.291,638.069C155.443,647.378 159.227,660.066 170.209,671.049C177.706,678.545 185.894,686.958 192.528,694.025L182.203,703.879C175.709,696.967 167.696,688.737 160.408,681.448C138.803,659.257 140.825,632.861 140.825,620.641C140.825,618.956 141.008,617.215 141.249,615.656C144.071,615.324 147.299,614.955 149.368,614.755C155.154,614.196 166.24,613.139 176.47,613.596C179.365,613.725 182.191,613.938 184.74,614.356Z"/>
        </symbol>
        <symbol id="Border-D1-1">
            <path d="M252.223,290.253C203.828,200.154 174.803,165.392 121.506,115.664C109.318,104.291 92.468,87.05 92.468,87.05C84.525,92.459 77.788,102.32 76.058,112.285C82.799,119.677 88.778,124.656 98.905,134.655C115.26,150.803 157.673,178.973 235.921,315.687C240.451,308.415 245.758,300.106 252.223,290.253Z" />
            <path fill="black" d="M252.223,290.253C203.828,200.154 174.803,165.392 121.506,115.664C109.318,104.291 92.468,87.05 92.468,87.05C84.525,92.459 77.788,102.32 76.058,112.285C82.799,119.677 88.778,124.656 98.905,134.655C115.26,150.803 157.673,178.973 235.921,315.687C240.451,308.415 245.758,300.106 252.223,290.253ZM243.019,289.862C240.59,293.587 238.332,297.084 236.222,300.383C161.42,172.161 120.513,144.865 104.467,129.021C95.92,120.582 90.36,115.773 84.769,109.995C86.218,105.53 88.821,101.271 92.004,97.856C97.998,103.901 108.059,113.944 116.105,121.452C167.948,169.824 196.524,203.886 243.019,289.862Z"/>
            </symbol>
        <symbol id="Border-D2-1">
            <path d="M286.635,257.131C289.883,253.883 313.959,246.375 317.324,246.375C317.324,246.375 337.357,282.943 359.769,327.345C339.049,374.283 302.682,418.227 302.682,418.227C302.682,418.227 269.299,391.293 257.12,368.015L271.422,339.76C271.422,339.76 283.748,368.448 298.633,379.544C298.633,379.544 319.472,350.044 325.426,328.123C320.701,316.69 312.678,296.103 304.078,280.901L299.36,280.125C294.092,268.688 286.635,257.131 286.635,257.131Z" />
            <path fill="black" d="M286.635,257.131C289.883,253.883 313.959,246.375 317.324,246.375C317.324,246.375 337.357,282.943 359.769,327.345C339.049,374.283 302.682,418.227 302.682,418.227C302.682,418.227 269.299,391.293 257.12,368.015L271.422,339.76C271.422,339.76 283.748,368.448 298.633,379.544C298.633,379.544 319.472,350.044 325.426,328.123C320.701,316.69 312.678,296.103 304.078,280.901L299.36,280.125C294.092,268.688 286.635,257.131 286.635,257.131ZM313.262,255.48C319.362,266.748 334.392,294.759 350.998,327.543C335.293,361.766 311.729,393.795 301.554,406.92C292.41,398.95 275.246,382.956 266.094,367.816C266.094,367.815 271.451,357.233 271.451,357.233C276.952,366.992 285.044,379.288 293.901,385.891C295.613,387.167 297.767,387.697 299.875,387.362C301.984,387.027 303.867,385.855 305.099,384.112C305.099,384.112 326.829,353.16 333.066,330.198C333.525,328.509 333.411,326.716 332.742,325.099C327.928,313.452 319.73,292.49 310.968,277.003C309.788,274.917 307.727,273.478 305.363,273.09L304.715,272.983C302.426,268.374 299.954,263.945 297.898,260.42C298.79,260.053 299.696,259.699 300.552,259.391C304.404,258.005 309.605,256.494 313.262,255.48Z"/>
        </symbol>
        <symbol id="Border-D3-1">
            <path d="M271.422,400.837C221.435,491.468 192.587,526.17 140.706,575.427C137.261,578.697 131.381,584.384 127.649,588.043L105.577,568.605C108.37,565.966 114.508,560.062 118.104,556.436C135.158,539.238 178.196,510.132 255.121,375.403C259.65,382.675 264.957,390.984 271.422,400.837Z" />
            <path fill="black" d="M271.422,400.837C221.435,491.468 192.587,526.17 140.706,575.427C137.261,578.697 131.381,584.384 127.649,588.043L105.577,568.605C108.37,565.966 114.508,560.062 118.104,556.436C135.158,539.238 178.196,510.132 255.121,375.403C259.65,382.675 264.957,390.984 271.422,400.837ZM262.186,401.179C214.161,487.715 185.757,521.738 135.255,569.685C133.178,571.657 130.223,574.501 127.378,577.256C127.379,577.256 117.274,568.357 117.274,568.357C119.577,566.126 121.955,563.796 123.725,562.01C140.444,545.151 181.91,516.954 255.428,390.718C257.527,394 259.772,397.477 262.186,401.179Z"/>
        </symbol>
        <symbol id="Border-D4-1">
            <path d="M294.654,366.015C289.086,354.252 283.066,340.95 276.715,332.068C276.715,332.068 281.782,326.924 282.957,324.259C267.137,286.833 199.047,172.838 150.206,123.997C146.503,120.293 146.411,120.387 146.411,120.387L166.29,100.573C229.997,166.407 300.307,278.095 314.324,324.838C311.611,343.962 299.02,361.858 294.654,366.015Z" />
            <path fill="black" d="M294.654,366.015C289.086,354.252 283.066,340.95 276.715,332.068C276.715,332.068 281.782,326.924 282.957,324.259C267.137,286.833 199.047,172.838 150.206,123.997C146.503,120.293 146.411,120.387 146.411,120.387L166.29,100.573C229.997,166.407 300.307,278.095 314.324,324.838C311.611,343.962 299.02,361.858 294.654,366.015ZM157.695,120.318L166.141,111.9C226.686,176.577 291.688,279.77 306.217,325.417C304.53,335.027 300.218,344.182 296.196,350.81L296.196,350.809C293.107,344.421 289.902,338.127 286.612,332.729C288.107,330.879 289.572,328.879 290.2,327.454C291.081,325.458 291.098,323.187 290.249,321.177C274.433,283.76 207.005,170.776 157.695,120.318Z"/>
        </symbol>
        <symbol id="Border-D5-1">
            <path d="M31.039,182.302C37.628,172.879 53.09,153.16 61.081,144.119C61.081,144.119 60.874,139.815 60.874,134.384C60.874,113.275 74.089,92.129 98.677,66.417L102.38,62.714L80.988,42.428L77.373,46.043C44.647,80.265 31.396,106.288 31.396,134.384C31.396,153.7 31.039,182.302 31.039,182.302Z" />
            <path fill="black" d="M31.039,182.302C37.628,172.879 53.09,153.16 61.081,144.119C61.081,144.119 60.874,139.815 60.874,134.384C60.874,113.275 74.089,92.129 98.677,66.417L102.38,62.714L80.988,42.428L77.373,46.043C44.647,80.265 31.396,106.288 31.396,134.384C31.396,153.7 31.039,182.302 31.039,182.302ZM81.188,53.529L91.089,62.917C65.879,89.691 52.957,112.227 52.957,134.384C52.957,137.068 53.006,139.486 53.057,141.285C49.141,145.862 44.1,152.082 39.197,158.324L39.197,158.324C39.261,150.385 39.312,141.717 39.312,134.384C39.312,108.495 51.759,84.733 81.188,53.529Z"/>
        </symbol>
        <symbol id="Border-D6-1">
            <path d="M32.848,389.829C32.848,410.676 14.282,435.865 11.251,460.065C4.461,514.275 38.223,550.346 38.223,550.346L60.402,524.642C53.652,513.958 26.526,495.002 45.93,452.478C56.737,428.796 61.544,407.303 62.305,374.872C62.321,374.182 62.326,253.656 62.326,252.964C62.326,233.648 62.682,205.046 62.682,205.046C56.094,214.469 32.848,257.638 32.848,263.069L32.848,389.829Z" />
            <path fill="black" d="M32.848,389.829C32.848,410.676 14.282,435.865 11.251,460.065C4.461,514.275 38.223,550.346 38.223,550.346L60.402,524.642C53.652,513.958 26.526,495.002 45.93,452.478C56.737,428.796 61.544,407.303 62.305,374.872C62.321,374.182 62.326,253.656 62.326,252.964C62.326,233.648 62.682,205.046 62.682,205.046C56.094,214.469 32.848,257.638 32.848,263.069L32.848,389.829ZM40.765,263.711C41.125,262.77 43.062,257.781 45.188,253.339C47.782,247.918 51.098,241.446 54.479,235.107C54.438,241.23 54.409,247.472 54.409,252.964C54.409,253.655 54.406,373.998 54.39,374.687C53.66,405.816 49.101,426.459 38.728,449.191C19.89,490.475 40.118,511.739 50.275,524.261C50.275,524.261 38.508,537.897 38.508,537.897C29.861,525.549 14.507,497.768 19.106,461.049C20.536,449.631 25.745,438.017 30.483,426.761C35.948,413.774 40.764,401.177 40.765,389.829L40.765,263.711Z"/>
        </symbol>
        <symbol id="Border-D7-1">
            <path d="M0,369.111C0,394.065 16.058,429.381 16.058,429.381L27.409,381.689C27.409,381.689 27.301,292.05 27.301,290.297C27.301,215.834 74.089,178.93 98.677,153.218L102.38,149.515L80.988,129.229L77.373,132.844C44.647,167.066 0,220.916 0,288.846L0,369.111Z" />
            <path fill="black" d="M0,369.111C0,394.065 16.058,429.381 16.058,429.381L27.409,381.689C27.409,381.689 27.301,292.05 27.301,290.297C27.301,215.834 74.089,178.93 98.677,153.218L102.38,149.515L80.988,129.229L77.373,132.844C44.647,167.066 0,220.916 0,288.846L0,369.111ZM81.184,140.326L91.067,149.697C65.146,176.316 19.384,214.869 19.384,290.297C19.384,291.945 19.48,371.234 19.491,380.764C19.491,380.764 14.304,402.556 14.304,402.556C10.941,392 7.917,379.594 7.917,369.111L7.917,288.846C7.917,224.522 49.746,173.463 81.184,140.326Z"/>
        </symbol>
        <symbol id="Border-D8-1">
            <path d="M129.649,524.642C122.908,517.25 94.811,494.698 85.63,484.135C72.285,468.784 57.435,440.145 57.435,440.145C49.695,454.929 48.628,461.071 46.254,472.149C52.884,486.923 60.652,498.093 70.673,507.863C80.208,517.158 104.026,540.144 110.44,547.177C117.302,540.843 124.548,533.884 129.649,524.642Z" />
            <path fill="black" d="M129.649,524.642C122.908,517.25 94.811,494.698 85.63,484.135C72.285,468.784 57.435,440.145 57.435,440.145C49.695,454.929 48.628,461.071 46.254,472.149C52.884,486.923 60.652,498.093 70.673,507.863C80.208,517.158 104.026,540.144 110.44,547.177C117.302,540.843 124.548,533.884 129.649,524.642ZM119.57,525.818C116.888,529.603 113.83,532.941 110.697,536.035C100.954,526.184 83.927,509.727 76.199,502.194C67.397,493.613 60.483,483.857 54.545,471.233C55.581,466.372 56.467,462.402 58.152,457.714C63.895,467.57 72.019,480.545 79.655,489.329C87.514,498.371 109.182,516.181 119.57,525.818L119.57,525.818Z"/>
        </symbol>
        <symbol id="Border-E1-1">
            <path d="M839.826,3129.66C839.826,3129.66 864.602,3097.88 873.45,3087.86C882.298,3077.85 914.507,3069.41 919.164,3095.02C923.821,3120.64 923.588,3148.04 923.588,3148.04C923.588,3148.04 893.449,3153.16 877.084,3146.87C877.084,3146.87 895.646,3126.78 897.642,3122.66C899.638,3118.53 892.586,3108.55 891.388,3119.33C883.405,3129.18 868.11,3146.74 868.11,3146.74C858.867,3143.64 849.432,3137.85 839.826,3129.66Z" />
            <path fill="black" d="M839.826,3129.66C839.826,3129.66 864.602,3097.88 873.45,3087.86C882.298,3077.85 914.507,3069.41 919.164,3095.02C923.821,3120.64 923.588,3148.04 923.588,3148.04C923.588,3148.04 893.449,3153.16 877.084,3146.87C877.084,3146.87 895.646,3126.78 897.642,3122.66C899.638,3118.53 892.586,3108.55 891.388,3119.33C883.405,3129.18 868.11,3146.74 868.11,3146.74C858.867,3143.64 849.432,3137.85 839.826,3129.66ZM851.415,3128.3C859.075,3118.55 873.398,3100.44 879.663,3093.35C882.964,3089.62 890.747,3086.49 898.015,3086.37C901.606,3086.32 905.17,3086.97 907.684,3089.42C909.344,3091.04 910.44,3093.39 911.006,3096.51C914.095,3113.5 914.966,3131.3 915.208,3140.87C909.422,3141.55 900.875,3142.24 892.816,3141.64C898.18,3135.49 903.996,3128.56 905.106,3126.27C906.187,3124.03 906.574,3121.2 906.044,3118.28C905.468,3115.1 903.767,3111.85 901.829,3109.8C898.788,3106.6 895.026,3105.74 891.915,3106.41C889.386,3106.95 885.169,3108.89 883.589,3115.78C878.144,3122.41 870.306,3131.53 865.682,3136.88C860.975,3134.76 856.224,3131.87 851.415,3128.3L851.415,3128.3Z"/>
        </symbol>
        <symbol id="Border-E2-1">
            <path d="M810.331,3117.93C810.331,3117.93 865.624,3177.35 930.384,3160.98C933.659,3115.86 929.089,3085.36 920.721,3078.08C912.353,3070.8 880.594,3067.89 861.675,3078.08L834.335,3055.47C834.335,3055.47 859.773,3043.77 891.426,3043.77C923.079,3043.77 940.389,3050.19 947.12,3056.93C953.851,3063.66 962.807,3076.16 962.807,3125.76C962.807,3175.37 960.582,3193.36 960.582,3193.36C960.582,3193.36 910.305,3206.35 867.204,3192.92C818.148,3177.64 786.319,3140.25 786.319,3140.25L810.331,3117.93Z" />
            <path fill="black" d="M810.331,3117.93C810.331,3117.93 865.624,3177.35 930.384,3160.98C933.659,3115.86 929.089,3085.36 920.721,3078.08C912.353,3070.8 880.594,3067.89 861.675,3078.08L834.335,3055.47C834.335,3055.47 859.773,3043.77 891.426,3043.77C923.079,3043.77 940.389,3050.19 947.12,3056.93C953.851,3063.66 962.807,3076.16 962.807,3125.76C962.807,3175.37 960.582,3193.36 960.582,3193.36C960.582,3193.36 910.305,3206.35 867.204,3192.92C818.148,3177.64 786.319,3140.25 786.319,3140.25L810.331,3117.93ZM810.243,3129.33C826.919,3144.45 876.399,3183.18 932.416,3169.02L938.22,3167.55L938.654,3161.58C941.039,3128.72 939.271,3103.32 935.101,3088.43C932.807,3080.24 929.515,3074.74 926.162,3071.82C921.988,3068.19 913.309,3064.95 902.694,3063.76C890.225,3062.36 875.057,3063.52 862.938,3068.37C862.938,3068.37 850.785,3058.32 850.785,3058.32C860.601,3055.35 875.139,3052.06 891.426,3052.06C919.619,3052.06 935.262,3056.79 941.257,3062.79C947.392,3068.92 954.516,3080.55 954.516,3125.76C954.516,3159.16 953.505,3178.01 952.865,3186.59C939.036,3189.4 902.204,3195.14 869.67,3185.01C834.611,3174.09 808.783,3151.32 798.078,3140.64L810.243,3129.33Z"/>
        </symbol>
        <symbol id="Border-F1-1">
            <path d="M200.729,504.976C193.584,497.14 187.309,490.831 176.685,480.474C166.577,470.621 149.108,452.386 149.108,452.386C140.688,458.12 133.546,468.573 131.712,479.137C138.858,486.974 144.248,492.495 154.871,502.851C164.98,512.705 175.385,523.471 182.184,530.927C194.777,517.934 199.024,511.586 200.729,504.976Z" />
            <path fill="black" d="M200.729,504.976C193.584,497.14 187.309,490.831 176.685,480.474C166.577,470.621 149.108,452.386 149.108,452.386C140.688,458.12 133.546,468.573 131.712,479.137C138.858,486.974 144.248,492.495 154.871,502.851C164.98,512.705 175.385,523.471 182.184,530.927C194.777,517.934 199.024,511.586 200.729,504.976ZM191.086,506.904C189.471,510.139 186.76,513.689 182.231,518.659C175.95,512.021 168.259,504.181 160.73,496.842C151.803,488.14 146.626,482.904 140.929,476.762C142.453,472.039 145.195,467.53 148.554,463.907C154.577,470.138 164.25,480.072 170.827,486.484C179.569,495.006 185.325,500.746 191.086,506.904L191.086,506.904Z"/>
        </symbol>
        <symbol id="Border-F2-1">
            <path d="M832.598,3106.77C832.22,3108.47 872.296,3142.93 883.04,3148.24C897.33,3155.31 922.101,3152.87 922.101,3152.87C922.101,3152.87 922.785,3145.9 923.382,3133.75C923.913,3122.96 923.458,3112.2 921.942,3103.42C919.642,3090.11 900.065,3078.13 888.345,3081.55C881.657,3083.51 875.758,3091.86 871.973,3096.31C871.973,3096.31 884.387,3106.73 891.272,3112.3L895.343,3112.68C895.343,3112.68 898.147,3113.15 898.151,3114.18C898.157,3115.86 896.954,3116.67 895.548,3117.04C889.696,3118.61 853.03,3089.55 853.03,3089.55C845.467,3094.89 838.566,3100.41 832.598,3106.77Z" />
            <path fill="black" d="M832.598,3106.77C832.22,3108.47 872.296,3142.93 883.04,3148.24C897.33,3155.31 922.101,3152.87 922.101,3152.87C922.101,3152.87 922.785,3145.9 923.382,3133.75C923.913,3122.96 923.458,3112.2 921.942,3103.42C919.642,3090.11 900.065,3078.13 888.345,3081.55C881.657,3083.51 875.758,3091.86 871.973,3096.31C871.973,3096.31 884.387,3106.73 891.272,3112.3L895.343,3112.68C895.343,3112.68 898.147,3113.15 898.151,3114.18C898.157,3115.86 896.954,3116.67 895.548,3117.04C889.696,3118.61 853.03,3089.55 853.03,3089.55C845.467,3094.89 838.566,3100.41 832.598,3106.77ZM844.239,3106.98C855.101,3117.04 878.943,3136.97 886.716,3140.81C894.872,3144.84 906.904,3145.26 914.409,3145.04C914.621,3142.02 914.868,3138.09 915.101,3133.35C915.6,3123.2 915.197,3113.09 913.771,3104.83C912.975,3100.22 908.826,3096.14 904.224,3093.21C899.747,3090.36 894.616,3088.36 890.669,3089.51C888.583,3090.12 886.778,3091.95 885.041,3093.75C884.563,3094.24 884.097,3094.75 883.643,3095.26C887.021,3098.07 891.167,3101.51 894.551,3104.28C894.551,3104.28 896.415,3104.45 896.415,3104.45L896.706,3104.5C896.706,3104.5 901.449,3105.7 903.415,3107.47C905.519,3109.37 906.434,3111.73 906.442,3114.15C906.464,3120.2 902.772,3123.69 897.695,3125.05C896.372,3125.41 894.629,3125.56 892.525,3125.13C890.676,3124.76 888.037,3123.74 884.962,3122.09C875.773,3117.17 860.665,3105.89 852.873,3099.92C849.853,3102.19 846.966,3104.53 844.239,3106.98Z"/>
        </symbol>
        <symbol id="Border-F3-1">
            <path d="M854.532,3182.07L878.162,3159.48C894.246,3164.61 910.584,3165.98 930.384,3160.98C933.659,3115.86 927.44,3088.24 919.072,3080.96C913.083,3075.75 862.777,3073.48 813.915,3114.86L791.984,3093.74C824.183,3061.54 861.353,3043.65 891.426,3043.77C923.301,3043.9 962.807,3048.43 962.807,3125.76C962.807,3175.37 960.582,3191.26 960.582,3191.26C960.582,3191.26 913.447,3202.16 870.346,3188.73C864.955,3187.05 859.656,3184.74 854.532,3182.07Z" />
            <path fill="black" d="M854.532,3182.07L878.162,3159.48C894.246,3164.61 910.584,3165.98 930.384,3160.98C933.659,3115.86 927.44,3088.24 919.072,3080.96C913.083,3075.75 862.777,3073.48 813.915,3114.86L791.984,3093.74C824.183,3061.54 861.353,3043.65 891.426,3043.77C923.301,3043.9 962.807,3048.43 962.807,3125.76C962.807,3175.37 960.582,3191.26 960.582,3191.26C960.582,3191.26 913.447,3202.16 870.346,3188.73C864.955,3187.05 859.656,3184.74 854.532,3182.07ZM869.149,3179.57C870.364,3180.02 871.585,3180.43 872.812,3180.82C904.979,3190.84 939.506,3186.6 952.923,3184.3C953.559,3176.09 954.516,3158.31 954.516,3125.76C954.516,3090.87 946.477,3072.11 933.969,3062.35C921.614,3052.71 905.598,3052.12 891.393,3052.06C864.917,3051.95 832.795,3067.03 803.938,3093.74C803.938,3093.74 814.382,3103.8 814.382,3103.8C848.687,3077.05 882.928,3070.03 902.888,3069.88C910.02,3069.82 915.531,3070.67 918.938,3071.76C921.541,3072.59 923.366,3073.71 924.513,3074.7C928.697,3078.34 932.943,3085.82 935.68,3097.37C939.098,3111.79 940.699,3133.41 938.654,3161.58L938.22,3167.55L932.416,3169.02C912.845,3173.96 896.385,3173.17 880.416,3168.8L869.149,3179.57Z"/>
        </symbol>
        <symbol id="Border-F4-1">
            <path d="M102.258,527.275C109.854,515.757 117.598,505.432 125.587,497.055C125.506,495.314 125.472,493.521 125.472,491.663C125.472,469.284 129.587,460.931 155.653,433.673L136.229,408.914C101.536,445.192 94.222,461.878 94.222,491.663C94.222,512.139 98.294,522.261 102.258,527.275Z" />
            <path fill="black" d="M102.258,527.275C109.854,515.757 117.598,505.432 125.587,497.055C125.506,495.314 125.472,493.521 125.472,491.663C125.472,469.284 129.587,460.931 155.653,433.673L136.229,408.914C101.536,445.192 94.222,461.878 94.222,491.663C94.222,512.139 98.294,522.261 102.258,527.275ZM104.071,509.946C103.166,505.289 102.614,499.313 102.614,491.663C102.614,465.886 108.908,450.841 135.656,421.781C135.656,421.781 144.587,433.165 144.587,433.165C120.567,458.943 117.079,468.664 117.079,491.663C117.079,492.405 117.085,493.138 117.096,493.862C112.692,498.71 108.353,504.109 104.071,509.945L104.071,509.946Z"/>
        </symbol>
        <symbol id="Primary-Border-Deco-1" >
            <g transform="matrix(0.943303,0,0,0.943303,-518,954)">
                <use href="#Border-B-1"   transform="matrix(1,0,0,1,554.28,510.967)"/>
                <use href="#Border-B-1"   transform="matrix(-1,0,0,-1,899,891)"/>
                <use href="#Border-D8-1"   transform="matrix(1.0601,0,0,1.0601,616,360)"/>
                <use href="#Border-D7-1"   transform="matrix(1.0601,0,0,1.0601,616,360)"/>
                <use href="#Border-D3-1"   transform="matrix(1.0601,0,0,1.0601,616,278)"/>
                <use href="#Border-D2-1"   transform="matrix(1.0601,0,0,1.0601,616,360)"/>
                <use href="#Border-D1-1"   transform="matrix(1.0601,0,0,1.0601,616,360)"/>
            </g>
        </symbol>  
        <symbol id="Primary-Border-Main">
            <g transform="matrix(0.943303,0,0,0.943303,-253.719,319.878)">
            <use href="#Border-B-1"  transform="matrix(1,0,0,1,562,0)"/>
            <use href="#Border-B-1"   transform="matrix(-1,0,0,-1,900,800)"/>
            <use href="#Border-A-1"   transform="matrix(1,0,0,1,565,-93)"/>
            </g>
        </symbol> 
        <symbol id="Primary-Border-Fragment-1">
            <g transform="matrix(0.943303,0,0,0.943303,-253.719,319.878)">
            <use href="#Border-B-1"   transform="matrix(-1,0,0,-1,900,800)"/>
            <use href="#Border-A-1"   transform="matrix(1,0,0,1,565,-93)"/>
            </g>
        </symbol>   
        <symbol id="Primary-Border-Fragment-2">
            <g transform="matrix(0.943303,0,0,0.943303,-253.719,319.878)">
            <use href="#Border-B-1"  transform="matrix(1,0,0,1,562,0)"/>
            <use href="#Border-A-1"   transform="matrix(1,0,0,1,565,-93)"/>
            </g>
        </symbol>   
        <symbol id="Primary-Border-Corner-1">
            <g transform="matrix(0.943303,0,0,0.943303,-522.448,-496.264)">
            <use href="#Border-B-1"  transform="matrix(1,0,0,1,562,325)"/>
            <use href="#Border-C3-1"  transform="matrix(0,1,1.02582,0,255,528)"/>
            <use href="#Border-C4-1"  transform="matrix(1.02582,0,0,1,558,48)"/>
            <use href="#Border-B-1"  transform="matrix(0,-1,1,0,361,858)"/>
            </g>
        </symbol>  
        <symbol id="Primary-Border-Corner-2">
            <g transform="matrix(0.943303,0,0,0.943303,-522.448,-496.264)">
            <use href="#Border-C1-1"   transform="matrix(1.02582,0,0,1,558,325)"/>
            <use href="#Border-C2-1"   transform="matrix(1.02582,0,0,1,558,141)"/>
            </g>
        </symbol>   
        <symbol id="Primary-Border-Cap-1">
            <g>
                <use href="#Border-E1-1"  transform="matrix(0.954799,0,0,0.954799,49,128)"/>
            </g>
        </symbol>  
        <symbol id="Primary-Border-Cap-2">
            <g>
            <use href="#Border-F1-1"  transform="matrix(0,0.943303,0.943303,0,339,2947)"/>
            <use href="#Border-F3-1"  transform="matrix(0.954799,0,0,0.954799,49,122)"/>
            <use href="#Border-B-1"  transform="matrix(0,-0.943303,-0.943303,0,1178.81,3262.84)"/>
            </g>
        </symbol>    
    
        <symbol id="Primary-Border-TopCorner">
            <use href="#Primary-Border-Cap-2" transform="matrix(1,0,0,-1,90,3271.84)"/>
            <g id="Primary-border-top">
                <use href="#Primary-Border-Main" transform="matrix(0,-1,1,0,-326.969,604.734)"/>
                <use href="#Primary-Border-Main" transform="matrix(0,-1,1,0,-153.347,604.734)"/>
                <use href="#Primary-Border-Main" transform="matrix(0,-1,1,0,20.2749,604.734)"/>
            </g>
            <use href="#Primary-Border-Corner-1" transform="matrix(1,0,0,1,0.3565,14.9914)"/>
            <g id="Primary-border-sidetop">
                <use href="#Primary-Border-Main" transform="matrix(1,0,0,1,-268,-326)"/>
                <use href="#Primary-Border-Main" transform="matrix(1,0,0,1,-268,-154)"/>
                <use href="#Primary-Border-Main" transform="matrix(1,0,0,1,-268, 19)"/>
                <use href="#Primary-Border-Main" transform="matrix(1,0,0,1,-268, 193)"/>
                <use href="#Primary-Border-Main" transform="matrix(1,0,0,1,-268, 366)"/>
                <use href="#Primary-Border-Main" transform="matrix(1,0,0,1,-268, 540)"/>
            </g>
        </symbol>
        <symbol id="Primary-Border-BottomCorner">
            <g id="Primary-border-sidebottom">
                <use href="#Primary-Border-Main" transform="matrix(1,0,0,1,-268,1278)"/>
                <use href="#Primary-Border-Main" transform="matrix(1,0,0,1,-268,1450)"/>
                <use href="#Primary-Border-Main" transform="matrix(1,0,0,1,-268,1625)"/>
                <use href="#Primary-Border-Main" transform="matrix(1,0,0,1,-268,1800)"/>
                <use href="#Primary-Border-Main" transform="matrix(1,0,0,1,-268,1972)"/>
                <use href="#Primary-Border-Main" transform="matrix(1,0,0,1,-268,2145)"/>
                <use href="#Primary-Border-Fragment-1" transform="matrix(1,0,0,1,-268.3,2320.02)"/>
            </g>
            <use href="#Primary-Border-Corner-2" transform="matrix(0,-1,1,0,13.6434,3298.19)"/>
            <use href="#Primary-Border-Cap-1" transform="matrix(1,0,0,1,20.2749,28.1801)"/>
            <g id="Primary-border-bottom">
                <use href="#Primary-Border-Fragment-1" transform="matrix(0,1,-1,0,983.261,2695.27)"/>
                <use href="#Primary-Border-Main" transform="matrix(0,1,-1,0,1157.46,2695.27)"/>
                <use href="#Primary-Border-Main" transform="matrix(0,1,-1,0,1331.53,2695.27)"/>
                <use href="#Primary-Border-Fragment-2" transform="matrix(0,1,-1,0,1505.44,2695.27)"/>

            </g>
        </symbol>
    </defs>

    <g> 
        <use href="#Primary-Border-TopCorner"               transform="matrix( 1,0,0,1,-5,0)"/>
        <use href="#Primary-Border-Deco-1"                  transform="matrix( 1,0,0,1,-5,0)"/>
        <use href="#Primary-Border-Deco-Special-Griffon"    transform="matrix( 1,0,0,1,-5,0)"/>
        <use href="#Primary-Border-BottomCorner"            transform="matrix( 1,0,0,1,-5,0)"/>
        <use href="#Primary-Border-TopCorner"               transform="matrix(-1,0,0,1,2555,0)"/>
        <use href="#Primary-Border-Deco-1"                  transform="matrix(-1,0,0,1,2555,0)"/>
        <use href="#Primary-Border-Deco-Special-Griffon"    transform="matrix(-1,0,0,1,2555,0)"/>
        <use href="#Primary-Border-BottomCorner"            transform="matrix(-1,0,0,1,2555,0)"/>
    </g>
</svg>