<?xml version="1.0" encoding="UTF-8" standalone="no"?>
<!DOCTYPE svg PUBLIC "-//W3C//DTD SVG 1.1//EN" "http://www.w3.org/Graphics/SVG/1.1/DTD/svg11.dtd">
<svg width="377" height="151" viewBox="0 0 377 151" xmlns="http://www.w3.org/2000/svg" xml:space="preserve" style="fill:black;fill-rule:evenodd;clip-rule:evenodd;stroke-linejoin:round;stroke-miterlimit:2">
  <path d="M215.934 80.455c-1.267.078-2.531.14-3.797.189-26.589 1.026-56.617-1.712-85.536-6.012C60.337 64.778 0 46.789 0 46.789s59.667 20.685 125.632 33.49c29.196 5.668 59.594 9.764 86.661 9.914a195.61 195.61 0 0 0 8.398-.138 111.655 111.655 0 0 0 10.937 16.162c18.06 22.266 42.808 35.97 63.852 41.601 14.597 3.906 27.505 4.015 35.732 1.186 25.068-8.618 40.774-30.642 44.12-51.425 3-18.635-3.361-36.015-19.885-43.343-4.538-2.013-10.686-2.667-18.249-1.691-20.99 2.709-55.714 17.614-94.395 24.599-8.815-18.385-11.811-41.744-4.166-70.199L210.31 0c-7.153 32.233-3.75 58.927 5.624 80.455Zm32.634 6.857a85.79 85.79 0 0 0 2.62 3.744c13.853 18.709 33.481 30.652 50.35 35.973 9.528 3.006 17.976 4.239 23.493 2.611 14.806-4.37 25.393-15.346 30.405-27.256 5.575-13.25 4.961-27.982-6.734-33.8-5.039-2.506-13.51-.892-24.431 1.494-18.335 4.006-42.264 11.435-68.398 16.035a314.68 314.68 0 0 1-7.305 1.199Z"/>
</svg>