<?xml version="1.0" encoding="UTF-8" standalone="no"?>
<!DOCTYPE svg PUBLIC "-//W3C//DTD SVG 1.1//EN" "http://www.w3.org/Graphics/SVG/1.1/DTD/svg11.dtd">
<svg width="100%" height="100%" viewBox="0 0 423 363" version="1.1" xmlns="http://www.w3.org/2000/svg" xmlns:xlink="http://www.w3.org/1999/xlink" xml:space="preserve" xmlns:serif="http://www.serif.com/" style="fill-rule:evenodd;clip-rule:evenodd;stroke-linejoin:round;stroke-miterlimit:2;">
    <g transform="matrix(1,0,0,1,-1948.02,-583.951)">
        <path d="M2005.41,819.829C1988.29,789.549 1967.21,792.411 1956.09,805.278C1943.81,819.488 1943.27,846.083 1970.65,858.232C1996.84,869.795 2019.65,874.498 2041.75,871.2C2063.17,868.003 2083.95,857.22 2106.53,837.399C2121.52,824.164 2148.75,829.066 2177.11,838.56C2228.43,855.744 2283.11,891.274 2283.11,891.274L2370.11,946.065L2295.16,875.679C2295.16,875.679 2267.17,848.389 2257.71,807.17C2252.64,785.11 2252.52,758.971 2265.76,730.306C2282.32,691.832 2286.63,662.03 2284.8,639.53C2281.59,600.062 2260.84,583.951 2260.84,583.951C2260.84,583.951 2278,601.808 2276.7,639.72C2275.98,660.925 2269.58,688.404 2250.6,722.892C2233.79,755.444 2232.14,785.918 2237.57,811.612C2240.86,827.169 2246.69,840.929 2253.05,852.41C2226.93,839.371 2192.27,824.273 2161.67,818.233C2135.23,813.013 2111.72,814.775 2097.9,828.025C2078.08,847.135 2059.61,858.066 2040.14,861.907C2019.57,865.963 1998.04,862.265 1972.99,852.575C1948.74,843.257 1948.45,820.068 1958.46,807.221C1968.34,794.538 1987.79,792.059 2005.41,819.829Z"/>
    </g>
</svg>
