<?xml version="1.0" encoding="UTF-8" standalone="no"?>
<!DOCTYPE svg PUBLIC "-//W3C//DTD SVG 1.1//EN" "http://www.w3.org/Graphics/SVG/1.1/DTD/svg11.dtd">
<svg width="557" height="153" viewBox="0 0 557 153" xmlns="http://www.w3.org/2000/svg" xml:space="preserve" style="fill-rule:evenodd;clip-rule:evenodd;stroke-linejoin:round;stroke-miterlimit:2">
  <path d="M197.679 74.326c14.615 17.952 21.107 40.878 10.909 68.711l27.547 9.585c10.556-32.01 5.905-58.986-7.708-81.011 4.078-.232 8.164-.406 12.258-.518 39.495-1.083 84.011 1.549 126.902 5.747 98.999 9.688 189.257 27.673 189.257 27.673s-89.763-20.95-188.546-33.884c-43.096-5.643-87.883-9.746-127.729-9.955a435.71 435.71 0 0 0-19.657.351c-3.203-3.978-6.706-7.763-10.463-11.362C169.015 9.987 95.399-5.283 65.692 1.592 30.885 9.647 8.911 30.257 2.389 49.661c-6.839 20.349.634 40.557 27.235 48.476 5.96 1.774 14.1 2.21 24.086 1.336 31.822-2.785 85.049-18.218 143.969-25.147Zm-10.404-10.88C152.256 31.702 94.531 17.557 70.144 22.368c-21.298 4.201-37.041 13.977-45.356 25.331-4.986 6.809-7.406 13.985-5.608 20.323 1.702 5.996 6.992 10.738 15.647 13.625 4.341 1.448 10.341 1.667 17.705 1.264 30.1-1.647 79.597-13.884 134.743-19.465Z"/>
</svg>
